<?xml version="1.0" encoding="UTF-8"?>
<!DOCTYPE svg PUBLIC "-//W3C//DTD SVG 1.1//EN" "http://www.w3.org/Graphics/SVG/1.1/DTD/svg11.dtd">
<!-- Creator: CorelDRAW 2020 (64-Bit) -->
<svg xmlns="http://www.w3.org/2000/svg" xml:space="preserve" width="9.44882in" height="9.44882in" version="1.1" style="shape-rendering:geometricPrecision; text-rendering:geometricPrecision; image-rendering:optimizeQuality; fill-rule:evenodd; clip-rule:evenodd"
viewBox="0 0 9448.82 9448.82"
 xmlns:xlink="http://www.w3.org/1999/xlink"
 xmlns:xodm="http://www.corel.com/coreldraw/odm/2003">
 <defs>
  <style type="text/css">
   <![CDATA[
    .fil0 {fill:#B15760;fill-rule:nonzero}
   ]]>
  </style>
 </defs>
 <g id="Layer_x0020_1">
  <metadata id="CorelCorpID_0Corel-Layer"/>
  <g id="_1916494519136">
   <g>
    <path class="fil0" d="M1333.22 7630.21l6777.81 0 0 98.42 -6777.81 0 -47.45 -36.19 47.45 -62.23zm0 98.42c-27.18,0 -49.21,-22.03 -49.21,-49.21 0,-27.18 22.03,-49.21 49.21,-49.21l0 98.42zm-124.59 -689.09l172.04 626.86 -94.91 26.05 -172.04 -626.86 47.45 -62.23 47.45 36.19zm-94.91 26.05c-7.19,-26.2 8.22,-53.29 34.43,-60.48 26.2,-7.19 53.29,8.22 60.48,34.43l-94.91 26.05zm7169.36 36.19l-7121.91 0 0 -98.42 7121.91 0 47.45 62.23 -47.45 36.19zm0 -98.42c27.18,0 49.21,22.03 49.21,49.21 0,27.18 -22.03,49.21 -49.21,49.21l0 -98.42zm-219.51 663.04l172.06 -626.86 94.91 26.05 -172.06 626.86 -47.45 36.19 -47.45 -62.23zm94.91 26.05c-7.19,26.2 -34.27,41.62 -60.48,34.43 -26.2,-7.19 -41.62,-34.27 -34.43,-60.48l94.91 26.05z"/>
   </g>
   <g>
    <path class="fil0" d="M4722.11 3177.11l0 -98.42 0 0 182.58 4.62 180.22 13.7 177.62 22.57 174.78 31.21 171.72 39.63 168.43 47.83 164.92 55.8 161.18 63.55 157.22 71.07 153.04 78.38 148.62 85.46 143.99 92.31 139.14 98.94 134.06 105.35 128.76 111.53 123.25 117.5 117.5 123.24 111.54 128.76 105.35 134.06 98.94 139.13 92.31 143.99 85.46 148.62 78.38 153.03 71.08 157.22 63.55 161.18 55.8 164.92 47.83 168.43 39.63 171.71 31.22 174.78 22.57 177.61 13.7 180.21 4.62 182.57 -98.42 0 -4.49 -177.61 -13.32 -175.25 -21.94 -172.68 -30.34 -169.91 -38.53 -166.93 -46.49 -163.72 -54.24 -160.31 -61.78 -156.67 -69.09 -152.83 -76.2 -148.78 -83.09 -144.49 -89.75 -140 -96.2 -135.28 -102.44 -130.36 -108.46 -125.2 -114.26 -119.85 -119.85 -114.26 -125.21 -108.46 -130.36 -102.44 -135.29 -96.2 -140 -89.75 -144.5 -83.08 -148.78 -76.2 -152.84 -69.09 -156.68 -61.78 -160.31 -54.24 -163.72 -46.49 -166.93 -38.52 -169.91 -30.35 -172.69 -21.94 -175.26 -13.32 -177.62 -4.49 0 0zm0 0c-27.18,0 -49.21,-22.03 -49.21,-49.21 0,-27.18 22.03,-49.21 49.21,-49.21l0 98.42zm-3499.72 3401.29l0 98.42 -49.21 -49.21 4.62 -182.57 13.7 -180.22 22.57 -177.61 31.21 -174.78 39.63 -171.72 47.83 -168.43 55.8 -164.92 63.55 -161.18 71.08 -157.22 78.38 -153.03 85.45 -148.62 92.31 -143.99 98.94 -139.13 105.35 -134.06 111.54 -128.76 117.5 -123.24 123.24 -117.5 128.76 -111.54 134.06 -105.35 139.14 -98.94 143.98 -92.31 148.63 -85.45 153.03 -78.38 157.21 -71.07 161.18 -63.55 164.92 -55.8 168.43 -47.83 171.71 -39.63 174.78 -31.21 177.61 -22.57 180.21 -13.7 182.57 -4.62 0 98.42 -177.61 4.49 -175.25 13.32 -172.68 21.94 -169.91 30.35 -166.92 38.52 -163.72 46.49 -160.31 54.24 -156.67 61.78 -152.83 69.09 -148.77 76.2 -144.49 83.08 -140 89.75 -135.29 96.2 -130.36 102.44 -125.21 108.46 -119.84 114.26 -114.26 119.85 -108.46 125.2 -102.44 130.36 -96.21 135.28 -89.75 140 -83.08 144.49 -76.2 148.78 -69.09 152.83 -61.78 156.67 -54.24 160.31 -46.49 163.72 -38.52 166.92 -30.34 169.91 -21.95 172.69 -13.32 175.25 -4.49 177.61 -49.21 -49.21zm49.21 49.21c0,27.18 -22.03,49.21 -49.21,49.21 -27.18,0 -49.21,-22.03 -49.21,-49.21l98.42 0zm6950.28 49.21l-6999.49 0 0 -98.42 6999.49 0 49.21 49.21 -49.21 49.21zm0 -98.42c27.18,0 49.21,22.03 49.21,49.21 0,27.18 -22.03,49.21 -49.21,49.21l0 -98.42z"/>
   </g>
   <g>
    <path class="fil0" d="M4722.11 3165.99l0 -98.42 0 0 32.07 -0.81 31.62 -2.4 31.14 -3.96 30.63 -5.47 30.09 -6.94 29.51 -8.38 28.89 -9.78 28.25 -11.13 27.54 -12.46 26.83 -13.74 26.05 -14.98 25.25 -16.19 24.4 -17.35 23.52 -18.48 22.59 -19.57 21.62 -20.61 20.61 -21.62 19.57 -22.59 18.48 -23.51 17.35 -24.4 16.19 -25.25 14.98 -26.05 13.74 -26.82 12.46 -27.55 11.13 -28.24 9.78 -28.9 8.38 -29.5 6.94 -30.09 5.47 -30.64 3.96 -31.14 2.4 -31.62 0.81 -32.07 98.42 0 -0.94 37.04 -2.78 36.58 -4.58 36.07 -6.34 35.5 -8.05 34.89 -9.72 34.22 -11.34 33.5 -12.91 32.74 -14.44 31.94 -15.91 31.08 -17.35 30.19 -18.75 29.24 -20.08 28.25 -21.39 27.22 -22.65 26.14 -23.85 25.02 -25.02 23.85 -26.14 22.64 -27.22 21.39 -28.25 20.09 -29.24 18.74 -30.19 17.35 -31.08 15.92 -31.94 14.44 -32.74 12.91 -33.5 11.34 -34.22 9.72 -34.88 8.05 -35.5 6.34 -36.07 4.58 -36.58 2.78 -37.04 0.94 0 0zm0 0c-27.18,0 -49.21,-22.03 -49.21,-49.21 0,-27.18 22.03,-49.21 49.21,-49.21l0 98.42zm-720.59 -720.67l98.42 0 0 0 0.81 32.07 2.4 31.62 3.96 31.14 5.47 30.64 6.94 30.09 8.38 29.51 9.77 28.89 11.14 28.24 12.46 27.55 13.73 26.82 14.98 26.05 16.19 25.25 17.35 24.4 18.48 23.51 19.57 22.59 20.61 21.62 21.62 20.61 22.59 19.56 23.51 18.48 24.4 17.35 25.24 16.19 26.06 14.98 26.82 13.74 27.54 12.46 28.24 11.13 28.89 9.78 29.5 8.38 30.08 6.94 30.63 5.47 31.14 3.96 31.61 2.4 32.07 0.81 0 98.42 -37.03 -0.94 -36.58 -2.78 -36.06 -4.58 -35.5 -6.34 -34.88 -8.05 -34.21 -9.72 -33.5 -11.34 -32.74 -12.91 -31.93 -14.44 -31.08 -15.92 -30.18 -17.35 -29.24 -18.74 -28.25 -20.09 -27.21 -21.39 -26.14 -22.64 -25.01 -23.85 -23.85 -25.02 -22.64 -26.14 -21.39 -27.21 -20.09 -28.25 -18.74 -29.24 -17.35 -30.19 -15.92 -31.08 -14.43 -31.94 -12.91 -32.74 -11.34 -33.51 -9.71 -34.22 -8.05 -34.89 -6.34 -35.5 -4.58 -36.07 -2.78 -36.58 -0.94 -37.04 0 0zm0 0c0,-27.18 22.03,-49.21 49.21,-49.21 27.18,0 49.21,22.03 49.21,49.21l-98.42 0zm720.59 -720.61l0 98.42 0 0 -32.06 0.81 -31.61 2.41 -31.14 3.96 -30.63 5.47 -30.08 6.94 -29.5 8.38 -28.89 9.78 -28.24 11.14 -27.54 12.45 -26.82 13.74 -26.06 14.98 -25.24 16.19 -24.4 17.35 -23.51 18.48 -22.59 19.56 -21.62 20.61 -20.61 21.62 -19.57 22.59 -18.48 23.51 -17.35 24.4 -16.19 25.25 -14.98 26.05 -13.73 26.82 -12.46 27.55 -11.14 28.24 -9.78 28.89 -8.38 29.51 -6.94 30.09 -5.47 30.63 -3.96 31.14 -2.4 31.61 -0.81 32.07 -98.42 0 0.94 -37.03 2.78 -36.58 4.58 -36.06 6.34 -35.5 8.05 -34.87 9.72 -34.22 11.33 -33.5 12.91 -32.74 14.43 -31.93 15.92 -31.09 17.35 -30.18 18.74 -29.23 20.09 -28.25 21.39 -27.22 22.64 -26.13 23.85 -25.02 25.01 -23.85 26.14 -22.64 27.21 -21.39 28.25 -20.09 29.24 -18.74 30.18 -17.35 31.08 -15.92 31.93 -14.44 32.74 -12.91 33.5 -11.33 34.21 -9.72 34.88 -8.05 35.5 -6.34 36.06 -4.58 36.57 -2.78 37.03 -0.94 0 0zm0 0c27.18,0 49.21,22.03 49.21,49.21 0,27.18 -22.03,49.21 -49.21,49.21l0 -98.42zm720.67 720.61l-98.42 0 0 0 -0.81 -32.07 -2.4 -31.61 -3.96 -31.14 -5.47 -30.63 -6.94 -30.09 -8.38 -29.5 -9.78 -28.89 -11.13 -28.24 -12.46 -27.55 -13.74 -26.83 -14.98 -26.05 -16.19 -25.25 -17.35 -24.4 -18.48 -23.51 -19.57 -22.59 -20.61 -21.62 -21.62 -20.61 -22.59 -19.57 -23.52 -18.48 -24.4 -17.35 -25.25 -16.19 -26.06 -14.98 -26.83 -13.74 -27.54 -12.45 -28.25 -11.14 -28.89 -9.78 -29.51 -8.38 -30.09 -6.94 -30.63 -5.47 -31.15 -3.96 -31.62 -2.41 -32.07 -0.81 0 -98.42 37.04 0.94 36.57 2.78 36.07 4.58 35.5 6.34 34.88 8.05 34.22 9.72 33.5 11.33 32.74 12.91 31.94 14.44 31.08 15.92 30.18 17.35 29.24 18.74 28.25 20.09 27.22 21.39 26.14 22.64 25.02 23.85 23.85 25.02 22.65 26.14 21.39 27.22 20.08 28.25 18.75 29.23 17.35 30.18 15.91 31.08 14.44 31.93 12.91 32.74 11.34 33.5 9.72 34.22 8.05 34.87 6.34 35.5 4.58 36.06 2.78 36.58 0.94 37.03 0 0zm0 0c0,27.18 -22.03,49.21 -49.21,49.21 -27.18,0 -49.21,-22.03 -49.21,-49.21l98.42 0z"/>
   </g>
   <g>
    <path class="fil0" d="M550.78 7101.77c-27.18,0 -49.21,-22.03 -49.21,-49.21 0,-27.18 22.03,-49.21 49.21,-49.21l0 98.42zm8342.76 0l-8342.76 0 0 -98.42 8342.76 0 0 98.42zm0 -98.42c27.18,0 49.21,22.03 49.21,49.21 0,27.18 -22.03,49.21 -49.21,49.21l0 -98.42z"/>
   </g>
   <g>
    <path class="fil0" d="M5767.82 4047.44l0 0 0 0 0 0 -34.8 34.8 34.8 -34.8zm-34.8 34.8c-19.22,-19.22 -19.22,-50.37 0,-69.59 19.22,-19.22 50.37,-19.22 69.59,0l-69.59 69.59zm-850.78 0.01l-69.57 -69.61 -0.02 0.02 26.07 -24.8 27.03 -23.22 27.92 -21.63 28.73 -20.03 29.48 -18.43 30.17 -16.83 30.8 -15.23 31.35 -13.62 31.85 -12.02 32.28 -10.41 32.65 -8.81 32.96 -7.21 33.2 -5.61 33.39 -4 33.5 -2.4 33.57 -0.8 33.57 0.8 33.5 2.4 33.39 4 33.2 5.61 32.96 7.21 32.65 8.81 32.28 10.41 31.85 12.02 31.36 13.62 30.8 15.23 30.18 16.83 29.49 18.43 28.74 20.03 27.92 21.63 27.04 23.22 26.08 24.8 -69.59 69.59 -22.48 -21.38 -23.26 -19.97 -23.99 -18.59 -24.69 -17.2 -25.31 -15.83 -25.91 -14.44 -26.44 -13.07 -26.92 -11.69 -27.35 -10.32 -27.73 -8.95 -28.06 -7.57 -28.32 -6.19 -28.55 -4.82 -28.7 -3.44 -28.82 -2.06 -28.87 -0.69 -28.87 0.69 -28.82 2.06 -28.7 3.44 -28.54 4.82 -28.33 6.19 -28.05 7.57 -27.73 8.95 -27.35 10.32 -26.91 11.69 -26.43 13.07 -25.9 14.44 -25.32 15.83 -24.68 17.2 -23.99 18.58 -23.25 19.97 -22.48 21.38 -0.02 0.02zm0.02 -0.02c-19.21,19.22 -50.37,19.22 -69.59,0.01 -19.22,-19.21 -19.22,-50.37 -0.01,-69.59l69.6 69.58zm-194.94 55.69l125.36 -125.28 69.57 69.61 -125.36 125.28 -69.58 -0.01 0.01 -69.6zm69.57 69.61c-19.22,19.21 -50.38,19.2 -69.59,-0.02 -19.21,-19.22 -19.2,-50.38 0.02,-69.59l69.57 69.61zm-125.27 -194.89l125.28 125.28 -69.59 69.59 -125.28 -125.28 0 0 69.59 -69.59zm-69.59 69.59c-19.22,-19.22 -19.22,-50.37 0,-69.59 19.22,-19.22 50.37,-19.22 69.59,0l-69.59 69.59zm-850.77 0l-69.58 -69.6 -0 0 26.08 -24.8 27.03 -23.22 27.93 -21.63 28.73 -20.03 29.48 -18.43 30.18 -16.83 30.8 -15.23 31.35 -13.62 31.85 -12.02 32.28 -10.41 32.65 -8.81 32.96 -7.21 33.2 -5.61 33.39 -4 33.5 -2.4 33.56 -0.8 33.56 0.8 33.5 2.4 33.39 4 33.2 5.61 32.96 7.21 32.65 8.81 32.28 10.41 31.85 12.02 31.35 13.62 30.8 15.23 30.18 16.83 29.48 18.43 28.73 20.03 27.93 21.63 27.03 23.22 26.08 24.8 -69.59 69.59 -22.48 -21.38 -23.26 -19.97 -24 -18.59 -24.69 -17.2 -25.32 -15.83 -25.9 -14.44 -26.44 -13.07 -26.91 -11.69 -27.35 -10.32 -27.72 -8.95 -28.05 -7.57 -28.33 -6.19 -28.54 -4.82 -28.7 -3.44 -28.82 -2.06 -28.87 -0.69 -28.87 0.69 -28.82 2.06 -28.7 3.44 -28.54 4.82 -28.33 6.19 -28.05 7.57 -27.72 8.95 -27.35 10.32 -26.91 11.69 -26.44 13.07 -25.9 14.44 -25.32 15.83 -24.69 17.2 -24 18.59 -23.26 19.97 -22.48 21.38 -0 0zm0 -0c-19.22,19.22 -50.37,19.22 -69.59,0 -19.22,-19.22 -19.22,-50.37 0,-69.59l69.59 69.59zm-34.8 -34.8l0 0 0 0 0 0 34.79 34.8 -34.79 -34.8zm34.8 34.8c-19.22,19.22 -50.37,19.22 -69.59,0 -19.22,-19.22 -19.22,-50.37 0,-69.59l69.59 69.59zm0 850.69l-69.59 69.59 0 0 -24.79 -26.08 -23.22 -27.04 -21.62 -27.92 -20.03 -28.73 -18.43 -29.49 -16.83 -30.18 -15.22 -30.8 -13.62 -31.36 -12.02 -31.85 -10.42 -32.28 -8.81 -32.65 -7.21 -32.95 -5.61 -33.2 -4 -33.38 -2.41 -33.5 -0.8 -33.57 0.8 -33.56 2.41 -33.5 4 -33.38 5.61 -33.2 7.21 -32.95 8.81 -32.65 10.41 -32.28 12.02 -31.85 13.62 -31.35 15.22 -30.8 16.83 -30.17 18.43 -29.48 20.03 -28.73 21.62 -27.92 23.22 -27.03 24.79 -26.07 69.58 69.6 -21.37 22.48 -19.97 23.26 -18.58 23.99 -17.21 24.68 -15.82 25.31 -14.44 25.89 -13.07 26.43 -11.69 26.91 -10.32 27.35 -8.95 27.72 -7.57 28.05 -6.2 28.33 -4.82 28.53 -3.44 28.71 -2.07 28.81 -0.69 28.86 0.69 28.87 2.07 28.81 3.44 28.71 4.82 28.54 6.2 28.32 7.57 28.06 8.94 27.72 10.32 27.35 11.69 26.92 13.07 26.43 14.44 25.9 15.82 25.31 17.2 24.69 18.58 24 19.97 23.26 21.37 22.48 0 0zm0 0c19.22,19.22 19.22,50.37 0,69.59 -19.22,19.22 -50.37,19.22 -69.59,0l69.59 -69.59zm55.77 194.95l-125.36 -125.36 69.59 -69.59 125.36 125.36 -69.59 69.59zm69.59 -69.59c19.22,19.22 19.22,50.37 0,69.59 -19.22,19.22 -50.37,19.22 -69.59,0l69.59 -69.59zm850.69 989.87l-920.28 -920.28 69.59 -69.59 920.28 920.28 0 69.59 -69.59 0zm69.59 -69.59c19.22,19.22 19.22,50.37 0,69.59 -19.22,19.22 -50.37,19.22 -69.59,0l69.59 -69.59zm920.35 -850.69l-920.35 920.28 -69.59 -69.59 920.35 -920.28 69.59 69.59zm-69.59 -69.59c19.22,-19.22 50.37,-19.22 69.59,0 19.22,19.22 19.22,50.37 0,69.59l-69.59 -69.59zm194.95 -55.77l-125.36 125.36 -69.59 -69.59 125.36 -125.36 69.59 69.59 -0 0zm-69.59 -69.59c19.22,-19.22 50.37,-19.22 69.59,0 19.22,19.22 19.22,50.37 0,69.59l-69.59 -69.59zm0 -850.69l69.59 -69.59 0 0 24.79 26.07 23.2 27.03 21.62 27.92 20.02 28.73 18.43 29.48 16.83 30.17 15.22 30.8 13.62 31.35 12.02 31.85 10.41 32.28 8.81 32.64 7.21 32.95 5.61 33.2 4 33.38 2.4 33.5 0.8 33.56 -0.8 33.57 -2.4 33.5 -4 33.38 -5.61 33.2 -7.21 32.95 -8.81 32.65 -10.41 32.28 -12.02 31.85 -13.62 31.35 -15.22 30.8 -16.83 30.18 -18.43 29.49 -20.02 28.73 -21.62 27.93 -23.2 27.03 -24.79 26.08 -69.6 -69.58 21.37 -22.48 19.97 -23.26 18.58 -24 17.2 -24.69 15.82 -25.31 14.44 -25.9 13.06 -26.43 11.7 -26.92 10.31 -27.35 8.94 -27.73 7.57 -28.05 6.19 -28.33 4.82 -28.54 3.44 -28.7 2.06 -28.82 0.69 -28.87 -0.69 -28.86 -2.06 -28.82 -3.44 -28.7 -4.82 -28.54 -6.19 -28.32 -7.57 -28.05 -8.94 -27.72 -10.31 -27.35 -11.69 -26.91 -13.06 -26.43 -14.44 -25.89 -15.82 -25.31 -17.2 -24.68 -18.58 -23.99 -19.97 -23.26 -21.37 -22.48 0 0zm0 0c-19.22,-19.22 -19.22,-50.37 0,-69.59 19.22,-19.22 50.37,-19.22 69.59,0l-69.59 69.59z"/>
   </g>
   <g>
    <path class="fil0" d="M2206.9 5254.43l-97.64 12.35 22.28 -47.61 27.28 -16.89 27.76 -16.02 28.2 -15.15 28.63 -14.26 29.04 -13.37 29.43 -12.46 29.78 -11.56 30.13 -10.63 30.44 -9.71 30.74 -8.77 31 -7.82 31.26 -6.87 31.48 -5.91 31.68 -4.93 31.86 -3.96 32.02 -2.97 32.15 -1.97 32.26 -0.96 32.35 0.06 32.41 1.08 32.45 2.11 32.48 3.15 32.47 4.2 32.43 5.27 32.39 6.33 32.3 7.41 32.21 8.5 32.07 9.59 31.93 10.69 31.76 11.8 31.55 12.91 31.33 14.04 -41.7 89.14 -28.39 -12.72 -28.57 -11.69 -28.73 -10.67 -28.88 -9.67 -29.01 -8.67 -29.11 -7.68 -29.2 -6.7 -29.27 -5.72 -29.31 -4.76 -29.33 -3.8 -29.35 -2.85 -29.33 -1.91 -29.3 -0.98 -29.24 -0.05 -29.17 0.87 -29.07 1.78 -28.96 2.69 -28.83 3.58 -28.67 4.47 -28.49 5.34 -28.29 6.22 -28.07 7.08 -27.82 7.94 -27.56 8.79 -27.28 9.63 -26.97 10.46 -26.65 11.29 -26.3 12.11 -25.93 12.91 -25.54 13.71 -25.13 14.5 -24.7 15.29 22.28 -47.61zm-22.28 47.61c-22.88,14.66 -53.32,7.99 -67.98,-14.89 -14.66,-22.88 -7.99,-53.32 14.89,-67.98l53.09 82.87zm552.63 682.69l-41.71 89.14 -0 -0 -30.85 -15.06 -30.14 -15.95 -29.41 -16.82 -28.67 -17.67 -27.92 -18.48 -27.16 -19.28 -26.39 -20.06 -25.61 -20.8 -24.83 -21.53 -24.03 -22.23 -23.24 -22.91 -22.42 -23.56 -21.59 -24.19 -20.77 -24.8 -19.93 -25.39 -19.09 -25.94 -18.24 -26.48 -17.37 -27 -16.51 -27.48 -15.64 -27.95 -14.75 -28.39 -13.86 -28.82 -12.96 -29.22 -12.05 -29.58 -11.14 -29.94 -10.22 -30.28 -9.29 -30.58 -8.35 -30.86 -7.4 -31.12 -6.45 -31.36 -5.49 -31.57 -4.52 -31.77 97.64 -12.35 4.09 28.77 4.97 28.59 5.84 28.39 6.71 28.19 7.56 27.94 8.41 27.69 9.26 27.41 10.09 27.11 10.92 26.8 11.73 26.45 12.55 26.08 13.35 25.7 14.15 25.3 14.94 24.87 15.72 24.42 16.5 23.95 17.27 23.47 18.02 22.94 18.78 22.42 19.52 21.87 20.26 21.3 20.99 20.7 21.72 20.09 22.44 19.46 23.15 18.8 23.85 18.13 24.55 17.43 25.25 16.71 25.93 15.98 26.61 15.22 27.29 14.45 27.96 13.65 -0 -0zm0 0c24.61,11.52 35.23,40.81 23.71,65.43 -11.52,24.61 -40.81,35.23 -65.43,23.71l41.72 -89.13zm878.26 -13.12l97.64 -12.35 -22.28 47.61 -27.28 16.89 -27.76 16.02 -28.21 15.15 -28.63 14.26 -29.04 13.37 -29.43 12.46 -29.79 11.56 -30.13 10.64 -30.44 9.7 -30.74 8.77 -31 7.82 -31.26 6.87 -31.48 5.91 -31.69 4.93 -31.86 3.95 -32.02 2.97 -32.15 1.96 -32.26 0.96 -32.35 -0.06 -32.42 -1.08 -32.45 -2.11 -32.48 -3.16 -32.47 -4.21 -32.44 -5.27 -32.39 -6.33 -32.31 -7.41 -32.22 -8.5 -32.08 -9.59 -31.93 -10.7 -31.76 -11.8 -31.56 -12.92 -31.33 -14.04 41.71 -89.14 28.4 12.73 28.58 11.7 28.74 10.69 28.89 9.67 29.01 8.67 29.11 7.69 29.2 6.7 29.28 5.73 29.31 4.76 29.34 3.81 29.35 2.85 29.33 1.91 29.3 0.98 29.25 0.05 29.17 -0.87 29.07 -1.78 28.96 -2.69 28.83 -3.57 28.66 -4.47 28.48 -5.34 28.29 -6.22 28.07 -7.08 27.83 -7.94 27.56 -8.79 27.28 -9.63 26.98 -10.46 26.65 -11.29 26.3 -12.11 25.93 -12.91 25.54 -13.71 25.13 -14.5 24.7 -15.29 -22.28 47.61zm22.28 -47.61c22.88,-14.66 53.32,-7.99 67.98,14.89 14.66,22.88 7.99,53.32 -14.89,67.98l-53.09 -82.87zm-552.69 -682.76l41.7 -89.14 0.01 0 30.86 15.06 30.14 15.95 29.41 16.82 28.67 17.67 27.93 18.49 27.16 19.29 26.39 20.06 25.62 20.81 24.83 21.53 24.03 22.23 23.24 22.91 22.42 23.57 21.6 24.2 20.77 24.8 19.94 25.39 19.09 25.95 18.24 26.48 17.38 27 16.51 27.49 15.63 27.95 14.75 28.4 13.86 28.81 12.96 29.22 12.06 29.59 11.14 29.94 10.22 30.27 9.29 30.58 8.35 30.86 7.4 31.12 6.45 31.37 5.49 31.57 4.52 31.77 -97.64 12.35 -4.09 -28.77 -4.97 -28.59 -5.84 -28.4 -6.71 -28.19 -7.56 -27.95 -8.41 -27.69 -9.26 -27.41 -10.09 -27.12 -10.91 -26.79 -11.74 -26.45 -12.55 -26.09 -13.35 -25.7 -14.15 -25.3 -14.94 -24.87 -15.72 -24.42 -16.5 -23.96 -17.26 -23.47 -18.02 -22.95 -18.78 -22.43 -19.53 -21.87 -20.26 -21.3 -20.99 -20.7 -21.72 -20.09 -22.44 -19.46 -23.15 -18.8 -23.86 -18.13 -24.56 -17.44 -25.25 -16.72 -25.93 -15.98 -26.62 -15.22 -27.29 -14.45 -27.97 -13.65 0.01 0zm-0.01 -0c-24.61,-11.52 -35.23,-40.81 -23.71,-65.43 11.52,-24.61 40.81,-35.23 65.43,-23.71l-41.72 89.13z"/>
   </g>
   <g>
    <path class="fil0" d="M2686.83 5534.36c-24.33,-12.1 -34.25,-41.64 -22.15,-65.97 12.1,-24.33 41.64,-34.25 65.97,-22.15l-43.82 88.13zm955.6 475.13l-955.6 -475.13 43.82 -88.13 955.6 475.13 -43.82 88.13zm43.82 -88.13c24.33,12.1 34.25,41.64 22.15,65.97 -12.1,24.33 -41.64,34.25 -65.97,22.15l43.82 -88.13z"/>
   </g>
   <g>
    <path class="fil0" d="M7256.05 5368.5l60.31 -77.77 17.91 49.42 -7.35 31.24 -8.3 30.96 -9.24 30.66 -10.17 30.34 -11.09 29.99 -12 29.63 -12.9 29.24 -13.78 28.82 -14.66 28.39 -15.54 27.93 -16.39 27.46 -17.24 26.96 -18.08 26.44 -18.91 25.89 -19.74 25.33 -20.54 24.74 -21.35 24.13 -22.13 23.49 -22.92 22.83 -23.69 22.16 -24.45 21.45 -25.2 20.73 -25.93 19.98 -26.67 19.21 -27.38 18.42 -28.09 17.6 -28.79 16.76 -29.47 15.9 -30.14 15.02 -30.8 14.1 -31.45 13.19 -32.09 12.22 -33.53 -92.53 29.08 -11.08 28.48 -11.93 27.88 -12.77 27.27 -13.58 26.65 -14.37 26.02 -15.16 25.39 -15.91 24.75 -16.65 24.09 -17.36 23.44 -18.06 22.77 -18.74 22.09 -19.39 21.41 -20.03 20.71 -20.65 20.02 -21.24 19.3 -21.81 18.59 -22.38 17.85 -22.91 17.11 -23.43 16.37 -23.93 15.61 -24.4 14.84 -24.86 14.06 -25.3 13.28 -25.7 12.48 -26.11 11.68 -26.47 10.86 -26.83 10.04 -27.16 9.2 -27.47 8.37 -27.76 7.51 -28.04 6.66 -28.28 17.91 49.42zm-17.91 -49.42c5.81,-26.54 32.06,-43.35 58.6,-37.54 26.54,5.81 43.35,32.06 37.54,58.6l-96.13 -21.06zm-873.55 -91.87l-33.53 -92.53 -0.01 0 32.47 -11.17 32.59 -10.04 32.7 -8.91 32.76 -7.79 32.81 -6.67 32.84 -5.57 32.85 -4.49 32.83 -3.4 32.78 -2.33 32.71 -1.28 32.63 -0.23 32.52 0.8 32.38 1.83 32.23 2.85 32.05 3.85 31.84 4.85 31.62 5.83 31.38 6.8 31.11 7.76 30.83 8.7 30.51 9.65 30.18 10.57 29.82 11.49 29.45 12.4 29.05 13.3 28.63 14.18 28.19 15.05 27.73 15.92 27.24 16.78 26.73 17.61 26.21 18.44 25.65 19.27 -60.31 77.77 -23.23 -17.44 -23.73 -16.7 -24.21 -15.95 -24.67 -15.19 -25.11 -14.41 -25.53 -13.63 -25.93 -12.84 -26.31 -12.04 -26.66 -11.22 -27 -10.41 -27.32 -9.57 -27.62 -8.74 -27.89 -7.88 -28.15 -7.02 -28.39 -6.15 -28.6 -5.27 -28.8 -4.38 -28.98 -3.49 -29.13 -2.57 -29.27 -1.65 -29.39 -0.73 -29.48 0.21 -29.57 1.15 -29.63 2.11 -29.66 3.08 -29.69 4.06 -29.69 5.04 -29.67 6.04 -29.64 7.04 -29.59 8.06 -29.52 9.09 -29.43 10.13 -0.01 0zm0.01 -0c-25.55,9.26 -53.77,-3.94 -63.03,-29.49 -9.26,-25.55 3.94,-53.77 29.49,-63.03l33.54 92.52zm-611.7 630.25l-60.31 77.77 -17.91 -49.42 7.35 -31.23 8.3 -30.95 9.24 -30.65 10.16 -30.33 11.08 -29.99 12 -29.62 12.89 -29.23 13.78 -28.82 14.66 -28.39 15.53 -27.93 16.39 -27.45 17.24 -26.96 18.08 -26.43 18.91 -25.89 19.73 -25.32 20.54 -24.73 21.35 -24.13 22.14 -23.49 22.91 -22.83 23.68 -22.15 24.44 -21.45 25.19 -20.73 25.94 -19.98 26.66 -19.21 27.38 -18.42 28.09 -17.6 28.78 -16.76 29.46 -15.9 30.14 -15.02 30.8 -14.11 31.45 -13.18 32.08 -12.22 33.53 92.53 -29.07 11.08 -28.48 11.93 -27.87 12.77 -27.26 13.58 -26.65 14.38 -26.02 15.15 -25.39 15.91 -24.74 16.64 -24.09 17.36 -23.43 18.06 -22.77 18.73 -22.1 19.39 -21.41 20.03 -20.72 20.64 -20.01 21.24 -19.3 21.81 -18.58 22.38 -17.85 22.91 -17.11 23.43 -16.37 23.92 -15.6 24.39 -14.84 24.85 -14.06 25.29 -13.28 25.71 -12.48 26.09 -11.67 26.47 -10.86 26.83 -10.04 27.15 -9.21 27.47 -8.37 27.76 -7.51 28.02 -6.65 28.28 -17.91 -49.42zm17.91 49.42c-5.81,26.54 -32.06,43.35 -58.6,37.54 -26.54,-5.81 -43.35,-32.06 -37.54,-58.6l96.13 21.06zm873.47 91.96l33.53 92.53 0 0 -32.46 11.17 -32.59 10.03 -32.69 8.9 -32.75 7.78 -32.81 6.67 -32.83 5.57 -32.84 4.48 -32.82 3.4 -32.78 2.33 -32.72 1.28 -32.62 0.22 -32.52 -0.8 -32.38 -1.84 -32.22 -2.85 -32.04 -3.85 -31.84 -4.85 -31.63 -5.83 -31.37 -6.8 -31.11 -7.76 -30.82 -8.71 -30.51 -9.65 -30.18 -10.57 -29.83 -11.5 -29.45 -12.4 -29.04 -13.3 -28.63 -14.18 -28.19 -15.06 -27.72 -15.91 -27.24 -16.77 -26.74 -17.62 -26.2 -18.44 -25.65 -19.27 60.31 -77.77 23.23 17.44 23.73 16.7 24.2 15.95 24.67 15.19 25.11 14.42 25.52 13.63 25.93 12.84 26.31 12.04 26.66 11.23 27 10.4 27.32 9.57 27.62 8.73 27.9 7.89 28.15 7.02 28.39 6.15 28.6 5.27 28.8 4.38 28.98 3.49 29.13 2.58 29.26 1.66 29.39 0.73 29.48 -0.2 29.56 -1.15 29.62 -2.11 29.66 -3.07 29.68 -4.05 29.69 -5.04 29.67 -6.03 29.63 -7.04 29.57 -8.05 29.5 -9.08 29.42 -10.12 0 0zm-0 0c25.55,-9.26 53.77,3.95 63.03,29.5 9.26,25.55 -3.95,53.77 -29.5,63.03l-33.54 -92.53z"/>
   </g>
   <g>
    <path class="fil0" d="M6718.73 5509.95c25.76,-8.65 53.67,5.22 62.31,30.98 8.65,25.76 -5.22,53.67 -30.98,62.31l-31.33 -93.3zm-1011.66 339.74l1011.66 -339.74 31.33 93.3 -1011.66 339.74 -31.33 -93.3zm31.33 93.3c-25.76,8.65 -53.67,-5.22 -62.31,-30.98 -8.65,-25.76 5.22,-53.67 30.98,-62.31l31.33 93.3z"/>
   </g>
   <g>
    <path class="fil0" d="M4722.11 2775.15l0 -98.42 0 0 11.96 -0.3 11.77 -0.89 11.58 -1.47 11.39 -2.03 11.18 -2.58 10.96 -3.11 10.73 -3.63 10.5 -4.14 10.24 -4.63 9.97 -5.11 9.69 -5.57 9.39 -6.02 9.08 -6.45 8.74 -6.87 8.41 -7.28 8.05 -7.67 7.67 -8.05 7.28 -8.4 6.88 -8.75 6.46 -9.07 6.02 -9.39 5.57 -9.69 5.1 -9.97 4.63 -10.24 4.14 -10.5 3.63 -10.73 3.11 -10.96 2.58 -11.19 2.03 -11.38 1.47 -11.58 0.89 -11.78 0.3 -11.96 98.42 0 -0.43 16.92 -1.27 16.73 -2.09 16.51 -2.91 16.26 -3.69 15.97 -4.45 15.67 -5.19 15.35 -5.91 14.99 -6.61 14.62 -7.29 14.24 -7.94 13.81 -8.58 13.38 -9.19 12.93 -9.78 12.45 -10.36 11.96 -10.91 11.44 -11.44 10.91 -11.96 10.36 -12.45 9.79 -12.93 9.19 -13.38 8.57 -13.81 7.94 -14.23 7.29 -14.62 6.61 -14.99 5.91 -15.35 5.2 -15.67 4.44 -15.97 3.69 -16.26 2.91 -16.5 2.09 -16.73 1.27 -16.92 0.43 0 0zm0 0c-27.18,0 -49.21,-22.03 -49.21,-49.21 0,-27.18 22.03,-49.21 49.21,-49.21l0 98.42zm-329.76 -329.83l98.42 0 0 0 0.3 11.96 0.89 11.78 1.47 11.58 2.03 11.38 2.58 11.19 3.11 10.96 3.63 10.73 4.14 10.5 4.63 10.24 5.11 9.98 5.57 9.69 6.02 9.39 6.45 9.07 6.87 8.75 7.28 8.4 7.67 8.05 8.06 7.68 8.4 7.29 8.74 6.87 9.07 6.45 9.39 6.02 9.69 5.57 9.97 5.11 10.23 4.63 10.49 4.14 10.73 3.63 10.96 3.11 11.18 2.58 11.37 2.03 11.57 1.47 11.77 0.89 11.95 0.3 0 98.42 -16.92 -0.43 -16.72 -1.27 -16.5 -2.09 -16.25 -2.91 -15.97 -3.69 -15.67 -4.45 -15.34 -5.19 -14.99 -5.91 -14.62 -6.61 -14.22 -7.29 -13.81 -7.94 -13.38 -8.58 -12.93 -9.19 -12.46 -9.79 -11.95 -10.36 -11.43 -10.91 -10.91 -11.44 -10.36 -11.96 -9.79 -12.46 -9.19 -12.93 -8.57 -13.38 -7.94 -13.82 -7.29 -14.23 -6.61 -14.62 -5.91 -14.99 -5.19 -15.35 -4.45 -15.67 -3.69 -15.97 -2.91 -16.26 -2.09 -16.51 -1.27 -16.73 -0.43 -16.92 0 0zm0 0c0,-27.18 22.03,-49.21 49.21,-49.21 27.18,0 49.21,22.03 49.21,49.21l-98.42 0zm329.76 -329.76l0 98.42 0 0 -11.95 0.3 -11.77 0.89 -11.57 1.47 -11.37 2.03 -11.18 2.58 -10.96 3.11 -10.73 3.63 -10.49 4.14 -10.23 4.63 -9.97 5.11 -9.69 5.57 -9.39 6.02 -9.07 6.45 -8.74 6.87 -8.4 7.28 -8.05 7.68 -7.68 8.05 -7.28 8.4 -6.87 8.74 -6.45 9.07 -6.02 9.39 -5.57 9.69 -5.11 9.97 -4.63 10.23 -4.14 10.49 -3.63 10.73 -3.11 10.96 -2.58 11.18 -2.03 11.37 -1.47 11.57 -0.89 11.77 -0.3 11.95 -98.42 0 0.43 -16.92 1.27 -16.72 2.09 -16.5 2.91 -16.25 3.69 -15.97 4.45 -15.67 5.19 -15.34 5.91 -14.99 6.61 -14.62 7.29 -14.22 7.94 -13.81 8.58 -13.37 9.19 -12.93 9.79 -12.46 10.36 -11.95 10.91 -11.44 11.44 -10.91 11.95 -10.36 12.46 -9.79 12.93 -9.19 13.37 -8.58 13.81 -7.94 14.22 -7.29 14.62 -6.61 14.99 -5.91 15.34 -5.19 15.67 -4.45 15.97 -3.69 16.25 -2.91 16.5 -2.09 16.72 -1.27 16.92 -0.43 0 0zm0 0c27.18,0 49.21,22.03 49.21,49.21 0,27.18 -22.03,49.21 -49.21,49.21l0 -98.42zm329.83 329.76l-98.42 0 0 0 -0.3 -11.95 -0.89 -11.77 -1.47 -11.57 -2.03 -11.37 -2.58 -11.18 -3.11 -10.96 -3.63 -10.73 -4.14 -10.49 -4.63 -10.23 -5.1 -9.96 -5.57 -9.69 -6.02 -9.39 -6.45 -9.07 -6.87 -8.74 -7.28 -8.4 -7.68 -8.05 -8.04 -7.67 -8.41 -7.28 -8.74 -6.87 -9.07 -6.45 -9.4 -6.03 -9.69 -5.57 -9.97 -5.11 -10.24 -4.63 -10.5 -4.14 -10.73 -3.63 -10.96 -3.11 -11.18 -2.58 -11.39 -2.03 -11.58 -1.47 -11.77 -0.89 -11.96 -0.3 0 -98.42 16.92 0.43 16.73 1.27 16.5 2.09 16.26 2.91 15.97 3.69 15.67 4.44 15.35 5.2 14.99 5.91 14.62 6.61 14.23 7.29 13.81 7.94 13.37 8.57 12.93 9.19 12.45 9.79 11.96 10.36 11.44 10.91 10.91 11.44 10.36 11.95 9.79 12.45 9.19 12.93 8.57 13.37 7.94 13.81 7.29 14.22 6.61 14.62 5.91 14.99 5.19 15.34 4.45 15.67 3.69 15.97 2.91 16.25 2.09 16.5 1.27 16.72 0.43 16.92 0 0zm0 0c0,27.18 -22.03,49.21 -49.21,49.21 -27.18,0 -49.21,-22.03 -49.21,-49.21l98.42 0z"/>
   </g>
  </g>
 </g>
</svg>
