<?xml version="1.0" encoding="UTF-8"?>
<!DOCTYPE svg PUBLIC "-//W3C//DTD SVG 1.1//EN" "http://www.w3.org/Graphics/SVG/1.1/DTD/svg11.dtd">
<!-- Creator: CorelDRAW 2020 (64-Bit) -->
<svg xmlns="http://www.w3.org/2000/svg" xml:space="preserve" width="9.44882in" height="9.44882in" version="1.1" style="shape-rendering:geometricPrecision; text-rendering:geometricPrecision; image-rendering:optimizeQuality; fill-rule:evenodd; clip-rule:evenodd"
viewBox="0 0 9448.82 9448.82"
 xmlns:xlink="http://www.w3.org/1999/xlink"
 xmlns:xodm="http://www.corel.com/coreldraw/odm/2003">
 <defs>
  <style type="text/css">
   <![CDATA[
    .fil0 {fill:#B15760;fill-rule:nonzero}
   ]]>
  </style>
 </defs>
 <g id="Layer_x0020_1">
  <metadata id="CorelCorpID_0Corel-Layer"/>
  <g id="_1668288337456">
   <path class="fil0" d="M4163.28 4071.52c24,24 36,60.04 12,84.07 -24.03,36.44 -60.06,36.44 -84.07,12.41l-853.47 -649.42c-24.12,-23.92 -36.12,-59.95 -12.12,-83.95 24.03,-24.03 60.07,-36.03 84.18,-12l853.47 648.9zm2596.61 1070.13c24.03,12.03 48.04,48.04 36.04,72.07 -12,36.03 -48.04,60.04 -72.07,48.03l-1274.29 -384.7c-24,-12 -48.03,-48.15 -36.03,-84.07 12.03,-24 48.04,-48.03 72.07,-36.12l1274.29 384.79zm-5277.32 672.93c-24.03,-12 -36.03,-48.03 -24.03,-84.06 12.03,-36.04 48.03,-48.04 72.06,-36.04l817.44 360.79c36.12,11.91 48.04,48.04 36.12,72.07 -12,36.03 -48.04,48.03 -84.04,36.03l-817.55 -348.79z"/>
   <path class="fil0" d="M5870.3 3338.43c24.03,-23.92 60.15,-23.92 84.07,0 24,24.12 24,60.15 0,84.18l-636.9 660.9c-24,24.03 -60.44,24.03 -84.47,0 -24.03,-24.03 -24.03,-60.03 0,-84.06l637.3 -661.02z"/>
   <path class="fil0" d="M4187.28 5117.64c24.03,-24.03 60.06,-24.03 84.07,0 24.03,24 24.03,72.04 0,96.07l-829.56 757.49c-23.91,23.92 -59.94,12.03 -84.06,-12.41 -24,-24.03 -12,-60.06 12,-84.18l817.55 -756.97z"/>
   <path class="fil0" d="M3345.72 5946.68c-107.98,-108.07 -252.2,-168.13 -420.73,-168.13 -168.13,0 -312.23,60.06 -420.73,168.13 -108.19,108.59 -168.13,252.72 -168.13,420.82 0,168.54 59.95,312.67 168.13,420.74 108.5,108.5 252.6,168.65 420.73,168.65 168.54,0 312.75,-60.15 420.73,-168.65 108.19,-108.07 168.54,-252.2 168.54,-420.74 0,-168.1 -60.35,-312.23 -168.54,-420.82l0 0zm-420.73 -300.12c192.57,0 372.7,83.95 504.8,216.17 132.5,132.39 216.66,312.64 216.66,504.77 0,192.57 -84.15,372.7 -216.66,505.2 -132.1,132.1 -312.23,216.17 -504.8,216.17 -192.13,0 -372.7,-84.07 -504.8,-216.17 -132.19,-132.5 -216.25,-312.63 -216.25,-505.2 0,-192.13 84.06,-372.38 216.25,-504.77 132.1,-132.21 312.67,-216.17 504.8,-216.17l0 0z"/>
   <path class="fil0" d="M5233 4083.52c-120.1,-120.1 -300.23,-204.16 -492.89,-204.16 -192.05,0 -372.7,84.06 -504.8,204.16l0 0c-120.1,132.5 -204.14,312.64 -204.14,504.89 0,192.57 84.04,372.7 204.14,493.2l0 12c132.1,120.1 312.75,204.17 504.8,204.17 192.65,0 372.79,-84.07 492.89,-204.17 132.5,-132.5 216.57,-312.64 216.57,-505.2 0,-192.25 -84.06,-372.39 -216.57,-504.89l0 0zm-492.89 -324.23c228.57,0 432.85,96.07 589.35,240.17 144.13,156.13 240.2,360.7 240.2,588.95 0,228.6 -96.07,432.74 -240.2,589.27 -156.5,144.1 -360.78,240.2 -589.35,240.2 -228.17,0 -432.74,-96.1 -588.87,-240.2l0 -12c-156.1,-144.53 -240.57,-348.67 -240.57,-577.27 0,-228.26 96.47,-432.82 240.57,-588.95l0 0c156.13,-144.1 360.7,-240.17 588.87,-240.17l0 0z"/>
   <path class="fil0" d="M8442.91 4804.98c-180.54,-168.11 -432.74,-288.72 -697.34,-288.72 -276.63,0 -528.92,120.62 -709.45,288.72 -168.13,180.16 -288.23,432.76 -288.23,709.37 0,264.2 108.1,516.92 288.23,696.94l0 0c180.54,180.25 432.82,288.75 709.45,288.75 264.6,0 516.8,-108.5 697.34,-288.75 180.25,-180.02 288.31,-432.74 288.31,-696.94 0,-276.6 -108.07,-529.2 -288.31,-709.37l0 0zm-697.34 -408.82c300.63,0 576.83,132.1 781.41,324.76 204.25,204.17 324.35,480.8 324.35,793.43 0,300.23 -120.1,576.95 -324.35,781.12 -204.57,204.57 -480.77,324.64 -781.41,324.64 -312.75,0 -588.95,-120.07 -793.52,-324.64l0 0c-204.17,-204.17 -324.26,-480.89 -324.26,-781.12 0,-312.63 132.1,-589.27 324.26,-793.43 204.57,-192.65 480.77,-324.76 793.52,-324.76l0 0z"/>
   <path class="fil0" d="M6411.22 2881.67c-60.04,-60.04 -144.1,-96.47 -228.28,-96.47 -84.47,0 -168.54,36.44 -228.57,96.47 -60.04,48.06 -95.98,132.13 -95.98,228.2 0,84.07 35.94,168.62 95.98,228.57 60.04,48.15 144.1,96.18 228.57,96.18 84.18,0 168.24,-36.03 228.28,-96.18l0 0c60.06,-59.95 96.07,-144.5 96.07,-228.57 0,-96.07 -36,-168.13 -96.07,-228.2l0 0zm-228.28 -216.57c120.21,0 240.28,48.04 312.35,120.1l12 12c72.07,72.47 120.5,192.57 120.5,312.67 0,120.1 -48.44,228.57 -132.5,312.75l0 0c-84.07,84.07 -192.13,132.1 -312.35,132.1 -120.5,0 -228.57,-60.06 -312.64,-132.1 -83.95,-84.18 -132.1,-192.65 -132.1,-312.75 0,-132.1 48.15,-240.2 132.1,-324.67 84.07,-72.06 192.13,-120.1 312.64,-120.1l0 0z"/>
   <path class="fil0" d="M3165.68 2653.09c-96.16,-108.07 -252.69,-168.13 -420.82,-168.13 -156.13,0 -312.75,60.07 -408.73,168.13 -108.07,108.1 -180.13,252.6 -180.13,420.74 0,168.22 72.07,312.75 180.13,420.82 95.98,108.1 252.6,180.13 408.73,180.13 168.13,0 312.64,-72.04 420.82,-180.13l0 0c107.98,-108.07 180.04,-252.6 180.04,-420.82 0,-168.13 -72.06,-312.64 -180.04,-420.74l0 0zm-420.82 -288.63c204.17,0 384.7,72.47 516.8,204.57 120.19,132.1 204.25,312.64 204.25,504.8 0,204.65 -84.06,372.7 -204.25,504.89l-12 11.91c-120.1,120.19 -300.63,204.66 -504.8,204.66 -192.57,0 -372.7,-84.47 -504.8,-216.57 -120.59,-132.19 -204.65,-300.23 -204.65,-504.89 0,-192.17 84.06,-372.7 204.65,-504.8 132.1,-132.1 312.23,-204.57 504.8,-204.57l0 0z"/>
   <path class="fil0" d="M1374.47 5297.78c-72.04,-60.04 -168.54,-108.1 -276.63,-108.1 -108.09,0 -204.22,48.06 -264.2,108.1 -72.5,72.06 -120.56,168.13 -120.56,276.6 0,108.1 48.06,204.17 120.56,276.23 59.98,72.15 156.1,108.18 264.2,108.18 108.1,0 204.6,-36.03 276.63,-108.18 72.07,-72.07 108.1,-168.13 108.1,-276.23 0,-108.47 -36.03,-204.54 -108.1,-276.6l0 0zm-276.63 -228.17c144.54,0 276.63,60.04 360.7,144.1 96.09,96.07 156.13,228.17 156.13,360.67 0,144.22 -60.04,264.23 -156.13,360.38 -84.07,96.5 -216.17,144.54 -360.7,144.54 -132.16,0 -264.2,-48.04 -360.73,-144.54 -84.09,-96.15 -144.13,-216.17 -144.13,-360.38 0,-132.5 60.04,-264.6 144.13,-360.67 96.53,-84.07 228.57,-144.1 360.73,-144.1l0 0z"/>
  </g>
 </g>
</svg>
