<?xml version="1.0" encoding="UTF-8"?>
<!DOCTYPE svg PUBLIC "-//W3C//DTD SVG 1.1//EN" "http://www.w3.org/Graphics/SVG/1.1/DTD/svg11.dtd">
<!-- Creator: CorelDRAW 2020 (64-Bit) -->
<svg xmlns="http://www.w3.org/2000/svg" xml:space="preserve" width="3.54331in" height="3.54331in" version="1.1" style="shape-rendering:geometricPrecision; text-rendering:geometricPrecision; image-rendering:optimizeQuality; fill-rule:evenodd; clip-rule:evenodd"
viewBox="0 0 3543.31 3543.31"
 xmlns:xlink="http://www.w3.org/1999/xlink"
 xmlns:xodm="http://www.corel.com/coreldraw/odm/2003">
 <defs>
  <style type="text/css">
   <![CDATA[
    .fil0 {fill:#B15760;fill-rule:nonzero}
   ]]>
  </style>
 </defs>
 <g id="Layer_x0020_1">
  <metadata id="CorelCorpID_0Corel-Layer"/>
  <g id="_1609817158928">
   <g>
    <path class="fil0" d="M2057.42 990.73c-76.98,-173.34 -178.75,-280.61 -291.54,-280.61 -112.86,0 -217.38,107.27 -291.59,280.61 -79.81,176.07 -126.62,420.87 -126.62,690.49 0,197.99 24.82,385.05 71.54,539.15 41.34,148.5 101.77,266.78 173.34,341.07 16.49,-24.73 38.48,-49.47 63.21,-66.05 33.07,-19.26 68.81,-30.23 110.11,-30.23 38.48,0 76.97,10.97 110.04,30.23 24.73,16.58 46.72,41.32 63.2,66.05 68.8,-74.29 129.35,-192.58 173.32,-341.07 44,-154.1 71.54,-341.16 71.54,-539.15 0,-269.62 -49.56,-514.42 -126.57,-690.49l0 0zm-291.54 -313.62c126.53,0 242.05,115.54 321.83,299.85 79.7,178.75 129.28,429.13 129.28,704.25 0,203.57 -27.48,390.54 -71.54,547.4 -49.47,165.07 -118.29,294.35 -198.08,374.15 -8.25,5.49 -19.24,5.49 -24.74,0 -2.75,-2.75 -2.75,-5.59 -2.75,-5.59 -13.74,-30.23 -35.75,-54.96 -63.3,-71.45 -27.48,-16.49 -57.74,-27.48 -90.71,-27.48 -33.07,0 -66.05,10.99 -90.78,27.48 -27.58,16.49 -49.57,41.22 -63.31,71.45 -2.74,8.34 -13.74,11.08 -21.98,8.34 -2.78,0 -2.78,-2.75 -5.52,-2.75 -82.54,-79.8 -151.34,-209.07 -198.06,-374.15 -46.81,-156.86 -71.55,-343.83 -71.55,-547.4 0,-275.12 46.81,-525.5 126.51,-704.25 82.56,-184.31 198.08,-299.85 324.68,-299.85l0 0z"/>
    <path class="fil0" d="M2376.6 1741.68c104.52,-104.53 178.72,-206.33 220.04,-302.6 -41.31,-8.25 -79.79,-30.23 -107.27,-63.21 -30.32,-35.82 -52.33,-82.54 -52.33,-134.87 0,-30.23 8.27,-57.71 19.26,-85.29 10.96,-19.24 22.07,-35.72 35.82,-49.47 -96.28,-38.47 -231.15,-38.47 -387.91,-5.49 -167.85,35.72 -357.66,107.27 -547.37,217.31l0 0c-233.9,134.75 -420.99,299.85 -536.52,453.84 -110,154.1 -151.24,294.36 -96.26,393.41l2.75 0c55.06,99.02 198.08,134.85 385.14,112.77 192.56,-19.24 429.11,-99.02 663.01,-233.81l0 -2.74c156.74,-90.78 294.24,-195.31 401.65,-299.85l0 0zm258.51 -308.1c-38.48,104.55 -121.01,217.31 -233.8,330.08l-2.75 2.76c-107.24,107.29 -247.63,211.81 -407.12,305.34l0 0c-239.39,137.62 -478.69,220.15 -673.99,242.15 -200.83,19.23 -357.56,-21.99 -420.87,-132.1l0 0c-63.33,-110.04 -21.98,-266.78 96.28,-429.13 118.26,-159.49 308.09,-324.59 547.39,-462.09l0 -2.77c192.56,-110.02 385.14,-184.31 555.74,-220.04 178.81,-38.57 330.08,-33.07 431.85,16.49 8.22,5.49 13.74,13.74 8.22,21.98 0,2.75 -2.72,5.5 -2.72,5.5 -19.24,16.48 -35.73,35.72 -43.97,57.8 -10.99,21.98 -16.58,46.72 -16.58,71.45 0,44.09 16.58,82.56 41.31,112.79 27.48,30.32 65.95,52.3 107.27,55.06 10.99,2.74 16.48,10.99 16.48,19.23l-2.74 5.5z"/>
    <path class="fil0" d="M2217 2278.08c187.06,22.08 330.08,-13.74 387.88,-112.77l0 0c57.71,-96.3 16.49,-239.3 -96.28,-393.41 -112.76,-153.99 -299.85,-319.09 -533.65,-453.84l0 0c-181.57,-104.52 -363.16,-176.09 -525.51,-211.82 -153.99,-35.72 -288.74,-38.47 -385.04,-8.24 8.24,13.74 16.49,27.48 21.98,43.97 8.24,22.1 13.74,46.81 13.74,71.57 0,57.78 -21.98,107.27 -57.71,142.99 -30.32,33.07 -71.57,52.31 -118.36,60.55 35.82,96.31 110.02,203.58 214.54,310.85 110.14,110.04 253.13,220.06 418.24,313.59 233.8,134.76 470.33,217.31 660.16,236.55l0 0zm415.37 -93.55c-63.32,107.38 -217.31,148.61 -418.11,129.37 -195.33,-21.99 -437.35,-104.52 -674,-242.15 -167.76,-96.28 -313.59,-209.04 -423.64,-321.83 -115.51,-118.26 -198.07,-236.53 -231.06,-343.83 -2.75,-8.24 2.75,-19.24 11.02,-21.98 2.72,0 2.72,0 5.47,0 44.09,0 85.29,-19.33 115.54,-52.3 30.33,-30.23 49.56,-71.57 49.56,-118.26 0,-19.26 -5.49,-41.25 -11.01,-60.58 -8.22,-19.24 -19.33,-38.47 -33.05,-52.21 -8.24,-8.24 -5.5,-19.24 0,-24.74 2.75,0 2.75,-2.75 5.49,-2.75 107.27,-41.31 255.86,-38.57 426.46,0 167.75,35.72 352.09,110.02 536.4,217.31l0 0c239.3,137.5 429.11,302.6 544.62,462.09 121.06,162.35 162.36,319.09 99.06,429.13l-2.75 2.73z"/>
    <path class="fil0" d="M2761.65 1122.74c-30.26,-30.23 -74.22,-49.47 -121.04,-49.47 -46.72,0 -88.03,19.24 -118.26,49.47l0 0c-30.23,30.23 -49.56,71.54 -49.56,118.26 0,46.81 19.33,90.81 49.56,121.04 30.23,30.32 71.54,49.56 118.26,49.56 46.81,0 90.78,-19.24 121.04,-49.56 30.32,-30.23 49.56,-74.22 49.56,-121.04 0,-46.72 -19.24,-88.04 -49.56,-118.26l0 0zm-121.04 -82.54c57.81,0 107.3,22.08 143,57.81 38.59,35.73 60.58,88.03 60.58,143 0,57.82 -21.98,107.29 -60.58,143.11 -35.7,38.48 -85.19,60.46 -143,60.46 -54.96,0 -107.27,-21.98 -143,-60.46 -35.82,-35.82 -60.57,-85.29 -60.57,-143.11 0,-54.97 24.76,-107.27 60.57,-143l0 0c38.45,-35.72 88.04,-57.81 143,-57.81l0 0z"/>
    <path class="fil0" d="M1017.59 1095.26c-30.25,-30.23 -74.2,-49.56 -121.01,-49.56 -46.74,0 -88.06,19.33 -118.29,49.56 -30.23,30.23 -49.56,71.54 -49.56,118.29 0,46.69 19.33,90.78 49.56,121.01 30.24,30.23 71.55,49.56 118.29,49.56 46.81,0 90.76,-19.33 121.01,-49.56l0 0c30.33,-30.23 49.56,-74.31 49.56,-121.01 0,-46.75 -19.23,-88.06 -49.56,-118.29l0 0zm-121.01 -82.54c57.78,0 107.24,21.98 145.84,57.81 35.73,38.47 57.71,87.93 57.71,143.02 0,57.78 -21.98,107.27 -57.71,145.74l-2.75 0c-35.85,35.82 -85.31,57.8 -143.09,57.8 -54.97,0 -104.55,-21.98 -143.02,-57.8 -35.82,-38.47 -57.81,-87.96 -57.81,-145.74 0,-55.09 21.98,-104.55 57.81,-143.02 38.47,-35.82 88.05,-57.81 143.02,-57.81l0 0z"/>
    <path class="fil0" d="M1884.15 2547.7c-30.32,-30.23 -71.54,-49.46 -118.26,-49.46 -46.81,0 -88.04,19.24 -118.36,49.46l-2.75 0c-30.23,30.23 -49.46,74.29 -49.46,118.26 0,46.83 19.24,90.78 49.46,121.04 30.33,30.32 74.3,49.56 121.11,49.56 46.72,0 87.94,-19.24 118.26,-49.56 30.26,-30.26 49.48,-74.2 49.48,-121.04 0,-43.97 -19.23,-88.03 -49.48,-118.26l0 0zm-118.26 -82.54c54.96,0 107.29,21.99 143.02,57.8 35.73,38.48 60.55,88.04 60.55,143 0,57.81 -24.82,107.29 -60.55,145.86 -35.73,35.73 -88.06,57.71 -143.02,57.71 -57.81,0 -107.27,-21.98 -143.09,-57.71 -38.49,-38.57 -60.46,-88.05 -60.46,-145.86 0,-54.96 21.96,-104.52 60.46,-143l0 0c35.82,-35.81 88.04,-57.8 143.09,-57.8l0 0z"/>
   </g>
   <path class="fil0" d="M1775.59 197.82c-29.34,0 -43.09,40.61 -14.53,47.74 1.9,0.4 3.63,0.62 5.63,0.62 16.63,0.06 33.24,0.24 49.86,0.8 20.97,0.99 41.33,-25.11 25.82,-41.92 -4.33,-4.33 -9.17,-6.12 -15.25,-6.41 -17.17,-0.59 -34.35,-0.78 -51.53,-0.83zm-253.58 67.91c18.07,-3.28 34.04,-24.35 21.22,-40.66 -5.15,-6.08 -13.63,-8.36 -21.46,-6.94 -17.57,2.85 -35.05,5.98 -52.52,9.41 -28.65,5.2 -35.35,46.24 -3.97,47.81 2.18,0 3.92,-0.17 6.01,-0.55 16.88,-3.29 33.74,-6.31 50.72,-9.07zm-300.98 81.13c19.05,-7.26 29.05,-34.45 8.05,-44.33 -6.52,-2.85 -13.69,-2.47 -20.31,0.05 -17.08,6.54 -34.22,13.4 -51.01,20.63 -16.43,7.04 -26.77,29.11 -10.48,41.92 7.54,5.03 16.63,5.04 24.9,1.49 16.13,-6.88 32.46,-13.48 48.85,-19.75zm-282.89 144.42c29.72,-20.34 6.01,-57.24 -24.47,-37.99 -15.49,10.13 -30.74,20.44 -45.91,31.04 -22.97,15.72 -13.06,48.9 16.1,41.61 3.84,-1.15 6.63,-2.42 10,-4.73 14.65,-10.21 29.33,-20.16 44.28,-29.93zm-247.33 200.67c19.92,-19.92 1.78,-48.31 -26.08,-35.78 -3.56,1.87 -6.06,3.54 -8.91,6.4 -51.55,51.83 -99.6,106.76 -143.61,165.16 -19.94,27.6 16.84,49.95 39.21,24.59 46.27,-57.51 86.99,-107.69 139.39,-160.37zm-275.43 376.69c11.05,-20.99 -10.08,-38.43 -30.65,-28.68 -6.45,2.71 -12.03,8.18 -15.24,14.27 -31.98,62.03 -59.83,125.68 -83.4,191.37 -2.5,7.14 -1.8,14.47 2.9,20.46 13.31,15.72 39.67,5.02 45.92,-12.84 23.31,-63.81 49.31,-124.18 80.46,-184.59zm-144.32 421.35c2.2,-10.98 -4.67,-21.19 -15.49,-23.46 -15.82,-3.33 -32.29,8.09 -35.41,23.71 -2.97,16.34 -5.76,32.67 -8.26,49.09 -1.2,7.98 2.15,16.22 9.3,20.24 16.57,9.33 39.13,-3.83 41.85,-21.98 2.39,-15.92 5.13,-31.77 8.01,-47.6zm-25.41 284.41c0,-6.48 -2.74,-11.7 -7.78,-15.65 -17.19,-12.28 -43.85,3.71 -43.85,24.26 0.02,16.04 0.31,32.14 0.89,48.17 1.15,23.02 30.72,24.11 44.03,8.91 4.61,-4.93 7.92,-11.97 7.57,-18.91 -0.54,-15.57 -0.83,-31.2 -0.86,-46.78zm25.85 276.39c-6.09,-28.94 -54.28,-15.26 -51.08,15.08 2.55,15.58 6.12,31.61 9.44,47.07 4.12,19.56 29.84,19.05 42.22,6.67 6.37,-5.98 10.31,-15.14 8.46,-23.93 -3.2,-14.95 -6.22,-29.87 -9.05,-44.89zm73.43 261.83c-5.16,-13.28 -20.96,-15.42 -32.78,-9.8 -11.73,5.28 -21.23,19.87 -16.26,32.67 21.69,57.2 46.97,113.54 75.31,167.75 9.57,18.07 36.39,10.96 45.65,-4.78 4.05,-6.63 5.15,-15.35 1.48,-22.31 -27.65,-52.64 -52.31,-107.94 -73.4,-163.53zm190.7 353.33c-5.04,-6.87 -14.27,-9.54 -22.5,-7.89 -17.2,2.57 -33.14,24.06 -21.73,39.61 35.93,49.56 74.36,96.61 115.7,141.76 17.51,18.86 55.13,-5.01 44.88,-29.91 -0.99,-1.96 -1.81,-3.44 -3.36,-5.1 -40.39,-44.24 -77.82,-89.96 -112.98,-138.47zm276.39 292.37c-21.81,-17.45 -59.21,15.65 -38.67,37.76 11.59,10.16 25.39,20.57 37.75,29.89 18.15,14.52 52.11,-8.48 42.29,-32.31 -1.63,-3.26 -2.98,-5.02 -5.86,-7.32 -11.98,-9.17 -23.78,-18.51 -35.5,-28zm226.42 152.77c-21.5,-11.38 -51.63,14.5 -38.36,36.63 1.84,2.58 3.93,4.65 6.79,6.17 13.87,7.6 27.77,14.98 41.81,22.24 22.1,11.05 51.53,-16.32 37.47,-37.4 -2.16,-2.76 -3.84,-4.3 -7,-5.97 -13.68,-7.07 -27.21,-14.27 -40.71,-21.67zm255.91 111.97c-16.77,-5.3 -36.06,7.77 -37.89,25.11 -0.98,9.33 4.56,18 13.56,20.84 15.49,5.07 30.94,9.93 46.54,14.64 25.78,8.14 52.29,-28.98 27.68,-44.37 -1.58,-0.89 -2.97,-1.46 -4.67,-2 -15.17,-4.56 -30.17,-9.3 -45.22,-14.22zm280.39 64.32c-9.97,-1.43 -20.34,3.63 -26.69,10.89 -12,13.72 -8.09,34.29 11.27,37.06 67.92,8.75 135.13,13.25 203.61,13.5 29.34,0 43.09,-40.6 14.53,-47.74 -1.9,-0.4 -3.63,-0.62 -5.63,-0.62 -66.32,-0.25 -131.33,-4.63 -197.1,-13.1zm449.35 -7.07c-18.07,3.29 -34.04,24.35 -21.22,40.66 5.15,6.08 13.63,8.36 21.45,6.94 70.78,-11.34 141.2,-28.33 209.7,-49.36 17.07,-5.69 30.13,-26.86 15.53,-41.47 -6.59,-5.65 -15.5,-6.98 -23.78,-4.22 -65.78,20.25 -133.7,36.55 -201.68,47.44zm445.45 -146.83c-31.8,17.48 -13.12,57.29 18.7,41.38 16.4,-8.47 32.58,-17.14 48.71,-26.11 19.78,-10.88 22.5,-40.25 -2.43,-44.18 -6.55,-0.69 -12.21,0.56 -18,3.74 -15.56,8.65 -31.16,17 -46.98,25.17zm266.76 -174.59c-20.88,17.41 -9.31,46.92 18.2,40.04 4.88,-1.46 7.92,-3.1 11.96,-6.25 14.28,-11.72 28.28,-23.59 42.22,-35.7 23.25,-20.52 2.71,-51.63 -25.91,-36.57 -2.09,1.21 -3.94,2.45 -5.74,4.04 -13.45,11.7 -26.97,23.13 -40.74,34.43zm223.42 -224.71c-18.56,22.54 6.78,48.03 32.18,31.1 2.81,-1.98 4.86,-3.8 7.09,-6.5 11.44,-14.06 22.54,-28.5 33.45,-42.97 19.94,-27.59 -16.84,-49.94 -39.22,-24.59 -11.35,14.11 -22.02,28.85 -33.5,42.96zm168.94 -259.56c-11.05,20.99 10.08,38.43 30.65,28.69 6.45,-2.72 12.03,-8.18 15.24,-14.28 31.86,-61.81 59.55,-126 82.89,-191.5 2.5,-7.13 1.81,-14.47 -2.9,-20.46 -13.31,-15.72 -39.67,-5.02 -45.92,12.83 -22.55,63.2 -49.21,125.06 -79.96,184.71zm143.22 -421.52c-2.2,10.98 4.66,21.18 15.49,23.46 15.83,3.33 32.29,-8.09 35.41,-23.71 11.75,-64.93 19.41,-129.97 23.1,-195.86 1.12,-22.43 -26.2,-26.7 -41.26,-13.52 -5.74,5.02 -9.93,11.76 -10.32,19.62 -3.58,63.92 -11.02,127.02 -22.42,190.01zm17.68 -423.86c2.08,20.85 29.16,22.34 42.05,9.46 6.06,-5.31 10.19,-13.92 9.37,-22.14 -1.54,-15.74 -3.3,-31.38 -5.25,-47.07 -4.83,-30.6 -54.53,-16.93 -51.3,13.72 1.91,15.34 3.63,30.64 5.14,46.03zm-50.69 -269.75c5.53,19.92 32.8,17.06 44.24,2.98 5.39,-6.16 7.94,-14.66 5.84,-22.65 -4.17,-14.9 -8.68,-29.76 -13.34,-44.51 -6.57,-19.71 -33.54,-16.19 -44.52,-1.84 -4.99,6.15 -7.78,14.98 -5.21,22.69 4.54,14.35 8.92,28.84 12.98,43.33zm-96.27 -252.02c6.83,14.5 27.3,13.39 38.24,4.37 9.18,-6.63 14.38,-19.87 9.39,-30.47 -6.67,-13.75 -13.61,-27.38 -20.7,-40.93 -9.57,-18.07 -36.39,-10.96 -45.65,4.78 -4.05,6.63 -5.15,15.35 -1.47,22.31 6.91,13.22 13.68,26.51 20.19,39.93zm-137.91 -229.46c5.05,6.87 14.28,9.54 22.5,7.89 17.2,-2.58 33.15,-24.06 21.74,-39.62 -36.07,-49.63 -74.66,-96.36 -116.08,-141.6 -8.74,-9.41 -23.59,-7.8 -33.52,-1 -11.52,7.69 -18.28,24.96 -7.86,36.19 40.24,43.18 78.52,90.4 113.22,138.14zm-277.06 -291.8c21.81,17.45 59.21,-15.65 38.67,-37.76 -43.41,-38.08 -103.71,-78.69 -152.85,-109.61 -25.41,-14.94 -56.97,21.85 -35.74,40.04l2.26 1.63c51.23,32.17 100.63,67.68 147.67,105.7zm-351.37 -213.48c24.39,10.84 53.72,-23.68 32.76,-41.65 -1.74,-1.27 -2.88,-2.05 -4.88,-2.94 -14.7,-6.36 -29.46,-12.62 -44.35,-18.51 -28.41,-10.47 -54.11,29.89 -29.1,43.95 14.52,6.81 30.66,12.7 45.57,19.15zm-269.29 -88.47c31.87,6.37 51.08,-39.38 19.94,-47.17 -16.16,-3.65 -32.35,-7.08 -48.61,-10.24 -28.59,-5.72 -49.96,35.62 -22.02,46.49 1.21,0.4 2.29,0.72 3.56,0.97 15.77,3.1 31.45,6.41 47.13,9.95z"/>
  </g>
 </g>
</svg>
