<?xml version="1.0" encoding="UTF-8"?>
<!DOCTYPE svg PUBLIC "-//W3C//DTD SVG 1.1//EN" "http://www.w3.org/Graphics/SVG/1.1/DTD/svg11.dtd">
<!-- Creator: CorelDRAW 2020 (64-Bit) -->
<svg xmlns="http://www.w3.org/2000/svg" xml:space="preserve" width="3.54331in" height="3.54331in" version="1.1" style="shape-rendering:geometricPrecision; text-rendering:geometricPrecision; image-rendering:optimizeQuality; fill-rule:evenodd; clip-rule:evenodd"
viewBox="0 0 3543.31 3543.31"
 xmlns:xlink="http://www.w3.org/1999/xlink"
 xmlns:xodm="http://www.corel.com/coreldraw/odm/2003">
 <defs>
  <style type="text/css">
   <![CDATA[
    .fil0 {fill:#B15760;fill-rule:nonzero}
   ]]>
  </style>
 </defs>
 <g id="Layer_x0020_1">
  <metadata id="CorelCorpID_0Corel-Layer"/>
  <g id="_2356134693696">
   <g>
    <path class="fil0" d="M1567.18 913.8c26.57,-38.56 49.08,-71.19 73.09,-105.97 21.64,36.02 22.3,36.37 10.33,58.62 -19.02,35.37 -39.04,70.23 -58.64,105.29 4.39,2.68 8.79,5.35 13.2,8.05 24.38,-39.31 48.8,-78.61 76.07,-122.55 23.97,38.91 18.84,70.48 7.85,102.29 -18.5,53.73 -50.48,98.35 -90.74,138.07 -154.22,152.21 -277,323.16 -349.27,531.52 -51.26,147.86 -130.17,284.38 -232.23,405.42 -104,123.36 -229.26,211.55 -391.95,239.08 -43.27,7.33 -78.51,0.26 -111.44,-32.77 -43.48,-43.63 -92.46,-81.81 -138.75,-122.65 -11.5,-10.16 -21.79,-21.63 -32.63,-32.48 1.57,-6.35 3.15,-12.7 4.74,-19.04 7.46,3.64 14.7,9.87 22.42,10.52 116.67,9.76 213.53,-32.31 294.91,-114.21 72.59,-73.06 121,-160.83 155.31,-256.87 22.19,-62.03 39.78,-125.85 64.62,-186.78 18.51,-45.31 42.81,-88.82 69,-130.33 56.05,-88.89 140.4,-148.83 221.65,-212.42 85.74,-67.11 170.62,-135.89 250.39,-209.86 56.01,-51.98 97.16,-117.41 116.76,-193.29 6.25,-24.24 9.15,-49.33 14.14,-77.24 41.6,44.09 41.74,44.16 19.91,87.53 -14.24,28.24 -28.95,56.26 -43.43,84.39 2.81,1.42 5.64,2.83 8.44,4.24 21.24,-36.15 42.48,-72.3 64.93,-110.52 8.22,8.24 16.63,14 15.8,16.22 -16.52,43.08 -34.13,85.72 -54.47,135.74zm-1406.15 776.04c6.65,-22.89 13.31,-45.77 19.96,-68.65 20.93,-50.91 36.11,-105.25 63.79,-152.19 125.55,-212.46 294.93,-385.86 498.19,-523.46 132.68,-89.78 273.55,-167.54 411.67,-249.12 69.68,-41.18 148.38,-60.9 226.49,-75 106.64,-19.25 165.57,54.43 132.96,157.79 -22.2,70.43 -61.98,132.02 -116.26,179.46 -97.37,85.16 -199.27,165.26 -301.38,244.8 -114.72,89.41 -205.04,195.79 -250.82,336.16 -14.04,43.06 -29.84,85.56 -43.12,128.85 -23.8,77.52 -59.06,149.57 -106.12,215.08 -67.69,94.13 -154.53,159.75 -275.09,167.76 -169.54,11.24 -337.66,-128.65 -260.28,-361.47zm302.9 -543.9c-108.94,119.24 -226.43,247.27 -290.69,411.95 -23.78,60.96 -44.86,125 -53.17,189.46 -14.54,112.71 18.02,208.6 114.55,282.47 94.7,72.44 183.12,153.54 270.46,234.97 37.28,34.75 76.62,44.9 123.68,40.32 108.44,-10.56 200.51,-59.54 285.69,-123.5 117.85,-88.47 202.61,-205.12 270.33,-333.46 47.95,-90.89 90.12,-185.33 128.06,-280.9 52.43,-132.09 123.34,-250.7 222.69,-352.86 47.32,-48.66 92.81,-99.66 134.06,-153.47 22.01,-28.67 36.69,-64.41 48.54,-99.05 16.11,-47.05 11.02,-91.5 -24.33,-132.33 -47.07,-54.35 -87.39,-114.62 -135.2,-168.26 -55.88,-62.67 -127.25,-71.6 -209.11,-58.7 -145.48,22.96 -260.45,108.59 -384.43,175.4 -180.39,97.14 -344.53,217.59 -501.11,367.96z"/>
    <path class="fil0" d="M478.32 1216.13c28.59,-24.53 63.14,-53.74 97.26,-83.43 210.16,-182.91 452.78,-313.55 701.67,-433.54 36.54,-17.63 77.59,-28.27 117.75,-35.43 43.91,-7.85 65.41,10.65 73.91,54.56 7.38,38.13 -2.06,73.8 -20.43,107.1 -36.26,65.74 -83.05,123.94 -142.6,168.86 -73.7,55.61 -149.85,108.48 -228.31,157.12 -110.86,68.76 -190.78,163.78 -241.38,281.26 -41.42,96.24 -76,195.92 -106.33,296.28 -40.92,135.21 -140.59,210.47 -260.33,262.85 -107.33,46.92 -248.24,-20.02 -274.35,-127.55 -19.63,-80.81 -21.52,-162.9 13.5,-242.52 65.25,-148.56 155.28,-280.24 269.65,-405.57zm-317.29 473.7c0.58,38.72 1.14,77.45 1.78,116.19 2.78,172.04 186.22,260.97 319.93,203 128.32,-55.61 231.66,-138.52 273.08,-283.02 24.88,-86.86 61.47,-170.38 92.66,-255.43 51.77,-141.22 143.2,-248.71 275.8,-319.6 116.33,-62.16 211.3,-149.71 298.67,-246.32 34.79,-38.43 61.6,-82.87 70.65,-135.18 16.93,-97.99 -36.69,-149.4 -131.23,-121.32 -54.82,16.3 -108.26,39.59 -159.56,65.26 -221.38,110.7 -432.87,237.62 -626.09,393.28 -153.2,123.41 -268.96,276.73 -358.44,450.97 -11.2,21.81 -24.8,42.39 -37.28,63.53 -6.65,22.89 -13.31,45.77 -19.96,68.65z"/>
    <path class="fil0" d="M593.6 2148.73c49.1,-4.7 90.36,-27.02 127.43,-58.74 -47.09,9.17 -90.93,25.72 -127.43,58.74z"/>
    <path class="fil0" d="M663.76 2171.24c17.74,-11.14 35.47,-22.26 53.2,-33.41 -2.33,-3.95 -4.62,-7.88 -6.93,-11.82 -18.53,10.38 -37.08,20.72 -55.62,31.09 3.11,4.71 6.23,9.42 9.35,14.14z"/>
    <path class="fil0" d="M324.25 1599.58c51.9,-78.1 117.7,-145.75 190.97,-205.96 20.06,-16.47 45.6,-28.11 70.5,-36.29 26.22,-8.61 41.13,3.22 38.29,30.8 -2.88,28.13 -8.62,57.79 -21.13,82.78 -35.23,70.48 -83.35,132.13 -144.68,182.24 -17.3,14.13 -37,26.61 -57.52,35.25 -33.45,14.03 -56.23,1.8 -65.55,-32.52 -4.75,-17.59 -7.03,-35.88 -10.89,-56.3zm91.52 -152.49c-29.68,36.77 -58,74.76 -89.44,109.93 -28.24,31.59 -29.91,65.63 -18.85,103.24 15.16,51.59 56.26,71.94 105.64,48.51 25.68,-12.2 50.18,-28.7 71.85,-47.19 56.93,-48.6 101.76,-107.9 136.41,-173.79 14.01,-26.62 22.86,-57.84 26.21,-87.83 6.65,-59.83 -26.67,-84.22 -83.8,-62.39 -24.51,9.35 -46.41,25.81 -68.97,39.85 -8.67,5.36 -16.35,12.57 -23.7,19.75 -17.76,17.17 -35.06,34.82 -52.54,52.27 -0.94,-0.78 -1.88,-1.58 -2.81,-2.35z"/>
    <path class="fil0" d="M1279.37 905.12c-157.33,63.84 -317.04,120.67 -479.41,170.39 -11.32,3.44 -15.95,-14.33 -4.66,-17.79 160.85,-49.24 319.14,-105.33 475.02,-168.59 10.78,-4.39 20.03,11.56 9.05,15.99l0 0z"/>
    <path class="fil0" d="M1061.37 1060.46c-130.29,59.51 -260.56,119.02 -390.86,178.52 -10.65,4.88 -19.85,-11.05 -9.06,-15.98 130.28,-59.5 260.59,-119 390.86,-178.5 10.66,-4.89 19.84,11.05 9.05,15.96l0 0z"/>
    <path class="fil0" d="M996.07 971.12c-72.39,133.73 -144.76,267.48 -217.12,401.24 -5.65,10.42 -21.61,1.31 -15.99,-9.09 72.39,-133.74 144.75,-267.5 217.13,-401.25 5.64,-10.42 21.61,-1.29 15.98,9.1l0 0z"/>
    <path class="fil0" d="M861.72 1003.11c-39.3,104.37 -86.58,204.76 -142.27,301.38 -5.91,10.26 -21.9,1.17 -15.99,-9.1 54.92,-95.27 101.72,-194 140.47,-296.95 4.16,-10.97 21.93,-6.39 17.79,4.67l0 0z"/>
    <path class="fil0" d="M1119.42 1302.63c39.97,40.04 79.94,80.07 119.91,120.11 8.37,8.38 -4.62,21.37 -13,12.98 -39.97,-40.04 -79.94,-80.07 -119.92,-120.11 -8.34,-8.35 4.64,-21.35 13,-12.98l0 0z"/>
    <path class="fil0" d="M1087.77 1334.28c34.74,42.47 71.86,82.55 111.55,120.42 8.55,8.17 -4.47,21.15 -13.02,13 -39.67,-37.89 -76.8,-77.96 -111.53,-120.43 -7.39,-9.05 5.52,-22.13 13,-12.98l0 0z"/>
    <path class="fil0" d="M1042.3 1355.79c63.06,56.87 126.13,113.78 189.22,170.67 8.78,7.91 -4.26,20.87 -13.01,12.98 -63.08,-56.9 -126.16,-113.8 -189.22,-170.67 -8.78,-7.92 4.24,-20.89 13,-12.98l0 0z"/>
    <path class="fil0" d="M1022.97 1438.97c63.83,56.08 125.2,114.64 184.2,175.76 8.21,8.51 -4.78,21.52 -13.01,12.98 -58.99,-61.11 -120.36,-119.68 -184.19,-175.75 -8.9,-7.83 4.14,-20.78 13,-12.99l0 0z"/>
    <path class="fil0" d="M1007.22 1550.55c33.3,33.35 66.61,66.72 99.94,100.1 8.34,8.35 -4.63,21.36 -13,12.98 -33.32,-33.38 -66.63,-66.75 -99.94,-100.1 -8.35,-8.36 4.63,-21.36 13,-12.98l0 0z"/>
    <path class="fil0" d="M922.14 1587.56c81.71,78.39 161.21,158.87 238.57,241.54 8.07,8.6 -4.91,21.63 -13,12.98 -77.36,-82.67 -156.86,-163.15 -238.57,-241.54 -8.53,-8.17 4.48,-21.15 13,-12.98l0 0z"/>
    <path class="fil0" d="M910.84 1694.78c67.48,61.16 128.86,127.48 184.6,199.47 7.15,9.24 -5.78,22.31 -13,12.98 -55.77,-72.02 -117.14,-138.33 -184.6,-199.48 -8.78,-7.93 4.26,-20.89 13,-12.98l0 0z"/>
    <path class="fil0" d="M951.25 1798.23c24.1,21.22 48.21,42.44 72.32,63.67 8.88,7.82 -4.16,20.78 -13.01,12.99 -24.1,-21.23 -48.21,-42.45 -72.31,-63.67 -8.86,-7.81 4.17,-20.75 13,-12.99l0 0z"/>
    <path class="fil0" d="M910.9 1822.57c21.69,22.8 45.09,43.37 70.66,61.69 9.53,6.81 0.51,22.85 -9.1,15.96 -26.9,-19.26 -51.75,-40.67 -74.56,-64.67 -8.12,-8.55 4.85,-21.57 13,-12.98l0 0z"/>
    <path class="fil0" d="M1363.61 1082.82c21.31,21.35 42.64,42.71 63.95,64.06 8.36,8.37 -4.62,21.38 -13,12.98 -21.31,-21.35 -42.64,-42.71 -63.95,-64.06 -8.36,-8.37 4.63,-21.37 13,-12.98l0 0z"/>
    <path class="fil0" d="M488.01 2108.95c44.5,43.5 88.98,86.99 133.45,130.46 8.44,8.26 -4.54,21.26 -13.01,12.99 -44.47,-43.48 -88.94,-86.96 -133.44,-130.47 -8.45,-8.26 4.55,-21.24 13,-12.98l0 0z"/>
    <path class="fil0" d="M478.73 2134.13c28,28.04 55.97,56.06 83.94,84.08 8.36,8.37 -4.64,21.36 -13,12.98 -27.98,-28.02 -55.95,-56.04 -83.94,-84.08 -8.34,-8.35 4.65,-21.35 13,-12.98l0 0z"/>
    <path class="fil0" d="M557.21 1395.46c-33.78,31.41 -66.1,64.12 -96.04,99.22 -14.72,17.2 -28.65,34.98 -42.19,53.13 -18.2,24.41 -47.87,44.64 -21.82,68.46 24.74,22.63 41.48,-1.58 63.68,-20.96 16.38,-14.27 31.99,-30 46.28,-46.37 18.52,-21.16 35.48,-44.28 49.33,-68.79 8.09,-14.31 52.41,-93.02 -11.65,-77.21 -11.47,2.82 -16.17,-14.94 -4.66,-17.78 47.4,-11.69 66.47,24.07 51.8,65.13 -27.13,75.98 -105.01,168.45 -179.53,200.42 -36.96,15.86 -69.93,8.16 -57.91,-35.83 9.5,-34.66 42.37,-69.18 64.54,-97.53 37.94,-48.51 80.09,-93 125.18,-134.88 8.65,-8.02 21.67,4.95 12.98,13l0 0z"/>
    <path class="fil0" d="M640.89 1664.05c-77.86,58.1 -158.39,111.94 -241.82,161.71 -10.13,6.07 -19.22,-9.9 -9.05,-15.96 83.39,-49.81 163.93,-103.65 241.8,-161.73 9.45,-7.04 18.44,8.98 9.07,15.98l0 0z"/>
    <path class="fil0" d="M591.54 1754.55c-75.76,56.93 -151.5,113.85 -227.25,170.8 -9.4,7.07 -18.41,-8.96 -9.05,-16 75.75,-56.93 151.51,-113.83 227.26,-170.76 9.4,-7.07 18.42,8.97 9.04,15.97l0 0z"/>
    <path class="fil0" d="M546.58 1679.7c-32.76,75.05 -65.53,150.07 -98.31,225.09 -4.74,10.85 -20.64,1.68 -15.96,-9.06 32.75,-75.05 65.55,-150.07 98.32,-225.09 4.73,-10.85 20.65,-1.65 15.95,9.07l0 0z"/>
   </g>
   <g>
    <path class="fil0" d="M1789.21 2263.45c-34.87,-51.88 -37.6,-52.97 -21.21,-93.98 14.24,-35.61 10.37,-64.38 -14.81,-91.97 -9.57,-10.45 -18.09,-21.85 -31.94,-38.72 163.73,-8.49 309.7,25.95 463.8,87.1 -57.74,24.69 -99.11,28.97 -145.66,7.11 -41.79,-19.62 -88.65,-29.8 -137.98,-16.3 37.4,14.35 74.81,28.7 116.37,44.69 -58.83,53.47 -112.72,-34.55 -171.54,4.83 25.2,12.94 46.86,24.05 74.65,38.29 -48.51,21.72 -88.04,39.43 -131.67,58.96zm-362.47 381.76c172.69,-220.32 377.02,-384.54 646.59,-451.14 263.04,-65.04 522.67,-58.45 781.07,37.91 -14.67,18.23 -22.95,28.5 -31.19,38.76 2.17,3.87 4.36,7.73 6.53,11.61 63.63,-14.72 127.27,-29.43 190.76,-44.08 31.98,63.74 17.4,124.39 -2.3,183.3 -36.68,109.67 -99.34,204.61 -183.91,282.29 -125.87,115.63 -263.62,213.25 -427.5,271.2 -265.02,93.72 -525.05,94.94 -780.82,-30.33 -29.75,-14.56 -58.78,-30.6 -89.61,-46.76 -84.81,184.43 -265.83,230.4 -435.17,322.04 31.77,-83.34 55.56,-150.54 82.94,-216.27 28.16,-67.64 59.82,-133.78 91.15,-203.3 -217.27,-11.69 -375.33,-80.28 -473.8,-254.2 211.7,16.53 422.38,-5.3 625.25,98.97zm-210.52 185.61c-45.46,116.41 -89.21,228.65 -133.22,340.83 -5.63,14.34 -14.45,27.7 -18.38,42.41 -7.55,28.06 8.35,43.99 37.64,39.16 7.48,-1.27 14.51,-5.26 21.74,-7.91 114.21,-41.78 224.72,-91.88 319.48,-168.99 43.12,-35.09 77.43,-81.07 118.41,-124.96 39.78,18.91 82.45,42.14 127.27,60.02 227.55,90.84 456.57,86.19 688.06,12.36 185.91,-59.28 343.13,-164.06 482.61,-296.47 100.7,-95.56 174.45,-209.98 203.96,-348.16 17.85,-83.19 8.09,-123.96 -40.64,-185.59 -62.8,36.54 -123.52,9.79 -187.28,-11.98 -165.26,-56.39 -336.31,-75.65 -510.39,-63.43 -39.62,2.78 -73.68,-2.99 -110.73,-20.16 -141.61,-65.61 -290.39,-105.67 -448.03,-102.5 -34.59,0.7 -69.02,8.57 -105.26,13.37 0.01,63.04 58.28,71.21 80.03,115.55 -16.77,50.17 -38.13,107.65 16.52,160.93 -128.54,90.11 -241.72,190.11 -336.26,321.24 -205.83,-99.41 -428.06,-82.74 -649.14,-87.78 -15.29,42.77 9.46,68.83 28.69,93.98 91.96,120.39 213.3,191.37 364.09,210.84 17.19,2.24 34.31,4.86 50.83,7.22z"/>
    <path class="fil0" d="M2227.96 2902.2c-35.09,-47.25 -55.3,-84.99 -43.88,-139.2 11.57,-54.96 11.69,-112.38 15.59,-168.79 0.75,-11.18 -4.17,-22.78 -19.93,-34.21 -7.97,59.51 -16.03,119 -26.18,194.59 -27.65,-45.03 -46.72,-76.1 -65.79,-107.16 -3.65,1.03 -7.29,2.02 -10.92,3.01 0.69,12.94 -2.49,27.68 2.64,38.47 33.07,69.81 66.68,139.44 102.65,207.78 25.74,49 52.18,52.52 87.91,12.18 18.51,-20.9 37.75,-44.83 45.54,-70.75 24.3,-80.85 44.47,-163.04 63.36,-245.37 4.04,-17.48 -4.04,-37.73 -17.51,-56.98 -21.32,90.43 -42.59,180.87 -63.89,271.3 -5.52,-0.91 -10.98,-1.8 -16.51,-2.7 -7.7,-43.66 9.7,-86.15 13.59,-129.15 4.15,-45.55 11.15,-90.87 18.15,-146.08 -32.17,41.73 -32.27,41.72 -44.32,115.08 -7.14,43.19 -14.04,86.41 -20.83,129.65 -6.15,39.34 -12.09,78.76 -19.68,128.34z"/>
    <path class="fil0" d="M2012.99 2905.37c-37.34,-0.16 -74.71,0.09 -112.03,-0.57 -28.48,-0.47 -60,0.24 -72.6,-31.63 -13.28,-33.7 8.19,-59.87 29.61,-82.24 17.03,-17.77 38.22,-31.52 66.52,-54.26 -30.53,-14.19 -53.3,-23.21 -74.51,-35 -53.15,-29.51 -57.16,-70.35 -9.7,-109.3 19.42,-15.92 42.85,-27.02 73.89,-46.1 -20.3,-13.03 -36.86,-21.4 -50.51,-33.12 -14.63,-12.54 -35.58,-27.07 -37.65,-42.87 -3.89,-29.51 18.75,-45.04 48.06,-48.7 4.29,-0.54 8.11,-4.7 12.17,-7.15 -41.16,-8.84 -59.97,-5.16 -75.2,17.72 -32.64,49.12 8.79,79.46 31.56,113.35 -92.5,98.25 -90.15,131.96 17.13,199.72 -15.9,19.47 -33.11,37.39 -46.67,57.73 -45.27,67.86 -15.09,130.91 65.34,136.26 25.49,1.67 51.47,-0.72 76.98,-3.25 19.56,-1.93 38.8,-7.04 58.15,-10.72 -0.21,-6.63 -0.36,-13.26 -0.53,-19.87z"/>
    <path class="fil0" d="M2542.29 2708.78c-101.5,-97.53 -83.16,-113.11 -13.5,-205.64 -108.05,-78.48 -108.05,-78.48 -56.49,-148.31 -40,-21.05 -79.22,-41.72 -115.59,-60.88 -0.7,-50.17 42.32,-43.54 66.32,-61.76 -45.65,-11.49 -87.62,0.49 -96.08,30.59 -19.76,70.7 50.2,71.37 80.53,98.86 2.56,31.81 -1.86,64.06 9.26,89.49 10.44,23.89 37.4,40.57 60.16,63.54 -28.19,41.18 -50.2,89.09 -23.79,140.48 17.33,33.82 46.48,58.31 89.18,53.63z"/>
    <path class="fil0" d="M2165.16 2412.96c-94.15,-80.92 -93.76,-98.15 2.68,-144.13 -36.52,-26.02 -65.16,-12.25 -87.48,14.44 -45.57,54.51 1.05,93.47 28.8,134.72 -28.36,36.02 -77.13,61.3 -56.59,117.63 10.41,28.5 27.87,34.76 92.86,33.81 -26.23,-19.2 -45.07,-32.96 -64.32,-46.98 -2.06,-58.62 52.16,-72.57 84.06,-109.5z"/>
    <path class="fil0" d="M1444.11 2826.66c-42.37,35.43 -103.19,142.09 -124.51,218.43 52.93,-32.24 114.05,-139.43 124.51,-218.43z"/>
    <path class="fil0" d="M2725.03 2304.6c0.93,-10.99 7.8,-30.63 2.72,-46.41 -7.82,-24.2 -47.58,-31.67 -72.05,-17.12 -20.67,12.3 -25.95,30.13 -14.32,51.25 12.15,22.06 51.8,31.44 83.65,12.28z"/>
    <path class="fil0" d="M1085.91 2632.42c85.12,10.89 170.26,21.79 269.23,34.44 -63.2,-37.57 -192.89,-54.33 -269.23,-34.44z"/>
    <path class="fil0" d="M1256.33 3034.29c29.65,-56.92 59.33,-113.85 89.02,-170.78 -4.73,-2.52 -9.52,-5.05 -14.28,-7.61 -45.36,48.76 -71.93,108.06 -94.39,169.65 6.54,2.93 13.06,5.81 19.65,8.73z"/>
    <path class="fil0" d="M1100.48 2713.98c64.4,1.88 128.78,3.73 193.16,5.62 -63.09,-31.04 -127.65,-31.44 -192.73,-22.99 -0.14,5.79 -0.28,11.58 -0.43,17.37z"/>
   </g>
   <path class="fil0" d="M3239.33 1045.69c0.3,1.57 4.89,1.19 4.78,-0.4 -25.22,-349.63 -342.26,-653.37 -693.92,-655.51 -1.37,0.01 -4.65,1.78 -1.65,2.21 166.52,24.61 323.61,81.51 450.07,196.05 133.44,120.87 208.54,282.59 240.72,457.65z"/>
   <path class="fil0" d="M3237.88 1036.93c-57.16,7.76 -113.78,21.67 -170.07,34.13 -38.75,8.55 -70.13,17.17 -98.23,45.55 -18.89,19.07 -50.8,62.35 -80.37,40.98 -12.28,-8.87 -12.37,-36.6 -13.33,-58.78 -3.59,-8.07 -6.47,-17.54 -3.21,-25.29 -0.75,-2.77 -1.51,-5.53 -2.37,-8.33 -3.45,3.79 -7.45,7.16 -12.12,9.93 8.84,22.54 13.66,46.77 12.24,75.4 6.38,4.34 12.17,8.99 18.29,13.11 30.75,4.76 51.2,-0.05 75.65,-24.77 37.57,-37.94 30.36,-40.83 67.85,-51.01 21.69,-5.89 43.96,-10.07 65.87,-15.02 47.19,-10.63 94.73,-21.06 141.09,-34.93 1.21,-0.37 -0.83,-1.04 -1.31,-0.98z"/>
   <path class="fil0" d="M2976.97 1114.45c-8.25,-13.51 -17.65,-26.87 -27.97,-39.72 -6,-5.05 -11.95,-9.94 -18.1,-14.31 -4.67,0.36 -9.36,0.37 -14,-0.38 18.42,17.38 35.28,36.94 50.62,60.17 2.02,3.04 11.33,-2.67 9.45,-5.76z"/>
   <path class="fil0" d="M2737.85 1086.8c12.21,11.29 23.76,23.32 34.65,35.46 1.12,-0.93 2.24,-1.85 3.48,-2.72 2.04,-1.43 4.3,-2.4 6.6,-3.18 -3.87,-5.68 -8.09,-11.12 -12.45,-16.46 -9.36,-5.94 -20.74,-9.62 -32.27,-13.1z"/>
   <path class="fil0" d="M2780.82 1175.19c-1.37,1.78 -2.75,3.55 -4.32,5.21 -6.04,7.09 -12.06,14.2 -18.08,21.29 -10.09,11.07 -20.83,21.66 -32.05,31.63 -27.23,24.24 -94.21,84.37 -124.44,42.48 -32.65,-45.25 54.24,-99.75 62.99,-145.11 2.05,-10.76 1.08,-20.51 -1.95,-29.96 -0.2,6.26 -0.89,12.48 -3.09,18.12 -1.31,3.35 -2.97,6.2 -4.89,8.68 -1.91,6.13 -4.61,11.78 -7.91,17.32 -9.68,25.88 -32.69,49.24 -47.09,72.72 -13.02,21.21 -24.28,56.16 0.02,74.78 19.72,15.13 47.18,3.04 66.05,-7.02 48.51,-25.84 88.89,-64.45 121.82,-108.17 -2.41,-0.37 -4.77,-1.07 -7.06,-1.98z"/>
   <path class="fil0" d="M2835.54 1124.13c-5.49,0.24 -10.7,1.48 -15.61,3.39 1.4,1.98 2.6,4.11 3.52,6.36 6.9,-1.99 14.34,-2.18 21.7,-0.12 11.7,3.27 18.12,11.87 28.07,17.8 0.67,0.41 4.01,0.84 3.87,-0.64 -1.61,-18.09 -25.6,-27.49 -41.55,-26.78z"/>
   <path class="fil0" d="M2622.88 1138.59c-185.3,20.63 -369.46,46.8 -555.7,60.7 -4.41,0.33 -12.59,12.41 -6,12.04 185.18,-10.63 373.07,-27.47 555.38,-63.78 2.15,-3.04 4.29,-6.01 6.32,-8.95z"/>
   <path class="fil0" d="M2475.6 916.48c-6.65,6.94 -16.19,13.16 -26.18,12.98 -9.8,-0.18 -16.72,-5.35 -21.38,-12.85 -3.77,-4.47 -7.08,-9.41 -8.93,-12.54 -5.05,-8.52 -5.61,-29.55 -16.44,-35.19 -16.93,-8.8 -28.63,4.77 -36.45,18.37 -18.96,-17.54 -40.5,-33.71 -64.17,-44.2 -6.7,-2.96 -23.04,-5.57 -27.77,-9.31 -29.4,-23.29 -0.4,-51.6 12.26,-70.3 75.74,-4 158.11,16.22 192.22,92.97 1.89,6.2 3.75,12.41 5.61,18.61 2.56,3.95 4.05,8.59 3.76,13.94 -0.56,10.39 -5.36,20.04 -12.53,27.52zm18.13 -52.46c-22.59,-81.67 -130.54,-127.06 -207.52,-102.61 -2,-0.28 -6.36,1.06 -7.39,2.62 -9.4,13.94 -44.33,47.44 -31.72,66.53 6.07,9.19 25.81,9.44 34.53,12.39 34,11.56 58.08,29.97 78.23,59.74 2.7,3.99 8.33,-2.45 9.65,-4.83 16.39,-29.67 52.48,31.67 63.56,36.5 11.49,5 23,4.59 34.31,-0.49 27.11,-12.18 33.6,-43.59 26.35,-69.83z"/>
   <path class="fil0" d="M2280.51 769.22c87.63,-127.1 179.35,-249.89 272.93,-372.61 2,-2.63 -5.67,-1.35 -7.07,0.34 -99.07,117.56 -190.41,244.48 -273.98,373.43 -2.03,3.13 6.64,1.01 8.13,-1.16z"/>
   <path class="fil0" d="M2018.93 1169.46c40.06,-56.52 77.52,-114.98 115.9,-172.63 38.08,-57.18 82.31,-113.72 114,-174.7 0.56,-1.06 -2.44,-1.19 -2.99,-0.5 -41.8,52 -76.44,110.68 -113.52,166.11 -40.63,60.71 -82.48,120.84 -121.34,182.71 -2.01,3.19 6.55,1.04 7.94,-1z"/>
   <path class="fil0" d="M2032.5 1194.29c2.29,-1.02 4.53,-2.09 6.79,-3.16 -0.36,4.36 0.81,8.55 3.94,12.07 4.93,5.56 9.55,4 16.43,4.05 1.33,0.02 2.31,-1.17 0.45,-1.43 -1.88,-0.26 -7.56,-7.6 -8.38,-8.97 -2.6,-4.29 -3.22,-8.46 -1.74,-13.21 1.05,-3.42 -3.81,-1.99 -5.16,-1.39 -2.42,1.05 -4.83,2.13 -7.23,3.2 -3.88,-7.69 -9.37,-14.68 -17.54,-17.97 -2.6,-1.04 -11.57,3.35 -8.24,6.2 7.25,6.29 12.81,11.47 16.87,20.35 0.53,1.2 3.02,0.63 3.82,0.24z"/>
   <path class="fil0" d="M1962.09 1650.49c4.54,8.67 9.67,16.82 15.58,23.94 0.43,-0.88 0.72,-1.75 0.57,-2.49 -15.61,-85.48 -21.3,-171.41 -13.6,-258.1 3.39,-38.44 9.24,-76.66 17.37,-114.39 8.92,-41.29 25.37,-81.4 32.85,-122.75 0.16,-0.91 -2.51,-1.02 -2.85,-0.34 -38.55,73.77 -51.91,167.48 -58.63,249.57 -6.11,74.83 -3.2,150.41 8.71,224.57z"/>
   <path class="fil0" d="M2008.67 1632.1c5.64,-64.49 3.83,-129.75 8.56,-194.42 5.49,-75.04 17.83,-149.01 25.05,-223.78 0.08,-0.87 -2.5,-1.08 -2.7,-0.18 -15.38,68.17 -21.64,139.17 -27.31,208.71 -5.61,68.84 -12.94,140.62 -6.51,209.5 0.08,0.97 2.81,1.14 2.91,0.16z"/>
   <path class="fil0" d="M3055.91 1478.67c40.78,-65.06 77.06,-133.04 108.69,-203.02 34.28,-75.78 73.09,-160.19 85.08,-243.03 0.09,-0.63 -1.63,-0.79 -1.87,-0.24 -29.35,70.32 -48.93,144.44 -79.23,214.68 -33.99,78.81 -74.42,153.94 -119.11,227.13 -5.09,8.35 1.06,13.06 6.44,4.48z"/>
   <path class="fil0" d="M2725.08 1517.37c26.03,-81.23 55.79,-17 85.41,-2.71 18.76,9.04 41.17,6.89 61.15,4.79 60.15,-6.35 120.64,-17.82 179.37,-32.03 2.81,-0.7 7.16,-6.02 1.67,-5.04 -40.33,7.26 -80.57,14.66 -121.22,19.93 -19.93,2.57 -40.27,5.82 -60.37,6.5 -16.24,0.56 -36.64,-0.24 -51.24,-8.43 -13.59,-7.63 -21.8,-23.07 -33.59,-32.69 -39.44,-32.21 -62.99,19.46 -70.4,51.98 -1.08,4.69 8.29,0.57 9.23,-2.31z"/>
   <path class="fil0" d="M2615.47 1539.11c33.88,-4.35 72.3,-7.52 104.17,-20.19 0.23,-0.07 -0.22,-0.28 -0.31,-0.28 -30.02,-2.07 -62.27,7.2 -92.54,8.61 -32.76,1.56 -68.43,0.53 -100.2,8.69 -0.74,0.19 -4.68,2.15 -2.31,3.08 26.28,10.24 63.94,3.56 91.19,0.08z"/>
   <path class="fil0" d="M2470.37 1540.22c-6.04,4.78 -2.21,9.55 3.85,4.71 22.6,-18.03 5.33,-31.33 -15.78,-38.76 -20.15,-7.13 -42.09,-3.28 -49.57,-29.87 -6.76,-24.03 31.43,-68.5 48.39,-83.44 27.57,-24.28 89.38,-57.07 114.59,-15.22 18.52,30.73 10.35,76.82 -13.24,103 -9.92,11.01 -44.57,25.02 -47.9,43.29 -2.84,15.73 8.91,19.69 20.96,14.88 3.29,-1.32 -0.87,-2.66 -2.63,-2.11 -3.33,-14.86 -0.31,-25.17 9.04,-30.91 3.37,-2.21 6.72,-4.48 10.01,-6.83 8.39,-9.82 18.04,-16.4 25.46,-27.66 11.64,-17.66 18.75,-38.74 19.19,-59.95 0.98,-48.51 -30.61,-77.53 -76.91,-60.2 -41.1,15.43 -91.83,45.48 -112.4,85.78 -8.81,17.24 -11.41,38.05 -1.39,55.56 3.68,6.43 7.69,11.35 14.02,15.36 8.43,5.34 72.63,17.91 54.28,32.39z"/>
   <path class="fil0" d="M2479.2 1541.92c0.09,-0.11 -0.3,-0.25 -0.36,-0.15 -0.1,0.12 0.28,0.26 0.36,0.15z"/>
   <path class="fil0" d="M1962.81 1645.85c-0.59,-0.36 -1.81,-0.31 -3.08,0 5.79,11.75 12.52,22.74 20.74,31.82 10.24,4.04 22.59,4.63 35.7,2.72 49.9,-7.36 100.54,-28.07 148.96,-42.08 106.12,-30.67 211.04,-64.42 316.5,-97.14 3.39,-1.06 0.69,-2.79 -1.65,-2.19 -92,23.73 -184.07,46.57 -275.73,71.69 -45.32,12.44 -90.51,25.35 -135.76,38.11 -17.37,4.91 -35.39,11.7 -53.47,13.43 -23.7,2.29 -33.43,-5.6 -52.22,-16.37z"/>
   <path class="fil0" d="M2120.87 1498.62c13.03,-22.74 39.3,-44.16 67.36,-37 24.85,6.34 39.12,35.98 20,56.08 -20.56,18.44 -53.94,50.89 -82.25,30.59 -17.07,-12.24 -14.43,-33.4 -5.11,-49.67zm15.08 60.87c30.03,5.13 56.65,-16.35 73.34,-39.28 0.67,-0.03 1.3,-0.13 1.59,-0.38 27.16,-23.04 8.88,-60.56 -23.56,-64.71 -30.05,-3.83 -57.83,17.38 -73.15,41.51 -16.15,25.41 -11.7,57.12 21.77,62.85z"/>
   <path class="fil0" d="M2272.33 1365.65c2.57,-1.56 -2.48,-1.96 -3.52,-1.55 -22.23,8.94 -21.46,9.62 -50.46,5.84 -20.19,5.55 -31.94,-0.42 -35.28,-17.92 -1.69,-5.25 -2.27,-10.63 -1.7,-16.12 -0.12,-21.1 9.66,-42.75 19.86,-61.1 17.04,-30.62 59.52,-28.5 81.95,-4.37 20.12,21.68 18.37,54.77 -8.54,70.85 -0.5,0.28 0.66,0.61 0.89,0.52 34.29,-11.99 37.14,-54.73 12.29,-78.47 -24.85,-23.71 -65.8,-28.25 -87.53,0.83 -20.12,26.94 -44.35,83.01 -10.34,109.22 24.83,19.14 58.88,6.59 82.37,-7.75z"/>
   <path class="fil0" d="M2299.93 1432.02c-5.59,-12.07 -8.74,-24.32 -19.07,-30.78 0.84,-0.02 1.65,-0.15 1.95,-0.37 17.68,-13.06 39.42,-34.55 62.48,-19.5 17.32,11.31 11.28,32.06 3.35,47.09 -5.39,10.2 -15,29.41 -30.07,24.92 -9.04,-2.68 -15.02,-13.58 -18.63,-21.36zm17.48 26.75c21.76,3.04 35.93,-22.64 43.07,-39.17 9.31,-21.58 3.78,-45.79 -22.76,-49.05 -22.23,-2.76 -45.44,12.85 -58.95,29.29 -0.04,0.03 0.01,0.03 -0.01,0.07 -1.81,-0.9 -3.79,-1.62 -6.02,-2.19 -0.35,-0.08 -3.41,-0.01 -2.61,0.92 10.75,12.72 16.01,26.34 23.95,40.62 5.02,9.01 12.5,18 23.32,19.5z"/>
   <path class="fil0" d="M2495.77 1272.02c22.24,-5.36 37.53,-29.9 37.29,-52.05 -0.01,-1.69 -4.4,-0.95 -4.92,0.18 -6.37,13.92 -8.35,31.74 -21.13,41.86 -13.59,10.78 -32.84,5.21 -36.24,-11.85 -2.1,-10.59 1.69,-22.39 6.85,-31.56 6.45,-11.38 17.07,-23.13 33.77,-16.91 7.19,2.66 12.79,8.56 13.85,16.11 0.12,0.75 2.28,0.99 2.29,0.26 0.22,-18.61 -18.44,-25.98 -34.37,-20.05 -18.31,6.84 -30.79,28.76 -31.28,47.74 -0.53,19.68 15.37,30.74 33.88,26.27z"/>
   <path class="fil0" d="M2787.9 1354.18c24.24,14.33 54.9,-2.04 73.54,-18.03 1.82,-1.59 -3.58,-1.48 -4.42,-0.99 -20.65,11.94 -54.39,32.04 -70.96,5.47 -7.21,-11.53 -5.03,-26.81 -0.04,-38.78 9.4,-22.53 34.36,-47.25 62.07,-35.82 16.78,6.93 25.62,29.28 13.72,44.83 -0.54,0.7 2.05,1.16 2.59,0.51 18.1,-21.85 4.15,-49.39 -23.49,-52.09 -21.91,-2.15 -41.68,11.47 -54.13,28.46 -13.73,18.79 -23.5,51.86 1.13,66.43z"/>
   <path class="fil0" d="M2760.29 774.36c-14.36,-19.69 -25.57,-41.78 -35.8,-63.81 -12.51,-26.96 -45.47,-82.81 12.65,-79.07 48.97,3.16 105.88,52.87 134.94,87.85 31.07,37.38 46.37,79.5 60.85,125.03 -0.65,-0.01 -1.35,0.08 -2.24,0.37 -67.74,23.36 -131.57,-17.08 -170.41,-70.37zm171.84 74.13c2.11,-0.76 2.96,-1.88 2.92,-2.79 0.75,-0.03 1.43,-0.26 1.39,-0.74 -4.94,-75.43 -56.37,-146.05 -117.77,-187.37 -25.56,-17.2 -90.74,-57.73 -119.76,-23.06 -16.7,19.96 1.64,48.38 10.33,67.69 15.94,35.43 34.09,70.89 60.82,99.57 42.3,45.41 102.54,68.13 162.07,46.7z"/>
   <path class="fil0" d="M2533.17 683.24c16.64,-1.37 41.98,-15 43.06,-33.79 0.14,-2.09 -5.09,-0.44 -5.69,0.59 -10.51,17.11 -24.63,34.62 -47.7,27.02 -13.78,-4.54 -24.95,-16.55 -26.87,-31.07 -2.32,-17.34 10.68,-38.61 30.17,-36.81 14.82,1.37 28.89,15.8 30.93,30.54 0.17,1.16 3.44,1.22 3.56,0.04 1.07,-11.38 -1.38,-19.88 -10.54,-27.49 -7.41,-6.15 -17.18,-9.3 -26.76,-8.19 -19.67,2.27 -36.87,20.84 -36.24,40.87 0.74,23.29 23.82,40.13 46.08,38.3z"/>
   <path class="fil0" d="M3123.5 898.22c0.44,-0.37 0.83,-0.93 0.72,-1.54 -0.03,-0.1 -0.06,-0.2 -0.08,-0.3 -0.22,-1.03 -2.09,-0.98 -2.83,-0.75 -8.87,2.93 -16.46,7.78 -25.79,2.43 -7,-4.01 -9.46,-12.35 -7.08,-19.81 3.02,-9.48 12.19,-10.16 19.23,-4.44 4.82,3.89 7.18,9.94 6.96,16.07 -0.05,1.24 3.22,1.02 3.67,0.19 5.07,-9.08 -0.11,-20.34 -9.24,-24.64 -9.3,-4.37 -20.47,0.32 -26.28,8.21 -6.6,8.93 -6.73,22.16 2.83,29.09 11.07,8.04 28.23,3.75 37.9,-4.51z"/>
   <path class="fil0" d="M2375.93 1122.03c15.63,1.45 35.78,-6.85 38.91,-23.69 0.52,-2.63 -5.87,-1.03 -6.64,0.73 -10.82,25.25 -41.3,22.75 -55.14,2.44 -8.24,-12.05 -11.48,-28.53 -10.04,-42.86 2.8,-27.56 30.02,-30.07 46.94,-14.07 12.28,11.61 16.64,29.4 24.36,43.93 0.13,0.24 1.21,0.57 1.21,0.14 -0.37,-26.95 -15.25,-61 -46.57,-61.04 -23.4,-0.02 -35.87,19.8 -34.53,41.69 1.39,23.02 16.21,50.38 41.5,52.73z"/>
   <path class="fil0" d="M2942.48 1069.3c-7.8,-6.41 -15.7,-12.24 -24.28,-16.69 -8.68,-2.13 -17.91,-3.49 -26.79,-3.39 -17.52,0.18 -26.82,12.82 -27.86,29.31 -0.3,4.67 6.11,5.11 7.71,1.45 0.08,-1.94 0.46,-3.81 1.1,-5.62 3.23,-16.05 18.2,-19.2 33.65,-15.21 5.59,1.43 11.53,1.59 17.17,3.11 4.67,1.26 8.81,7.97 12.43,11.04 3.34,2.83 7.88,-0.77 6.86,-4z"/>
   <path class="fil0" d="M2911.02 1049.35c-6.89,-0.36 -13.62,-0.2 -18.85,-0.52 -9.82,-0.57 -16.13,3.85 -23.69,9.63 -2.7,2.07 -4.11,4.2 -5.15,6.41 -3.47,3.56 -6.51,7.77 -4.68,12.72 1.2,3.25 5.43,4.11 7.4,0.96 1.68,-2.68 1.69,-4.88 2.54,-7.54 1.42,-1.56 3.13,-3.04 3.92,-3.79 0.96,-0.94 1.29,-2.02 1.19,-3.04 4.56,-3.59 11.33,-6.94 14.8,-7.3 11.97,-1.26 43.48,-2.15 47.1,12.59 1,4.1 6.21,3.44 7.56,0.38 -10.14,-8.38 -20.4,-15.89 -32.13,-20.52z"/>
   <path class="fil0" d="M2947.77 1140.47c-7.72,8.39 -18.61,10.43 -27.52,17.04 -14.45,10.7 -32.1,-6.88 -41.67,-15.01 -3.96,-3.36 -9.72,2.35 -5.74,5.74 6.83,5.79 9.7,10.81 18.04,14.81 7.68,3.69 16.31,4.72 24.7,4.47 7.88,-0.22 13.7,-7.36 20.91,-9.65 7.75,-2.46 11.67,-5.84 17.02,-11.65 3.52,-3.84 -2.19,-9.59 -5.74,-5.74z"/>
   <path class="fil0" d="M2788.78 1132.03c-3.52,-11.28 -10.75,-22.78 -19.26,-32.53 -6.43,-3.97 -13.77,-6.93 -21.45,-9.49 0.27,0.41 0.59,0.81 1.04,1.14 5.03,3.74 9.8,8.39 14.13,13.54 -0.84,1.13 -1.18,2.64 -0.4,4.24 5.76,11.7 19.7,20.52 19.7,34.54 0,7.76 0.58,15.9 -0.49,23.61 -0.76,5.52 -4.93,9.08 -5.58,14.74 -0.44,3.84 4.56,4.91 6.91,2.87 13.59,-11.82 11,-31.32 6.83,-47.63 -0.29,-1.72 -0.76,-3.4 -1.44,-5.02z"/>
   <path class="fil0" d="M2760.11 1096.23c-1.36,-1.28 -2.81,-2.35 -4.28,-3.39 -9.48,-3.72 -19.79,-6.48 -29.73,-9.64 -5.28,-0.46 -10.61,-0.61 -15.82,-0.61 -12.61,0 -34.07,-7.32 -42.8,5.57 -1.91,2.82 -3.33,5.76 -4.48,8.77 -0.03,7.52 -0.5,15.15 -3.14,21.93 -0.7,1.8 -1.5,3.46 -2.37,5.03 -1.43,8.71 -3.56,17.2 -9.44,24.69 -3.18,4.06 2.51,9.83 5.74,5.73 6.11,-7.8 9.33,-14.56 12.17,-24.06 5.15,-17.17 -3.9,-41.84 24.45,-40.79 11.77,0.43 23.71,1.15 35.44,2.24 13.59,1.26 48.96,16.71 50.63,35.44 0.46,5.16 8.56,5.21 8.1,0 -1.34,-15.13 -14.16,-21.27 -24.47,-30.91z"/>
   <path class="fil0" d="M2657.55 1119.02c-4.06,7.02 -11.21,12.72 -18.84,15.35 -9.21,3.17 -19.68,6.25 -29.3,5.93 -5.24,-0.17 -5.22,7.93 0,8.1 12.21,0.41 22.29,-3.07 33.74,-7.01 8.72,-3 16.81,-10.34 21.4,-18.29 2.62,-4.54 -4.38,-8.61 -7,-4.08z"/>
   <path class="fil0" d="M2829.07 1124.25c-12.32,2.57 -20.92,4.13 -32.52,-2.65 -10.28,-6 -20.11,-13.15 -29.35,-20.61 -4.04,-3.25 -9.8,2.44 -5.74,5.74 11.97,9.66 24.68,18.72 38.29,25.94 10.09,5.37 21.35,1.5 31.47,-0.61 5.11,-1.06 2.94,-8.87 -2.15,-7.81z"/>
   <path class="fil0" d="M2248.24 805.67c-1.9,7.78 -9.46,15.3 -13.39,22.04 -5.45,9.33 -6.74,18.82 -14.7,26.79 -3.69,3.7 2.03,9.42 5.73,5.73 4.19,-4.19 7.13,-7.78 9.83,-13.09 2.7,-5.28 2.66,-11.58 7.03,-16.11 3.12,-3.22 5.02,-7.45 6.77,-11.5 1.84,-4.24 5.4,-7.06 6.54,-11.7 1.24,-5.07 -6.58,-7.22 -7.82,-2.15z"/>
   <g>
    <path class="fil0" d="M3239.91 1054.47c-4,-0.5 -7.44,-2.8 -8.3,-7.33 -16.56,-90.13 -44.58,-176.65 -86.2,-255.77 -38.5,-73.2 -88.63,-140.05 -152.06,-197.5 -62.5,-56.61 -132.64,-99 -207.77,-130.3 -75.24,-31.35 -155.52,-51.56 -238.18,-63.78 -2.77,-0.41 -4.76,-1.6 -6.13,-3.29 -2.22,-2.77 -2.37,-5.75 -1.06,-8.59 0.63,-1.37 1.57,-2.5 2.67,-3.36 1.74,-1.37 5.15,-2.58 7.27,-2.59l0.06 0c177.35,1.08 345.91,77.89 473.5,198.41 128.42,121.31 215.44,286.99 228.23,464.39 0.33,4.48 -2.17,7.44 -5.85,8.93 -0.98,0.41 -2.06,0.68 -3.14,0.8 -1.02,0.12 -2.08,0.12 -3.06,0zm-48.28 -201.25c-16.44,-41.42 -36.93,-81.26 -60.91,-118.96 10.16,16.24 19.68,32.85 28.59,49.79 11.84,22.5 22.59,45.59 32.31,69.18zm-265.21 -331.8c-66.78,-46.47 -141.01,-81.78 -219.32,-102.57 28.74,8.69 56.95,18.7 84.52,30.19 47.03,19.59 92.17,43.47 134.8,72.38z"/>
    <path class="fil0" d="M3096.54 1056.57c46.44,-10.48 93.14,-21.02 140.3,-27.43l0.09 -0.03c1.39,-0.17 4.56,0.44 6.11,1.3 0.94,0.52 1.81,1.22 2.54,2.1 2.2,2.67 2.71,5.48 0.93,8.85l-0.15 0.28c-0.98,1.7 -2.54,3.07 -4.85,3.78l-0.06 0.03c-43.23,12.94 -87.65,22.93 -131.85,32.85l-9.76 2.2c-7.94,1.79 -14.39,3.17 -20.9,4.56 -14.87,3.17 -29.78,6.36 -44.64,10.4 -25.62,6.95 -28.55,10.2 -42.43,25.61 -5.25,5.83 -11.94,13.26 -21.9,23.31 -13.14,13.31 -25.42,21.33 -38.74,25.43 -13.27,4.08 -27.17,4.13 -43.69,1.57l-1.74 -0.27 -1.43 -0.96c-3.44,-2.32 -6.44,-4.53 -9.48,-6.77l-0.03 -0.03c-3.04,-2.24 -6.11,-4.51 -8.81,-6.35l-3.67 -2.49 0.22 -4.37c0.68,-13.69 -0.14,-26.35 -2.18,-38.29 -2.04,-11.91 -5.31,-23.1 -9.54,-33.88l-2.44 -6.21 5.76 -3.42c1.96,-1.16 3.8,-2.47 5.5,-3.87 1.68,-1.36 3.28,-2.91 4.8,-4.58l9.27 -10.19c2.51,8.18 4.94,16.13 7.19,24.35l-1.05 2.5c-0.96,2.28 -0.96,5.12 -0.44,8.13 0.63,3.61 2.05,7.41 3.62,10.95l0.58 1.31 0.28 6.78c0.76,19.34 1.64,41.55 9.86,47.48 19.79,14.3 44.19,-12.15 61.35,-30.76 3.07,-3.32 5.93,-6.43 8.87,-9.39 14.86,-15.01 30.58,-24.8 47.67,-31.94 16.67,-6.97 34.62,-11.37 54.43,-15.73l30.41 -6.83z"/>
    <path class="fil0" d="M2970.17 1089.79c4.74,6.74 9.26,13.62 13.51,20.57 2.89,4.8 1.31,9.59 -2.4,13.27l-0.03 0.03c-0.94,0.93 -2.06,1.81 -3.22,2.53 -1.15,0.72 -2.43,1.36 -3.69,1.82 -5.01,1.83 -10.23,1.26 -13.36,-3.46 -7.5,-11.37 -15.37,-21.83 -23.6,-31.54 -8.24,-9.74 -16.86,-18.76 -25.85,-27.24l-18.66 -17.59 25.3 4.12c1.98,0.32 3.94,0.48 5.88,0.52 1.91,0.04 4.04,-0.06 6.28,-0.23l2.8 -0.21 2.34 1.65c3.02,2.15 6.19,4.57 9.43,7.16 2.51,1.97 5.71,4.64 9.17,7.55l1.08 1.07c5.28,6.57 10.31,13.25 15.04,19.97z"/>
    <path class="fil0" d="M2750.04 1109.69c-5.82,-5.99 -11.68,-11.75 -17.51,-17.14l-24.98 -23.09 32.54 9.8c5.74,1.73 11.53,3.55 17.5,5.84 6,2.31 11.68,4.94 16.74,8.15l1.03 0.65 0.85 1.04c2.3,2.81 4.5,5.58 6.56,8.29 2.29,3.04 4.42,5.96 6.29,8.7l5.83 8.56 -9.83 3.32c-0.91,0.31 -1.79,0.64 -2.57,1.01 -0.75,0.38 -1.44,0.76 -2,1.16 -1.06,0.75 -1.96,1.49 -2.85,2.22l-5.88 5.01 -5.11 -5.7c-5.22,-5.83 -10.76,-11.78 -16.61,-17.8z"/>
    <path class="fil0" d="M2772.64 1172.87l5.57 -7.14 5.47 2.15c0.87,0.34 1.8,0.66 2.77,0.94 0.85,0.24 1.72,0.44 2.59,0.57l13.03 2 -7.92 10.52c-17.43,23.15 -36.99,44.95 -58.78,64.3 -20,17.76 -41.86,33.41 -65.62,46.06 -9.94,5.29 -22.2,11.14 -34.83,13.72 -13.72,2.8 -27.7,1.8 -39.68,-7.38 -12.66,-9.7 -17.38,-22.93 -17.39,-36.85 -0,-17.12 7.4,-35.19 15.43,-48.26 5.37,-8.75 11.89,-17.46 18.48,-26.28 10.97,-14.67 22.2,-29.67 27.96,-45.09l0.61 -1.26c1.43,-2.41 2.8,-4.96 4.07,-7.73 1.19,-2.57 2.22,-5.2 3.07,-7.93l0.41 -1.31 0.88 -1.15c0.74,-0.96 1.43,-1.99 2.06,-3.09 0.59,-1.03 1.17,-2.25 1.72,-3.66 0.89,-2.25 1.47,-4.67 1.86,-7.17 0.41,-2.67 0.62,-5.49 0.7,-8.34l1.42 -45.3 13.89 43.15c1.71,5.33 2.85,10.74 3.25,16.33 0.41,5.6 0.1,11.39 -1.05,17.47 -3.75,19.5 -19.45,39.19 -35.39,59.18 -22.45,28.15 -45.47,57.02 -28.95,79.91 16.23,22.48 48.26,6.74 75.2,-12.7 14.53,-10.48 27.94,-22.43 37.08,-30.57l0.57 -0.51c5.65,-5.02 11.06,-10.09 16.21,-15.17 5.13,-5.06 10.22,-10.37 15.26,-15.89l18.18 -21.38c0.67,-0.71 1.29,-1.43 1.87,-2.15z"/>
    <path class="fil0" d="M2825.82 1117.55c3.06,-0.68 6.19,-1.11 9.38,-1.26 10.23,-0.46 23.3,2.66 33.24,9.06 8.85,5.7 15.49,14.02 16.46,24.88l0.03 0.03c0.16,1.93 -0.28,3.63 -1.27,5.24 -1.02,1.65 -2.49,2.85 -4.24,3.55 -0.97,0.39 -2.02,0.63 -3.03,0.72 -2.4,0.18 -5.81,-0.69 -7.2,-1.48 -4.15,-2.47 -7.49,-5.13 -10.78,-7.75 -4.8,-3.83 -9.51,-7.58 -15.36,-9.21 -2.96,-0.82 -5.87,-1.2 -8.7,-1.18 -2.91,0.01 -5.86,0.47 -8.76,1.3l-6.78 1.95 -2.66 -6.57c-0.34,-0.83 -0.73,-1.64 -1.14,-2.39 -0.45,-0.82 -0.96,-1.63 -1.51,-2.41l-5.78 -8.2 9.37 -3.64c2.79,-1.08 5.7,-1.99 8.72,-2.65z"/>
    <path class="fil0" d="M2479.33 1163.31l-28.71 3.47c-63.42,7.67 -126.83,15.33 -190.37,22.28 26.3,-2.37 52.59,-4.96 78.86,-7.81 46.85,-5.08 93.63,-10.99 140.22,-17.93zm-30.56 -12.15c57.33,-6.93 114.7,-13.87 173.24,-20.39l17.12 -1.91 -9.8 14.18 -8.21 11.61 -3.04 0.6c-91.26,18.18 -184.07,31.5 -277.32,41.61 -93.03,10.09 -186.44,16.97 -279.17,22.29 -4.65,0.26 -7.74,-1.64 -9.56,-4.94 -1.21,-2.2 -1.46,-4.63 -0.98,-7.09 0.3,-1.54 0.89,-3.09 1.65,-4.55 2.68,-5.07 8.97,-10.78 13.88,-11.14 127.93,-9.54 255.03,-24.91 382.18,-40.28z"/>
    <path class="fil0" d="M2459.16 919.17c4.02,-1.99 7.74,-4.97 10.78,-8.14 3.04,-3.17 5.59,-6.85 7.41,-10.84 1.69,-3.66 2.73,-7.59 2.94,-11.63 0.09,-1.71 -0.09,-3.31 -0.5,-4.8 -0.43,-1.61 -1.13,-3.11 -2,-4.46l-0.64 -0.99 -5.76 -19.2c-14.61,-32.58 -38.52,-54.36 -66.93,-68.11 -34,-16.44 -74.58,-21.53 -113.69,-19.91l-4.15 5.65c-11.57,15.47 -26.64,35.66 -7.47,50.84 1.48,1.17 7.56,2.79 13.33,4.31 4.83,1.28 9.5,2.52 12.75,3.95 12.33,5.46 24.08,12.39 35.2,20.22 8.38,5.91 16.46,12.39 24.19,19.18 3.44,-4.74 7.43,-9.06 12.08,-12.15 8.3,-5.51 18.12,-7.19 29.61,-1.21 10.08,5.25 13.27,17.13 16.1,27.69 1.17,4.35 2.26,8.42 3.48,10.48 0.96,1.62 2.31,3.72 3.87,5.91 1.28,1.79 2.74,3.71 4.3,5.55l0.68 0.95c1.8,2.9 4,5.3 6.63,6.88 2.33,1.38 5.04,2.2 8.2,2.26 3.21,0.06 6.5,-0.9 9.62,-2.44zm-51.08 -22.29l-0.88 -3.24c-1.98,-7.4 -4.22,-15.74 -8.16,-17.79 -5.43,-2.82 -9.94,-2.12 -13.67,0.35 -2.06,1.36 -3.99,3.21 -5.8,5.34 4.45,-0.15 9.19,1.37 14.06,4.06 4.85,2.68 9.74,6.71 14.45,11.27zm-148.52 -66.98c-3.73,-5.09 -5.67,-10.23 -6.28,-15.35 -1.51,4.56 -1.66,8.61 0.35,11.66 1.01,1.53 3.19,2.72 5.93,3.69zm240.38 27.52l1.35 4.5c4.28,15.51 4.2,32.73 -1.39,47.56 -5.07,13.43 -14.58,24.91 -29.33,31.53 -6.68,3 -13.5,4.61 -20.42,4.71 -6.76,0.09 -13.53,-1.26 -20.24,-4.19 -4.83,-2.11 -10.63,-8.81 -17.54,-16.78 -8.1,-9.36 -17.99,-20.77 -26.33,-25.37 -3.79,-2.09 -7.27,-2.1 -9.67,2.24 -1.06,1.93 -3.99,5.61 -7.13,7.74 -1.43,1 -3.04,1.77 -4.76,2.16 -2.5,0.54 -5.01,0.33 -7.41,-1 -1.41,-0.76 -2.68,-1.91 -3.73,-3.45 -9.63,-14.18 -20.12,-25.63 -32.2,-34.85 -12.08,-9.23 -25.88,-16.34 -42.07,-21.84 -2.05,-0.7 -5.23,-1.28 -8.69,-1.9 -10.74,-1.94 -23.73,-4.3 -29.87,-13.59 -13.15,-19.91 8.7,-46.63 23.53,-64.76 3.46,-4.23 6.49,-7.93 8.23,-10.51 1.51,-2.24 4.25,-3.96 7.03,-4.94 1.8,-0.64 3.89,-1.06 5.75,-1.14l3.75 -1.1c39.45,-10.91 85.71,-5.1 125.23,13.53 39.74,18.74 72.9,50.52 85.89,91.45z"/>
    <path class="fil0" d="M2274.05 764.76l0.07 -0.11c-0.17,-0.24 -0.21,-0.41 -0.07,-0.46l-0.44 -0.05c0.3,0.19 0.17,1 0.43,0.62zm147.03 -178.84c-45.59,61.94 -90.41,124.37 -134.11,187.76 -1.99,2.89 -7.89,5.6 -11.75,6.04 -1.26,0.14 -2.54,0.13 -3.73,-0.09 -2.85,-0.53 -5.12,-2.05 -6.43,-4.76 -1.33,-2.76 -1.24,-5.72 0.74,-8.77 41.78,-64.46 85.59,-128.54 131.43,-191.33 45.74,-62.65 93.45,-123.89 143.09,-182.81 2.05,-2.5 7.71,-4.59 11.3,-4.7 1.24,-0.04 2.48,0.08 3.58,0.38 2.79,0.78 4.83,2.42 5.9,5.22l0 0.06c1.04,2.79 0.72,5.65 -1.41,8.44 -46.78,61.34 -93.08,122.69 -138.61,184.54zm130.57 -183.08l0.43 0.08 0.02 -0.61 -0.44 0.53zm0.46 -0.08c0.15,-0.41 0.7,-1.28 0.32,-0.83l-0.33 0.38 0.01 0.45z"/>
    <path class="fil0" d="M2012.54 1164.91l0.16 -0.22c-0.13,-0.2 -0.15,-0.33 -0.03,-0.38l-0.45 -0.05c0.24,0.22 -0.04,1.17 0.26,0.74l0.06 -0.09zm97.67 -116.61c-27.89,42.33 -55.82,84.71 -84.88,125.71 -1.97,2.74 -7.7,5.39 -11.5,5.83 -1.3,0.15 -2.62,0.14 -3.82,-0.09 -2.78,-0.56 -4.98,-2.05 -6.3,-4.71 -1.37,-2.74 -1.3,-5.68 0.6,-8.73l0.03 -0.03c28.2,-44.91 57.68,-88.47 87.13,-131.99 12.44,-18.39 24.92,-36.83 34.34,-50.91 10.05,-15.02 20.54,-31.26 31.04,-47.53 26.24,-40.64 52.64,-81.52 82.88,-119.13 2,-2.44 6.09,-3.64 9,-3.3l0.09 0.03c0.86,0.11 1.74,0.32 2.61,0.68 1.58,0.65 2.97,1.69 3.98,3.25 1.67,2.52 1.96,5.34 0.38,8.38 -22.42,43.19 -51.11,84.17 -79.5,124.71 -11.69,16.69 -23.33,33.33 -34.91,50.71 -12.3,18.47 -21.81,32.9 -31.18,47.13z"/>
    <path class="fil0" d="M2037.36 1208.41c-1.71,-1.93 -3.04,-4 -4,-6.18 -0.83,0.2 -1.74,0.35 -2.61,0.38 -3.52,0.15 -7.08,-1.05 -9.05,-5.02l-0.15 -0.29c-1.65,-3.62 -3.66,-6.54 -6,-9.2 -2.56,-2.91 -5.52,-5.56 -8.87,-8.46 -2.58,-2.22 -3.61,-4.95 -3.43,-7.89 0.15,-2.52 1.24,-4.71 2.91,-6.53 1.04,-1.13 2.35,-2.14 3.74,-2.96 3.88,-2.3 9.7,-3.42 13.09,-2.06 5.27,2.12 9.62,5.39 13.24,9.31 1.7,1.84 3.23,3.83 4.62,5.92l0.82 -0.36c1.1,-0.48 3.54,-1.29 5.75,-1.44 1.66,-0.13 3.39,0.07 4.99,0.74 2.91,1.21 4.95,3.42 5.5,7 0.19,1.42 0.09,2.93 -0.41,4.56l0 0.06c-0.39,1.26 -0.51,2.39 -0.38,3.39 0.15,1.09 0.6,2.22 1.32,3.42l0.03 0.06c0.33,0.56 2.19,2.94 4.05,4.94 0.04,0.05 -0,0.08 -0.11,0.1l-0.33 0.31c2.46,0.54 4.24,1.83 5.4,3.46l0.06 0.06c1.39,1.99 1.76,4.11 1.32,6.32 -0.32,1.63 -1.13,3.12 -2.32,4.31 -1.56,1.52 -4.24,2.76 -6.96,2.73l-3.35 0.09c-7.02,0.28 -12.41,0.49 -18.85,-6.78zm23.8 -10.35l0.91 0.16 0.33 -0.31c-0.52,0.11 -2.37,-0.01 -1.25,0.15zm-43.41 -23.01l-0.41 -0.18 0.32 0.49 0.09 -0.31zm-0.41 -0.18l-0.2 -0.08c-0.54,-0.22 0.04,0.15 0.45,0.5l-0.25 -0.42z"/>
    <path class="fil0" d="M1962.75 1667.29c-2.65,-4.1 -5.19,-8.53 -7.62,-13.17l-0.6 -1.14 -0.2 -1.26c-5.99,-37.34 -9.73,-75.07 -11.2,-112.91 -1.47,-37.94 -0.67,-75.88 2.4,-113.51 3.38,-41.27 8.44,-85.53 17.54,-128.89 9.13,-43.52 22.33,-86.06 41.96,-123.66 1.58,-3.09 4.96,-4.64 8.14,-4.69 0.91,-0.01 1.88,0.07 2.71,0.26 1.33,0.31 2.64,0.91 3.8,1.87 2.33,1.93 3.5,4.49 2.89,7.87 -4.13,22.85 -10.9,45.15 -17.67,67.46 -5.56,18.33 -11.13,36.69 -15.21,55.57 -4.03,18.67 -7.51,37.58 -10.41,56.66 -2.86,18.84 -5.14,37.77 -6.81,56.75 -3.84,42.9 -4.33,85.7 -1.94,128.4 2.39,42.61 7.66,85.07 15.38,127.39 0.36,1.67 0.26,3.27 -0.11,4.76l-0.03 0.03c-0.25,0.95 -0.62,1.88 -1.06,2.78l-5.34 10.87 -7.73 -9.31c-3.24,-3.89 -6.19,-7.97 -8.89,-12.15z"/>
    <path class="fil0" d="M2021.3 1528.79c-0.9,34.93 -1.8,69.85 -4.79,103.99l-0.03 0.06c-0.39,3.99 -2.92,6.4 -6.24,7.37l-0.03 0.03c-0.94,0.27 -2.02,0.39 -3.1,0.36 -0.98,-0.02 -1.96,-0.17 -2.79,-0.42 -3.39,-1.02 -6.06,-3.56 -6.39,-7.59 -5.84,-62.91 -0.43,-127.66 4.83,-190.46l1.69 -20.33c2.84,-34.83 5.83,-70.04 10.04,-105.15 4.21,-35.09 9.66,-70.1 17.43,-104.55 0.9,-4.23 4.12,-6.33 7.72,-6.75l0.06 0c0.86,-0.09 1.72,-0.08 2.46,0.01l0.12 0.03c0.88,0.12 1.82,0.39 2.71,0.78 3.33,1.47 5.51,4.21 5.11,8.48 -3.09,32.1 -7.13,64.03 -11.17,95.94 -5.35,42.32 -10.7,84.65 -13.85,127.66 -2.22,30.42 -3,60.49 -3.78,90.55z"/>
    <path class="fil0" d="M3120.34 1383.2c-18.09,33.8 -37.36,67.04 -57.78,99.62 -3.29,5.28 -7.5,7.78 -11.18,8.19 -2.5,0.26 -4.8,-0.3 -6.79,-1.59 -1.91,-1.24 -3.33,-3.04 -4.15,-5.25 -1.3,-3.61 -0.94,-8.74 2.32,-14.08 22.25,-36.43 43.44,-73.37 63.33,-111.02 19.81,-37.54 38.33,-75.84 55.26,-115.12 15.69,-36.39 28.51,-73.85 41.3,-111.26 11.87,-34.72 23.74,-69.43 37.9,-103.33l0.03 -0.03c1.39,-3.28 4.38,-4.93 7.43,-5.12 0.89,-0.07 1.82,0.01 2.65,0.19l0.15 0.03c1.09,0.25 2.2,0.71 3.16,1.39 2.58,1.77 3.96,4.43 3.48,7.87 -11.86,82.03 -49.39,164.94 -83.26,239.8l-2.43 5.38c-15.91,35.2 -33.06,70.02 -51.43,104.32z"/>
    <path class="fil0" d="M2717.62 1514.91l0.17 -0.49 -0.3 -0.19 -0 0.8c0.03,0.08 0.06,0.07 0.14,-0.12zm32.99 -45.45c4.31,-0.83 8.72,-0.35 13.22,1.09 10.2,3.26 19.54,11.85 28.95,20.5 7.22,6.63 14.5,13.32 21.13,16.52 3.89,1.87 7.99,3.2 12.24,4.12 -3.55,-1.2 -6.96,-2.68 -10.14,-4.46 -9.15,-5.13 -15.72,-12.81 -22.24,-20.43 -4.07,-4.76 -8.14,-9.5 -12.46,-13.03 -5.39,-4.39 -10.25,-6.91 -14.62,-7.91 -4.46,-1.02 -8.54,-0.43 -12.22,1.3 -1.31,0.62 -2.6,1.39 -3.85,2.29zm8.43 16.04c-8.24,-2.64 -16.84,4.18 -26.48,34.26l0 0.06c-1.24,3.76 -6.62,7.88 -10.97,9.2 -1.37,0.4 -2.79,0.63 -4.16,0.62 -2.46,-0.02 -4.74,-0.78 -6.56,-2.43 -2.48,-2.26 -3.59,-5.33 -2.67,-9.29 3.71,-16.25 11.31,-37.11 22.81,-51.2 4.85,-5.93 10.44,-10.77 16.81,-13.76 6.75,-3.17 14.2,-4.24 22.31,-2.4 6.69,1.52 13.74,5.05 21.08,11.04 5.46,4.46 9.97,9.72 14.49,15 5.6,6.54 11.25,13.13 18,16.92 6.35,3.56 14.13,5.53 22.15,6.56 8.46,1.09 17.22,1.15 25,0.88 15.68,-0.53 31.84,-2.72 47.82,-4.88l11.82 -1.57c37.66,-4.87 75.06,-11.62 112.48,-18.36l8.37 -1.53c3.68,-0.65 6.49,0.12 8.55,1.74 2.56,2.04 3.54,4.66 3.28,7.62l-0.03 0.09c-0.15,1.55 -0.7,3.04 -1.51,4.37 -1.65,2.69 -5.55,5.81 -8.72,6.6 -29.47,7.12 -59.43,13.57 -89.65,19.06 -30.22,5.48 -60.59,9.97 -90.81,13.16 -10.22,1.07 -21.08,2.16 -32.08,1.82 -11.44,-0.36 -22.8,-2.29 -33.28,-7.34 -8.75,-4.22 -16.88,-11.69 -24.94,-19.1 -8.15,-7.49 -16.25,-14.93 -23.1,-17.13zm-41.55 28.73c-0.24,-0.17 -0.28,-0.28 0,-0.28l-0.35 -0c0.26,0.09 0.28,0.87 0.35,1.07l0 -0.8z"/>
    <path class="fil0" d="M2631.25 1545.08l-14.8 1.81 -8.83 1.18c-27.01,3.63 -60.76,8.17 -86.17,-1.72 -1.85,-0.71 -3.23,-1.83 -4.18,-3.14l-0.03 -0.06c-2.09,-2.94 -2.04,-5.85 -0.67,-8.66l0.03 -0.06c0.66,-1.33 1.59,-2.4 2.61,-3.24 1.67,-1.35 4.49,-2.6 5.41,-2.83 25.57,-6.56 53.07,-7.37 79.7,-8.15 7.31,-0.21 14.56,-0.43 22.1,-0.78 11.77,-0.55 24.33,-2.41 36.93,-4.28 18.72,-2.77 37.54,-5.57 56.03,-4.36l0.47 0.03c1.24,0.19 3.41,0.9 4.45,1.66l2.76 2.39 1.12 7.84 -4.75 3.17 -0.91 0.36c-28.31,11.24 -60.89,15.19 -91.28,18.87z"/>
    <path class="fil0" d="M2459.48 1545.02c-0.05,-3.2 1.48,-6.98 5.16,-10.23 -5.78,-4.69 -22.21,-9.8 -34.73,-13.7 -8.15,-2.53 -14.87,-4.63 -18.01,-6.61 -3.84,-2.43 -6.98,-5.14 -9.7,-8.19 -2.65,-2.98 -4.88,-6.25 -6.97,-9.91 -5.48,-9.58 -7.7,-19.99 -7.44,-30.4 0.28,-11.29 3.52,-22.54 8.67,-32.62 9.78,-19.22 25.86,-36.11 44.48,-50.32 22.48,-17.16 48.84,-30.5 72.17,-39.26 10.58,-3.96 20.56,-5.71 29.72,-5.53 12.46,0.25 23.39,4.07 32.34,10.79 8.85,6.65 15.67,16.11 20.01,27.7 3.77,10.07 5.67,21.81 5.41,34.74 -0.23,11.24 -2.2,22.42 -5.62,33.11 -3.52,10.98 -8.58,21.47 -14.86,31 -5.02,7.61 -10.62,12.99 -16.26,18.41 -3.35,3.22 -6.72,6.47 -9.79,10.05l-0.61 0.72 -5.9 4.13 -5.34 3.58c-2.97,1.83 -4.94,4.34 -5.87,7.52 -0.81,2.77 -0.98,6.12 -0.5,10.05 1.22,0.62 2.28,1.47 3.08,2.49l0.06 0.09c1.83,2.37 2.37,5.05 1.23,8.07l-0.03 0.09c-0.85,2.17 -2.61,4.09 -5.59,5.29 -5.65,2.24 -11.41,3 -16.42,2.1 -3.09,-0.56 -5.94,-1.75 -8.38,-3.59 -2.53,-1.92 -4.53,-4.48 -5.82,-7.69 -1.56,-3.88 -2.01,-8.67 -0.98,-14.37 2.78,-15.27 19.84,-26.39 34.43,-35.89 6.57,-4.28 12.57,-8.19 15.35,-11.28 11.05,-12.26 18.41,-29.39 20.67,-46.98 2.12,-16.51 -0.27,-33.32 -8.33,-46.7 -1.24,-2.07 -2.6,-3.91 -4.03,-5.54 -8.42,-9.56 -20.51,-11.94 -33.49,-10.21 -14.22,1.9 -29.54,8.64 -42.82,16.64 -8.62,5.19 -16.33,10.91 -22.32,16.18 -9.68,8.53 -26.58,27.1 -37.29,45.57 -6.64,11.45 -10.79,22.48 -8.72,29.85 4.29,15.28 15.72,17.69 28.22,20.33 5.35,1.13 10.87,2.3 16.4,4.25 10.89,3.83 21.05,9.27 26.67,16.33 2.24,2.81 3.83,5.91 4.56,9.28 0.76,3.52 0.58,7.21 -0.77,11.03 -1.82,5.13 -5.77,10.4 -12.41,15.7 -4.3,3.43 -8.73,4.22 -12.07,3.41 -2.2,-0.54 -4.06,-1.74 -5.41,-3.43 -1.37,-1.71 -2.11,-3.78 -2.14,-6.04zm60.72 -24.05c-0.89,1.46 -1.5,2.9 -1.76,4.33 -0.47,2.61 -0.39,4.51 0.11,5.76 0.18,0.48 0.43,0.82 0.72,1.04 0.28,0.21 0.64,0.38 1.08,0.5 -0.55,-4.18 -0.6,-8.06 -0.16,-11.64z"/>
    <path class="fil0" d="M2474.93 1538.17l0.05 0.24 3.99 3.32 0.24 -0.57 1.5 -5.3c-1.39,0.87 -3.9,1.87 -5.78,2.31zm0.05 0.24l0.01 0.07 3.24 2.77 0.72 0.5 -3.97 -3.34zm0.18 1.36c0.11,1.34 0.1,2.89 -0.04,4.22l3.73 -2.13 -1.19 1.28 0.45 -0.37 0.79 -0.85 -0.12 0.29c0.14,-0.11 0.14,-0.14 0.2,-0.31l-0.08 0.02 0.03 -0.07 -0.08 0.02 0.04 -0.05 -3.73 -2.04zm-0.04 4.22l-0.22 1.44 2.76 -2.3 -2.54 0.86zm2.99 -1.23l0.67 -0.56 -0.67 0.56zm1 -0.85l0.06 -0.03 -0.04 -0.03 -0.01 0.06zm0.06 -0.03l0.35 -0.41 -0.21 0.12 -0.16 0.19 0.05 -0.13 -0.14 0.13 0.06 0.04 0.04 -0.04 0.02 0.09zm0.04 -0.04l0.75 -0.63 -0.45 0.26 -0.3 0.37zm6.03 -5.01c2.55,3.06 2.85,6.28 0.43,9.55 -2.17,3.13 -6.08,3.97 -9.05,3.03l-2.06 -0.81 -1.96 -1.83 -0.58 -1.02c-1.69,-2.95 -1.76,-5.94 0.74,-8.94 2.13,-2.69 5.51,-3.47 8.44,-2.63l1.98 0.76c0.84,0.69 1.29,1.1 2.07,1.89zm-2.38 8.12l-3.48 -2.89 -0.24 -0.13 -0.04 0.05 3.56 3.04 0.2 -0.07zm-3.48 -2.89l-0.17 -0.14 4.31 2.4c0.05,-1.91 0.41,-4.28 0.9,-5.65l-4.46 2.55 -0.58 0.84zm-0.41 -0.06l0.02 -0.06 -0.02 0.06zm0 -0.02c0.11,-0.12 0,0.01 0.03,-0.08l-0.03 0.08zm0.04 -0.07l0.04 -0.03 -0.04 -0.02 -0 0.05zm0.04 -0.03l0.04 -0.04 -0.06 -0.04 0.02 0.08zm0.04 -0.04l-0.05 -0.06 0.05 0.06zm0.11 0l-0.04 0.04 0.04 -0.04zm-0.04 0.05l-0.03 0.04 0.24 0.13 -0.21 -0.17zm-0.07 0.09l-0.4 0.97 -1.37 4.8c1.22,-0.94 3.44,-2.06 5.32,-2.72l-3.56 -3.04zm-0.11 -0.09l-0.02 -0.05 0.02 0.05zm0 -0.04l0.04 -0.05 -0.04 0.05zm4.39 2.95l0.15 -0.04 0 -0.43 -3.98 -2.17 3.82 2.64zm-4.47 -2.99l-0.66 -0.56 0.72 0.5 -0.06 0.06zm1.82 -5.95l-1.5 5.3 1.76 -5.46 -0.26 0.17zm-1.69 5.94l-0.02 0.07 0.02 -0.07zm0.27 -0.2l-0.11 0.06 0.11 -0.06z"/>
    <path class="fil0" d="M1961.59 1637.72c1.8,0 3.56,0.4 5.13,1.3l6.37 3.72c13.67,8.04 22.83,13.43 41.22,11.65 12.76,-1.22 25.94,-5.27 38.84,-9.22 4.61,-1.41 9.19,-2.82 13.25,-3.96l34.3 -9.69c32.75,-9.26 65.56,-18.55 101.53,-28.42 68.15,-18.68 134.06,-35.5 200,-52.33l75.85 -19.39c3.11,-0.83 6.69,-0.11 8.84,1.24l0.03 0.03c1.37,0.86 2.51,2.07 3.26,3.57 1.15,2.3 1.3,4.72 0.16,7.23l-0.03 0.03c-1.02,2.22 -3.05,4.17 -6.34,5.2 -23.99,7.43 -52.78,16.45 -81.7,25.5 -77.81,24.37 -155.59,48.73 -234.96,71.67 -14.7,4.26 -30.17,9.33 -45.76,14.44 -34.36,11.26 -69.34,22.74 -104.26,27.89 -7.31,1.06 -14.43,1.41 -21.16,0.89 -6.6,-0.5 -12.86,-1.83 -18.57,-4.08l-1.65 -0.65 -1.27 -1.41c-4.46,-4.93 -8.46,-10.29 -12.08,-15.93 -3.59,-5.59 -6.86,-11.54 -9.89,-17.68l-4.35 -8.81 9.58 -2.3c1.3,-0.31 2.58,-0.49 3.67,-0.49zm18.2 26.65c1.68,2.31 3.41,4.51 5.2,6.59 3.79,1.3 7.93,2.09 12.32,2.43 5.57,0.42 11.54,0.12 17.72,-0.77 33.67,-4.97 67.97,-16.22 101.67,-27.27 15.38,-5.05 30.67,-10.06 46.24,-14.57l34.77 -10.17c-29.39,8.11 -61.08,17.08 -92.8,26.05l-34.3 9.69c-4.57,1.29 -8.72,2.56 -12.88,3.84 -13.63,4.18 -27.57,8.46 -41.97,9.84 -15.89,1.53 -26.02,-0.93 -35.98,-5.66z"/>
    <path class="fil0" d="M2155.88 1473.94c-11.77,6.46 -21.74,17.33 -28.19,28.59 -4.33,7.56 -6.99,16.21 -6.19,23.96 0.6,5.85 3.32,11.31 9.05,15.43 21.81,15.61 50.53,-10.3 69.37,-27.3l2.88 -2.59c2.97,-3.21 4.84,-6.7 5.74,-10.25 1.1,-4.31 0.81,-8.78 -0.59,-12.96 -1.46,-4.37 -4.13,-8.46 -7.68,-11.84 -3.77,-3.59 -8.56,-6.34 -13.97,-7.72 -10.65,-2.72 -21.11,-0.43 -30.41,4.68zm21.66 85.52c-12.99,6.96 -27.52,10.42 -42.91,7.79 -7.44,-1.27 -13.73,-3.7 -18.9,-6.98 -7.68,-4.88 -12.87,-11.62 -15.75,-19.4 -2.8,-7.55 -3.37,-15.95 -1.92,-24.44 1.39,-8.1 4.61,-16.34 9.48,-24 8.84,-13.93 21.62,-27.01 36.64,-35.53 13.31,-7.55 28.4,-11.56 44.14,-9.55 13.54,1.73 25.02,8.43 32.76,17.56 3.93,4.64 6.93,9.95 8.77,15.61 1.86,5.72 2.51,11.8 1.74,17.87 -1.25,9.79 -6.17,19.43 -15.63,27.46l-0.03 0.03c-0.61,0.52 -1.29,0.93 -2,1.25 -9.57,12.63 -22.02,24.65 -36.38,32.34z"/>
    <path class="fil0" d="M2280.67 1366.87c-0.54,2.11 -1.87,4.01 -4.26,5.47 -14.09,8.62 -31.93,16.65 -49.82,18.33 -14.46,1.36 -28.89,-1.38 -41.43,-11.06 -16.76,-12.92 -21.53,-31.67 -19.67,-51.33 2.4,-25.35 16.19,-52.33 28.5,-68.81 1.45,-1.94 3.05,-3.82 4.76,-5.62 11.85,-12.42 27.28,-17.9 43.08,-17.76 15.42,0.15 31.17,5.7 44.13,15.39 2.47,1.84 4.91,3.91 7.27,6.17 7.24,6.91 12.43,15.24 15.5,24.03 3.3,9.43 4.17,19.41 2.54,28.8 -1.67,9.6 -5.93,18.62 -12.87,25.88 -5.18,5.42 -11.82,9.83 -19.93,12.73 -1.67,0.69 -5.39,0.5 -7.21,-0.39 -0.86,-0.44 -1.68,-1 -2.26,-1.59 -1.78,-1.76 -2.52,-3.95 -2.3,-6.4l0.06 -0.58c0.42,-2.5 1.57,-4.3 3.97,-5.67 2.56,-1.52 4.85,-3.25 6.86,-5.13 6.54,-6.07 10.19,-13.73 11.08,-21.72 0.9,-8.13 -1,-16.66 -5.56,-24.28 -1.57,-2.62 -3.46,-5.16 -5.69,-7.55 -3.54,-3.81 -7.66,-6.98 -12.11,-9.46 -8.26,-4.6 -17.67,-6.83 -26.69,-6.33 -8.71,0.48 -17.04,3.57 -23.5,9.57 -2.69,2.5 -5.07,5.51 -7.04,9.05 -4.93,8.87 -9.75,18.5 -13.28,28.34 -3.41,9.61 -5.65,19.44 -5.6,28.92l-0.03 0.83c-0.22,2.19 -0.22,4.37 -0,6.51 0.24,2.18 0.69,4.32 1.37,6.42l0.25 0.95c1.18,6.2 3.57,10.22 7.13,12.03 4.12,2.07 10.23,2 18.36,-0.24l1.52 -0.42 1.55 0.2c25.17,3.28 26.04,2.93 42.71,-3.82l3.82 -1.53c1.69,-0.66 5.97,-0.84 8.33,-0.19 1.22,0.33 2.4,0.88 3.44,1.7 2.68,2.09 3.93,4.8 3,8.55z"/>
    <path class="fil0" d="M2303.94 1421.5c1.01,2.42 2.04,4.87 3.13,7.23 1.62,3.5 3.76,7.67 6.39,11.12 2.18,2.85 4.67,5.21 7.32,6 8.47,2.52 16.04,-11.83 20.41,-20.11l0.49 -0.93c3.96,-7.52 7.4,-16.5 6.85,-24.23 -0.34,-4.83 -2.46,-9.32 -7.52,-12.62 -15.54,-10.15 -32.37,2.9 -46.68,14l-0.55 0.43c4.46,5.56 7.24,12.17 10.16,19.12zm-41.8 -22.7l-7.51 -4.7 8.75 -0.24c0.67,-0.97 1.58,-1.8 2.69,-2.48l0.15 -0.09c0.89,-0.53 1.91,-0.91 2.93,-1.13 1.78,-0.36 4.76,-0.23 5.45,-0.06l1.84 0.49c7.54,-8.14 17.16,-15.78 27.69,-21.01 10.84,-5.39 22.73,-8.3 34.55,-6.84 4.56,0.56 8.7,1.69 12.43,3.3 8.46,3.62 14.3,9.62 17.75,16.95 3.32,7.04 4.34,15.19 3.32,23.53 -0.66,5.38 -2.18,10.87 -4.47,16.19 -3.79,8.78 -9.52,20.09 -17.41,29.02 -8.74,9.91 -19.96,16.79 -33.96,14.83 -7.16,-1 -13.13,-4.39 -18.08,-8.97 -4.56,-4.22 -8.17,-9.39 -11.02,-14.5 -2.57,-4.62 -4.52,-8.45 -6.44,-12.22 -4.87,-9.55 -9.57,-18.76 -16.65,-27.14 -1.15,-1.36 -1.75,-2.86 -1.93,-4.41l-0.07 -0.51z"/>
    <path class="fil0" d="M2528.57 1257.82c-7.54,10.53 -18.23,18.75 -30.96,21.83 -3.72,0.9 -7.39,1.29 -10.91,1.2 -7.63,-0.2 -14.57,-2.63 -20.09,-6.89 -5.61,-4.33 -9.7,-10.5 -11.53,-18.09 -0.77,-3.19 -1.13,-6.64 -1.04,-10.29 0.29,-11.3 4.23,-23.42 10.83,-33.48 6.27,-9.58 15.06,-17.5 25.56,-21.42 4.65,-1.73 9.49,-2.55 14.16,-2.5 6.21,0.07 12.2,1.65 17.17,4.66 5.26,3.17 9.44,7.91 11.75,14.1 0.56,1.51 1,3.09 1.32,4.76 0.99,0.34 1.94,0.85 2.79,1.53 2.07,1.61 3.31,3.85 3.31,6.76 0.09,13.07 -4.46,26.82 -12.35,37.84zm-12.81 -26.95c0.96,-2.86 1.92,-5.72 2.98,-8.54 -0.63,-0.95 -1.08,-2.07 -1.28,-3.35l0 -0.09c-0.3,-2.11 -1.25,-4.04 -2.63,-5.65 -1.56,-1.81 -3.71,-3.26 -6.15,-4.16l-0.03 -0.03c-5.61,-2.09 -10.13,-1.21 -13.74,1.12 -4.27,2.76 -7.74,7.52 -10.44,12.28 -2.43,4.34 -4.51,9.31 -5.61,14.36 -0.87,4.02 -1.11,8.07 -0.37,11.82 0.5,2.49 1.47,4.57 2.76,6.2 1.52,1.92 3.55,3.3 5.82,4.08 2.36,0.81 5,0.98 7.63,0.46 2.55,-0.51 5.11,-1.67 7.43,-3.51 7.14,-5.63 10.43,-15.41 13.64,-25z"/>
    <path class="fil0" d="M2823.41 1365.66c-13.28,3.26 -27.01,2.67 -39.51,-4.72 -1.18,-0.7 -2.34,-1.46 -3.46,-2.28 -11.83,-8.68 -15.99,-21.12 -15.48,-34.17 0.47,-12.02 5.04,-24.52 11.04,-34.65 1.38,-2.34 2.87,-4.6 4.43,-6.73 7.3,-9.95 16.93,-18.89 28.04,-24.72 10.04,-5.28 21.3,-8.06 33.17,-6.9 9.91,0.96 18.39,4.62 24.85,9.98 4.84,4 8.57,8.97 10.94,14.48 2.38,5.54 3.39,11.67 2.78,17.95 -0.74,7.63 -3.86,15.38 -9.76,22.5 -2.3,2.75 -6.84,3.56 -9.8,2.83 -0.75,-0.19 -1.5,-0.46 -2.19,-0.81 -1.3,-0.67 -2.44,-1.65 -3.3,-3 -1.85,-2.9 -2,-6.19 0.42,-9.3 1.04,-1.39 1.85,-2.81 2.44,-4.24 1.81,-4.38 1.77,-9.25 0.33,-13.78 -1.48,-4.68 -4.43,-8.95 -8.35,-11.95 -1.52,-1.16 -3.17,-2.13 -4.9,-2.85 -9.74,-4.02 -19.16,-2.34 -27.29,2.35 -11.05,6.37 -19.89,18.08 -24.54,29.23 -2.37,5.68 -4.01,12.14 -4.01,18.31 0,4.74 1.01,9.36 3.46,13.29 12.29,19.7 41.23,2.95 59.41,-7.57l0.94 -0.55c1.5,-0.87 6.11,-1.59 8.75,-1.19 1.12,0.15 2.23,0.48 3.26,1.02 2.92,1.52 4.65,3.89 4.57,7.54 -0.06,2.35 -0.96,4.53 -3.08,6.36l-0.03 0.03c-11.3,9.69 -26.85,19.56 -43.13,23.55z"/>
    <path class="fil0" d="M2747.73 739.58c5.74,10.48 11.96,20.65 18.89,30.17 20.14,27.63 47.2,51.65 77.94,64.35 24.28,10.02 50.96,12.94 78.4,4.85 -6.38,-19.7 -13.09,-38.72 -21.37,-56.9 -9.26,-20.33 -20.52,-39.63 -35.54,-57.7 -16.06,-19.33 -40.85,-43.28 -68,-60.96 -20.26,-13.18 -41.69,-22.79 -61.41,-24.06 -18.08,-1.16 -24.41,4.26 -24.92,12.24 -0.83,12.93 8.68,32.5 15.87,47.31 1.36,2.76 2.63,5.38 4.03,8.4 5.1,10.98 10.41,21.91 16.1,32.32zm195.16 110.23l0.84 2.66 -3.47 -0.09 -0.52 0.53c-1.2,1.15 -2.86,2.2 -4.97,2.96 -30.29,10.91 -60.76,10.99 -89.19,2.8 -30.41,-8.76 -58.42,-26.98 -81.28,-51.53 -13.77,-14.77 -25.32,-31.28 -35.47,-48.63 -10.01,-17.07 -18.67,-35.07 -26.76,-53.06 -1.07,-2.37 -2.57,-5.43 -4.13,-8.63 -10,-20.5 -22.63,-46.35 -5.07,-67.33 17.19,-20.53 43.86,-19.23 69.76,-10.32 23.93,8.22 47.27,23.07 60.4,31.91 32.96,22.18 63.14,52.59 85.15,87.6 20.24,32.21 33.65,68.39 36.1,105.8l0.03 0.49c0.01,1.95 -0.5,3.55 -1.42,4.84z"/>
    <path class="fil0" d="M2567.94 677.17c-10.15,7.95 -23.63,13.05 -34.12,13.91l-2.42 0.11c-12.41,0.4 -24.82,-3.99 -34.37,-11.65 -9.73,-7.81 -16.6,-19.06 -17.68,-32.19l-0.1 -2.17c-0.38,-12 4.45,-23.49 12.27,-32.31 7.93,-8.94 19.04,-15.24 30.92,-16.61 5.8,-0.67 11.67,-0.06 17.23,1.64 5.61,1.72 10.9,4.56 15.44,8.33 5.71,4.74 9.37,9.88 11.48,15.71 2.04,5.67 2.5,11.72 1.86,18.52l0 0.12c-0.07,0.64 -0.19,1.24 -0.37,1.8 1.26,-0.68 2.62,-1.21 3.87,-1.48 1.16,-0.24 2.39,-0.37 3.58,-0.3 2.34,0.15 4.52,0.98 6.25,2.85 1.63,1.79 2.48,3.93 2.29,6.55 -0.68,10.93 -7.26,20.21 -16.13,27.17zm-21.12 -10.72c6.11,-4.4 11.31,-11.43 15.85,-18.63l-0.13 0.05c-1.11,0.37 -2.34,0.57 -3.52,0.59 -1.12,0.01 -2.29,-0.13 -3.31,-0.44 -3.28,-0.97 -5.85,-3.31 -6.43,-7.13l0 -0.09c-0.79,-5.7 -4.04,-11.45 -8.57,-15.93 -4.39,-4.33 -9.85,-7.37 -15.29,-7.87 -1.27,-0.11 -2.52,-0.09 -3.73,0.07 -4.81,0.64 -8.95,3.48 -12.04,7.39 -3.37,4.25 -5.5,9.68 -6,15.08 -0.17,1.83 -0.14,3.67 0.09,5.44 0.73,5.52 3.23,10.63 6.87,14.84 3.85,4.46 8.99,7.9 14.68,9.77 8.72,2.87 15.74,1.02 21.52,-3.14z"/>
    <path class="fil0" d="M3131.2 900.81c-0.67,1.41 -1.62,2.55 -2.59,3.38 -6.28,5.36 -15.12,9.35 -24,10.41 -8.26,0.98 -16.71,-0.48 -23.62,-5.5l-0.21 -0.17c-6.69,-4.95 -10.01,-12.06 -10.49,-19.48 -0.45,-7.03 1.72,-14.35 5.99,-20.24l0.17 -0.21c4,-5.44 9.95,-9.74 16.46,-11.77 6.28,-1.96 13.15,-1.9 19.51,1.1l1.68 0.86c5.62,3.16 10,8.25 12.28,14.03 1.93,4.89 2.39,10.31 0.91,15.56 1.94,0.97 3.54,2.63 4.35,5.23l0.35 1.36c0.34,2.02 -0.01,3.85 -0.78,5.45zm-31.78 -9.57c2.43,1.39 4.98,1.47 7.63,0.94 -0.21,-0.79 -0.31,-1.65 -0.27,-2.57 0.07,-1.99 -0.28,-3.95 -1.02,-5.67 -0.66,-1.53 -1.68,-2.92 -3.02,-4l-0.03 -0.03c-0.93,-0.76 -1.93,-1.31 -2.9,-1.61 -0.75,-0.27 -1.45,-0.33 -2,-0.2 -0.35,0.08 -0.69,0.3 -0.96,0.65 -0.33,0.41 -0.65,1.03 -0.91,1.88 -0.72,2.15 -0.69,4.44 0.03,6.44 0.61,1.71 1.78,3.21 3.46,4.17z"/>
    <path class="fil0" d="M2405.8 1122.81c-9.1,5.54 -20.62,7.95 -30.58,7.03 -14.02,-1.31 -25.25,-8.81 -33.4,-19.17 -9.14,-11.61 -14.4,-26.99 -15.24,-40.92l-0.13 -3.7c0.04,-11.62 3.48,-22.61 10.02,-30.96 6.79,-8.68 16.76,-14.47 29.53,-15.25l2.95 -0.11c16.82,0.05 29.61,8.14 38.6,19.93 10.43,13.67 15.59,32.52 15.81,48.89l0.03 0.09c0,1.85 -0.61,3.61 -1.78,5.04 1.03,1.73 1.4,3.77 0.93,6.17 -1.94,10.19 -8.41,17.88 -16.76,22.96zm-4.83 -26.83c0.91,-2.12 3.14,-4.02 5.63,-5.27 -2.19,-4.3 -4.13,-8.8 -6.07,-13.31 -4.32,-10.05 -8.71,-20.26 -15.95,-27.11 -4.74,-4.48 -10.39,-7.11 -15.76,-7.65 -2.62,-0.26 -5.15,-0.04 -7.39,0.7 -2.1,0.69 -4.03,1.89 -5.65,3.59 -2.56,2.69 -4.37,6.81 -4.94,12.48 -0.66,6.52 -0.2,13.6 1.39,20.41 1.47,6.27 3.91,12.25 7.33,17.26 3.26,4.78 7.66,8.31 12.45,10.36 3.61,1.55 7.43,2.26 11.11,2.04 3.51,-0.21 6.91,-1.29 9.87,-3.3 3.22,-2.19 6.01,-5.55 8,-10.2z"/>
    <path class="fil0" d="M2935.12 1053.8c4.23,2.96 8.32,6.15 12.34,9.45l1.78 1.46 0.71 2.23c0.94,2.94 0.57,5.87 -0.67,8.39l-0.03 0.06c-0.94,1.85 -2.41,3.52 -4.19,4.71 -1.8,1.2 -3.97,1.98 -6.27,2.08 -2.82,0.11 -5.72,-0.72 -8.25,-2.87 -1.58,-1.34 -3.06,-3.02 -4.61,-4.77 -1.88,-2.12 -3.93,-4.44 -4.77,-4.67 -2.52,-0.68 -5.22,-1.06 -7.91,-1.44 -2.95,-0.41 -5.91,-0.83 -9.17,-1.67l-2.43 -0.56c-5.53,-1.11 -10.72,-1.07 -14.65,0.53 -3.17,1.3 -5.61,3.89 -6.71,8.11l-0.52 2.15c-0.19,0.52 -0.34,1.09 -0.45,1.65 -0.12,0.63 -0.2,1.2 -0.22,1.69l-0.07 1.48 -0.58 1.32c-1.62,3.69 -4.76,5.96 -8.15,6.8 -1.8,0.44 -3.71,0.48 -5.52,0.1 -1.96,-0.41 -3.83,-1.31 -5.39,-2.71 -2.44,-2.17 -3.94,-5.29 -3.69,-9.27 0.65,-10.39 4.16,-19.68 10.5,-26.35 6.04,-6.35 14.44,-10.2 25.14,-10.31 4.62,-0.05 9.31,0.26 13.96,0.85 5.07,0.64 10.04,1.6 14.77,2.76l0.88 0.22 0.84 0.43c4.58,2.37 9,5.13 13.32,8.16z"/>
    <path class="fil0" d="M2900.83 1041.22c3.46,0.05 7.19,0.1 10.59,0.28l1.34 0.07 1.15 0.45c6.38,2.52 12.36,5.82 18.11,9.63 5.6,3.7 10.91,7.83 16.14,12.16l4.57 3.78 -2.38 5.42c-1.15,2.63 -3.18,4.62 -5.52,5.83 -1.91,0.96 -4.06,1.45 -6.15,1.37 -2.38,-0.09 -4.73,-0.88 -6.69,-2.44 -1.87,-1.49 -3.33,-3.6 -4.02,-6.39 -0.59,-2.39 -4.09,-4.11 -8.59,-5.31 -9.94,-2.66 -23.35,-2.06 -30.09,-1.35 -0.78,0.08 -2.39,0.72 -4.31,1.67 -1.44,0.7 -2.9,1.54 -4.24,2.41 -0.59,1.46 -1.49,2.84 -2.77,4.08 -0.74,0.74 -1.57,1.45 -2.34,2.16l-0.03 0.15c-0.54,2.38 -1.07,4.63 -2.89,7.54 -1.54,2.47 -3.67,4.09 -6.02,4.96 -1.82,0.65 -3.68,0.85 -5.46,0.63 -1.71,-0.22 -3.41,-0.83 -4.92,-1.78 -2.22,-1.38 -4.06,-3.5 -5.06,-6.22 -1.72,-4.67 -1.18,-8.96 0.6,-12.85 1.24,-2.72 3.03,-5.06 4.96,-7.13 0.61,-1.14 1.32,-2.3 2.22,-3.47 1.21,-1.59 2.73,-3.15 4.67,-4.63 4.12,-3.15 7.94,-5.95 12.44,-8.06 4.87,-2.28 10.11,-3.54 16.44,-3.17 2.69,0.16 5.37,0.2 8.24,0.24z"/>
    <path class="fil0" d="M2928.48 1143.84c5,-2.43 9.96,-4.83 13.5,-8.69 3.8,-4.12 8.53,-4.61 12.62,-3.02 1.48,0.57 2.84,1.44 3.96,2.5 1.07,1.01 2,2.27 2.69,3.69 1.96,4.04 1.88,9.02 -1.96,13.21 -3.03,3.28 -5.69,5.92 -8.81,8.15 -3.23,2.31 -6.83,4.13 -11.62,5.65 -1.88,0.6 -4.21,2.1 -6.53,3.6 -4.81,3.11 -9.65,6.23 -16.53,6.43 -4.68,0.13 -9.44,-0.09 -14.09,-0.85 -4.85,-0.8 -9.63,-2.2 -14.2,-4.39 -6.83,-3.28 -10.41,-6.87 -14.43,-10.88 -1.59,-1.59 -3.27,-3.28 -5.31,-5 -4.22,-3.59 -4.91,-8.21 -3.49,-12.32 0.52,-1.51 1.35,-2.9 2.38,-4.06 0.96,-1.11 2.17,-2.07 3.57,-2.8 3.98,-2.11 9.09,-2.23 13.43,1.45 0.85,0.8 1.93,1.56 2.74,2.37 8.1,7.06 21.05,18.35 29.18,12.33 4.27,-3.16 8.61,-5.27 12.92,-7.36z"/>
    <path class="fil0" d="M2788.14 1111.77c3.41,5.77 6.21,11.78 8.1,17.77 0.39,0.97 0.71,1.91 0.97,2.81 0.26,0.9 0.49,1.87 0.67,2.87 2.23,8.73 4.02,18.42 3.43,27.82 -0.65,10.33 -4.14,20.06 -12.78,27.57 -2.65,2.3 -6.28,3.24 -9.57,2.86l-0.06 0c-1.28,-0.15 -2.62,-0.54 -3.9,-1.15 -1.41,-0.67 -2.69,-1.61 -3.73,-2.81 -1.93,-2.22 -3,-5.12 -2.6,-8.59 0.5,-4.41 2.1,-7.4 3.68,-10.37 0.89,-1.6 1.75,-3.22 1.93,-4.52 0.72,-5.22 0.61,-10.84 0.51,-16.36l-0.11 -6.2c0,-6.1 -4.68,-11.79 -9.33,-17.44 -3.52,-4.28 -7.04,-8.56 -9.53,-13.62l-0.03 -0.03c-0.92,-1.88 -1.27,-3.81 -1.2,-5.67 -1.19,-1.29 -2.43,-2.56 -3.72,-3.8 -2.07,-1.99 -4.21,-3.82 -6.37,-5.43 -0.67,-0.49 -1.3,-1.07 -1.85,-1.7 -0.49,-0.56 -0.86,-1.05 -1.13,-1.46l-12.34 -18.87 21.39 7.12c4.03,1.34 8.01,2.81 11.84,4.46 3.94,1.71 7.74,3.62 11.27,5.8l1.02 0.63 0.76 0.87c4.74,5.43 9.1,11.35 12.71,17.44z"/>
    <path class="fil0" d="M2762.84 1088.26c0.92,0.72 1.81,1.46 2.62,2.22 2.26,2.11 4.66,4.06 7.01,5.96 9.57,7.75 18.63,15.09 19.95,30.02 0.48,5.5 -2.24,9.26 -6.17,11.19 -1.42,0.7 -2.99,1.11 -4.57,1.21 -1.48,0.09 -3.03,-0.09 -4.5,-0.54 -4.29,-1.32 -8.01,-4.83 -8.51,-10.51 -0.45,-5.12 -5.65,-10.5 -12.34,-15.18 -10.65,-7.46 -24.28,-12.48 -31.19,-13.12 -5.3,-0.49 -11,-0.93 -17.01,-1.31 -6.28,-0.4 -12.28,-0.7 -17.99,-0.9 -12.98,-0.48 -13.6,8.65 -14.24,18.36 -0.37,5.59 -0.75,11.33 -2.4,16.83 -1.55,5.19 -3.22,9.67 -5.35,13.93 -2.13,4.27 -4.74,8.33 -8.17,12.72 -3.37,4.32 -7.83,5.19 -11.96,3.95 -1.55,-0.44 -3,-1.25 -4.23,-2.28 -1.13,-0.94 -2.12,-2.14 -2.88,-3.46 -2.23,-3.93 -2.54,-9.12 0.96,-13.59 2.36,-3.04 3.99,-6.28 5.16,-9.64 1.26,-3.61 2.06,-7.5 2.71,-11.48l0.22 -1.35 1.68 -3.2 0.91 -2.08c1.05,-2.67 1.68,-5.65 2.06,-8.75 0.43,-3.54 0.55,-6.99 0.56,-10.35l0 -1.49 0.49 -1.28c0.64,-1.68 1.39,-3.41 2.3,-5.19 0.94,-1.85 1.95,-3.6 3.02,-5.18 9.24,-13.67 25.5,-11.66 39.46,-9.93 3.66,0.45 7.14,0.88 9.85,0.88 2.23,0 4.88,0.05 8.16,0.16 3.06,0.11 5.9,0.26 8.34,0.48l0.73 0.07 9.8 3.02c7.31,2.22 14.65,4.44 21.39,7.08l0.87 0.34c0.89,0.63 2.63,1.75 3.28,2.4z"/>
    <path class="fil0" d="M2644.6 1122.19c2.48,-2.02 4.62,-4.44 6.15,-7.1 2.84,-4.88 7.45,-6.43 11.8,-5.78 1.52,0.22 3,0.77 4.35,1.55 1.36,0.77 2.57,1.8 3.53,3.01 2.77,3.47 3.74,8.26 0.91,13.15 -2.79,4.85 -6.65,9.48 -11.13,13.31 -4.35,3.72 -9.33,6.73 -14.52,8.52 -12.15,4.19 -22.83,7.86 -36.54,7.41 -5.67,-0.19 -9.31,-3.61 -10.81,-7.85 -0.5,-1.43 -0.72,-2.96 -0.7,-4.44 0.03,-1.57 0.36,-3.15 0.96,-4.56 1.73,-4.07 5.44,-7.12 11.05,-6.94 4.07,0.13 8.45,-0.48 12.83,-1.47 4.47,-1.01 9.19,-2.52 13.67,-4.06 2.96,-0.99 5.86,-2.65 8.44,-4.74z"/>
    <path class="fil0" d="M2812.72 1118.59c4.25,0.11 9.06,-0.85 14.74,-2.03 5.57,-1.16 9.96,1.36 12.44,5.1 0.85,1.28 1.44,2.7 1.78,4.15 0.35,1.56 0.41,3.17 0.15,4.7 -0.72,4.31 -3.55,8.07 -9.02,9.22l-4.26 0.96c-10.3,2.36 -21.29,4.88 -32.5,-1.08 -6.98,-3.7 -13.83,-7.94 -20.5,-12.52 -6.56,-4.5 -12.89,-9.31 -19.02,-14.25l-0.03 -0.03c-4.27,-3.46 -5.07,-7.98 -3.78,-12.09 0.5,-1.54 1.32,-2.96 2.35,-4.16l0.03 -0.03c0.96,-1.11 2.15,-2.08 3.5,-2.82 3.93,-2.19 9.08,-2.43 13.52,1.15 4.68,3.78 9.34,7.36 13.89,10.58 4.77,3.36 9.61,6.52 14.5,9.38 4.57,2.64 8.41,3.67 12.22,3.76z"/>
    <path class="fil0" d="M2233.46 815.89c3.05,-4.14 6.28,-8.51 7.15,-12.07 1.34,-5.48 5.3,-8.21 9.69,-8.8 1.59,-0.2 3.15,-0.1 4.59,0.26 1.47,0.37 2.9,1.02 4.16,1.91l0.03 0.03c3.63,2.57 5.95,6.95 4.61,12.44 -1.01,4.14 -2.9,6.83 -4.8,9.52 -0.86,1.22 -1.74,2.46 -2.18,3.48 -1,2.29 -2.04,4.63 -3.18,6.7 -1.38,2.5 -3.02,4.91 -5.13,7.1 -1.38,1.43 -2.13,3.98 -2.87,6.52 -0.73,2.49 -1.46,5 -2.83,7.7 -1.54,3.08 -3.2,5.7 -5.11,8.18 -1.89,2.48 -3.89,4.66 -6.15,6.92 -3.98,3.98 -8.86,4.27 -12.95,2.49 -1.47,-0.64 -2.77,-1.54 -3.82,-2.59 -1.05,-1.05 -1.95,-2.35 -2.59,-3.82 -1.78,-4.09 -1.49,-8.96 2.49,-12.95 3.96,-3.96 6.04,-8.91 8.16,-14 1.53,-3.66 3.1,-7.4 5.31,-11.19 1.45,-2.5 3.41,-5.14 5.41,-7.85z"/>
   </g>
   <path class="fil0" d="M1853.99 198.97c-29.32,0 -43.06,40.57 -14.52,47.7 1.9,0.4 3.62,0.62 5.62,0.62 16.61,0.05 33.22,0.24 49.82,0.8 20.95,1 41.3,-25.09 25.8,-41.88 -4.32,-4.33 -9.17,-6.11 -15.24,-6.41 -17.16,-0.58 -34.32,-0.78 -51.49,-0.83zm-253.39 67.86c18.06,-3.28 34.01,-24.34 21.2,-40.63 -5.14,-6.07 -13.62,-8.35 -21.44,-6.94 -17.56,2.85 -35.02,5.98 -52.48,9.4 -28.63,5.2 -35.33,46.21 -3.97,47.78 2.18,0 3.92,-0.17 6.01,-0.55 16.87,-3.29 33.71,-6.31 50.68,-9.06zm-300.76 81.07c19.04,-7.26 29.02,-34.43 8.04,-44.31 -6.51,-2.84 -13.69,-2.46 -20.3,0.06 -17.07,6.53 -34.19,13.39 -50.97,20.61 -16.41,7.03 -26.75,29.09 -10.47,41.89 7.54,5.02 16.62,5.03 24.89,1.49 16.12,-6.88 32.44,-13.48 48.81,-19.74zm-282.69 144.31c29.7,-20.32 6.01,-57.2 -24.45,-37.96 -15.48,10.12 -30.71,20.43 -45.88,31.02 -22.96,15.71 -13.05,48.86 16.09,41.58 3.84,-1.15 6.63,-2.42 10,-4.73 14.63,-10.2 29.31,-20.15 44.24,-29.91zm-247.15 200.52c19.91,-19.91 1.78,-48.28 -26.06,-35.75 -3.56,1.87 -6.05,3.54 -8.91,6.39 -51.51,51.79 -99.53,106.69 -143.5,165.04 -19.92,27.57 16.83,49.91 39.19,24.57 46.23,-57.46 86.93,-107.61 139.28,-160.25zm-155.07 1972.57c-5.04,-6.87 -14.26,-9.53 -22.49,-7.89 -17.19,2.57 -33.12,24.04 -21.72,39.59 35.9,49.52 74.31,96.55 115.61,141.65 17.5,18.85 55.09,-5 44.85,-29.89 -0.99,-1.96 -1.81,-3.44 -3.35,-5.09 -40.37,-44.2 -77.76,-89.9 -112.9,-138.37zm276.19 292.16c-21.8,-17.44 -59.17,15.63 -38.65,37.73 11.58,10.15 25.37,20.56 37.72,29.87 18.14,14.51 52.07,-8.47 42.26,-32.3 -1.63,-3.25 -2.98,-5.01 -5.86,-7.31 -11.98,-9.16 -23.77,-18.5 -35.48,-27.98zm762.17 328.82c-9.96,-1.43 -20.32,3.63 -26.67,10.89 -12,13.72 -8.09,34.27 11.26,37.04 67.87,8.74 135.03,13.24 203.46,13.49 29.32,0 43.06,-40.57 14.52,-47.7 -1.9,-0.4 -3.62,-0.62 -5.62,-0.62 -66.27,-0.25 -131.24,-4.63 -196.96,-13.09zm449.03 -7.06c-18.06,3.28 -34.02,24.34 -21.21,40.63 5.14,6.07 13.62,8.36 21.44,6.94 70.73,-11.33 141.1,-28.31 209.55,-49.32 17.06,-5.69 30.11,-26.84 15.52,-41.44 -6.59,-5.65 -15.5,-6.98 -23.77,-4.22 -65.73,20.24 -133.6,36.53 -201.53,47.41zm445.13 -146.72c-31.77,17.47 -13.11,57.25 18.69,41.35 16.39,-8.47 32.56,-17.13 48.68,-26.1 19.77,-10.87 22.48,-40.22 -2.42,-44.15 -6.54,-0.69 -12.2,0.56 -17.99,3.74 -15.55,8.65 -31.14,16.99 -46.95,25.16zm266.57 -174.47c-20.87,17.39 -9.3,46.89 18.19,40.01 4.87,-1.46 7.91,-3.1 11.96,-6.24 14.27,-11.71 28.26,-23.57 42.19,-35.67 23.24,-20.5 2.71,-51.59 -25.89,-36.54 -2.09,1.21 -3.93,2.44 -5.74,4.04 -13.44,11.69 -26.95,23.11 -40.71,34.41zm223.25 -224.55c-18.55,22.52 6.78,48 32.16,31.07 2.81,-1.98 4.85,-3.8 7.08,-6.5 11.43,-14.05 22.53,-28.48 33.43,-42.94 19.92,-27.57 -16.83,-49.91 -39.19,-24.57 -11.34,14.1 -22,28.82 -33.48,42.93zm168.82 -259.37c-11.04,20.98 10.07,38.4 30.63,28.67 6.44,-2.72 12.02,-8.17 15.22,-14.26 31.84,-61.77 59.51,-125.91 82.84,-191.36 2.5,-7.13 1.8,-14.46 -2.9,-20.44 -13.3,-15.71 -39.64,-5.02 -45.89,12.83 -22.53,63.15 -49.18,124.97 -79.91,184.57zm143.11 -421.21c-2.2,10.97 4.66,21.16 15.48,23.44 15.81,3.33 32.26,-8.09 35.39,-23.69 11.74,-64.88 19.4,-129.88 23.08,-195.72 1.12,-22.42 -26.18,-26.68 -41.23,-13.52 -5.74,5.02 -9.92,11.75 -10.31,19.61 -3.58,63.87 -11.01,126.93 -22.41,189.87zm17.67 -423.55c2.08,20.84 29.14,22.33 42.02,9.45 6.06,-5.31 10.18,-13.91 9.36,-22.13 -1.54,-15.73 -3.29,-31.35 -5.24,-47.04 -4.83,-30.58 -54.49,-16.91 -51.27,13.71 1.91,15.33 3.63,30.62 5.14,46zm-50.66 -269.56c5.53,19.91 32.78,17.05 44.22,2.98 5.38,-6.15 7.94,-14.65 5.83,-22.63 -4.17,-14.89 -8.67,-29.74 -13.33,-44.48 -6.57,-19.7 -33.51,-16.18 -44.48,-1.83 -4.99,6.15 -7.78,14.96 -5.21,22.67 4.53,14.35 8.91,28.81 12.97,43.3zm-1131.07 -1074.44c31.85,6.37 51.04,-39.35 19.92,-47.13 -16.15,-3.65 -32.33,-7.08 -48.57,-10.24 -28.57,-5.71 -49.93,35.59 -22,46.45 1.21,0.4 2.29,0.72 3.56,0.97 15.76,3.1 31.43,6.4 47.09,9.94z"/>
  </g>
 </g>
</svg>
