<?xml version="1.0" encoding="UTF-8"?>
<!DOCTYPE svg PUBLIC "-//W3C//DTD SVG 1.1//EN" "http://www.w3.org/Graphics/SVG/1.1/DTD/svg11.dtd">
<!-- Creator: CorelDRAW 2020 (64-Bit) -->
<svg xmlns="http://www.w3.org/2000/svg" xml:space="preserve" width="3.93701in" height="3.93701in" version="1.1" style="shape-rendering:geometricPrecision; text-rendering:geometricPrecision; image-rendering:optimizeQuality; fill-rule:evenodd; clip-rule:evenodd"
viewBox="0 0 3937.01 3937.01"
 xmlns:xlink="http://www.w3.org/1999/xlink"
 xmlns:xodm="http://www.corel.com/coreldraw/odm/2003">
 <defs>
  <style type="text/css">
   <![CDATA[
    .fil0 {fill:#FEFEFE;fill-rule:nonzero}
   ]]>
  </style>
 </defs>
 <g id="Layer_x0020_1">
  <metadata id="CorelCorpID_0Corel-Layer"/>
  <path class="fil0" d="M1841.28 3166.96c2.52,0.38 5.02,0.78 7.55,1.19 44.14,-108.79 96.01,-216.41 116.82,-382.96 1.51,-12.16 5.4,-25.06 -1.59,-41.06 -127.24,213.98 -125.1,207.09 -127.69,227.75 -8.28,65.31 2.8,130.05 4.92,195.08zm9.66 -483.1c1.82,0.65 3.63,1.28 5.45,1.94 3.33,-3.18 7.31,-5.93 9.91,-9.59 95.64,-135.07 97.4,-133.88 93.21,-155.12 -19.12,-96.84 -40.08,-146.57 -61.96,-187.43 -2.07,0.15 -4.11,0.32 -6.16,0.48 -9.51,34.12 -19.44,68.08 -28.45,102.34 -21.44,81.69 -5.42,165.03 -12.01,247.37zm325 407.06c46.41,-19.45 145.78,-149.55 185.93,-240.66 27.75,-63.1 49.34,-228.29 33.37,-271.82 -3.06,5.02 -4.69,8.65 -7.14,11.65 -140.7,170.59 -117.83,304.6 -203.15,478.41 -3.23,6.58 -5.5,13.6 -9.01,22.43zm192.23 -1281.73c-2.53,-0.58 -5.02,-1.16 -7.57,-1.74 -24.8,28.13 -95.14,132.14 -132.57,219.5 -20.91,48.76 -49.6,69.55 -77.09,173.99 -32.87,125.03 -66.85,210.34 -71.62,223.13 -22,59.01 28.76,83.93 27.3,259.16 -1.57,184.18 -53.66,324.35 -80.5,410.55 41.98,-21.95 77.22,-43.44 100.66,-79.34 51.41,-78.65 88.87,-159.56 107.52,-266.42 14.18,-81.16 44.07,-157.81 72.3,-234.89 11.12,-30.32 23.66,-59.41 45.41,-83.27 32.54,-35.75 -22.86,-47.15 -17.19,-162.99 8.96,-181.79 25.13,-261.91 34.69,-368.87 2.63,-29.32 -0.7,-59.18 -1.33,-88.8zm-774.6 1425.78c15.22,-38.67 3.96,-65.49 -18.99,-95.16 -58.78,-75.96 -135.5,-128.66 -214.91,-178.76 -89.81,-56.73 -170.99,-123.74 -234.49,-209.08 -51.79,-69.65 -101.31,-141.4 -140.89,-219.07 -58.17,-114.28 -83.35,-108.17 -135.82,-190.16 -88.93,-138.9 -148.64,-162.24 -312.84,-278.76 -98.18,-69.68 -179.34,-118.87 -179.92,-256.99 -0.46,-122.02 -54.41,-200.08 -72.1,-214.83 -40.04,-33.35 -66.83,-77.25 -96.14,-119.08 -10.17,-14.5 -17.08,-31.28 -25.5,-47.02 1.51,-1.37 3.05,-2.7 4.56,-4.06 51.24,21.06 122.33,78.17 167.66,151.57 94.47,152.92 124.87,289.58 271.5,377.59 66.04,39.69 127.5,87.14 189.81,132.72 74.54,54.54 130.37,126.11 175.86,205.52 13.17,22.98 22.37,49.75 26.84,75.91 18.85,110.74 72.5,192.25 89.48,227.97 57.44,120.72 148.29,150.61 380.17,280.58 45.76,25.63 70.96,51.1 91.55,54.03 -131.99,-165.01 -266.05,-204.58 -391.47,-378.65 -25.88,-35.87 -40.77,-75 -44.22,-120.44 -5.02,-66.28 -15.77,-132.13 -24.75,-198.1 -5.45,-40.01 -23.54,-71.63 -58.07,-95.69 -26.87,-18.79 -41.94,-45.98 -128.55,-140.49 -39.38,-42.94 -123.59,-111.25 -163.17,-228.83 -12.81,-38.02 -42.76,-100.53 -44.32,-163.82 -1.8,-72.61 -19.91,-138.85 -64.25,-197.48 -22.63,-29.97 -43.06,-61.61 -61.63,-96.19 5.43,2.35 11.8,3.58 16.07,7.26 21.83,18.84 46.12,35.9 63.98,58.05 142.73,177.19 101.59,282.62 224.29,387.51 10.9,9.31 18.85,21.98 28.56,32.72 33.65,37.19 67.91,73.81 101.11,111.41 82.74,93.71 121.94,132.39 119.6,204.51 -2.67,82.67 40.47,171.47 73.39,247.68 1.94,4.42 3.53,9.07 6.13,13.12 49.67,76.96 96.44,156.28 169.75,214.65 273.72,218.02 261.81,238.95 328.06,316.5 50.88,-49.24 27.55,-39.96 -102.12,-256.74 -88.95,-148.66 -159.33,-261.22 -193.04,-421.82 -16.35,-77.9 -17.66,-168.47 -26.59,-386.78 -1.64,-40.67 17.04,-75.18 -24.34,-169.58 -26.31,-60.01 -39.71,-91.91 -60.7,-111 -89.96,-82.04 -142.13,-187.18 -180.4,-299.59 -35.52,-104.24 -99.04,-186.63 -182.59,-255.73 -46.12,-38.14 -91.4,-77.27 -137.41,-115.46 -44.09,-36.61 -102.75,-70.08 -131.84,-131.76 -2.7,-5.7 -4.31,-11.93 -7.77,-21.65 7.26,2.12 11.16,2.22 13.62,4.13 40.01,31.21 86.54,50.69 131.74,72.35 43.29,20.76 172.76,16.8 303.79,171.27 207.29,244.45 104.67,297.73 201.44,490.16 37.28,74.09 108.22,86.7 152.65,214.63 128.56,370.24 -9.13,409.96 167.31,739.02 22.3,41.68 47.95,81.59 72.25,122.2 1.69,2.82 4.56,5 9.81,10.6 4.64,-75.02 0.61,-130.63 62.24,-298.97 9.41,-25.71 23.61,-52.95 14.55,-67.76 -80.14,-131.15 -118.16,-276.13 -141.09,-426.19 -15.39,-100.57 -42.69,-198.11 -75.23,-294.35 -27.13,-80.27 -24.95,-119 -65.06,-181.83 -66.22,-103.66 -109.67,-162.97 -129.62,-287.74 -10.82,-67.76 -12.86,-110.04 -70.64,-148.19 -47.55,-31.35 -94.8,-63.22 -143.13,-93.31 -29.52,-18.39 -54.29,-39.08 -66.35,-73.41 -6.93,-19.73 -19.47,-37.46 -27.82,-56.81 -3.85,-9.05 -3.68,-19.83 -6.15,-34.76 18.79,9.89 51.49,31.89 78.91,27.78 24.12,-3.63 46.39,0.2 67.61,10.44 207.99,100.16 231.11,263.85 254.39,375.46 8.57,41.18 22.45,79.75 46.39,114.61 40.41,58.93 79.61,118.72 120.81,177.09 32.02,45.41 56.63,93.67 74.19,146.56 38.5,115.93 63.67,234.59 84.59,354.7 10.22,58.7 29.11,115.92 44.5,173.71 2.32,8.73 6.92,16.91 13.04,25 11.56,-25.38 16.37,-51.26 17.23,-78.07 5.05,-162.28 -77.17,-198.69 -100.55,-380.68 -12.87,-100.43 27.78,-143.32 44.29,-197.38 18.26,-59.69 33.86,-147.38 44.91,-173.11 19.4,-45.03 12.84,-66.57 -8.78,-234.41 -15.89,-123.24 20.89,-207.42 85.85,-313.05 40.26,-65.46 34.79,-109.18 49.47,-235.11 1.19,-10.07 4.97,-19.86 8.15,-31.96 13.5,11.86 14.22,25.5 15.08,38.65 4.52,69.02 -3.73,137.23 -19.7,203.96 -18.29,76.4 -75.3,109.89 -73.33,219.43 2.87,157.54 -13.47,207.57 35.52,345.87 61.28,173.05 -70.89,256.56 -82.74,359.56 -6.64,57.63 -0.2,113.6 27.72,165.87 11.35,21.3 20.61,43.67 31.56,65.17 55.35,109.05 43.74,199.92 48.19,227.34 10.04,61.74 -0.93,121.32 -19.22,179.85 -5.27,16.93 -4.54,30.7 4.19,46.57 33.55,60.85 57.16,112.74 75.07,142.4 2.7,-5.3 5.25,-8.4 5.91,-11.88 0.55,-2.88 46.42,-246.24 46.32,-250.45 -2.13,-81.94 31.81,-152.22 72.48,-219.76 50.89,-84.48 105.83,-166.3 170.96,-240.67 36.35,-41.52 -16.1,-49.72 4.03,-231.83 2.4,-21.42 13.82,-79.57 2.22,-120.39 -9.24,-32.39 -21.31,-64.15 -34.39,-95.28 -5.75,-13.72 -15.06,-27.17 -25.93,-37.31 -20.06,-18.76 -37.71,-38.97 -49.24,-63.79 -23.94,-51.62 -48.49,-103.06 -69.88,-155.73 -13.73,-33.8 -19.5,-132.92 -20.69,-168.8 -4.11,-124.74 2.35,-115.11 19.17,-320.11 1.41,-16.93 -1.24,-34.18 2.53,-51.56 24.52,350.48 38.64,317.81 128.02,505.91 19.45,40.96 36.83,82.94 57.29,123.36 36.73,72.63 14.07,84.26 36.28,147.38 11,31.28 17.63,63.01 19.8,96.06 1.44,22.1 5.53,44.02 7.61,66.07 16.73,174.47 15.7,180.95 17.67,213.6 43.97,-23.13 101.61,-63.63 208.07,-82.57 42.35,-7.55 83.65,-22.86 124.22,-38.04 58.37,-21.85 86.81,-46.04 165.64,-68.24 64.18,-18.06 128.86,-30.88 196.3,-33.17 46.7,-1.59 92.83,-16.33 139.45,-23.82 14.68,-2.37 30.05,-0.38 45.97,-0.38 5.52,21.98 -4.77,34.62 -17.26,45.29 -39.13,33.52 -82.54,54.69 -136.2,55.7 -50.07,0.94 -100.2,6.81 -149.97,13.04 -49.93,6.23 -86.89,41.12 -277.78,140.77 -98.11,51.19 -168.89,59.61 -240.13,119.45 -9.79,8.22 -15.57,16.43 -10.17,29.77 60.12,148.71 20.18,289.63 -3.38,538.78 -2.6,27.65 -0.4,55.72 -0.4,88.46 9.38,-5.57 15.56,-7.59 19.42,-11.75 30.75,-33.28 62.13,-66.09 91.17,-100.86 50.26,-60.11 97.12,-159.15 236.78,-228.73 85.85,-42.78 95.08,-12.2 123.01,-44.68 23.51,-27.35 60.16,-72.07 89.22,-110.37 104.39,-137.46 250.81,-200.2 420.54,-213.29 100.18,-7.74 173.84,-43.06 278.71,-92.06 31.64,-14.78 61.13,-32.8 85.9,-58.12 13.75,-14.05 29.32,-26.31 44.07,-39.4 2.02,1.56 4.04,3.12 6.06,4.71 -6.64,12.26 -12.14,25.31 -20.06,36.63 -34.3,49.09 -78.1,87.56 -130.57,116.7 -120.24,66.78 -246.57,119.2 -375.93,165.29 -243.85,86.91 -244.15,322.91 -410.55,341.35 -67.2,7.46 -133.2,61.98 -174.47,114.88 -109.84,140.8 -83.93,135.87 -275.2,291.27 -12.19,9.91 -16.72,21.87 -15.52,38.07 8.13,109.04 -6.05,196.97 -12.63,219.05 -91.43,305.7 -64.07,219.32 -121.31,333.73 7.74,-4.79 13.27,-7.44 17.91,-11.2 97.07,-77.94 176.39,-169.88 226.35,-285.36 20.54,-47.51 50.43,-88.88 87.8,-124.83 58.32,-56.11 91.57,-197.15 250.22,-254.32 12.96,-4.66 108.88,-37.46 178.08,-76.26 27.78,-15.57 181.43,-103.28 212.84,-128.73 39.22,-31.76 80.75,-59.49 128.5,-77.22 29.82,-11.05 58.63,-25 88.9,-34.38 81.28,-25.23 126.8,-3.41 178.91,-39.1 1.16,-0.79 3.56,0.28 4.87,0.43 -56.5,62.46 -129.54,92.1 -211.4,102.67 -49.57,6.41 -95.23,24.64 -139.96,45.05 -87.56,39.89 -56.79,122.83 -180,209.59 -122.41,86.2 -105.6,80.98 -274.55,145.94 -98.35,37.82 -186.2,50.56 -219.93,111.16 -48.38,86.83 -98,172.98 -136.25,265.13 -44.93,108.25 -111.91,202.53 -188.83,290.06 -11.93,13.57 -26.61,25.81 -42.28,34.78 -51.04,29.27 -102.8,57.34 -155.05,84.42 -12.41,6.43 -27.67,9.44 -41.78,9.91 -23.56,0.74 -14.76,-2.49 -231.31,164.94 -9.86,7.63 -17.68,19.07 -28.56,24.04 -14.5,6.58 -32.31,6.08 -46.42,13.17 -13.22,6.65 -22.07,21.94 -35.27,28.65 -26.92,13.72 -58.87,4.21 -76.49,-21.98 -26.74,-39.76 -44.75,-5.4 -74.69,-61.5 -41.47,-77.83 0.3,-117.13 -54.92,-155.96 -54.44,-38.32 -107.54,-78.69 -163.6,-114.46 -46.8,-29.84 -85.04,-64.64 -110.37,-115.24 -82.14,-164.15 -219.33,-198.92 -229.57,-205.25 -152.75,-94.65 -341.57,-110.72 -497.22,-330.02 -5.57,-7.87 -12.11,-15.36 -16.2,-23.96 -29.97,-63.22 -84.21,-104.91 -133.53,-150.83 -41.12,-38.35 -188.82,-65.21 -221.87,-251.24 -6.13,-34.56 -50.17,-126.76 -69.02,-192.86 -21.57,-75.66 -49.01,-85.12 -53.25,-117.69 11.78,5.22 24.78,8.68 35.12,15.89 108.63,75.94 125.23,150.56 135.88,215.65 9.58,58.93 41.42,104.59 77.82,149.17 39.35,48.13 93.16,74.49 146.67,100.78 55.35,27.22 74.62,44.63 174.83,141.09 50.78,48.89 87.06,149.95 307.82,241.19 214.15,88.52 166.67,83.51 283.8,285.33 28.94,49.9 67.35,90.49 116,123.19 63.77,42.88 130.12,79.3 202.7,104.51 14.41,5 27.9,12.58 43.01,19.55z"/>
 </g>
</svg>
