<?xml version="1.0" encoding="UTF-8"?>
<!DOCTYPE svg PUBLIC "-//W3C//DTD SVG 1.1//EN" "http://www.w3.org/Graphics/SVG/1.1/DTD/svg11.dtd">
<!-- Creator: CorelDRAW 2020 (64-Bit) -->
<svg xmlns="http://www.w3.org/2000/svg" xml:space="preserve" width="3.93701in" height="3.93701in" version="1.1" style="shape-rendering:geometricPrecision; text-rendering:geometricPrecision; image-rendering:optimizeQuality; fill-rule:evenodd; clip-rule:evenodd"
viewBox="0 0 3937.01 3937.01"
 xmlns:xlink="http://www.w3.org/1999/xlink"
 xmlns:xodm="http://www.corel.com/coreldraw/odm/2003">
 <defs>
  <style type="text/css">
   <![CDATA[
    .fil0 {fill:#FEFEFE;fill-rule:nonzero}
   ]]>
  </style>
 </defs>
 <g id="Layer_x0020_1">
  <metadata id="CorelCorpID_0Corel-Layer"/>
  <path class="fil0" d="M3266.52 1942.44c-32.03,-52.57 -81.7,-80.69 -142.93,-87.39 -124.48,-13.63 -242.68,70.51 -307.56,170.63 -18.66,28.79 -34.87,59.95 -47.24,91.93 -4.66,11.73 -10.34,25.32 -14.6,39.39 -21.9,-32.66 -37.5,-69.06 -43.39,-108.1 -3.24,-20.52 -3.24,-41.75 -1.83,-62.43 0.41,-6.81 0.61,-13.59 0.81,-20.35 9.33,-31.87 26.35,-62.46 44.2,-91.42 15.41,-16.99 31.83,-32.76 48.45,-46.79 57.99,-48.9 134.62,-77.29 210.04,-81.83 84.34,-5.07 172.33,21.69 225.24,90.67 32.24,41.78 45.62,89.31 45.01,138.21 -4.66,-11.68 -10.34,-22.69 -16.22,-32.52zm-426.57 377.09c1.63,3.77 4.26,5.88 7.3,6.75 29.19,44.15 54.14,90.77 72.99,140.64 25.54,67.72 34.26,138.88 33.66,211.09 -1.22,135.94 -52.72,259.63 -144.15,359.2 -46.63,50.72 -102.18,90.26 -165.64,117.08 -69.54,29.42 -143.54,46.65 -213.28,75.54 -70.56,29.24 -137.46,69.34 -197.87,115.99 -18.45,14.23 -36.29,29.28 -53.32,45.05 21.08,-47.04 35.48,-95.92 44.19,-146.12 118,-105.79 271.88,-158.89 393.12,-260.14 58.39,-48.72 109.07,-109.82 135.83,-181.62 30.21,-80.61 27.98,-169.49 12.37,-252.98 -7.91,-42.25 -18.66,-84.3 -32.85,-124.89 -15.41,-43.85 -34.46,-86.34 -48.05,-130.78 -12.77,-41.56 -22.3,-84.46 -28.18,-127.59 -6.29,-48.96 -9.53,-98.39 6.89,-145.81 2.64,-7.5 5.68,-14.94 8.92,-22.34 -12.57,72.48 31.83,147.71 72.99,208.48 1.22,2.33 2.44,4.65 3.85,6.86 0.2,1.25 0.61,2.51 0.81,3.73 1.42,4.21 4.46,7.35 7.9,8.88 1.63,1.97 3.25,3.93 4.87,5.82l0 0.02c0.61,0.69 1.01,1.26 1.62,1.78 2.03,2.27 4.26,4.52 6.29,6.73 0.4,0.67 0.61,1.34 1.01,2.01 1.02,2.07 2.64,3.02 4.26,3.22 23.52,22.59 50.89,42.23 64.47,73.39zm-762.1 428.23c-21.69,-19.16 -44,-37.69 -66.5,-56.1 -3.65,-24.68 -11.35,-48.72 -16.22,-73.27 -6.29,-30.92 -12.37,-61.81 -16.22,-93.14 -7.91,-64.43 -8.11,-129.09 -1.02,-193.6 14.19,-129 57.38,-249.88 120.23,-362.93 58.8,-105.87 131.57,-207.93 169.29,-324.08 37.5,-115.41 44.8,-237.05 8.11,-353.6 -33.86,-107.42 -104,-210.98 -209.02,-257.43 34.87,-1.07 69.33,1.4 103.19,13.44 99.95,35.72 163.41,128.32 198.28,224.42 34.87,95.86 49.26,201.39 47.24,303.1 -2.03,100.27 -21.5,200.53 -59.61,293.43 -18.45,45.17 -41.76,88.11 -69.94,128.05 -30.21,42.84 -66.7,79.35 -101.98,117.92 -86.17,94.42 -120.43,216.81 -130.77,342.19 -8.11,99.89 2.64,200.13 30,296.1 -1.62,-1.48 -3.24,-3 -5.07,-4.5zm-110.49 -92.27c-19.06,-15.71 -38.32,-31.08 -57.58,-46.53 -17.24,-13.89 -33.46,-29.34 -51.09,-42.76 4.46,-92.49 -8.72,-186.24 -60.01,-262.09 -5.27,-7.83 -10.75,-15.43 -16.43,-22.93 2.64,-17.11 2.23,-34.53 3.65,-52.13 2.23,-26.13 5.48,-52.26 10.54,-78.06 9.12,-48.64 24.53,-97.39 42.98,-143.28 38.11,-94.25 96.7,-177.92 173.34,-244.64 38.92,-33.76 81.91,-63.04 117.19,-100.72 35.89,-38.3 59.6,-84.44 71.97,-135.37 21.29,-88.58 12.57,-182.37 -21.08,-266.83 -35.48,-89.64 -102.19,-176.53 -189.56,-221.03 11.15,-0.97 22.09,-2 33.04,-2.94 -0.2,4.76 2.23,9.47 8.11,11.42 112.32,36.96 182.67,148 216.12,256.08 18.24,58.61 26.15,120.33 23.72,181.62 -2.43,62.7 -18.04,120.39 -41.77,178.1 -46.02,111.81 -114.34,211.62 -170.5,318.22 -56.16,106.43 -93.06,220.14 -104.82,340.1 -6.69,66.21 -6.28,133.62 0.41,199.82 3.45,33.9 8.11,67.98 16.42,101.05 4.06,15.8 7.7,31.83 12.98,47.32 -5.88,-4.81 -11.76,-9.61 -17.64,-14.44zm30.81 280.61c13.59,60.62 21.49,125.15 16.22,187.3 -5.07,59.2 -18.65,117.89 -36.49,174.64 0,-0.34 0,-0.71 0,-1.06 -0.4,-24.06 -0.4,-48.17 -1.82,-72.19 -3.25,-49.17 -12.17,-97.78 -27.78,-144.49 -13.59,-40.51 -32.64,-78.5 -57.58,-113.23 -24.13,-33.5 -56.36,-71.59 -95.08,-88.31 16.42,-54.69 32.23,-109.46 43.58,-165.46 6.09,-29.64 11.36,-60.68 15.01,-92.33 65.69,96.26 118,200.55 143.94,315.14zm-206.8 -1990.94c-58.39,-72.72 -32.04,-186.24 4.86,-262.05 40.55,-83.08 106.24,-150.51 182.47,-201.55 -3.85,9.05 -6.69,17.93 -9.32,24.54 -11.96,31.57 -23.31,64.19 -32.44,96.71 -16.22,58.71 -25.75,120.75 -11.96,180.97 19.46,83.43 71.57,152.76 136.85,206.11 0,0 0,0 -0.2,0 -87.38,3.46 -206.39,34.91 -270.25,-44.72zm-274.92 1866.82c-5.47,29.46 -12.17,58.74 -18.85,88.01 -7.09,-6 -16.62,-10.22 -25.75,-13.64 -21.69,-15.92 -47.64,-23.11 -75.42,-25.73 -35.88,-3.39 -76.23,-4.65 -110.5,7.58 -41.35,14.74 -79.88,35.59 -124.08,41.16 -26.76,3.39 -51.09,-0.93 -77.04,-7.28 -17.84,-4.38 -36.49,-15.02 -54.94,-17.15 -0.81,-7.57 -1.01,-15.11 -0.81,-22.53 0.41,-7.03 1.22,-14.07 2.64,-21.12 13.79,13.11 33.85,21.33 51.7,24.47 45.82,8.07 93.26,-9.23 136.04,-23.87 94.48,-32.48 198.28,-83.14 297.63,-38.96 0.41,0.15 0.61,0.19 0.81,0.28 -0.4,2.92 -1.01,5.86 -1.42,8.78zm-46.63 225.06c-2.84,-9 -14.19,-14.54 -22.1,-19.4 -16.43,-10.12 -34.06,-19.24 -51.7,-27.11 -38.31,-16.95 -76.23,-26.76 -118.4,-24.94 -67.52,2.9 -151.24,34.41 -215.31,2.11 -15.41,-19.57 -25.75,-43.87 -30.41,-68.83 21.09,17.28 59.2,19.67 82.93,19.28 39.94,-0.65 80.28,1.9 119.62,-7.2 18.65,-4.34 36.08,-12.8 54.33,-18.89 22.1,-7.44 44.4,-8.2 67.52,-7.89 10.14,0.15 20.48,0.39 30.81,1.18 21.09,5.15 42.17,12.34 62.44,19.87 3.05,1.11 6.09,2.56 9.13,4.1 2.43,2.09 5.07,4.28 7.3,6.73 3.85,4.06 8.72,4.89 12.98,3.81 4.26,1.95 8.51,3.55 12.98,4.32 -8.52,37.42 -16.83,74.91 -22.1,112.86zm-457.38 -112.13c-38.32,-47.73 -58.8,-113.62 -65.28,-171.85 -7.1,-63.82 3.04,-129.76 27.17,-189.36 16.83,-12.63 32.24,-27.43 47.65,-41.87 20.88,-19.35 50.48,-49.37 81.91,-43.69 30.41,5.47 45.82,43 44.8,70.49 -0.4,8.61 -1.82,17.03 -4.05,25.26 -33.86,58.31 -82.11,110.35 -113.74,168.94 -27.98,51.62 -39.94,124.89 -18.45,182.07zm-140.5 -355.89c-37.91,3.79 -81.1,-1.28 -109.89,-28.75 -11.35,-10.87 -21.08,-24.25 -26.76,-39.03 -3.85,-10.6 -4.46,-21.05 -4.87,-31.73 18.25,11.88 43.79,14.96 64.48,13.88 39.73,-2.07 75.01,-18.44 107.85,-40.12 37.51,-24.8 70.76,-55.88 98.33,-91.34 13.18,-16.8 24.94,-34.67 35.28,-53.32 10.34,-18.75 17.44,-41.06 31.22,-57.56 17.23,-20.66 43.18,-17.97 63.26,-2.64 21.29,16.38 29.8,45.23 35.48,70.35 1.63,7.61 3.45,15.29 5.07,23.01 -17.03,-15.06 -39.33,-24.99 -61.02,-27.78 -40.35,-5.2 -72.18,21.13 -92.85,53.08 -25.15,38.85 -47.04,78.16 -79.89,111.41 -16.63,16.96 -35.07,32.22 -55.55,44.4 -9.53,5.64 -19.26,10.56 -29.4,14.64 -11.96,4.81 -26.56,12.75 -38.72,15.7 -3.24,0.77 -2.23,5.19 1.01,4.99 10.54,-0.63 19.67,1.76 30.21,-0.75 8.11,-1.93 16.22,-4.91 23.93,-8.03 16.02,-6.53 31.22,-15.08 45.41,-25.02 32.44,-22.57 60.02,-52.15 83.54,-83.71 22.09,-29.75 40.95,-80.33 77.24,-95.21 40.54,-16.63 77.65,13.18 102.79,41.69 0.4,0.67 1.01,1.22 1.82,1.68 4.26,30.35 6.08,61 2.43,91.09 -1.82,14.46 -5.07,28.33 -9.32,41.72 -1.63,-5.13 -3.85,-10.26 -6.49,-15.37 -11.56,-22.72 -31.02,-41.01 -55.96,-47.5 -27.78,-7.16 -53.93,4.86 -76.23,20.29 -22.91,15.75 -41.56,36.11 -62.04,54.7 -1.83,0.61 -3.65,1.84 -4.87,3.87 -0.2,0.4 -0.61,0.79 -0.81,1.19 -27.57,24.17 -57.99,36.52 -94.68,40.15zm2436.34 -702.52c-28.79,-70.65 -89,-123.74 -160.37,-149.28 -75.22,-26.9 -157.12,-24.37 -231.53,3.45 -72.99,27.27 -137.66,81.09 -188.96,138.59 -57.17,64.06 -107.04,139.22 -110.09,227.88 -3.04,93.87 31.22,182.24 54.14,271.74 23.11,90.02 54.94,179.17 61.63,272.46 6.49,92.96 -17.03,180.7 -75.42,253.86 -113.74,142.61 -295.6,202.84 -428.59,323.08 1.82,-15.1 3.24,-30.29 4.05,-45.57 4.87,-79.13 -0.2,-162.22 -26.35,-237.56 -17.44,-50.46 -46.22,-92.96 -81.3,-131.01 -32.44,-102.67 -44.4,-211.19 -36.09,-318.59 8.31,-106.84 33.25,-222.19 102.99,-306.57 34.06,-41.38 75.02,-76.6 108.87,-118.36 30.41,-37.43 55.96,-78.22 77.86,-121.12 43.18,-84.64 68.32,-177.46 78.26,-271.78 10.34,-96.22 5.07,-194.57 -14.39,-289.29 -20.28,-98.56 -55.35,-200.43 -125.7,-275.08 -54.74,-58.41 -122.45,-92.21 -198.28,-101.28 -75.22,-51.61 -140.91,-124.28 -164.83,-213.67 -15.81,-58.37 -15.61,-119.48 0.2,-177.76 8.52,-31.29 21.28,-59.26 36.9,-87.61 6.49,-11.9 12.77,-23.94 19.26,-35.87 4.66,-8.31 9.13,-13.84 9.53,-21.34 15.41,-9.57 4.26,-32.65 -12.98,-26 -89.61,34.22 -165.03,99.94 -217.94,179.27 -48.86,73.08 -82.31,160.04 -74.21,249.05 7.91,87.46 62.85,159.52 150.44,178.39 17.64,3.8 35.28,5.46 53.32,5.86 0.61,0.87 1.22,1.72 2.23,2.52 30.61,28.43 68.53,42.39 104.01,63.74 0,0.06 0.2,0.15 0.2,0.2 48.45,43.39 87.78,93.79 114.14,156.36 35.68,84.44 45.62,181.9 18.24,270.26 -15.81,51.41 -45,91.9 -84.94,127.34 -36.49,32.35 -75.63,61.15 -109.48,96.44 -64.68,67.23 -117.18,147.65 -153.27,233.64 -20.07,47.99 -33.45,97.13 -41.76,148.47 -4.06,25.89 -7.1,52 -7.91,78.23 -0.41,10.99 -1.01,22.12 -0.81,33.13 -28.79,-34.25 -59.4,-67.01 -84.34,-104.41 -36.29,-54.43 -64.88,-115.44 -77.85,-179.81 -25.75,-128.58 23.11,-271.8 142.12,-336.09 5.88,-3.08 7.5,-8.33 6.28,-12.95 10.14,-8.56 -2.84,-22.81 -14.19,-19.14 -128.94,41.72 -231.13,164.73 -283.23,286.17 -30.61,71.8 -46.63,150.44 -46.63,228.53 0.2,77.85 19.06,152.04 44.6,225.06 25.94,73.9 59.81,146.16 75.42,223.26 14.4,71.04 11.35,143.56 0.61,214.82 -79.28,-37.53 -166.45,-14.35 -244.71,14.7 -43.39,16.16 -86.57,34.71 -132.19,44 -23.93,4.83 -49.27,7.06 -72.59,-0.97 -12.98,-4.44 -23.31,-12.7 -33.25,-21.59 11.76,-32.11 31.63,-63.14 49.06,-89.23 54.94,-82.7 128.13,-159.15 128.74,-264.72 0.2,-51.74 -11.76,-102.85 -24.13,-152.83 -9.33,-38.54 -22.5,-80.12 -60.42,-99.26 -33.25,-16.67 -68.73,-7.4 -90.02,22.74 -11.36,16.15 -18.25,35.22 -27.78,52.39 -11.36,20.7 -24.94,40.37 -39.94,58.72 -32.04,39.31 -73.19,74.79 -119.01,97.13 -22.5,10.94 -47.64,19.54 -72.98,20.09 -25.55,0.55 -43.39,-10.66 -64.88,-22.6 -4.86,-2.78 -9.93,1.5 -8.11,6.85 0.41,0.93 0.81,1.76 1.02,2.64 -3.04,1.35 -5.88,3.75 -7.3,7.19 -20.68,51.56 27.78,107.62 70.75,128.07 48.46,23.13 113.95,25.04 164.43,3.02 -36.49,93.24 -32.24,199.74 8.11,292.46 24.53,56.42 61.83,116.01 124.48,133.5 68.93,19.22 135.43,-5.33 203.76,-13.09 44.8,-5.09 86.16,2.84 126.31,23.03 5.27,2.61 55.95,36.92 66.9,27.54 -0.61,5.39 -1.21,10.78 -1.82,16.18 -6.9,71.3 -1.02,143.98 19.67,212.71 41.96,139.71 142.73,268.05 267.82,342.17 9.53,5.65 18.85,-7.2 10.14,-14.17 -100.97,-79.33 -194.23,-179.28 -237.21,-302.37 -22.91,-65.06 -34.26,-131.54 -28.99,-200.46 6.49,-81.65 28.38,-161.08 45.21,-240.88 16.63,-77.59 28.79,-157.02 21.9,-236.49 -6.09,-71.81 -29.19,-140.87 -54.13,-208.06 -26.16,-70.43 -55.35,-140.02 -66.7,-214.81 -11.35,-76.45 -7.5,-155.58 13.18,-230.17 20.28,-73.43 55.96,-141.33 104.41,-199.94 -49.26,91.88 -68.93,193.72 -67.71,298.76 1.42,114.17 48.65,218.94 91.43,322.4 44.19,107.19 78.06,214.85 49.87,331 -14.6,59.87 -38.72,117 -54.54,176.54 -16.62,61.9 -26.15,125.52 -30.01,189.43 -3.85,63.54 -4.25,130.12 7.3,192.97 10.14,55.97 29.4,118.89 68.74,161.28 3.04,3.21 8.92,-0.08 6.69,-4.3 -25.95,-49.75 -45.21,-97.74 -51.9,-153.83 -7.3,-58.76 -7.91,-117.57 -3.05,-176.55 5.28,-63.76 16.63,-126.69 32.65,-188.61 15,-58.45 37.71,-114.47 53.52,-172.72 27.98,-104.94 10.14,-206.71 -25.74,-307.34 -37.1,-103.5 -87.39,-203.9 -104.61,-313.34 -17.03,-107.29 -6.08,-214.64 27.98,-316.38 -5.88,23.11 -9.73,46.67 -10.75,69.99 -6.69,132.57 58.8,257.87 141.52,357.03 22.91,27.23 47.85,52.72 68.73,81.5 22.91,31.69 37.51,67.69 46.02,105.77 16.83,75.7 12.16,154.53 -1.63,230.33 -27.98,154.04 -88.39,301.11 -109.28,456.57 -9.93,73.57 -11.56,152.32 8.92,224.4 19.06,66.66 54.94,131.48 103.6,180.84 6.89,6.89 18.44,-2.43 11.76,-9.8 -79.68,-87.52 -99.34,-214.07 -91.84,-329.8 43.19,30.35 62.45,95.19 80.49,141.02 12.57,32.24 23.72,65.13 31.02,99 7.3,34.47 5.68,69.5 11.96,103.78 0.81,4.71 7.71,5.36 9.33,0.83 11.76,-33.07 5.48,-74.51 -1.01,-108.35 -7.3,-38.58 -19.67,-76.15 -33.25,-112.91 -19.46,-52.41 -40.14,-127.01 -96.1,-152.01 3.04,-28.61 7.91,-56.77 13.58,-84.67 5.07,3.49 10.54,6.57 16.02,10.19 11.76,7.89 22.91,16.83 34.06,25.76 24.53,19.74 42.17,41.5 58.59,68.46 16.02,26.01 26.15,50.69 31.02,80.91 4.46,28.12 6.49,56.32 13.18,83.85 0.41,1.58 2.64,1.93 3.25,0.29 10.75,-28.37 8.31,-58.21 -0.41,-87.1 -8.72,-29.05 -20.48,-60.47 -34.67,-87.42 -14.2,-27.01 -34.26,-54.11 -54.74,-76.64 -15,-16.6 -37.3,-38.07 -60.42,-45.07 9.94,-42.43 22.09,-84.32 34.46,-126.17 25.95,24.75 53.73,45.8 76.03,75.07 24.33,32.36 43.79,68.99 58.39,106.85 16.22,42.17 25.34,86.98 30.61,131.74 2.84,24.55 4.87,49.06 4.26,73.8 -0.61,19.4 -6.08,41.44 1.83,59.63 -10.14,26.58 -20.69,52.9 -31.22,79.3 -14.19,35.94 -37.1,72.11 -43.99,110.31 -0.81,4.32 4.86,5.33 7.09,2.65 22.91,-26.21 36.29,-63.07 51.7,-94.02 16.83,-34.17 32.84,-68.35 46.63,-103.95 25.95,-66.8 46.83,-137.32 51.9,-209.17 8.72,-129.98 -6.69,-257.77 -61.02,-377.22 -19.26,-42.01 -41.56,-81.95 -68.12,-119.07 3.24,2.64 6.49,5.27 9.53,7.95 31.83,27.23 64.27,53.77 96.71,80.57 30.21,25.12 60.42,50.85 87.18,79.58 -0.61,2.68 0.41,5.57 3.04,6.97 2.03,4.06 5.28,6.06 8.93,6.39 19.06,22.36 36.09,46.58 48.86,73.85 32.64,68.85 42.57,147.62 43.39,223.1 0.41,37.89 -2.64,75.4 -9.12,112.24 -0.41,0.32 -0.81,0.65 -1.02,0.97 -4.06,4.22 -4.06,9.61 -1.82,13.72 -7.91,38.59 -19.46,76.39 -34.87,113.15 -12.98,30.76 -27.78,60.62 -43.79,89.79 -13.99,16.34 -26.56,33.74 -35.28,53.44 -1.02,2.37 -0.81,4.5 0.2,6.24 -5.68,9.31 -11.56,18.57 -17.44,27.81 -11.35,17.64 -24.93,35.97 -29.8,56.53 -1.42,6.08 4.46,11.07 9.94,7.1 30.81,-22.69 51.29,-65.9 71.16,-97.95 4.06,-6.63 8.11,-13.3 11.96,-19.99 14.39,-14.11 27.98,-28.95 42.57,-42.57 24.94,-22.97 50.69,-45.19 77.45,-65.95 55.35,-43 115.56,-78.78 179.43,-107.57 69.34,-31.33 142.94,-50.85 213.48,-79.19 62.04,-24.94 120.03,-59.83 169.5,-105.19 92.65,-85.31 154.08,-210.7 172.53,-334.7 10.34,-68.81 7.5,-136.72 -9.33,-204.06 -16.83,-67.41 -35.48,-131.68 -69.13,-193.07 -18.25,-33.49 -39.13,-65.54 -63.87,-94.66 -18.45,-21.59 -37.5,-42.6 -55.55,-64.49 8.11,-21.49 11.96,-45.96 20.28,-66.35 12.37,-30.05 28.18,-57.99 47.64,-83.98 38.93,-52.05 90.83,-99.22 149.83,-127.14 60.62,-28.67 131.78,-32.91 191.39,0.79 28.18,15.96 50.69,35.93 61.84,66.83 12.37,33.8 7.3,60.54 2.44,94.8 -1.83,12.02 15.2,17.59 21.89,8.03 3.04,-4.6 5.67,-9.41 7.9,-14.37 3.25,-0.69 6.49,-2.6 8.93,-6.06 43.39,-57.9 37.5,-139.47 11.35,-203.55z"/>
 </g>
</svg>
