<?xml version="1.0" encoding="UTF-8"?>
<!DOCTYPE svg PUBLIC "-//W3C//DTD SVG 1.1//EN" "http://www.w3.org/Graphics/SVG/1.1/DTD/svg11.dtd">
<!-- Creator: CorelDRAW 2020 (64-Bit) -->
<svg xmlns="http://www.w3.org/2000/svg" xml:space="preserve" width="3.93701in" height="3.93701in" version="1.1" style="shape-rendering:geometricPrecision; text-rendering:geometricPrecision; image-rendering:optimizeQuality; fill-rule:evenodd; clip-rule:evenodd"
viewBox="0 0 3937.01 3937.01"
 xmlns:xlink="http://www.w3.org/1999/xlink"
 xmlns:xodm="http://www.corel.com/coreldraw/odm/2003">
 <defs>
  <style type="text/css">
   <![CDATA[
    .fil0 {fill:#FEFEFE;fill-rule:nonzero}
   ]]>
  </style>
 </defs>
 <g id="Layer_x0020_1">
  <metadata id="CorelCorpID_0Corel-Layer"/>
  <path class="fil0" d="M3031.3 1640.26c-4.76,-24.94 -8.07,-56.27 -23.08,-77.28 -12.04,-16.87 -39.1,-8.07 -41.92,11.32 -3.14,21.48 5.82,44.81 10.39,65.7 4.64,21.26 8.71,42.78 11.58,64.37 4.9,36.89 4.92,74.5 -4.44,110.73 -8.62,33.35 -24.94,68.52 -49.74,92.94 -26.49,26.1 -56.47,48.21 -79.19,78.05 -3.5,4.61 -6.76,9.37 -9.86,14.24 3.31,-20.22 6.31,-40.51 9.41,-60.84 6.29,-41.12 11,-82.37 17.92,-123.41 6.96,-41.22 10.62,-82.06 11.65,-123.85 0.37,-15.25 -7.9,-29.63 -24.21,-31.83 -13.63,-1.84 -31.73,8.84 -31.84,24.2 -0.57,73.73 1.98,147.97 -8.59,221.06 -10.43,72.22 -27.34,144.3 -47.28,214.47 -15.59,54.9 -31.69,112.98 -61.75,162.32 2.18,-15.53 2.28,-31.41 1.81,-47 -1.73,-58.53 -9.97,-115.62 -17.44,-173.6 -7.28,-56.51 -10.29,-111.27 7.87,-166.12 8.57,-25.85 19.15,-51.02 26.52,-77.26 8.3,-29.48 11.81,-58.58 11.34,-89.18 -0.51,-32.09 -6.03,-63.89 -13.72,-94.96 -8.19,-33.15 -17.65,-66.43 -30.31,-98.17 -5.87,-14.71 -24.17,-21.6 -38.54,-15.5 -15.91,6.76 -20.1,23.29 -15.5,38.54 15.7,52.16 36.44,101.85 42.61,156.5 2.98,26.22 2.35,52.39 -2.61,78.36 -1.11,5.76 -2.44,11.47 -3.9,17.15 -15.42,-25.12 -39.18,-43.9 -56,-68.07 -16.73,-24.04 -25.94,-51.04 -29.07,-80.06 -1.5,-13.84 -1.89,-27.63 -0.36,-41.48 1.86,-16.76 5.62,-30.65 0.73,-47.25 -4.46,-15.2 -24.79,-13.93 -33.36,-4.18 -18.85,21.48 -12.71,62.02 -7.43,87.97 5.7,28.02 17.04,53.99 31.48,78.56 15.32,26.07 36.36,45.39 57.22,66.83 10.25,10.54 20.36,21.98 26.52,35.48 0.44,0.95 0.87,1.97 1.31,2.99 -2.8,8.9 -5.66,17.75 -8.33,26.66 -7.62,25.51 -13.97,51.13 -15.07,77.83 -1.17,28.57 1.54,57.02 6.19,85.19 4.42,26.7 10.13,53.14 14.69,79.8 4.94,28.85 8.21,57.9 12.63,86.83 3.99,26.15 7.52,52.15 5.35,78.68 -1.01,12.3 -2.78,24.69 -6.21,36.55 -1.3,4.49 -2.74,9.94 -4.47,15.4 -40.98,41.2 -96.26,68.81 -146.13,96.61 -19.41,10.83 -38.97,21.52 -58.54,32.23 6.04,-12.17 11.19,-24.72 15.45,-37.65 14.02,-42.48 20.15,-86.48 19.97,-131.13 -0.2,-52.08 -8.59,-103.26 -20,-153.94 -11.35,-50.37 -25.72,-98.43 -24.77,-150.55 0.26,-14.34 -7.37,-27.86 -22.75,-29.93 -14.44,-1.95 -27.82,8.5 -29.94,22.76 -7.33,49.12 9.96,100.05 23.35,146.62 13.96,48.52 27.24,97.64 32.82,147.94 4.78,43.06 4.26,87.76 -7.42,129.78 -5.4,19.44 -12.89,38.35 -22.37,56.15 -5.51,10.33 -13.58,20.41 -20.39,30.86 -85.09,47.56 -168.4,98.3 -240.17,164.88 -46.91,43.5 -87.37,92.59 -117.61,149.15 -32.01,59.87 -49.76,125.46 -58.71,192.55 -6.25,46.67 -9.29,93.78 -11.52,140.94 -15.13,-45.64 -34.16,-89.92 -51.06,-135.11 -13.27,-35.47 -25.61,-71.78 -32.34,-109.12 -6.48,-35.98 -6.37,-71.8 -3.69,-108.14 3.48,-47.37 9.11,-94.61 5.47,-141.23 25.64,-11.48 48.06,-31.03 66.89,-52.47 30.59,-31.01 53.33,-72.24 75.79,-108.62 22.04,-35.67 48.56,-66.57 77.94,-96.35 27.65,-28.03 56.09,-55.89 78.99,-88.08 16.39,-17.94 30.69,-37.63 41.56,-60.37 10.56,-22.03 17.81,-45.88 21.69,-70 0.19,-1.19 0.38,-2.41 0.56,-3.62 13.72,-38.16 27.2,-76.33 39.77,-114.95 28.67,-88.14 52.16,-177.06 72.06,-267.54 8.74,-39.74 19.41,-78.84 37.68,-115.38 14.61,-29.25 33.78,-56.04 55.13,-80.73 44.55,-51.54 99.44,-93.25 154.07,-133.45 57.22,-42.11 115.61,-83.24 168.25,-131.11 30.52,-27.76 59,-57.71 78.12,-94.64 20.59,-39.76 22.57,-84.31 20.17,-128.15 -5.22,-95.11 -13.65,-190.14 -20.54,-285.15 -6.94,-95.96 -13.9,-191.92 -20.87,-287.89 -1.74,-24.09 -3.54,-47.82 -7.26,-71.69 -2.04,-13.16 -13.25,-23.32 -26.68,-23.12 -11.96,0.19 -26.62,9.51 -26.73,23.07 -0.37,48.02 4.44,95.84 7.96,143.71 3.45,47.12 6.91,94.24 10.37,141.37 1.03,13.93 2.03,27.87 3.07,41.81 -19.27,-23.76 -44.24,-42.96 -59.54,-69.74 -18.77,-32.83 -19.31,-72.76 -20.13,-109.53 -0.43,-19.22 -0.25,-38.6 -2.54,-57.71 -2.54,-21.16 -7.27,-48.11 -25.02,-61.82 -14.9,-11.52 -35.13,-1.56 -38.41,15.86 -3.41,18.08 5.47,39.78 8.37,57.81 2.93,18.24 4.67,36.61 6.29,54.98 3.26,37.06 7.22,75.84 25.09,109.2 17.56,32.86 45.68,57.76 73.47,81.89 14.17,12.3 27.81,24.15 36.93,40.82 4.4,59.71 8.78,119.43 13.16,179.14 3.13,42.65 9.98,86.96 5.61,129.67 -3.97,38.81 -22.91,69.81 -48.8,98.19 -18.75,20.55 -39.51,39.41 -61.21,57.29 1.35,-6.68 2.49,-13.41 3.35,-20.12 5.18,-39.76 2.37,-79.61 -7.22,-118.45 -22.17,-89.76 -70.79,-170.71 -92.15,-260.78 -6.35,-26.7 -9.3,-53.89 -11.15,-81.24 -1.97,-29.18 2.01,-65.23 -14.4,-90.56 -10.56,-16.32 -37.23,-10.93 -43.84,5.9 -9.33,23.73 -2.09,54.78 -0.08,79.69 1.98,24.42 4.61,48.84 9.67,72.83 9.91,46.78 28.14,90.45 48.57,133.49 26.33,55.44 54.56,111.37 69.09,171.03 -9.76,-8.53 -20.22,-16.17 -30.15,-24.51 -22.25,-18.7 -40.37,-43.43 -46.45,-72.24 -3.06,-14.54 -15.41,-25.66 -30.91,-23.58 -13.26,1.78 -27.45,16.46 -23.58,30.91 9.61,35.87 27.83,68.49 58.3,90.81 13.2,9.68 28.46,16.14 43.89,21.35 7.2,2.44 14.26,5.11 21.09,8.51 4.61,2.3 10.04,4.82 15.08,7.47 1.06,8.14 1.83,16.35 2.24,24.66 1.04,20.56 -0.52,41.39 -5.7,61.36 -1.18,4.55 -2.53,9.09 -4,13.61 -20.2,15.24 -40.69,30.01 -60.74,44.8 -26.78,19.76 -54.04,39.98 -80.63,61.18 -0.16,-30.11 -4.55,-60.52 -14.42,-87.49 -15.3,-41.8 -45.48,-75.32 -71.21,-110.83 -2.77,-3.82 -5.44,-7.68 -8.04,-11.59 -3.94,-27.58 -4.18,-55.11 10.97,-80.11 8.61,-14.24 18.84,-27.33 26.92,-41.92 8.78,-15.85 13.7,-33.22 15.32,-51.25 3.53,-39.44 -2.88,-79 -13.53,-116.86 -4.08,-14.53 -9.11,-28.79 -10.95,-43.83 -2.21,-18.1 5.33,-34.68 -5.28,-51.24 -4.02,-6.29 -13.76,-9.93 -20.95,-8.54 -48.06,9.24 -28.93,78.25 -17.77,108.65 13.5,36.77 27.98,72.91 26.01,113.04 -1.84,37.46 -29.66,62.1 -41.26,96.05 -1.35,3.93 -2.47,7.98 -3.37,12.09 -5.75,-14.22 -10.6,-28.9 -14.49,-44.05 -11.93,-46.33 -18.02,-94.16 -24.43,-141.48 -3.86,-28.46 -7.45,-56.95 -10.78,-85.47 -1.77,-15.11 -3.44,-30.21 -5.07,-45.33 -0.71,-6.7 -1.24,-13.46 -2.11,-20.15 -0.1,-1.06 -0.22,-2.11 -0.31,-3.18 5.13,-6.99 7.02,-16.52 3.37,-24.79 -14.69,-33.3 -57.83,-15.89 -61.7,15.04 -1.64,13.06 1.96,27.77 3.55,40.79 1.83,15.08 3.73,30.15 5.72,45.22 7.2,54.81 14.93,109.67 24.65,164.09 8.98,50.38 20.75,101.98 45.09,147.4 23.97,44.73 60.99,77.68 90.91,117.98 16.46,22.14 27.62,46.81 35.19,73.31 5.3,18.61 7.95,37.66 10.91,56.65 -59.42,50.17 -113.33,106.5 -148.19,175.45 -4.94,-11.39 -9.44,-22.98 -13.63,-34.7 -10.98,-30.69 -12.54,-63.21 -11.31,-95.48 1.32,-34.95 4.6,-69.67 4.34,-104.67 -0.13,-16.16 -0.95,-32.27 -3.18,-48.3 -2.74,-19.47 -4.93,-47.41 -26.82,-54.31 -11.69,-3.68 -22.95,-1.3 -30.94,8.3 -13.94,16.73 -3.4,37.25 -0.09,56.01 2.91,16.59 4.51,33.43 5.54,50.21 2.09,33.8 2.26,67.71 5.06,101.48 2.78,33.07 7.75,67.02 19.58,98.2 5.98,15.76 15.06,27.77 24.43,41.49 3.82,5.59 7.23,12.05 10.87,18.34 -0.93,2.46 -1.85,4.92 -2.72,7.4 -14.7,41.3 -22.85,84.55 -31.78,127.35 -9.16,43.81 -20.04,87.25 -32.3,130.29 -12.56,44.11 -26.2,87.89 -40.12,131.6 -2.9,-16.39 -6.43,-32.67 -8.69,-49.17 -6.46,-47 3.06,-93.86 14.73,-139.35 21.25,-82.72 43.89,-181.52 -16.41,-254.27 -23.56,-28.43 -69.06,6.77 -45.35,35.39 52.44,63.28 30.95,153.74 16.63,226.8 -8.5,43.4 -14.33,87.67 -7.37,131.72 3.49,22.06 9.3,43.74 14.65,65.4 2.67,10.75 5.04,21.55 7.37,32.35 1.57,7.26 2.22,14.53 2.88,21.79 -5.44,17.6 -11.16,35.12 -17.72,52.35 -12.57,33.01 -28.24,63.85 -48.52,92.4 -7.8,7.47 -15.97,14.67 -24.41,21.73 -24.12,20.19 -47.24,40.39 -67.54,63.58 -0.22,-15.1 -0.58,-30.2 -0.9,-45.29 -0.44,-20.75 -0.33,-41.64 -2.28,-62.33 -2.02,-21.17 -7.51,-41.55 -14.32,-61.63 -4.36,-12.88 -8.6,-25.72 -12.66,-38.63 1.72,-5.57 3.62,-11.02 5.41,-16.1 5.2,-14.82 12.39,-28.66 20.7,-41.94 18.74,-29.96 39.79,-58.18 53.37,-91.07 14.11,-34.18 21.68,-71.63 22.78,-108.57 0.57,-19.1 -0.05,-38.28 -2.62,-57.23 -1.17,-8.67 -2.73,-17.29 -4.67,-25.84 -3.34,-14.72 -6.95,-23.61 -20.93,-31.3 -12.31,-6.74 -25.68,2.64 -31.46,12.94 -8.96,15.94 2.87,40.56 5.44,57.77 2.56,17.23 3.8,34.7 3.01,52.11 -1.58,35.19 -9.19,69.96 -22.72,102.5 -12.6,30.25 -27.43,59.63 -37.97,90.72 -1.23,3.66 -2.47,7.38 -3.63,11.11 -2.91,-10.62 -5.67,-21.28 -8.2,-32.03 -4.88,-20.68 -9.35,-41.38 -12.65,-62.38 -1.51,-9.68 -2.83,-19.39 -3.95,-29.13 -1.35,-11.75 -0.81,-24.63 -6.4,-35.21 -8.8,-16.65 -37.21,-21.13 -44.32,0.15 -6.83,20.44 -0.43,45.26 2.95,66.22 3.24,20.15 7.34,40.17 12.28,59.98 10.33,41.5 27.11,79.16 44.51,117.96 8.35,18.62 15.64,36.9 18.81,57.17 3.19,20.41 3.8,41.19 4.89,61.79 1.16,21.91 2.18,43.8 3.7,65.67 0.54,7.8 0.83,15.83 1.37,23.85 -21.83,35.01 -38.89,72.68 -59.98,108.11 -12.35,20.72 -25.84,40.8 -42.13,58.7 -9.72,10.65 -19.96,19.6 -31.07,27.6 -1.32,0.54 -2.65,1.08 -3.99,1.57 -2.52,-13.67 -6.08,-27.27 -11,-40.81 -23.42,-64.54 -69.25,-118.36 -119.32,-164.07 -8.89,-8.13 -17.98,-16.04 -27.21,-23.81 -10.07,-110.48 14.73,-220.94 65.22,-319.78 27.18,-53.2 59.67,-103.68 92.12,-153.75 15.75,-24.3 32.11,-48.49 51.26,-70.24 19.86,-22.54 43.4,-41.47 65.93,-61.22 41.3,-36.17 76.8,-76.15 98.35,-127.27 20.47,-48.56 29.59,-101.4 31.66,-153.83 1.33,-34.1 -0.42,-67.85 -3.9,-101.41 12.02,-16.51 30.21,-26.57 45.21,-40 34.66,-31.06 40.09,-71.07 38.34,-115.5 -1.96,-50.08 -10.4,-99.86 -15.19,-149.71 -2.31,-24.06 -4.87,-48.15 -5.08,-72.35 -0.2,-23.79 2.53,-47.5 5.36,-71.09 3.27,-27.11 6.66,-54.17 6.77,-81.52 0.13,-28.2 -0.83,-61.21 -17.74,-84.97 -6.76,-9.51 -20.91,-12.56 -31.37,-8.11 -11.36,4.83 -16.54,16.22 -15.92,28.01 0.59,11.7 4.85,23.04 6.78,34.57 1.96,11.62 2.91,23.42 3.14,35.18 0.47,23.25 -2.19,46.57 -4.18,69.69 -4.41,50.9 -4.5,101.48 4.24,151.98 8.58,49.55 20.07,98.31 23.51,148.62 1.42,20.74 2.4,43 -4.72,62.9 -7.03,19.63 -23,34.57 -37.13,49.29 -2.16,2.25 -4.3,4.5 -6.39,6.74 -10.53,-76.98 -27.8,-153.25 -35.61,-230.8 -7.01,-69.56 -2.22,-139.22 -3.27,-208.94 -1.06,-69.8 -6.97,-142.98 -40.24,-205.66 -17,-32.01 -65.89,-12.41 -52.48,22.37 44.67,115.85 29.92,238.55 37.75,359.73 8.1,125.53 50.17,246.71 53.41,372.66 1.25,48.67 -4.41,99.04 -20.41,145.17 -17.1,49.3 -45.35,88.77 -82.33,124.59 5.46,-13.19 10.14,-26.7 14,-40.51 18.87,-67.5 17.58,-137.89 1.68,-205.86 -15.14,-64.72 -43.37,-124.56 -69.41,-185.32 5.82,-12.49 9.48,-27.85 11.89,-34.89 8.81,-25.68 16.19,-51.65 20.13,-78.54 3.85,-26.31 5.47,-52.75 6.28,-79.31 0.42,-13.67 0.63,-27.33 0.8,-41.02 0.19,-15.69 2.67,-32.68 -3.5,-47.39 -7.63,-18.28 -36.49,-19.15 -43.64,0.17 -5.35,14.39 -2.91,29.69 -2.14,44.77 0.65,12.87 1.25,25.74 1.72,38.6 0.94,26.99 1.22,54.1 -0.05,81.08 -1.21,25.76 -2.24,52.13 -7.7,77.4 -9.2,-23.28 -17.39,-46.96 -22.65,-71.51 -7.74,-35.94 -9.96,-72.8 -10.35,-109.49 -0.43,-39.38 1.21,-78.78 0.65,-118.17 -0.57,-39.89 -0.24,-85.53 -17.27,-122.37 -12.38,-26.74 -48.76,-14.41 -47.8,13.13 1.21,34.94 8.8,69.47 10.18,104.58 0.55,14.19 0.74,28.39 0.83,42.59 -13.18,-11.5 -25.54,-20.54 -28,-40.63 -3.12,-25.39 -2.51,-51.43 -4.44,-76.93 -1.08,-14.14 -1.79,-28.36 -3.53,-42.43 -1.89,-15.3 -3.04,-29.6 -15.99,-39.76 -8.38,-6.56 -21.39,-4.74 -27.77,3.74 -9.38,12.46 -7.39,25.57 -5.43,40.11 1.91,14.06 4.78,27.97 7.39,41.9 4.89,26.11 9.66,52.56 16.91,78.1 6.07,21.4 17.82,35.43 35.74,48.02 8.47,5.94 17.93,11.27 24.46,19.45 0.26,0.32 0.51,0.68 0.74,1.01 0.02,8.63 0.06,17.26 0.15,25.89 0.88,69.88 8.37,137.2 33.61,202.86 24.44,63.56 60.11,122.04 82.88,186.37 22.79,64.36 34.19,134.87 26.96,203.06 -3.45,32.55 -11.22,64.35 -23.68,94.62 -5.93,14.39 -12.98,28.25 -20.99,41.56 -3.49,3.63 -6.95,7.31 -10.32,11.07 -17.03,19.06 -32.21,39.59 -46.4,60.81 0.06,-20.62 -5.06,-41.63 -9.11,-61.55 -5.15,-25.38 -11.78,-50.41 -15.33,-76.1 -3.71,-26.74 -2.76,-51.42 2.8,-77.8 2.87,-13.59 -8.97,-27.2 -22.03,-28.97 -15,-2.02 -25.68,8.48 -28.98,22.03 -12.11,49.5 2.11,101.91 15.32,149.59 6.44,23.24 14.05,46.12 19.02,69.74 1.99,9.43 3.99,18.64 4.62,28.31 0.43,6.51 2.36,20.59 -1.63,26.29 -0.91,1.3 -0.96,2.77 -0.49,4.04 -22.05,35 -43.31,70.61 -62.35,107.12 -11.06,21.23 -21.2,42.94 -30.07,65.1 -2.01,-10.1 -4.76,-20.05 -8.21,-29.95 -13.27,-38.09 -32.9,-73.54 -48.11,-110.83 -7.64,-18.67 -14.76,-37.81 -16.83,-57.97 -2.3,-22.38 0.61,-44.51 4.87,-66.49 9.15,-47.13 16.07,-93.07 15.02,-141.27 -0.07,-3.02 -0.16,-6.02 -0.29,-9.02 2.23,-2.6 4.61,-5.13 7.17,-7.5 13.38,-12.36 29.61,-20.9 44,-31.96 33.63,-25.92 54.36,-59.15 63.49,-100.66 10.46,-47.59 8.3,-97.93 3.62,-146.1 -5.49,-56.37 -15.22,-112.1 -25.03,-167.85 -5.55,-31.53 -10.85,-63.11 -17.02,-94.54 -6.04,-30.83 -8.75,-66.97 -22.59,-95.43 -10.11,-20.8 -47.03,-20.15 -48.5,6.52 -1.6,28.96 7.25,58.38 13.07,86.54 5.47,26.46 11.42,52.79 17.37,79.15 12.31,54.45 24.39,109.02 33.46,164.12 0.73,4.41 1.46,8.84 2.21,13.3 -9.36,-11.23 -19.14,-22.09 -24.23,-35.94 -9.45,-25.6 -17.28,-52.09 -25.35,-78.16 -7.12,-23.01 -9.24,-43.12 -4.02,-66.69 5.34,-24.06 -29.02,-35.83 -42.72,-17.73 -36.14,47.75 5.71,114.69 25.98,160.37 5.3,11.97 10.23,24.8 18.21,35.33 7.56,9.93 17.99,16.65 27.39,24.59 10.32,8.74 17.52,19.48 23.84,31.31 3.93,7.33 8.34,15.56 11.82,23.84 1.86,19.94 2.59,39.88 1.26,59.43 -1.41,20.74 -5.96,41.69 -16.34,59.88 -9.53,16.71 -23.87,28.65 -38.17,41.06 -9.54,8.28 -20.77,17.48 -30.98,27.7 -1.42,-14.24 -3.44,-28.44 -6.1,-42.5 -5.03,-26.63 -9.99,-57.03 -23.36,-80.87 -6.96,-12.41 -19.22,-20.38 -33.86,-16.14 -12.7,3.7 -23.95,17.06 -20.86,31.2 4.94,22.64 14.69,43.92 20.61,66.31 5.93,22.37 9.92,45.35 12.45,68.36 5.16,46.79 -0,91.55 -3.72,138.15 -3.47,43.54 1.64,83.74 15.49,125.11 12.87,38.43 32.79,73.91 49.03,110.91 8.45,19.28 15.93,39.27 21.17,59.67 3.71,14.47 3.12,29.6 4.66,44.31 -5.57,20.38 -9.89,41.1 -12.64,62.22 -6.48,49.86 -7.43,99.37 -2.01,148.79 -37.55,-29.56 -77.37,-56.42 -118.35,-80.67 -31.17,-18.45 -63.19,-35.02 -95.54,-51.22 -0.22,-0.12 -0.44,-0.23 -0.67,-0.35 -6.17,-10.93 -11.54,-22.3 -15.82,-34.03 -10.09,-27.53 -12.51,-58.48 -10.26,-87.64 2.31,-30.13 8.78,-58.98 22.11,-86.23 14.75,-30.15 38.45,-51.98 60.98,-76.15 25.33,-27.19 41.59,-59.54 42.49,-97.21 0.92,-38.44 -10.1,-75.65 -26.66,-110.06 -17.65,-36.64 -40.35,-70.79 -55.77,-108.52 -13.26,-32.48 -19.3,-67.02 -22.46,-101.78 4.02,-9.45 9.52,-18.3 15.96,-27.05 22.91,-31.15 45.35,-59.86 59.88,-96.2 29.83,-74.6 34.61,-156.99 24.42,-236.02 -3.1,-24.1 -7.32,-48.05 -12.06,-71.88 -2.46,-12.34 -5.06,-24.65 -7.72,-36.93 -2.97,-13.67 -4.95,-28.58 -11.48,-41.09 -14.74,-28.27 -51.89,-16.02 -51.72,14.22 0.11,21.64 10.23,45.24 15.47,66.2 5.51,22.01 10.61,44.13 14.81,66.43 7.8,41.28 13.59,83.4 12.59,125.51 -0.9,37.7 -6.56,74.78 -20.15,110.08 -6.89,17.9 -15.47,35.02 -26.05,51.05 -5.56,8.44 -11.41,16.76 -16.9,25.31 -1.01,-30.77 -1.07,-61.56 -2.47,-92.31 -0.98,-22.08 -2.7,-44.17 -6.09,-66.04 -3.56,-22.83 -6.36,-50.46 -22.99,-67.57 -12.74,-13.13 -37.42,-9.95 -39.99,10.79 -2.52,20.43 5.48,39.48 9.2,59.44 3.63,19.46 5.86,39.15 7.38,58.88 3.14,40.61 3.15,81.36 5.36,122 2.18,40.25 7.28,79.96 18.89,118.65 11.98,39.94 33.72,74.91 54.07,110.92 18.25,32.3 35.11,66.11 38.26,103.62 3.19,37.89 -14.51,65.85 -38.63,93.22 -22.02,24.99 -41.85,50.15 -54.57,81.28 -11.85,29.04 -18.36,60.84 -18.31,92.2 0.03,34.26 7.88,66.76 19.85,98.7 1.27,3.38 2.62,6.72 4.02,10.02 -13.85,-7.98 -27.21,-16.74 -39.49,-27.14 -21.41,-18.13 -36.54,-42.06 -42.41,-69.62 -6.89,-32.35 -5.75,-65.76 -5.95,-98.63 -0.24,-37.69 -2.63,-75.45 -16.7,-110.91 -11.93,-30.04 -31.16,-57 -51.44,-81.9 -7.8,-9.61 -16.06,-19.19 -24.33,-28.87 -26.56,-56.92 -53.49,-113.82 -49.73,-178.94 3.45,-59.66 31.99,-113.93 58.59,-166.18 27.5,-54.07 56.19,-109.82 61.77,-171.25 3.35,-36.98 -4.35,-72.73 -8.07,-109.3 -3.96,-39.04 6.48,-73.19 17.39,-110.16 12.8,-43.31 18.01,-86.74 17.49,-131.87 -0.26,-22.11 -1.81,-44.14 -3.97,-66.12 -2.21,-22.43 -1.23,-48.32 -17,-65.78 -10.86,-12.02 -29.03,-10.02 -36.18,4.86 -9.46,19.69 -2.88,40.19 0.13,60.87 2.84,19.51 5.26,39.07 6.73,58.74 2.9,38.43 1.34,76.69 -7.83,114.24 -9.14,37.43 -22.18,73.02 -21.71,112.07 0.47,39.09 13.42,77.05 12.95,116.15 -0.25,22.41 -4.47,44.19 -11.01,65.42 -1.02,-2.37 -2.14,-4.68 -3.36,-6.92 -10.49,-19.19 -25.12,-34.55 -32.44,-55.54 -6.56,-18.8 -7.31,-39.77 -6.1,-59.47 0.62,-10.32 1.7,-20.64 3.13,-30.87 1.59,-11.26 4.94,-22.43 3.49,-33.82 -2.64,-20.6 -29.65,-22.05 -38.16,-5.03 -9.23,18.47 -7.45,47.18 -6.72,67.49 0.78,21.19 4.61,41.76 11.35,61.87 6.72,20.07 17.22,38.32 31.43,54.05 7.12,7.9 15,15.15 20.68,24.26 2.66,4.26 4.37,8.82 6.18,13.41 -10.51,26.04 -23.47,51.28 -35.74,75.85 -27.1,54.31 -54.65,111.08 -57.78,172.81 -0.72,14.09 -0.13,27.93 1.56,41.57 -2.55,-5.74 -5.13,-11.48 -7.73,-17.2 -31.02,-77.29 -45.86,-160.72 -45.43,-244.08 0.25,-48.94 6.03,-97.99 17.07,-145.66 11.44,-49.39 34.96,-96 42.26,-146.26 8.85,-61.11 -10.7,-124.11 -35.3,-179.4 -8.88,-19.97 -44.95,-12.22 -38.8,10.66 13.79,51.26 34.24,103.69 26.51,157.71 -3.55,24.87 -12.66,48.4 -20.99,71.96 -7.87,22.3 -14.72,44.91 -20.49,67.82 -8.41,-27.39 -16.91,-54.72 -22.35,-82.91 -5.44,-28.25 -9.64,-56.66 -12.67,-85.26 -1.55,-14.77 -3.17,-29.47 -4.07,-44.29 -0.99,-15.96 -1.87,-31.57 -14.51,-42.76 -7.61,-6.75 -18.25,-3.07 -24.39,3.26 -10.66,11.04 -9.17,29.17 -7.88,43.3 1.26,13.92 2.91,27.84 5.08,41.66 4.59,29.26 12.22,58.55 21.62,86.61 9.14,27.24 19.26,54.09 31.54,80.08 6.2,13.08 12.83,25.91 16.6,39.96 0.46,1.75 0.88,3.53 1.25,5.3 -15.44,85.75 -14.07,174.7 3.63,259.92 6.37,30.71 14.82,60.95 25.14,90.56 0.03,3.08 0.5,6.22 1.37,9.33 7.22,25.78 15.75,51.5 26.98,75.83 2.6,5.62 5.26,11.27 8.05,16.84 3.69,12.1 8.94,23.83 15.92,35.73 14.63,24.87 32.72,47.07 51.34,69.02 36.24,42.69 73.11,84.56 80.53,142.13 3.38,26.15 2.96,52.96 3.1,79.67 -17.43,-14.18 -39.09,-24.17 -60.22,-31.02 -30.28,-9.79 -63.37,-9.52 -94.76,-12.76 -27.32,-2.8 -53.2,-8.39 -78.19,-19.98 -51.86,-24.05 -93,-66.97 -119.84,-117.54 -1.54,-8.5 -2.57,-17.05 -2.54,-25.67 0.07,-20.8 6.82,-39.53 16.47,-57.69 9.06,-17.04 19.45,-33.27 25.8,-51.61 6.3,-18.2 10.41,-37.43 12.2,-56.61 3.84,-41.3 2.12,-83.57 0.58,-124.95 -0.79,-21.69 -1.93,-43.38 -3.73,-65.01 -1.94,-23.47 -2.48,-48.39 -10.1,-70.82 -7.67,-22.57 -45.45,-17.52 -46.88,6.32 -1.43,23.69 4.1,47.74 6.78,71.25 2.44,21.52 4.77,43.04 6.62,64.62 3.63,42.51 7.39,85.81 4.29,128.47 -1.44,19.94 -5.39,38.96 -12.62,57.6 -7.15,18.43 -15.81,36.09 -20.47,55.4 -0.48,1.96 -0.9,3.94 -1.28,5.94 -4.1,-15.04 -7.05,-30.33 -8.72,-45.65 -3.88,-35.62 -1.03,-71.47 0.93,-107.13 1,-18.31 1.9,-36.67 1.43,-55.02 -0.5,-18.78 0.04,-41.54 -9.7,-58.1 -10.33,-17.6 -36.48,-16.68 -40.63,5.47 -3.06,16.24 1.09,33.03 1.86,49.41 0.77,16.5 1.02,33.01 0.85,49.52 -0.33,33.66 -1.82,67.45 0.89,101.05 4.03,49.95 19.69,98.72 45,141.92 25.13,42.94 60.23,80.91 102.94,106.8 47.56,28.81 98.34,36.93 153.05,40.84 32.45,2.31 68.46,3.28 98.11,17.92 11.95,5.89 23.22,13.67 32.37,23.41 1.16,31.41 5.14,62.32 19.13,91.51 28.17,58.8 86.33,89.71 142.25,117.32 62.37,30.8 121.83,65.93 177.59,107.62 54.02,40.36 106.6,85.38 144.69,141.61 17.14,25.33 31.14,53.87 38.26,83.71 8.33,34.91 9.07,70.57 7.45,106.24 -1.67,36.87 -5.43,73.55 -4.89,110.51 0.56,36.93 7.1,72.86 17.33,108.28 18.31,63.45 49.81,121.89 75.22,182.68 -4.65,-5.85 -9.54,-11.53 -14.74,-16.95 -23.69,-24.67 -49.32,-47.3 -69.61,-75.04 -38.08,-52.02 -57.7,-114.61 -87.03,-171.46 -14.25,-27.61 -30.56,-54.48 -51.13,-77.89 -20.91,-23.79 -47.7,-44.7 -61.82,-73.67 -17.89,-36.68 -21.06,-81.26 -27.13,-121.11 -6.58,-43.27 -10.61,-86.9 -17.33,-130.11 -5.01,-32.35 -52.36,-25.52 -50.05,6.72 2.77,38.58 9.62,76.92 16.4,114.98 6.56,36.78 12.95,74.02 23.06,110.04 9.42,33.53 26.64,60.72 50.52,85.76 22.59,23.67 45.14,46.01 62.72,73.86 16.02,25.4 28.72,52.57 41.02,79.96 -12.82,-8.63 -27.77,-13.56 -42.06,-19.25 -39.4,-15.71 -66.11,-42.08 -89.25,-77.2 -26.45,-40.12 -50.11,-83.24 -67.16,-128.22 -17.98,-47.41 -27.25,-96.96 -31.18,-147.41 -2.16,-27.88 -2.28,-55.77 -2.94,-83.71 -0.37,-14.78 -0.88,-29.56 -1.11,-44.34 -0.24,-14.54 0.8,-29.73 -2.46,-43.98 -5.81,-25.2 -40.83,-26.65 -45.99,-0.03 -4.93,25.41 -0.75,54.37 0.42,80.13 1.18,26.14 4.1,52.2 7.73,78.13 3,21.42 6.61,42.9 11.1,64.21 -14.81,-10.45 -29.82,-19.88 -41.31,-34.55 -32.33,-41.29 -34.11,-92.58 -42.48,-142.17 -4.59,-27.29 -42.21,-20.93 -41.66,5.6 1.06,52.23 13.22,108.99 44.95,151.63 13.77,18.53 31.84,33.64 52.68,43.54 13.32,6.31 25.98,12.45 38.4,19.53 3.92,14.09 8.3,28.03 13.25,41.75 17.13,47.43 41.76,92.05 67.93,135.02 22.2,36.45 47.69,73.13 85.53,94.7 18.32,10.44 38.63,16.79 58.25,24.24 12.46,4.72 31.99,9.23 43.78,18.95 8.11,17.69 16.6,35.21 26.26,52.1 16,28 34.43,53.28 57.35,76.06 24.42,24.26 51.49,46.27 73.96,72.43 22.31,25.97 36.65,57.91 44.28,91.2 -1.91,38.11 -3.93,76.23 -5.53,114.36 -0.94,22.19 -2.19,44.45 -2.4,66.64 -0.21,21.96 3.09,43.35 4.45,65.23 0.75,12.02 18.78,11.24 20.6,0.03 3,-18.52 8.19,-36.69 10,-55.32 1.96,-20.37 2.8,-40.86 4.05,-61.29 2.37,-39.2 4.03,-78.46 5.98,-117.7 3.69,-74.06 5.76,-148.44 12.44,-222.33 6.16,-67.98 17.78,-136.35 46.85,-198.65 26.05,-55.84 66.79,-105.69 111.14,-148.04 100.29,-95.77 226.12,-155.93 346.81,-221.26 63.05,-34.12 131.19,-67.95 181.01,-120.62 46.24,-48.91 69.34,-113.72 87.81,-177.15 11.51,-39.53 21.69,-79.44 30.46,-119.69 0.03,-0.1 0.04,-0.2 0.06,-0.3 1.99,-5.04 4.02,-10.08 6.41,-14.98 8.37,-17.19 19.87,-33.19 32.38,-47.6 24.96,-28.74 58.08,-52.17 87.54,-76.13 29.18,-23.74 51.36,-52.68 63.71,-88.56 13.01,-37.9 17.12,-77.39 15.96,-117.28 -0.73,-25.23 -3.93,-50.1 -8.64,-74.86z"/>
 </g>
</svg>
