<?xml version="1.0" encoding="UTF-8"?>
<!DOCTYPE svg PUBLIC "-//W3C//DTD SVG 1.1//EN" "http://www.w3.org/Graphics/SVG/1.1/DTD/svg11.dtd">
<!-- Creator: CorelDRAW 2020 (64-Bit) -->
<svg xmlns="http://www.w3.org/2000/svg" xml:space="preserve" width="3.93701in" height="3.93701in" version="1.1" style="shape-rendering:geometricPrecision; text-rendering:geometricPrecision; image-rendering:optimizeQuality; fill-rule:evenodd; clip-rule:evenodd"
viewBox="0 0 3937.01 3937.01"
 xmlns:xlink="http://www.w3.org/1999/xlink"
 xmlns:xodm="http://www.corel.com/coreldraw/odm/2003">
 <defs>
  <style type="text/css">
   <![CDATA[
    .fil0 {fill:#FEFEFE;fill-rule:nonzero}
   ]]>
  </style>
 </defs>
 <g id="Layer_x0020_1">
  <metadata id="CorelCorpID_0Corel-Layer"/>
  <path class="fil0" d="M2013.33 1887.69c-1.21,0.65 -0.85,-0.02 -1.07,2.35 1.54,-0.57 1.52,0.17 1.07,-2.35zm117.34 -1137.15c17.64,3.1 34.51,5.53 50.88,6.95 -14.14,21.19 -33.69,52.31 -62.84,98.64 -231.39,367.86 -35.72,700.47 1.04,1012.6 1.21,10.29 9.08,62.99 13.17,102.95 2.4,23.48 3.1,47.19 6.44,70.52 4.94,34.39 3.71,69.1 7.27,103.58 2.35,22.86 1.19,64.27 -0.67,89.89 -1.85,-15.84 -10.63,-96.78 -18.53,-138.07 -87.98,-460.34 -182.54,-512.14 -212.45,-734.88 -44.98,-334.87 122.06,-538.94 176.83,-618.57 11.72,1.78 24.59,3.89 38.87,6.4zm71.65 8.18c37.82,1.15 73.38,-4.22 110.04,-20.65 -23.38,36.76 -58.09,92.58 -96.67,197.41 -46.16,125.43 -55.99,268.26 -57.45,402.17 -2.62,242.44 8.19,169.57 22.86,443.04 12.07,225.37 -1.14,371.99 -6.57,450.66 -3.26,-11.27 -2.61,-22.69 -2.9,-34.04 -14.43,-550.76 -166.38,-742.43 -138.55,-1027.46 12.18,-124.7 50.81,-232.32 114.77,-328.59 18.23,-27.44 35.8,-55.35 54.46,-82.52zm132.25 -31.91c2.82,-1.59 5.64,-3.24 8.48,-4.98 55.6,-33.89 105.88,-67.33 153.56,-91.98 -58.42,77.37 -83.85,139.99 -110.78,199.02 -101.9,223.27 -100.85,631.96 -107.02,707.44 -2.3,28.19 -5.45,56.33 -7.67,84.55 -19.4,246.95 -25.24,343.3 -66.93,609.24 -13.08,83.46 -9.54,70.89 -14.31,75.19 -0.29,8.46 -0.58,16.93 -0.89,25.39 -2.81,-8.61 -4.96,-17.22 1.34,-25.03 0.36,-14.16 -0.26,-28.45 1.28,-42.48 8.03,-72.91 9.17,-122.35 9.17,-122.35 7.04,-49.06 1.58,-137.68 7.02,-181.64 1.33,-10.77 -0.63,-21.95 -1.16,-32.94 -2.35,-49.96 -1.44,-70.07 -3.34,-146.5 -0.68,-27.77 -17.63,-263.71 -17.78,-266.06 -8.09,-141.17 -2.09,-94.98 -1.29,-143.8 0.97,-58.29 0.43,-116.57 4.99,-174.76 1.34,-17.27 0.76,-34.71 2.37,-51.95 23.44,-251.54 115.02,-341.42 142.96,-416.36zm198.89 -114.3c46.2,-19.37 90.55,-27.92 135.77,-17.53 -35.8,16.95 -101.74,86.59 -156.74,243.7 -156.33,446.63 -82.02,757.85 -209.07,1260.54 -37.78,149.46 -11.04,64.8 -118.57,395.29 -0.61,1.88 -2.83,3.24 -4.3,4.86 -0.32,6.58 1.86,13.79 -4.84,18.74 -0.33,3.88 -0.68,7.74 -1.14,12.72 -3.69,-5.66 -2.94,-9.36 1.65,-12.26 0.46,-15.45 -0.37,-10.36 4.64,-18.94 -2.25,-13.75 1.48,-9.1 22.59,-132.19 103.66,-604.4 75.74,-779.38 124.05,-1190.83 30.85,-262.76 70.55,-324.24 83.29,-354.15 46.06,-108.28 83.51,-148.45 117.39,-201.56 1.76,-2.76 3.6,-5.52 5.27,-8.39zm156.25 -11.52c19.15,6.85 38.53,17.29 58.33,31.88 -9.52,4.39 -16.8,11.5 -22.46,20.01 -10.9,16.35 -22.3,32.53 -31.55,49.82 -131.82,246.59 -137.78,450.12 -179.17,771.31 -89.85,697.72 -205.27,894.54 -300.16,1110.24 -2.65,6.01 -110.37,232.96 -73.19,122.73 87.64,-259.92 55.09,-169.74 107.41,-329.8 227.58,-696.28 109.13,-995.33 286.93,-1532.97 25.67,-77.6 82.55,-202.55 153.87,-243.22zm76.9 46.66c18.4,15.55 35.98,31.86 52.61,49.03 -138.22,463.96 -51.42,527.04 -230.55,1147.3 -87.96,304.59 -171.56,509.73 -337.96,795.13 -6.03,10.35 -15.11,12.28 -27.68,10.5 15.52,-65.17 153.88,-269.28 231.21,-677.37 0.44,-2.39 56.13,-282.43 71.44,-401.53 16.04,-124.95 34.1,-310.65 34.83,-316.54 4.61,-36.6 11.58,-72.94 17.11,-109.44 34.37,-226.63 92.17,-331.21 180.83,-482.26 3.22,-5.5 6.38,-10.39 8.15,-14.82zm77.46 76.14c22.06,25.51 42.05,52.81 59.57,82.15l0.26 0.43c-1.02,6.74 -2.06,14.49 -3.1,23.5 -3.25,28.14 -10.39,55.68 -11.77,84.11 -1.5,31.19 -10.12,87.61 -12.6,114.88 -5.34,58.44 -3.6,78.79 -20.94,213.69l-18.91 144.99c-20.72,136.55 -76.87,319.74 -120.25,450.8 -89.15,269.22 -210.16,540.98 -394.45,757.96 -1.72,2.01 -3.87,3.68 -6.29,5.96 -2.42,-6.87 1.81,-10.41 3.97,-14.1 115.16,-195.66 149.86,-301.35 204.36,-448.3 131.43,-354.36 143.2,-464.77 174.27,-606.81 70.93,-324.22 26.31,-392.24 143.74,-802.07 0.66,-2.31 1.39,-4.72 2.15,-7.19zm88.14 131.25c20.01,35.33 39.1,71.15 57.08,107.52 -3.1,33.28 -3.86,-15.69 -5.1,125.02 -2.94,335.37 -256.47,1182.87 -561.76,1480.02 -16.64,16.2 -22.76,20.03 -51.46,29.74 4.87,-11.38 13.9,-18.84 54.24,-74.54 43.05,-59.41 129.84,-210.9 154.81,-262.32 313.87,-646.38 305.93,-1018.64 340.59,-1310.48 5.35,-45.04 9.04,-74.52 11.59,-94.95zm79.62 154.7c10.34,22.41 20.24,45.04 29.67,67.92 14.34,34.78 25.14,70.49 32.46,107.06 -6.46,31.77 -10.57,70.71 -22.92,126.11 -11.9,53.39 -21.81,121.04 -36.41,198.13 -10.6,28.44 -21.07,60.2 -30.3,97.24 -6.38,25.64 -9.1,51.29 -8.81,76.78 -82.7,324.84 -166.24,488.69 -325.75,700.72 -37.08,49.28 -78.81,94.23 -122.76,137.31 -9.13,8.96 -18.85,16.78 -31.31,20.41 -1.91,0.54 -4.28,-0.46 -8.13,-0.97 16.72,-26.44 154.94,-184.03 241.46,-388.59 38.39,-90.73 121.58,-258.61 199.75,-554.43 85.14,-322.24 89.79,-469.13 83.06,-587.69zm71.9 275.01c-1.22,34.38 -8,64.26 -17.88,93.93 0.39,-2.36 0.75,-4.5 1.09,-6.41 6.94,-38.16 12.32,-64.7 16.78,-87.51zm-99.11 473.7c3.1,13.86 6.93,27.64 11.35,41.31 11.53,35.58 22.13,66.89 31.87,94.83l-0.2 -0.05c-6.83,4.91 -9.06,10.56 -10.2,17 -15.79,88.08 -33.15,132.84 -77.6,231.98 -13.87,30.9 -52.65,81.57 -63.6,96.58 -46.04,62.93 -109.19,121.96 -132.25,144.49 -33.54,32.72 -71.26,59.54 -110.83,84.06 -1.6,1 -3.99,0.73 -7.24,1.22 0.94,-6.21 4.53,-9.23 7.37,-12.65 55.59,-66.7 105.4,-131.89 152.55,-210.11 76.02,-126.08 111.47,-186.32 193.33,-469.57 1.86,-6.44 3.68,-12.8 5.46,-19.1zm61.54 187.73c11.39,31.52 21.33,58.09 29.89,81.67 -5.8,20.32 -13.46,45.31 -55.91,117.69 -27.37,46.7 -109.13,154.79 -153.69,200.29 -50.74,51.83 -100.75,94.47 -166.12,127.3 -1.79,0.9 -4.12,0.74 -6.56,1.14 69.72,-59.5 89.12,-70.35 178.43,-179.06 30.59,-37.24 91.41,-126.08 129.64,-208.11 20.39,-43.74 35.7,-89.08 43.72,-136.67 0.24,-1.41 0.44,-2.82 0.61,-4.24zm48.93 136.74c12.95,40.78 20.56,76.02 23.74,122.67 0.39,5.8 0.66,11.53 0.81,17.22 -4.18,7.05 -9.01,14.57 -14.72,22.61 -119.2,167.69 -327.36,256.51 -389.8,268.03 -1.09,3.05 -3.02,4.27 -7.65,2.07 3.56,-0.69 5.82,-1.12 8.11,-1.58 37.59,-25.86 89.78,-44.84 168.95,-123.13 46.36,-45.86 57.67,-56.45 129.87,-152.87 66.26,-88.51 76.05,-140.91 80.69,-155.02zm20.9 201.41c-10.79,71.22 -44.93,132.91 -105.48,183.46 -118.39,98.86 -258.84,100.43 -415.23,118.96 104.1,-26.5 219.23,-63.84 332.09,-135.8 60.73,-38.71 136.61,-98.98 188.61,-166.62zm-1285.59 346.07c-99.57,-63.19 -246.74,-70.28 -434.1,-92.72 -204.34,-24.48 -431.64,-105.04 -543.69,-258.24 72.65,61.87 170.91,99.74 264.33,125.85 229.12,64.05 567.59,115.79 649.99,174.01 19.83,14.01 41.62,31.47 63.46,51.11zm-1038.63 -482.16c-4.43,-19.02 -7.33,-38.81 -8.65,-59.37 18.01,20.6 37.04,40.65 51.95,55.51 8.68,8.64 79.17,63.41 146.96,98.46 108.02,55.87 204.31,78.79 299.29,107.72 68.33,20.83 257.04,88.72 307.83,119.12 -9.69,0.59 -79.05,-16.97 -125.68,-26.93 -29.2,-6.25 -58.82,-10.63 -87.83,-17.63 -198.07,-47.72 -277.11,-71.26 -353.44,-101.61 -53.54,-21.29 -105.52,-45.51 -150.28,-83.08 -31.64,-26.59 -60.39,-55.24 -80.12,-92.12l-0.04 -0.07zm-8.17 -95.03c5.94,-57.11 36.8,-100.83 81.42,-134.03l0.37 1.98c12.9,68.83 58.8,131.8 107.28,179.85 80.95,80.2 189.35,134.15 293.7,176.74 100.66,41.08 247.71,94.43 419.39,200 16.41,10.09 32.22,21.24 48.5,34.62 -44.69,-7.34 -52.17,-26.24 -151.94,-72.46 -65.31,-30.29 -210.81,-87.81 -384.13,-137.48 -114.64,-32.84 -262.68,-95.32 -348.85,-185.34 -9.96,-10.4 -39.4,-42.2 -65.73,-63.89zm102.31 -148.22c21.58,-13.4 45.56,-24.81 70.95,-34.47 32.33,82.76 96.61,165.55 278.13,256.14 162.61,81.13 182.53,90.17 206.6,104.55 129.3,77.17 257.08,160.74 358.96,256.23 34,31.85 63.82,67.57 93.51,103.38 1.06,1.28 0.72,3.72 1.18,6.51 -11.89,-7.46 -22.74,-13.93 -33.19,-20.96 -38.22,-25.7 -33.18,-74.54 -293.95,-210.08 -212.95,-110.69 -523.32,-161.39 -654.53,-384.27 -13.46,-22.87 -23.59,-50.67 -27.66,-77.02zm100.94 -45.01c20.7,-7.04 41.25,-14.58 61.53,-22.71 61.51,131.9 199.01,187.18 438.96,369.59 4.74,3.61 11.05,6.49 12.15,13.63 5.61,-0.48 9.22,2.33 12.3,7.34 -6.77,0.87 -10.17,-2.21 -12.22,-7.43 -7.78,0.55 -13.19,-4.74 -19.18,-8.21 -32.77,-18.94 -66.35,-36.39 -101.16,-51.17 -96.87,-41.1 -288.21,-130.08 -346.44,-217.85 -27.84,-41.97 -39.33,-65.8 -45.94,-83.2zm92.4 -36.84c34.31,-21.06 38.19,-54.93 26.84,-97.8 30.06,29.56 68.22,61.45 113.52,105.23 16.2,15.67 445.4,439.44 513.97,522.27 0.53,0.65 -0.31,2.44 -0.92,6.24 -49.11,-43.04 32.33,33.8 -133.33,-120.82 -3.22,-3.01 -58.13,-49.22 -81.78,-67.89 -197.81,-156.18 -355.17,-221.33 -438.3,-347.22zm-0.71 -170.74c-36.13,-80.53 -90.43,-178.5 -103.27,-279.11 -7.28,-57.03 13.02,-113.17 45.15,-162.72 -4.71,27.41 -4.92,55.13 -4.88,82.88 0.31,229.33 393.57,589.89 429.3,630.69 347.75,397.18 384.19,454.98 465.23,588.62 2.78,4.58 6.78,8.93 5.86,15.06 6.7,2.38 29.05,42.24 35.31,51.39 -12.38,-10.03 -12.38,-10.03 -16.35,-23.03 -7.15,-2.03 -9.42,-7.37 -9.54,-14.14 -6.76,-2.23 -9.2,-7.46 -9.63,-14.03 -2.35,-1.92 -5.31,-3.44 -6.93,-5.84 -137.56,-206.34 -256.47,-316.41 -412.43,-469.28 -134.11,-131.45 -184.08,-185.73 -349.15,-332.54 -35.63,-31.69 -55.38,-53.03 -68.68,-67.94zm-28.27 -482.3c6.93,-8.37 14.12,-16.46 21.46,-24.23 19.57,-20.72 42.67,-34.77 67.76,-44.35 -48.77,169.57 -1.94,258.37 107.39,402.92 107.77,142.45 225.51,261.19 396.96,471.94 176.13,216.51 261.7,370.83 338.71,572.56 1.14,3 4.8,6.01 0.46,10.32 -92.06,-147.85 -113.15,-198.92 -274.67,-386.76 -45.56,-52.97 -433.75,-473.81 -458.31,-503.31 -59.93,-71.96 -165.09,-214.22 -192.15,-304.11 -11.66,-38.72 -19.07,-78.23 -15.45,-118.69 2.1,-23.42 0.7,-47.31 7.6,-70.3 0.55,-1.83 0.49,-3.91 0.25,-5.98zm114.59 -76.68c13.82,-3.62 28.05,-6.21 42.47,-8.07 30.99,-4.01 62.26,-7.24 93.52,-8.63 -167.59,244.09 159.51,544.85 371.88,805.53 195.33,239.79 270.14,393.39 335.58,558.36 13.63,34.35 24.93,69.61 32.65,105.88 1.52,7.09 3.8,14.12 0.22,24.55 -142.6,-367.24 -280.61,-530 -663.76,-971.48 -259.25,-298.72 -239.55,-349.76 -212.57,-506.14zm145.29 -17.06c6.55,-0.21 13.09,-0.34 19.64,-0.37 24.86,-0.12 48.66,-2.61 71.46,-7.41 -25.2,50.28 -38.44,109.67 -33.32,148.82 27.95,214.11 276.11,482.7 398.07,676.11 22.67,35.98 97.09,159.5 111.81,199.32 3.41,1.06 4.85,3.05 2.13,8.64 -0.82,-4.19 -1.3,-6.57 -1.77,-8.98 -5.5,-0.73 -7.15,-5.48 -9.68,-9.32 -247,-373.56 -601.84,-623.34 -591.22,-896.56 2.09,-53.9 18.96,-81.62 32.89,-110.26zm123.32 -16.3c20.7,-6.64 40.49,-15.33 59.43,-26 -1.93,4.52 -3.39,12.1 -5.69,22.81 -78.33,365.02 259.39,597.32 469.12,1098.71 3,7.19 7.49,14 6.61,22.38 3.48,1.35 4.69,3.59 1.8,8.96 -0.63,-4.26 -1,-6.8 -1.37,-9.35 -5.45,-1.53 -5.95,-6.96 -7.87,-10.88 -199.24,-404.55 -273.16,-420.65 -455.02,-713.84 -33.29,-53.67 -60.92,-110.21 -83.19,-169.31 -29.95,-79.43 -20.22,-160.31 16.02,-223.19l0.17 -0.29zm67.43 -30.66c24.94,-15.01 48.35,-33.54 70.32,-55.51 14.99,-14.98 29.78,-30.17 44.48,-45.45 -90.3,348.59 149.13,515.65 301.58,865.91 75.76,174.07 131.13,387.14 167.13,569.28 6.51,32.94 5.84,65.79 4.55,102.3 -2.84,-8.55 -5.3,-13.63 -6.2,-18.94 -15.61,-91.96 -63.55,-235.76 -107.16,-334.06 -168.73,-380.37 -360.95,-524.98 -454.94,-806.39 -32.68,-97.89 -28.44,-171.96 -18,-246.98 1.41,-10.08 3.71,-20.03 0.01,-29.48 -0.63,-0.28 -1.22,-0.52 -1.77,-0.69zm132.55 -119.51c20.26,-21.24 40.42,-42.59 60.73,-63.78 60.26,-62.81 139.97,-112.95 229.43,-111.19l4.95 0.08c-4.88,4.14 -9.29,8.93 -13.5,13.9 -36.96,43.67 -54.02,77.65 -79.41,138.69 -32.6,78.42 -36.43,122.45 -41.56,213.97 -6.48,115.72 27.56,191.59 36.3,258.14 3.93,0.81 4.36,3.25 2.2,8.62 -0.8,-4.26 -1.26,-6.65 -1.72,-9.06 -1.11,-1.02 -2.76,-1.84 -3.25,-3.12 -33.11,-85.61 -52.27,-129.11 -82.03,-255.48 -6.25,-26.59 -14.15,-85.78 -12.74,-105.04 1.53,-20.98 5.57,-137.34 44.51,-198.11 0.56,-0.89 -0.38,-2.71 -0.74,-4.79 -2.03,1.04 -4.53,1.5 -5.59,3 -14.48,20.19 -29.04,43.74 -44.83,103 -26.08,97.83 -18.6,146.86 -13.11,179.57 23.55,140.39 79.83,279.44 139.44,409.41 59.18,128.99 72.56,152.94 91.65,206.97 23.29,65.92 57.53,199.36 56.5,213.72 2.59,1.5 4.68,3.15 1.97,6.59 -0.52,-2.56 -1,-4.82 -1.46,-7.07 -1.5,-2.61 -3.46,-5.08 -4.46,-7.87 -100.48,-279.89 -221.02,-419.19 -294.11,-553.31 -69.86,-128.18 -87.26,-221.47 -84.36,-286.41 4.69,-104.81 14.77,-133.52 15.18,-150.41zm319.1 -174.81c37.59,-0.22 65.21,-1.46 126.45,7.18 -52.35,68.39 -79.8,108.22 -120.81,188.41 -98.37,192.29 -96.87,414.47 -30.37,603.18 39.54,112.25 82.83,209.78 114.26,327.44 76.53,286.59 84.74,481.82 79.97,518.03 -33.94,-162.96 -12.4,-54.54 -30.11,-230.87 -31.03,-308.76 -148.14,-515.41 -174.48,-589.76 -47.51,-134.07 -100.33,-295.49 -100.13,-429.9 0,-2.37 4.63,-93.83 8.38,-120.05 7.91,-55.37 15.26,-85.01 46.66,-155.17 27.58,-61.67 56.41,-92.3 80.19,-118.49zm216.08 1808.27c0.82,-0.51 1.06,0.22 0.7,-2.83 -0.85,0.55 -1.09,-0.17 -0.7,2.83zm49.3 118.91c-12.66,20.84 -22.06,42.07 -24.46,55.56 19.37,-15.17 28.78,-36.11 42.55,-55.56 -6.71,0 -11.98,0 -18.09,0zm-117.07 12.63c21.46,-40.72 14.15,-80.13 2.46,-201.34 -7.32,49.68 -6.56,44.68 -2.91,93.73 4.06,54.7 5.28,46.84 0.44,107.61zm-33.43 -544.63c0.44,3.87 0.91,7.77 1.54,13.29 2.45,-6.1 2.69,-10.09 -2.03,-12.86 -1.6,-54.51 -30.21,-157.57 -48.22,-229.37 -2.38,3.01 -3.13,5.9 -2.8,8.62 3.15,25.57 10.48,50.61 9.68,76.69 0,0 13.03,38.89 38.73,140.44 0.31,1.26 2.03,2.13 3.1,3.2zm-89.8 496.6c0.36,2.36 0.72,4.72 1.26,8.24 2.78,-4.61 0.36,-6.15 -1.75,-7.78 -4.02,-12.3 -10.19,-23.35 -19.03,-32.82 -0.49,-2.32 -0.98,-4.63 -1.77,-8.29 -2.45,4.99 0.09,6.33 2.3,7.82 0.38,4.46 0.74,8.94 1.11,13.43 5.87,6.77 8.02,16.54 17.88,19.4zm-4.82 -425.69c0.46,2.25 0.94,4.51 1.44,6.88 0.83,-3.23 0.83,-3.23 -1.96,-6.42 -0.41,-2.42 -0.8,-4.85 -1.4,-8.46 -2.69,4.69 -0.76,6.49 1.91,8.01z"/>
 </g>
</svg>
