<?xml version="1.0" encoding="UTF-8"?>
<!DOCTYPE svg PUBLIC "-//W3C//DTD SVG 1.1//EN" "http://www.w3.org/Graphics/SVG/1.1/DTD/svg11.dtd">
<!-- Creator: CorelDRAW 2020 (64-Bit) -->
<svg xmlns="http://www.w3.org/2000/svg" xml:space="preserve" width="3.93701in" height="3.93701in" version="1.1" style="shape-rendering:geometricPrecision; text-rendering:geometricPrecision; image-rendering:optimizeQuality; fill-rule:evenodd; clip-rule:evenodd"
viewBox="0 0 3937.01 3937.01"
 xmlns:xlink="http://www.w3.org/1999/xlink"
 xmlns:xodm="http://www.corel.com/coreldraw/odm/2003">
 <defs>
  <style type="text/css">
   <![CDATA[
    .str0 {stroke:#FEFEFE;stroke-width:20.83;stroke-miterlimit:10}
    .fil0 {fill:none;fill-rule:nonzero}
    .fil1 {fill:white;fill-rule:nonzero}
   ]]>
  </style>
 </defs>
 <g id="Layer_x0020_1">
  <metadata id="CorelCorpID_0Corel-Layer"/>
  <g id="_2804115611936">
   <path class="fil0 str0" d="M1891.52 2806.64c-5.31,-55.24 -8.89,-110.72 -16.31,-165.65 -54.58,-403.2 -268.47,-1028.98 -414.71,-1406.83 -173.59,-448.43 -111.23,-558.81 -47.76,-698.4 24.61,-54.07 152.07,-140.1 304.84,-135.05 75.55,2.5 127.91,41.26 240.96,119.22 214.11,147.72 154.39,319.64 204.46,1883.71 3.83,119.84 8.09,211.76 -81.86,831.23 18.63,-9.5 21.85,-25.29 27.98,-37.9 154.19,-316.89 253.04,-666.44 278.81,-1118.56 60.01,-1052.31 54.44,-1122.35 87.2,-1254.8 85.8,-346.83 620.86,-269.23 655.98,89.27 13.01,132.91 14.54,265.72 -2.42,398 -41.81,326.77 -112.82,646.72 -232.38,954.63 -124.79,321.32 -224.3,486.22 -369.39,736.22 -84.15,144.96 -197.86,264.69 -322.05,375.22 -122.55,108.98 -214.37,49.97 -253.76,52.11 -22.07,1.19 -37.99,-6.48 -49.69,-24.32 -165.05,-251.22 -509.4,-526.57 -807.3,-1072.14 -130.87,-239.66 -176.61,-363.68 -206.28,-553.19 -25.63,-163.88 91.66,-324.95 235.88,-398.02 157.23,-79.67 231.61,30.39 310.2,186.01 163.26,323.16 172.55,612.43 440.02,1223.06 2.61,5.91 5.71,11.65 8.61,17.44 2.98,-0.43 5.96,-0.85 8.95,-1.25z"/>
   <path class="fil0 str0" d="M3614.92 1706c-206.47,495.11 -273.66,672.83 -460.28,960.82 -175.36,270.7 -214.43,384.19 -489.46,629.47 -74.84,66.74 -175.02,146.07 -276.82,179.76 -70.6,23.38 -98.27,-22.78 -109.07,-30.54 -38.3,-27.48 -40.91,-36.11 -11.11,-73.31 201.3,-250.8 535.43,-580.58 704.93,-1232.67 58.67,-225.7 120.5,-450.59 161.67,-680.44 41.86,-233.41 42.65,-255.74 68.9,-316.18 90.1,-207.43 450.28,-112.68 497.59,144.65 23.21,126.38 -12.59,241.54 -86.35,418.43z"/>
   <path class="fil0 str0" d="M76.71 1569.85c124.81,-155.5 248.31,-297.33 434.47,62.34 99.62,192.52 132.78,304.12 257.68,472.74 112.29,151.61 230.79,322.43 257.98,353.79 168.37,193.83 328.17,395.22 507.96,578.96 71.54,73.13 154.5,139.65 270.51,281.43 46.7,57.08 21.33,147.14 -63.87,135.78 -29.29,-3.89 -59.78,-11.25 -85.86,-24.61 -338.02,-173.08 -394.22,-223.78 -620.24,-410.53 -114.78,-94.84 -227.67,-191.16 -328.81,-300.35 -160.47,-173.17 -550.66,-600.02 -647.12,-815.26 -47.48,-105.87 -59.49,-238.58 17.31,-334.3z"/>
   <path class="fil0 str0" d="M2587.39 3539.51c-16.02,-2.76 -29.35,-3.33 -41.48,-7.39 -42.39,-14.21 -51.71,-53.98 -20.63,-85.61 0,0 173.77,-142.4 225.57,-186.66 216.56,-185.14 471.73,-643.23 600.44,-908.6 36.91,-76.04 77.9,-150.39 121.43,-222.87 20.43,-34.07 48.1,-65.46 78.05,-91.77 68.87,-60.52 137.37,-63.33 215.1,-14.55 91.92,57.65 169.74,174.76 140.44,270.12 -12.96,42.16 -26.19,84.86 -45.63,124.18 -130.19,263.89 -392.77,535.04 -613.31,728.87 -278.78,245.02 -267.05,233.83 -404.79,325.2 -42.88,28.47 -90.84,44.81 -142.12,51.63 -38.7,5.15 -77.23,11.82 -113.09,17.45z"/>
   <path class="fil1" d="M968.51 1642.19c7.51,-74.9 55.89,-113.28 120.04,-165.39 28.62,-23.24 63.28,-29.55 98.82,-31.11 33.72,-1.48 42.79,13.67 50.46,47.51 -19.38,115.81 -222.63,277.96 -263.43,171.41 -2.79,-7.22 -3.98,-15.06 -5.89,-22.42z"/>
   <path class="fil1" d="M1632 649.12c-49.1,-9.35 -53.9,-8.04 -71.06,-20.77 -50.8,-37.68 -10.23,-103.62 38.16,-121.75 72.85,-27.33 123.08,-30.11 193.77,-4.17 12.16,4.46 24.84,8.46 35.83,15.12 23.67,14.34 27.64,42.93 10.11,63.98 -28.16,33.84 -114.91,56.51 -157.18,61.43 -15.51,1.79 -30.96,3.83 -49.63,6.17z"/>
   <path class="fil1" d="M2875.23 855.74c-38.53,1.68 -74.89,-6.79 -110.46,-20.91 -34.44,-13.67 -76.72,-24.63 -97.88,-38.13 -26.17,-16.65 -27.84,-49.52 -3.87,-69.41 55.49,-46.03 113.94,-23.56 176.13,-16.94 25.03,2.64 48.21,11.28 70.86,20.88 14.04,5.97 26.8,15.85 38.67,25.72 6.71,5.51 11.62,14.06 15.37,22.16 15.68,33.9 -1.25,67.43 -38.16,73.88 -16.54,2.89 -33.76,1.93 -50.66,2.75z"/>
   <path class="fil1" d="M146.86 1750.69c-50.69,-5.4 -53.7,-47.61 -45.52,-67.34 122.15,-294.26 263.41,-157.63 152.81,-14.92 -29.9,38.56 -56.86,64.79 -107.28,82.26z"/>
   <path class="fil1" d="M3322.73 1161.74c10.77,-30.35 10.77,-30.35 44.97,-39.98 72.48,6.74 119.84,1.76 189.62,81.29 7.14,8.13 28.22,41.54 1.91,71.37 -25.94,29.35 -54.95,15.51 -88.76,-2.04 -132.49,-68.73 -132.6,-66.8 -147.74,-110.64z"/>
   <path class="fil1" d="M1355.06 1475.29c4.11,7.05 9.41,12.19 9.77,17.62 3.67,53.04 -31.33,158.06 -114.02,240.8 -41.25,41.28 -92.19,62.39 -148.06,73.19 -49.55,9.57 -124.1,-25.37 -142.69,-32.81 -3.12,-1.26 -5.17,-5.2 -9.15,-9.39 11.9,-5.11 0.91,-5.19 41.14,-1.7 28.47,2.47 56.96,7.44 85.35,6.87 102.34,-2.1 192.3,-89.21 226.31,-188.28 37.56,-109.42 26.22,-90.38 51.34,-106.3z"/>
   <path class="fil1" d="M1408.36 714.98c41,19.38 79.73,44.78 155.16,44.86 39.83,0.06 190.82,12.25 319.87,-76.82 23.44,-16.2 48.58,-30 73.53,-43.89 10.06,-5.63 21.43,-9.15 32.59,-12.42 4.04,-1.19 9.15,1.17 16.17,2.25 -10.68,17.11 -23.61,27.53 -38.04,36.48 -105.89,65.69 -144.2,97.59 -270.23,124.67 -62.22,13.35 -156.41,15.46 -212.58,-0.46 -32.19,-9.15 -58.16,-28.24 -77.03,-56.34 -2.7,-3.97 -2.64,-4 0.57,-18.32z"/>
   <path class="fil1" d="M3819.57 2208.16c-2.39,6.28 -3.78,12.87 -7.14,18.24 -32.47,51.59 -92.87,-10.23 -138.76,-46.65 -17.11,-13.56 -26.96,-31.28 -31.31,-52.22 -12.53,-60.41 62.54,-75.32 116.8,-25.31 31.17,28.67 53.7,62.9 60.41,105.95z"/>
   <path class="fil1" d="M59.52 1842.52c78.85,-14.3 112.06,-12.76 172.95,-64.01 118.85,-99.96 138.96,-235.85 147.69,-259.8 2.04,-5.65 7.39,-10.06 12.5,-16.62 6.2,3.1 30.03,9.18 25.26,33.73 -31.52,162.03 -169.85,344.09 -337.72,326.09 -5.99,-0.65 -12.04,-4.57 -17.1,-8.33 -2.3,-1.7 -2.24,-6.62 -3.58,-11.05z"/>
   <path class="fil1" d="M2515.08 840.68c22.11,22.02 89.79,114.13 326.34,132.57 103.14,8.04 176.84,-24.41 186.9,-27.87 49.12,-16.83 33.94,-12.7 52.02,-12.7 31.02,18.63 -62.17,78.42 -163.17,77.74 -66.48,-0.46 -176.15,-22.54 -241.78,-40.37 -46.74,-12.74 -90.5,-32.36 -129.53,-61.85 -18.5,-13.95 -30.69,-31.59 -37.17,-53.47 -1.47,-4.98 -1.1,-9.98 6.39,-14.04z"/>
   <path class="fil1" d="M3563.35 2049.28c0,65.82 -18.21,125.15 98.37,214.31 72.82,55.63 51.88,45.63 153.74,67.53 12.39,2.68 25,3.61 36.99,13.1 -5.51,4.24 -9.06,8.75 -13.58,10.11 -37.05,11.34 -74.3,14.04 -110.19,-3.41 -39.77,-19.32 -155.98,-62.88 -200.13,-204.2 -9.57,-30.66 -6.28,-78.22 16.98,-93.99 3.7,-2.5 9.46,-2.01 17.81,-3.46z"/>
   <path class="fil1" d="M3205.5 1230.89c3.57,-9.69 2.84,-20.11 14.06,-22.98 2.36,1.31 5.48,1.99 6.54,3.84 70.77,124.36 186.52,185.08 290.8,190.96 33.64,1.9 67.02,8.13 100.53,12.65 2.3,0.31 4.37,2.36 7.53,4.15 -1.85,2.98 -3.04,7.56 -5.6,8.5 -12.14,4.54 -24.43,10.74 -36.97,11.44 -77.14,4.18 -142.97,8.5 -258.3,-67.7 -29.38,-19.43 -56.48,-41.82 -81.17,-67.14 -19.64,-20.17 -33.9,-42.82 -37.42,-73.71z"/>
   <path class="fil1" d="M3648.36 1301.53c7.05,7.04 10.46,10.4 13.22,13.18 -0.77,18.11 -10.83,27.54 -24.66,33.33 -97.74,40.94 -233.35,-16.98 -267.87,-68.22 12.87,-13.32 23.5,14.46 130.56,45.83 55.75,16.31 119.17,25.37 148.76,-24.12z"/>
   <path class="fil1" d="M1878.02 2851.87c70.09,48.02 94.51,276.85 103.54,338.22 2.04,13.72 2.5,13.98 1.8,136.46 0,3.63 -1.69,7.22 -4.24,17.56 -8.76,-52.13 -5.65,-75.8 -13.24,-163.43 -1.68,-19.01 -13.41,-91.8 -13.44,-92.23 -3.21,-104.22 -63.1,-183.89 -78.13,-217.38 -2.67,-5.97 -2.92,-12.64 3.72,-19.21z"/>
   <path class="fil1" d="M1560.31 682.73c13.86,0 22.99,-1.51 31.42,0.28 28.39,6 56.34,3.81 84.89,0.65 46.2,-5.17 90.24,-8.15 179.54,-46.33 44.04,-18.83 62.99,-46.48 80.97,-68.93 45.46,12.44 -94.83,133.6 -300.57,136.78 -21.2,0.34 -41.03,-5.59 -61.22,-9.78 -4.15,-0.88 -7.42,-6.05 -15.03,-12.67z"/>
   <path class="fil1" d="M1229.82 1404.6c-2.89,1.37 -5.2,3.44 -7.35,3.33 -39.46,-2.27 -73.94,12.64 -106.21,32.64 -102.6,63.54 -116.63,114.02 -161.3,155.19 -1,-3.98 -2.84,-7.07 -1.96,-8.41 55.49,-84.39 76.29,-135.33 220.51,-191.44 19.24,-7.47 45.92,-3.66 49.52,-0.34 2.7,2.47 4.5,5.89 6.79,9.04z"/>
   <path class="fil1" d="M331.59 1494.72c-13.32,-9.86 -25.68,-19.01 -35.48,-26.25 -45.6,-0.8 -78.24,18.84 -108.74,44.86 -50.97,43.56 -63.92,67.9 -83.19,97.06 -7.19,-4.48 -5.06,-9.04 -2.64,-13.41 14.46,-26.39 31.19,-51.03 53.45,-71.69 52.81,-49.04 66.43,-75.43 129.13,-78.78 27.8,-1.51 54.04,16.9 56.06,43.78 -3.16,1.59 -6.31,3.24 -8.59,4.43z"/>
   <path class="fil1" d="M3654.98 2191.57c63.96,60.65 91.83,89.04 162.35,87.19 15.57,-0.42 25.94,-10.65 36.85,-17.24 9.88,4 9.2,10.97 7.02,16.82 -5.62,14.77 -17.22,22.21 -32.82,23.75 -98.73,9.8 -141.23,-57.88 -174.96,-96.86 -2.1,-2.41 -2.1,-6.65 -3.07,-10.04 1.54,-1.19 3.1,-2.41 4.63,-3.63z"/>
   <path class="fil1" d="M3058.47 839.31c3.74,3.07 6.59,5.42 10.34,8.49 -10.45,49.61 -92.31,70.09 -142.83,75.67 -16.71,1.82 -33.79,0.5 -50.66,0.17 -10.52,-0.17 -20.49,-2.39 -28.67,-13.41 39.24,-5.06 78.37,1.45 115.47,-13.72 35.06,-14.38 69.59,-28.61 96.35,-57.19z"/>
   <path class="fil1" d="M108.61 1788.03c2.67,-2.39 5.8,-7.27 8.04,-6.88 23.75,3.94 43.13,-6.28 61.17,-19.04 65.78,-46.59 109.22,-109.5 133.42,-185.98 3.84,-12.14 5.43,-24.95 8.16,-37.93 7.61,0.2 6.96,6.22 6.79,9.86 -4.8,108.33 -118.54,230.56 -186.01,250.51 -11.77,3.47 -23.28,1.7 -31.57,-10.54z"/>
   <path class="fil1" d="M3627.33 1224.69c-11.65,2.96 -16.11,-2.35 -19.97,-6.62 -49.69,-54.72 -24.1,-54.63 -130.33,-110.92 0.26,-5.23 0.43,-8.93 0.63,-13.19 3.78,-1.36 7.65,-4.37 10.65,-3.63 67.82,16.17 108.23,68.81 139.02,134.35z"/>
   <path class="fil1" d="M173.11 1979.67c-19,4.4 -30.28,-3.38 -39.17,-15.74 -43.59,-60.55 28.18,-95.58 49.06,-24.38 4.09,13.95 3.98,28.27 -9.89,40.13z"/>
   <path class="fil1" d="M1268.32 2352.33c-6.51,7.16 -14.75,5.59 -20.94,1.33 -18.98,-12.93 -42.96,-42.36 -45.57,-64.61 6.19,-33.01 56.17,-35.54 66.52,63.28z"/>
   <path class="fil1" d="M1152.45 2294.85c-9.77,-2.76 -33.52,-2.73 -51.46,-47.79 -11.37,-28.61 24.84,-45.4 40.94,-23.1 10.8,15 17.24,32.02 18.44,50.37 0.36,5.57 -4.24,11.45 -7.93,20.52z"/>
   <path class="fil1" d="M2747.43 895.26c-10.99,2.61 -15.77,5.28 -19.86,4.48 -37.19,-7.24 -71.49,-22.22 -102.66,-43.44 -18.21,-12.39 -29.74,-30.91 -39.23,-55.07 6.81,2.08 10.88,2.05 12.84,4.07 37.1,37.9 83.81,59.61 131.92,79.1 3.43,1.43 6.36,4.04 16.98,10.86z"/>
   <path class="fil1" d="M1472.75 1046.58c-5.97,0.37 -11.62,2.44 -15.38,0.62 -20.05,-9.65 -35.91,-39.54 -32.67,-61.67 3.84,-26.06 32.85,-29.36 43.44,-5.11 9.15,21 9.46,42.42 4.61,66.17z"/>
   <path class="fil1" d="M2507.69 926.2c33.56,4.43 32.9,58.27 -1.7,84.47 -4.32,-2.13 -8.61,-2.99 -10.71,-5.54 -10.31,-12.87 -12.24,-28.24 -11.91,-44.15 0.4,-19.56 2.53,-22.74 24.32,-34.78z"/>
   <path class="fil1" d="M625.98 2034.54c-24.41,-9.83 -40.89,-24.84 -49.98,-46.71 0.03,-16.17 7.99,-24.86 21.74,-29.21 12.53,1.06 21.93,6.71 27.9,17.93 23.39,43.81 8.64,47.68 0.35,58z"/>
   <path class="fil1" d="M1963 1149.57c-15.86,-2.27 -21.68,-11.51 -25.09,-21.03 -18.19,-50.48 -7.33,-50.66 3.86,-65.8 7.68,3.32 17.76,4.41 20.43,9.43 13.02,24.66 20.31,50.38 0.8,77.4z"/>
   <path class="fil1" d="M1842.56 2045.96c-12.58,-15.17 -14.34,-6.96 -30.22,-70.32 -2.53,-10.06 -0.65,-12.73 11.56,-31.26 8.58,-1.68 2.33,-4.15 23.01,6.84 8.64,41.37 8.01,61.43 -4.35,94.73z"/>
   <path class="fil1" d="M1019.17 1720.29c29.72,-14.23 54.15,-14.09 107.2,-36.03 6.14,-2.53 12.56,-3.01 17.89,2.76 1.73,10.91 -6.33,16.28 -13.58,21.2 -23.07,15.63 -48.76,23.64 -76.8,23.1 -10.88,-0.22 -22.81,2.1 -34.72,-11.02z"/>
   <path class="fil1" d="M1478.03 1989.47c6.22,-2.58 10.91,-4.52 15.43,-6.43 27.76,9.44 28.55,34.13 34.09,59.53 -2.1,7.93 -4.97,18.8 -8.3,31.28 -16.62,-6.05 -22.05,-19.75 -28.13,-31.45 -7.95,-15.34 -20.82,-30.07 -13.09,-52.93z"/>
   <path class="fil1" d="M1603.28 2660.2c-7.05,-1.22 -24.21,1.14 -45.83,-32.05 -9.77,-15.04 -4.2,-31.91 6.31,-37.17 10.63,-5.32 24.24,-2.5 30.89,7.59 13.44,20.31 20.14,40.52 8.64,61.63z"/>
   <path class="fil1" d="M1244.93 1794.22c14.43,1.33 20.23,9.94 24.52,19.49 12.02,26.54 14.03,50.29 7.39,78.47 -12.05,-1.76 -16.65,-11.76 -21.17,-20.65 -10.46,-20.49 -22.74,-40.57 -22.74,-66.06 4.27,-3.98 8.7,-8.19 11.99,-11.25z"/>
   <path class="fil1" d="M1316.34 2557.66c-4.81,3.7 -7.73,5.94 -11.97,9.21 -19.63,-12.76 -39.78,-24.46 -45.03,-50.01 6.36,-16.81 6.36,-16.81 22.98,-25.96 4.43,1.67 11.65,2.53 15.89,6.53 14.74,13.89 13.61,28.67 18.13,60.23z"/>
   <path class="fil1" d="M428.45 2114.43c13.59,14.06 24.47,28.07 23.93,47.67 -0.28,10.09 -5,16.88 -17.19,19.55 -17.08,-4.69 -28.64,-18.1 -37.54,-33.98 -8.52,-15.29 -5.42,-45.43 30.8,-33.24z"/>
   <path class="fil1" d="M1792.53 1180.37c-21.63,-3.57 -28.22,-12.67 -42.62,-57.19 7.05,-16.08 7.05,-16.08 21.66,-24.92 3.07,1.1 7.58,1.45 9.97,3.89 5.2,5.34 11.85,11.17 13.41,17.85 4.72,20.11 4.97,40.54 -2.41,60.37z"/>
   <path class="fil1" d="M3330.54 1235.92c-10.34,11.02 -16.99,11.19 -23.02,8.69 -30.76,-12.76 -49.09,-54.77 -38.18,-87.67 0.85,-2.62 5.45,-4.04 10.4,-7.48 14.63,31.08 25.48,62.82 50.8,86.46z"/>
   <path class="fil1" d="M2982.91 1248.85c-15.7,-23.49 -12.52,1.36 -14.63,-104.83 -0.03,-1.28 0.39,-2.59 0.62,-3.84 3.1,-14.32 13.87,-17.02 30.8,-5.91 4.72,35.74 -11.5,69.61 -16.79,114.58z"/>
   <path class="fil1" d="M2760.9 2384.37c-14.72,-7.36 -13.21,-21.28 -13.1,-33.81 0.17,-15.17 -1.84,-31.17 8.87,-44.41 6.81,-8.44 14.86,-8.35 30.09,0.54 8.26,19.72 -0.74,37.76 -6.56,55.83 -3.07,9.49 -7.93,19.06 -19.3,21.85z"/>
   <path class="fil1" d="M2743.46 662.05c-0.88,-8.33 4.55,-10.91 11.14,-12.42 40.41,-9.26 79.22,-4.41 116.38,13.58 11.34,5.48 24.66,7.88 33.47,21.4 -31.91,4.48 -48.31,-23.21 -131.67,-18.02 -9.94,0.63 -20.66,3.96 -29.32,-4.54z"/>
   <path class="fil1" d="M254.97 2080.16c-28.92,-8.83 -46,-23.98 -51.48,-48.61 2.35,-11.36 5.82,-19.52 16.37,-21.45 25.85,-4.72 43.02,29.2 41.51,53.56 -0.29,4.63 -3.41,9.15 -6.39,16.5z"/>
   <path class="fil1" d="M1489.22 2370.96c-5.02,-0.5 -9.37,0.34 -12.11,-1.42 -19.86,-12.68 -36.56,-38.47 -32.67,-61.77 1.17,-6.99 9.41,-14.71 16.57,-14.09 5.97,0.54 12.07,3.46 17.28,6.65 4.52,2.75 20.46,31.11 10.94,70.63z"/>
   <path class="fil1" d="M2484.39 1622.22c-4.74,-3.78 -8.67,-5.48 -10.26,-8.44 -10.23,-19.12 -9.09,-39.38 -3.74,-59.47 5.06,-18.98 34.37,-16.42 37.27,1.11 4.15,25 3.01,48.61 -23.27,66.8z"/>
   <path class="fil1" d="M1548.83 1255.3c14.04,-7.02 23.93,-5.37 30.85,3.94 15.23,20.57 17.42,44.04 14.46,69.44 -17.59,2.22 -25.03,-9.41 -31.45,-19.69 -9.83,-15.77 -22.93,-31.56 -13.87,-53.69z"/>
   <path class="fil1" d="M2826.93 3275.73c-28.24,-5.94 -12.39,-44.39 13.04,-58.96 11.85,-6.79 22.39,-0.79 31.65,17.25 -10.6,28.21 -11.62,29.15 -44.69,41.71z"/>
   <path class="fil1" d="M626.65 2249.9c-26.96,-6.96 -34.43,-29.24 -42.31,-48.9 4.18,-25.2 28.04,-23.67 39.16,-10.45 13.06,15.59 20.94,32.67 13.3,53.61 -3.61,2.05 -6.94,3.95 -10.15,5.74z"/>
   <path class="fil1" d="M2779.31 2152.81c14.07,5.25 19.21,14.04 17.33,25.17 -3.41,20.37 -10.57,39.58 -24.15,55.66 -2.1,2.47 -6.62,2.87 -10.54,4.44 -13.61,-20.92 -7.7,-42.37 -4.07,-63.59 1.33,-7.95 3.3,-9.8 21.42,-21.67z"/>
   <path class="fil1" d="M1985.3 1275.78c4.91,8.05 10.34,13.95 12.44,20.88 4.74,16 3.27,60.92 -1.39,84.82 -3.35,-1.88 -7.87,-2.85 -9.46,-5.52 -15.49,-26.3 -22.31,-54.75 -18.67,-85.26 0.37,-3.41 3.55,-6.74 6.08,-9.51 1.59,-1.71 4.43,-2.28 10.99,-5.41z"/>
   <path class="fil1" d="M2489.71 1854.28c17.44,6.5 19.92,18.78 17.41,32.54 -3.07,16.7 -9.63,32.1 -20.48,44.43 -9.07,3.04 -13.41,-1.76 -16.14,-7.83 -7.7,-17.25 -8.46,-35.04 -2.3,-52.91 3.27,-9.41 9.58,-15.21 21.51,-16.23z"/>
   <path class="fil1" d="M1714.34 3075.96c-39.38,-11.51 -64.73,-37.05 -59.95,-54.04 1.82,-6.45 8.07,-11.59 13.15,-18.3 7.53,3.59 14.13,5.23 18.76,9.18 15.05,12.81 25.63,29 30.93,48.1 1.11,3.98 -1.59,8.98 -2.89,15.06z"/>
   <path class="fil1" d="M1566.48 2545.22c-7.02,-1.85 -31.11,-1.25 -44.13,-44.61 -3.07,-10.17 1.48,-24.72 13.56,-28.01 6.9,-1.88 16.23,1.3 20.6,7.02 12.98,16.91 15.37,30.57 9.97,65.61z"/>
   <path class="fil1" d="M478.94 1947.54c-19.49,-16.29 -27.33,-18.47 -29.85,-37.54 -4.55,-34.09 53.61,-38.58 54.38,10.71 0.19,12.31 -5.52,22.62 -24.52,26.83z"/>
   <path class="fil1" d="M3259.88 2775.95c-7.5,-30.41 3.21,-53.78 20.49,-75.58 7.05,0 13.27,0 17.87,0 9.77,7.85 10.99,16.88 8.09,25.83 -7.36,22.95 -20.63,40.97 -46.46,49.75z"/>
   <path class="fil1" d="M2550.6 2142.24c-3.81,-10.57 -7.65,-21.3 -11.91,-33.21 4.17,-9.46 7.24,-19.49 12.69,-27.96 7.45,-11.53 26.43,-8.46 31.96,4.35 8.1,18.67 -1.36,47.16 -19.75,57.45 -2.75,1.56 -7.35,-0.23 -13,-0.63z"/>
   <path class="fil1" d="M2561.98 2403.15c11.4,4.69 16.23,10.28 16.57,19.01 0.77,19.26 -14.86,55.52 -24.8,72.65 -14.72,-13.1 -17.07,-17.08 -14.43,-40.78 2.04,-18.47 1.28,-39.26 22.67,-50.89z"/>
   <path class="fil1" d="M1322.35 2411.06c15.38,-4.29 23.73,-1.68 29.95,5.91 11.74,14.29 18.81,30.77 20.11,49.29 0.26,3.44 -2.07,7.08 -3.37,11.06 -13.9,3.18 -22.02,-5.89 -30.15,-13.48 -31.26,-29.18 -18.41,-46.25 -16.54,-52.78z"/>
   <path class="fil1" d="M1405.98 2067.12c-21.54,-9.49 -27.45,-27.3 -32.62,-47.62 3.94,-7.13 8.15,-14.72 11.39,-20.54 13.87,-6.02 22.14,-0.54 29.24,7.67 7.31,8.33 7.7,18.7 7.39,29.04 -0.4,11.62 -0.63,23.38 -15.4,31.45z"/>
   <path class="fil1" d="M1948.46 2318.37c9.34,-5.06 16.39,-5 24.35,3.04 7.56,24.8 15.66,51.28 7.24,80.66 -6.31,-1.99 -18.26,1.25 -30.26,-41.08 -3.8,-13.52 -9.21,-26.68 -1.33,-42.62z"/>
   <path class="fil1" d="M1851.57 2213.56c17.47,-15.6 34.32,2.93 37.14,20.29 3.13,19.26 0.97,35.46 -0.31,55.35 -17.19,-5.45 -23.84,-18.04 -30.52,-30.28 -7.56,-13.9 -12.96,-28.36 -6.31,-45.35z"/>
   <path class="fil1" d="M465.87 1712.14c-38.36,-16.14 -42.56,-23.04 -36.82,-56.14 10.77,-8.33 5.85,-5.65 18.81,-10.29 16.68,1.82 28.87,11.14 26.82,47.85 -0.28,5.54 -4.97,10.88 -8.8,18.58z"/>
   <path class="fil1" d="M1816.98 1494.22c-4.99,-1.19 -9.71,-0.85 -11.67,-3.01 -14.44,-15.97 -20.29,-35.94 -24.58,-56.31 -0.99,-4.61 0.63,-10.54 2.98,-14.75 2.3,-4.12 7.05,-6.82 9.57,-9.09 12.93,0.77 17.9,7.79 21,17 7.16,21.48 6.51,43.09 2.7,66.17z"/>
   <path class="fil1" d="M2478.17 2497.51c-21.39,-13.1 -20.11,-46.94 -4.45,-67.08 7.24,-9.37 23.89,-8.07 29.09,2.87 11.73,24.69 -5.65,46.03 -24.64,64.21z"/>
   <path class="fil1" d="M1908.91 1886.82c16.76,2.84 22.16,11.42 25.31,21.48 4.43,14.17 3.27,37.25 -2.53,61.34 -24.72,-16.96 -36.45,-39.18 -33.53,-68.19 0.54,-5.18 6.99,-9.74 10.74,-14.63z"/>
   <path class="fil1" d="M1847.25 2877.87c-22.7,-17.17 -33.13,-40.12 -43.53,-62.06 6.17,-15.51 6.17,-15.51 21.33,-22.41 4.87,4.37 13.44,8.41 15.29,14.46 6.68,21.79 14.3,44 6.91,70z"/>
   <path class="fil1" d="M388.28 1917.05c-5,3.61 -8.83,6.43 -12.76,9.24 -19.81,-7.05 -29.15,-22.61 -38.16,-38.39 -5.19,-9.07 -4.94,-9.24 -2.55,-29.32 8.01,-8.39 16.36,-6.51 23.86,0.17 16.17,14.37 24.23,33.24 29.61,58.3z"/>
   <path class="fil1" d="M1475.28 546.21c11.31,-30.37 27.99,-48.95 51.26,-62.11 31.85,-18.04 38.78,-20.54 58.73,-18.84 -32.62,27.33 -71.83,44.67 -91.37,84.02 -5.94,-0.99 -10.46,-1.73 -18.61,-3.07z"/>
   <path class="fil1" d="M1875.09 1745.21c17.7,11.77 21.07,27.99 21.76,45.15 0.54,12.81 0.94,25.96 -13.07,34.98 -19.86,-7.79 -24.29,-25.23 -26.28,-43.3 -1.53,-14.03 -2.13,-28.89 17.59,-36.82z"/>
   <path class="fil1" d="M1582.27 946.26c-21.76,-14.32 -26.76,-35.11 -28.94,-57.11 -0.37,-3.55 1.25,-7.65 2.9,-11 7.02,-14.34 27.44,-12.35 31.17,-1.59 8.04,23.33 10.79,46.68 -5.12,69.69z"/>
   <path class="fil1" d="M2054.46 892.64c27.02,31.8 10.96,64.19 6.16,98.54 -4.85,-2.82 -9.6,-3.96 -10.14,-6.11 -5.94,-24.98 -14.61,-49.58 -13.33,-75.8 0.43,-8.41 3.9,-14.77 17.31,-16.62z"/>
   <path class="fil1" d="M2595.97 2003.93c-8.7,-50.94 -4.81,-69.3 18.35,-92.65 15.7,4.44 22.67,10.15 18.92,26.06 -3.52,15.03 -19.6,44.32 -37.27,66.59z"/>
   <path class="fil1" d="M1735.67 1542.01c-19.32,-10.77 -23.84,-25.89 -30.2,-39.64 -4.97,-10.77 -6.53,-21.93 -2.36,-33.13 6.71,-9.2 15.12,-8.38 25.12,-4.94 18.09,22.93 17.67,47.91 7.44,77.71z"/>
   <path class="fil1" d="M1169.59 2953.39c8.06,-3.64 12.76,-5.76 19.35,-8.78 7.1,3.58 15.88,6.4 22.7,11.74 11.28,8.89 11.93,13.04 12.04,36.28 -4.54,2.67 -9.91,5.88 -14.35,8.52 -16.7,-0.82 -28.73,-7.53 -39.74,-20.74 0,-7.22 0,-16 0,-27.02z"/>
   <path class="fil1" d="M1585.52 2450.63c11.37,-1.17 24.2,-7.5 35.8,9.78 11,16.44 13.24,35.77 16.59,53.73 -4.52,6.62 -9.41,5.96 -14.17,3.26 -17.62,-9.97 -28.9,-25.91 -37.82,-43.27 -2.56,-5 -0.4,-12.44 -0.4,-23.5z"/>
   <path class="fil1" d="M2496.19 2793.71c-8.98,35.4 -9.46,36.06 -38.16,52.79 -2.05,-4.45 -5.43,-8.66 -5.68,-13.01 -0.63,-11.6 -0.59,-23.33 0.57,-34.83 2.44,-23.82 25.77,-25.24 33.33,-19.21 4.63,3.72 7.19,10.06 9.94,14.26z"/>
   <path class="fil1" d="M2332.9 2810.78c-24.81,-55.83 25.43,-99.7 41.31,-53.78 -2.84,22.93 -16.31,39.8 -41.31,53.78z"/>
   <path class="fil1" d="M3264.48 2135.82c4.26,6.48 7.02,10.6 9.29,14.06 -10.68,35.52 -26.17,61.07 -43.39,71.3 -10.66,-24.15 0.03,-45.46 8.38,-66.8 3.98,-10.15 6.96,-11.48 25.72,-18.56z"/>
   <path class="fil1" d="M1539.51 2731.52c16.14,7.98 25.23,21.28 30.8,37.84 4.5,13.47 4.92,13.32 1.59,31.02 -20.03,-7.39 -36.85,-18.39 -47.81,-36.22 -3.55,-5.8 -3.36,-14.83 -2.53,-22.11 0.77,-6.84 6.74,-10.45 17.95,-10.53z"/>
   <path class="fil1" d="M2568.64 3205.6c-6.73,-19.72 7.5,-46.54 37.7,-69.02 5.23,3.27 11.17,6.99 18.3,11.45 -2.68,7.39 -3.89,13.72 -6.96,18.9 -13.67,22.84 -21.94,29.09 -49.04,38.67z"/>
   <path class="fil1" d="M1102.85 1973.45c7.98,-0.43 15.09,-0.8 22.64,-1.17 14.24,24.98 15.54,49.67 10.04,75.01 -11.23,2.61 -16.12,-4.09 -19.98,-10.65 -10.54,-17.85 -21.91,-35.72 -12.7,-63.19z"/>
   <path class="fil1" d="M3177.12 1576.1c-11.74,-16.05 -14.69,-6.53 -11.48,-55.27 0.28,-3.91 7.7,-19.31 21.45,-18.21 22.73,1.84 22.73,40.23 3.13,64.87 -2.19,2.73 -6.11,4.12 -13.09,8.61z"/>
   <path class="fil1" d="M1385.09 2693.19c4.83,-2.08 9.52,-4.07 14.06,-6.02 4.06,1.79 8.09,2.67 11,5 16.25,13.04 21.7,31.65 24.75,51.06 0.43,2.87 -3.07,6.34 -5.06,10.14 -20.2,-3.18 -32.79,-15.59 -43.41,-30.71 -5.57,-7.9 -7.34,-16.42 -1.34,-29.46z"/>
   <path class="fil1" d="M1651.48 1610c-12.47,-5.2 -17.52,-17.14 -23.27,-28.56 -6.65,-13.35 -8.33,-27.1 -4.74,-40.97 14.15,-7.76 22.76,-7.87 27.36,0.28 12.1,21.31 16.81,43.44 5.11,66.66 -0.48,0.97 -2.19,1.31 -4.46,2.59z"/>
   <path class="fil1" d="M2761.33 1568.83c11.03,3.89 14.46,10.77 14.18,18.86 -0.83,23.56 3.5,48.33 -13.96,70.24 -19.2,-16.2 -19.37,-36.62 -18.8,-57.17 0.37,-13.35 3.46,-25.37 18.58,-31.93z"/>
   <path class="fil1" d="M1913.61 2148.92c7.42,-8.52 15.69,-7.58 26.06,-2.41 17.22,23.29 16.25,47.81 1.63,73.24 -13.13,-3.58 -16.94,-13.58 -20.12,-23.18 -5.09,-15.46 -14.78,-30.4 -7.56,-47.65z"/>
   <path class="fil1" d="M1147.22 3022.66c-14.09,9.23 -23.69,6.14 -33.21,1.45 -11.22,-5.52 -17.9,-14.46 -19.89,-26.7 8.09,-34.75 42.13,-28.36 50.68,-1.85 2.64,8.24 1.71,17.65 2.42,27.11z"/>
   <path class="fil1" d="M2435.52 2730.44c11.08,4.85 7.39,0.76 15.51,13.54 -11.25,34.21 -18.58,48.3 -40.43,77.54 -7.11,-13.96 -8.15,-21.57 -5.31,-38.16 4.04,-23.3 11.11,-35.91 30.23,-52.93z"/>
   <path class="fil1" d="M1447.74 1754.47c17.36,2.99 24.21,12.05 26.48,23.93 3.58,18.75 3.84,37.7 1.06,58.55 -5.71,-2.75 -10.2,-3.37 -11.71,-5.85 -29.37,-48.22 -30.11,-50.92 -25.87,-64.95 1.3,-4.29 6.25,-7.48 10.05,-11.68z"/>
   <path class="fil1" d="M2674.05 1666.99c-18.41,-5.54 -18.15,-18.52 -21.68,-29.29 -5.2,-15.77 -3.98,-30.65 5.48,-44.6 14.12,-5.6 21.39,-4.27 25.26,5.4 7.93,19.88 -0.13,50.09 -9.06,68.5z"/>
   <path class="fil1" d="M1255.99 3095.76c-7.67,13.67 -17.99,13.92 -28.13,11.7 -15.88,-3.44 -28.32,-11.51 -31.37,-30.65 2.04,-4.61 4.55,-10.26 6.62,-14.91 34.5,-6.62 40.83,-2.5 52.88,33.87z"/>
   <path class="fil1" d="M1957.48 1637.38c14.21,3.25 20.55,9.61 22.85,18.81 4.6,18.47 6.22,37.08 -1.91,57.84 -5.99,-3.57 -11.11,-5.23 -14.12,-8.67 -10.88,-12.41 -23.86,-40.83 -16.76,-56.39 1.93,-4.33 6.31,-7.53 9.94,-11.6z"/>
   <path class="fil1" d="M1474.14 2207.05c-18.52,-21.13 -29.04,-43.27 -38.75,-64.33 5.06,-14.66 5.06,-14.66 16.08,-21.48 22.73,2.65 23.52,26 29.83,77.6 0.19,1.59 -3.01,3.57 -7.16,8.21z"/>
   <path class="fil1" d="M1112.56 2862.5c-27.73,-4.15 -48.21,-12.94 -59.15,-39.35 5.06,-6.06 11.97,-20.63 26.94,-15.15 19.49,7.1 33.04,20.26 36.22,41.63 0.48,3.31 -2.1,7.07 -4.01,12.87z"/>
   <path class="fil1" d="M3258.52 2879.52c0.91,-25.8 10.29,-44.39 25.74,-60.21 5.97,-6.08 13.04,-4.69 27.08,3.38 5.48,12.59 -0.26,22.59 -8.18,31.31 -10.88,12 -20.06,27.25 -44.64,25.52z"/>
   <path class="fil1" d="M3298.8 2088.66c-4.35,-31.39 -6.56,-60.09 12.36,-84.38 13.19,-5.17 18.86,0.57 23.52,12.67 -3.15,12.5 -6.88,59.33 -35.89,71.71z"/>
   <path class="fil1" d="M2558.52 1915c-17.02,-18.52 -14.97,-39.95 -10.34,-61.54 1.9,-8.95 11.9,-15.34 20.37,-14.77 19.06,1.33 30.03,30.8 -10.03,76.31z"/>
   <path class="fil1" d="M3278.03 2628.78c-8.13,-7.67 -5.14,-17.16 -2.3,-25.2 5.91,-16.68 8.13,-35.94 26.42,-45.26 10.35,-2.42 18.11,0.11 22.48,10.77 1.28,25.01 -22.59,47.68 -46.6,59.7z"/>
   <path class="fil1" d="M2662.11 2052.15c9.26,-2.73 4.26,-2.99 18.7,-0.71 10.23,8.24 9.51,18.69 7.98,29.07 -2.36,16.19 -5.17,20.48 -23.84,38.95 -11.45,-4.2 -12.96,-15.14 -14.6,-24.83 -2.64,-15.86 0.02,-30.91 11.76,-42.48z"/>
   <path class="fil1" d="M2995.5 2668.7c-4.52,-7.1 -9.91,-11.9 -10.6,-17.31 -2.61,-20.8 -2.21,-41.45 11.65,-58.5 14.03,-3.33 14.03,-3.33 26.08,4.06 2.33,26.71 -9.2,48.7 -27.13,71.74z"/>
   <path class="fil1" d="M1463.97 2497.14c-21.85,-9.04 -54.61,-35.91 -43.56,-56.94 2.72,-5.14 8.74,-8.57 12.56,-12.1 24.66,3.47 44.41,28.07 31,69.04z"/>
   <path class="fil1" d="M1356.74 3161.93c-2.9,2.56 -4.54,5.28 -6.68,5.68 -35.6,6.94 -65.89,-34.24 -39.07,-50.34 21.11,-12.67 44.44,17.02 45.75,44.67z"/>
   <path class="fil1" d="M1830.46 1254.78c4.91,-1.59 9.57,-3.07 12.64,-4.04 13.32,4.83 15.91,15.26 18.89,25.18 5.26,17.35 8.21,34.89 2.67,53.95 -4.86,-1.53 -9.58,-1.62 -11.45,-3.94 -6.36,-8.02 -13.69,-16.14 -17.07,-25.49 -4.69,-13.04 -12.53,-26.22 -5.68,-45.66z"/>
   <path class="fil1" d="M2416.78 2873.64c20.09,17.3 -4.94,57.3 -35.91,76.14 -1.88,-5.4 -4.63,-9.04 -3.92,-11.82 11.7,-45.12 16.68,-74.44 39.83,-64.32z"/>
   <path class="fil1" d="M1209.11 2400.26c5.4,-8.24 9.54,-14.58 12.7,-19.38 14.51,-4 22.44,2.33 28.41,11.62 8.72,13.55 8.5,23.52 -0.11,49.24 -27.76,1.9 -31.9,-20.06 -41,-41.48z"/>
   <path class="fil1" d="M1931.72 1189.52c14.14,21.25 12.98,-1.9 11.59,87.76 -0.03,0.8 -1.56,1.56 -2.39,2.36 -1.26,-0.37 -2.95,-0.37 -3.64,-1.19 -15.91,-19.69 -22.96,-42.81 -25.11,-67.54 -0.85,-9.83 3.63,-17.47 19.55,-21.39z"/>
   <path class="fil1" d="M1683.79 1432.33c-24.07,-19.38 -28.18,-44.06 -37.19,-68.39 4.57,-5.37 9.24,-10.8 12.96,-15.17 11.25,1.14 16.4,6.42 19.81,13.95 8.57,18.93 9.52,30.24 4.43,69.61z"/>
   <path class="fil1" d="M1715.81 1847.58c5.17,-6.28 9.12,-11.08 13.1,-15.92 4.89,1.11 9.15,1.02 12.1,2.99 9.26,6.08 13.84,15.63 15.17,26.19 1.9,15.37 2.53,30.86 -0.39,44.5 -19.78,14.97 -33.7,-38.18 -39.98,-57.76z"/>
   <path class="fil1" d="M2795.17 1272.57c-18.67,-27.59 -18.44,-50.55 -0.82,-74.96 5.05,0.66 11.05,-0.31 14.26,2.28 4.57,3.66 10.06,9.94 10,15.03 -0.28,20.12 -2.98,40.04 -23.44,57.65z"/>
   <path class="fil1" d="M3494.28 2824.6c-12.72,19.6 -28.24,35.94 -50.49,47.16 -2.5,-5.17 -5.9,-8.81 -5.28,-11.51 4.98,-22.33 15.54,-50.94 37.11,-58.1 12.09,1.42 17.58,7.39 18.66,22.45z"/>
   <path class="fil1" d="M2753.43 2855.51c-8.41,-27.67 -5.54,-37.96 19.29,-69.05 12.5,-4.57 19.55,1.22 24.01,13.19 0.54,14.67 -7.76,26.54 -16.25,37.73 -6.68,8.76 -12.31,20.72 -27.05,18.13z"/>
   <path class="fil1" d="M1646.06 2385.02c-21.06,-11.11 -26.51,-30.28 -34.78,-47.3 -9.06,-18.65 -0.19,-36.17 24.36,-29.07 20.59,21.39 13.04,48.02 10.42,76.37z"/>
   <path class="fil1" d="M3493.74 2185.46c32.17,5.85 12.64,53.24 -25.31,69.13 -10.4,-10.82 -7.27,-22.36 -4.78,-32.9 4.66,-19.29 10.34,-25.29 30.09,-36.23z"/>
   <path class="fil1" d="M2430.27 2370.54c-2.33,-33.42 -10.04,-61.85 12.89,-83.98 13.52,-3.09 19.04,3.55 23.3,12.33 2.22,15.34 -14.37,50.49 -36.19,71.65z"/>
   <path class="fil1" d="M859.24 2642.44c-34.07,-6.36 -57.31,-17.07 -70.69,-40.8 6.22,-36.43 44.94,-22.04 70.69,40.8z"/>
   <path class="fil1" d="M2816.59 2897.47c-8.39,-32.53 1.21,-56.48 15.03,-78.24 14.26,-6.65 21.22,-0.82 25.85,10.08 0.69,15.01 -14.63,41.57 -40.88,68.16z"/>
   <path class="fil1" d="M2009.85 1776.63c5.15,5.91 11.79,10.66 14.32,17 7.64,19.06 6.53,24.83 -4.95,58.98 -6.02,2.3 -9.97,-0.99 -11.85,-5.77 -17.33,-43.89 -26.13,-58.67 2.47,-70.2z"/>
   <path class="fil1" d="M2565.31 1549.06c-11.62,-0.52 -15.2,-6.11 -17.16,-12.19 -5.37,-16.39 -4.91,-33.27 -1.96,-50.03 1.19,-6.79 5.06,-9.44 19.77,-15.4 8.7,2.27 12.81,8.3 13.35,16.87 1.37,21.22 -3.78,40.97 -14.01,60.75z"/>
   <path class="fil1" d="M1628.19 2718.56c21.43,15.29 28.28,29.78 37.54,80.43 -3.84,-0.76 -7.96,-0.39 -10.26,-2.27 -17.24,-13.95 -29.89,-31.69 -39.35,-51.55 -5.31,-11.16 -1.59,-18.29 12.07,-26.62z"/>
   <path class="fil1" d="M530.48 1786.75c19.92,15.91 20.46,47.02 -7.11,52.31 -4.72,-2.62 -12.19,-5.18 -17.61,-10 -10.91,-9.8 -12.7,-23.61 -6.11,-35 4.91,-8.5 10.91,-9.92 30.83,-7.3z"/>
   <path class="fil1" d="M3384.61 2707.68c-5.54,-28.69 -3.01,-36.06 21.4,-68.99 13.26,-2.67 13.26,-2.67 24.61,5.11 -4.55,27.08 -15.52,49.89 -46,63.87z"/>
   <path class="fil1" d="M1294.97 2093.09c11.22,-7.22 19.55,-6.76 24.69,-0.11 14.41,18.52 20.63,38.96 8.7,61.43 -1.08,2.05 -3.96,3.16 -7.59,5.94 -22.67,-16.8 -31.2,-38.73 -25.8,-67.26z"/>
   <path class="fil1" d="M1506.41 2629.43c-18.07,2.82 -26.59,-7.24 -34.41,-17.7 -7.5,-10.03 -8.37,-21.28 -4.23,-31.25 22.9,-27.47 60.91,20.88 38.64,48.95z"/>
   <path class="fil1" d="M1988.35 1994.05c14.89,3.13 17.53,11.79 18.04,21.17 1.1,20.69 0.06,41.31 -1.85,60.52 -7.41,5.54 -11.31,2.21 -13.83,-2.44 -10.4,-19.24 -20.17,-51.4 -11,-70.78 1.54,-3.21 5.31,-5.34 8.64,-8.46z"/>
   <path class="fil1" d="M2696.21 1321.47c9.74,-10.43 18.66,-10.97 29.85,-1.28 6.06,25.2 2.1,49.04 -14.86,69.39 -8.8,1.06 -11.39,-4.15 -12.89,-8.56 -6.77,-20.03 -7.59,-40.37 -2.1,-59.55z"/>
   <path class="fil1" d="M2896.77 1200.49c8.5,29.52 3.07,52.84 -16.81,73.02 -3.01,-2.04 -6.08,-3.01 -6.99,-4.94 -9.12,-19.77 -7.87,-40.03 -1.48,-60.18 2.45,-7.65 8.01,-9.23 25.29,-7.89z"/>
   <path class="fil1" d="M1728.46 2781.41c-16.65,-8.67 -26.2,-23.75 -33.19,-40.49 -13.38,-32.02 16.25,-42.28 24.75,-25.35 9.74,19.41 17.93,39.83 12.07,62.57 -0.25,0.97 -1.7,1.59 -3.63,3.26z"/>
   <path class="fil1" d="M2543.18 2262.8c-16.94,-19.89 -16.46,-40.97 -7.56,-62.31 2.01,-4.74 9.71,-7.07 13.24,-9.45 13.43,2.87 16.05,11.81 19.23,21.42 -4.37,17.67 -5.43,37.7 -24.92,50.35z"/>
   <path class="fil1" d="M973 2861.24c-5.28,1.59 -8.95,3.9 -12.31,3.55 -17.24,-1.99 -31.99,-9.77 -43.21,-22.81 -3.73,-4.35 -5.06,-11.34 -6,-17.31 -0.76,-4.89 1.67,-6.45 16.25,-15.54 26.03,7.02 36.34,28.02 45.26,52.11z"/>
   <path class="fil1" d="M2086.02 2040.38c5.43,6.08 11.94,10.09 12.91,15.12 4.11,21.54 5.19,43.42 -2.53,64.58 -1.17,3.13 -4.63,5.43 -8.5,9.8 -8.67,-16.05 -8.52,-6.11 -16.99,-59.41 -1.76,-10.96 1.48,-20.2 15.11,-30.09z"/>
   <path class="fil1" d="M1007.69 1961.43c2.99,-5.57 6.56,-12.19 9.09,-16.88 13.07,-5.91 19.35,0.2 26.31,8.3 4.46,18.35 1.9,37.3 1.9,56.4 -23.72,-1.36 -27.33,-6.23 -37.3,-47.82z"/>
   <path class="fil1" d="M2021.25 2646.91c-22.11,-21.26 -25.46,-58.59 -21.26,-72.91 1.56,-5.37 7.53,-9.46 10.68,-13.13 30.44,2.87 19.97,41.28 10.57,86.03z"/>
   <path class="fil1" d="M1751.02 3008.88c16,-9.5 27.99,-7.22 37.68,3.2 11.25,12.16 18.24,26.77 21.79,44.39 -13.24,4.63 -21.25,-3.1 -29.49,-7.7 -12.19,-6.82 -25.46,-13.1 -30.63,-27.59 -1.17,-3.24 0.31,-7.41 0.65,-12.3z"/>
   <path class="fil1" d="M3233.77 1473.24c-13.26,-40.77 -10.82,-51.76 14.95,-71.99 3.63,1.87 9.45,3.01 11.96,6.53 3.41,4.86 6.62,11.77 5.91,17.31 -2.64,19.66 -11.79,35.8 -32.82,48.15z"/>
   <path class="fil1" d="M2349.69 2864.63c14.34,2.81 20.43,10.2 23.24,23.35 -6.88,17.7 -14.75,36.03 -39.16,38.78 -10.79,-29.41 -8.04,-40.08 15.91,-62.13z"/>
   <path class="fil1" d="M2057.98 1158.26c-13.52,-19.4 -15.23,-39.94 -12.67,-60.59 0.77,-6.31 7.78,-11.88 11.02,-16.46 11.85,-0.14 18.41,4.91 19.83,12.93 3.95,22.05 3.76,43.76 -11.73,62.33 -0.63,0.8 -2.36,0.69 -6.45,1.79z"/>
   <path class="fil1" d="M2516.67 1144.09c-20.2,-11.96 -18.33,-29.29 -18.16,-45.77 0.15,-11.14 4.52,-19.95 16.2,-23.5 12.19,0.4 18.04,8.19 22.33,20.63 -6.19,14.43 -1.28,34.71 -20.37,48.64z"/>
   <path class="fil1" d="M1721.21 1235.04c-17.39,-16.23 -21.22,-37.76 -27.25,-57.06 3.02,-14.89 9.78,-22.28 24.27,-18.5 2.22,1.85 5.11,3.05 5.99,5.09 11.08,26.45 10.71,34 -3.01,70.46z"/>
   <path class="fil1" d="M3198.91 2886.79c11.98,3.52 16.05,11.91 12.5,21.22 -7.9,20.63 -20.71,37.82 -41,50.86 -10.91,-13.46 -5.57,-25.06 -1.16,-36.8 5.85,-15.65 10.45,-32.22 29.66,-35.29z"/>
   <path class="fil1" d="M3389.39 1794.84c-10.29,-27.7 -6.71,-48.75 8.74,-68.05 4.61,-5.76 10.71,-5.06 24.86,2.36 0.94,18.81 8.39,21.05 -33.61,65.69z"/>
   <path class="fil1" d="M2949.1 1662.04c-20.03,-10.11 -19.77,-24.63 -19.83,-38.24 -0.06,-14.8 -4.94,-31.93 14.6,-39.97 31.31,3.07 13.24,47.65 5.22,78.21z"/>
   <path class="fil1" d="M1227.43 1987.91c12.7,-3.25 20.74,0.84 24.29,10.11 7.53,19.43 9.44,39.41 1.31,59.56 -20.37,-7.76 -22.16,-10.74 -34.29,-57 2.78,-4.09 6.25,-9.15 8.69,-12.67z"/>
   <path class="fil1" d="M2711.32 1197.11c3.64,24.32 -6.76,44 -20.7,61.69 -8.36,0.8 -10.8,-3.33 -11.85,-8.67 -9.58,-49.69 6.93,-58.79 12.21,-65.89 11.37,-0.09 16.68,4.74 20.34,12.87z"/>
   <path class="fil1" d="M3075.43 2340.67c13.24,9.94 8.83,4.72 16.59,18.81 -3.55,20.8 -6.45,42.17 -24.12,58.76 -14.92,-7.87 -13.02,-21.19 -13.09,-33.44 -0.11,-16.76 -0.41,-33.83 20.63,-44.13z"/>
   <path class="fil1" d="M2712.74 3095.96c-8.27,-19.15 1.68,-35.08 8.92,-51.03 5.11,-11.27 8.87,-24.91 24.95,-26.11 11.76,8.7 15.71,16.06 10.11,24.15 -12.9,18.69 -22.17,40.58 -43.98,52.99z"/>
   <path class="fil1" d="M2778.83 1346.76c15.88,2.01 15.88,2.01 25.09,16.87 -4.43,19.64 -8.09,40.69 -20.28,59.98 -10.41,-12.33 -12.16,-18.47 -15.46,-42.54 -1.68,-12.35 1.59,-22.73 10.65,-34.31z"/>
   <path class="fil1" d="M2688.26 2952.81c21.56,-51.5 19.63,-54.75 37.27,-58.95 6.71,-1.59 12.28,2.33 16.31,11.88 -1.9,19.86 -16.39,34.32 -32.1,47.79 -4.83,4.15 -10.74,7.41 -21.48,-0.72z"/>
   <path class="fil1" d="M3092.9 2492.63c7.45,6.05 12.08,9.78 17.53,14.17 -7.84,27.54 -20.48,49.81 -46.37,67.2 -4.2,-32.39 5,-56.83 28.83,-81.37z"/>
   <path class="fil1" d="M1196.19 2765.15c8.89,-17.39 5.17,-12.02 14.83,-17.89 3.33,1.13 9,1.56 12.42,4.52 15.06,13.18 22.5,30.35 23.07,50.32 0.06,1.73 -3.07,3.57 -5.91,6.73 -21.02,-7.73 -38.26,-18.89 -44.4,-43.68z"/>
   <path class="fil1" d="M2283.52 3069.19c-2.88,-3.38 -8.3,-6.79 -8.67,-10.71 -2.14,-19.97 1.93,-38.27 17.89,-51.28 11.88,-1.8 17.98,4 23.44,15.48 -6.39,32.34 -9.33,33.02 -32.67,46.51z"/>
   <path class="fil1" d="M3411.12 2395.31c-11.77,-29.86 -2.9,-51.28 15.59,-70.6 17.48,1.76 11.74,0.08 20.46,7.76 -0.25,6.08 1.51,14.43 -1.33,20.77 -7.16,16.25 -18.04,30.15 -34.71,42.07z"/>
   <path class="fil1" d="M2989.45 2339.74c18.19,5.31 20.8,15.97 17.84,28.21 -3.63,15.03 -10.23,28.84 -19.6,40.09 -9.37,3.33 -13.52,-1.93 -15.34,-8.13 -6.68,-22.93 0.74,-42.14 17.11,-60.18z"/>
   <path class="fil1" d="M3217.57 1838.63c32.65,11.42 15.91,45.94 0.11,76.51 -6.98,1.82 -8.61,-4.07 -10.11,-8.22 -6.28,-17.47 -5.66,-35.54 -1.65,-53.21 1.25,-5.37 7.27,-9.63 11.65,-15.08z"/>
   <path class="fil1" d="M770 2474.75c4.78,-5.82 8.63,-10.6 13.1,-16 5.69,1.48 11.02,1.82 15.17,4.2 15.68,8.98 15.54,9.24 24.21,36.68 -8.07,12.45 -14.83,15.38 -23.73,10.41 -11.14,-6.26 -14.17,-9.87 -28.75,-35.29z"/>
   <path class="fil1" d="M2525.79 2816.33c-5.17,-25.69 -6.22,-46.26 17.41,-59.04 21.25,-1.7 27.33,22.54 15.74,40.29 -4.66,7.16 -6.39,8.07 -33.16,18.75z"/>
   <path class="fil1" d="M819.86 2753.73c-19.49,-2.42 -36.48,-9.86 -46.57,-28.3 -0.2,-11.06 4.52,-17.96 15.77,-22.33 16.28,0.13 27.19,10.54 34.5,25.2 4.09,8.19 6.48,17.33 -3.7,25.43z"/>
   <path class="fil1" d="M3102.3 2181.91c-3.94,-28.16 -3.94,-75.21 16.65,-89.92 1.8,-1.28 4.81,-0.97 7.36,-1.37 7.14,2.9 8.89,9.2 7.98,15.74 -3.61,25.83 -11.25,50.44 -23.98,73.28 -0.46,0.8 -2.42,0.76 -8.02,2.27z"/>
   <path class="fil1" d="M3445.38 1699.95c-13.26,-7.56 -14.89,-17.62 -15.17,-28.33 -0.56,-20 0,-21.67 14.78,-42.05 11.37,-3.63 16.76,2.76 21.19,14.54 -2.47,18.05 -3.18,38.65 -20.8,55.84z"/>
   <path class="fil1" d="M2525.51 2864.12c5.42,6.33 9.49,11.02 13.61,15.83 -4.69,24.63 -17.47,40.06 -39.8,46.76 -11.99,-6.62 -8.46,-16.42 -6.62,-24.43 4.57,-20.2 9.91,-25.97 32.82,-38.16z"/>
   <path class="fil1" d="M1207.18 2181.85c-22.87,-11.7 -31.93,-28.16 -37.05,-50.06 3.32,-5.08 7.33,-11.28 11.39,-17.5 5.2,1.11 9.94,0.74 12.36,2.9 18.63,16.99 15.91,20.91 21.56,43.87 -2.47,6.19 -4.8,12.07 -8.26,20.8z"/>
   <path class="fil1" d="M919.81 2729.16c-13.7,-3.98 -28.98,-8.24 -32.22,-26.74 -1.99,-11.54 3.3,-19.94 16.12,-23.78 15.45,2.28 28.89,8.55 32.04,26.77 1.99,11.42 -1.56,20.42 -15.94,23.75z"/>
   <path class="fil1" d="M546.7 2307.75c-19.98,-1.11 -33.19,-12.05 -40.88,-29.92 -5.65,-13.07 11.53,-29.38 25.91,-22.9 20.2,9.09 25.57,27.02 14.97,52.82z"/>
   <path class="fil1" d="M2015.9 2183.28c-18.15,-16.46 -18.86,-36.28 -24.55,-52.7 8.76,-17.59 8.76,-17.59 27.31,-17.03 14.72,41.06 14.26,38.22 -2.76,69.73z"/>
   <path class="fil1" d="M1562.16 2905.26c34.78,7.39 36.79,35.94 49.6,63.27 -9.57,-0.99 -13.89,-0.14 -16.19,-1.9 -41,-31.45 -44.5,-34.44 -42.71,-49.86 0.48,-4.09 5.91,-7.56 9.3,-11.51z"/>
   <path class="fil1" d="M1631.54 1159.06c-19.06,-10.99 -24.41,-30.54 -27.73,-50.77 4.74,-20.57 28.33,-17.3 34.09,-1.36 10.23,28.18 12.48,46.37 -6.36,52.13z"/>
   <path class="fil1" d="M1698.2 886.02c7.5,0 13.52,0 18.67,0 15.57,26.22 15.57,26.22 12.64,58.45 -14.23,14.12 -35.14,-16.57 -36.14,-40.15 -0.22,-5.82 3.01,-11.76 4.83,-18.3z"/>
   <path class="fil1" d="M974.82 2517.97c4.57,-4.89 8.72,-9.35 14.14,-15.2 6.82,3.98 32.96,11.14 39.78,53.31 0.46,2.78 -2.76,6.14 -5.08,10.91 -20.09,-11.7 -39.74,-21.42 -48.84,-49.01z"/>
   <path class="fil1" d="M3307.93 1737.45c5.19,6.06 9.2,10.74 13.26,15.49 -4.24,22.9 -11.08,43.19 -24.55,60.26 -24.12,2.61 -7.93,-49.38 -5.8,-65.91 5.83,-3.35 11.06,-6.36 17.08,-9.83z"/>
   <path class="fil1" d="M769.77 2671.05c-6.79,9.2 -16.03,7.47 -24.44,4.44 -13.87,-5 -24.69,-13.58 -26.96,-29.47 3.46,-22.7 30.15,-22.44 40.58,-6.79 6.36,9.55 12.93,19.35 10.82,31.82z"/>
   <path class="fil1" d="M1280.88 1518.97c-5.52,-37.36 -9.94,-67.63 -14.52,-98.68 2.79,-1.45 6.02,-3.1 8.89,-4.55 13.05,5 18.61,15.63 20.21,27.17 3.41,24.29 3.69,48.64 -14.58,76.06z"/>
   <path class="fil1" d="M3284.11 2300.05c20.94,5.17 16.17,19.55 0.91,48.9 -5.68,10.99 -11.54,22.44 -25.63,29.06 -5.31,-26.82 2.27,-49.41 13.61,-70.97 1.96,-3.73 8.15,-5.24 11.11,-6.99z"/>
   <path class="fil1" d="M1285.82 2849.54c17.1,2.93 27.7,10.23 31.99,23.27 3.7,11.28 13.93,22.42 5.22,35.86 -30.35,-10.71 -33.58,-13.38 -48.81,-39.8 4.15,-13.3 1.22,-8.05 11.6,-19.32z"/>
   <path class="fil1" d="M3542.76 2530.13c-5.94,-8.72 -2.9,-17.44 0.68,-25.66 7.16,-16.33 12.42,-34.13 28.58,-43.33 10.74,-2.22 14.69,4.57 18.98,10.09 0,3.52 0.82,6.39 -0.14,8.43 -13.15,28.24 -23.13,38.59 -48.1,50.46z"/>
   <path class="fil1" d="M2625.58 1469.41c4.2,-6.88 8.12,-13.26 12.19,-19.94 4.97,1.14 9.86,0.79 11.96,3.04 5.11,5.43 11.74,11.68 12.7,18.3 2.42,16.88 -1.99,32.88 -13.75,46.06 -0.74,0.82 -2.36,0.79 -4.44,1.38 -15.43,-12.58 -14.23,-31.56 -18.66,-48.84z"/>
   <path class="fil1" d="M2699.42 1973.82c-10.91,-28.19 -17.67,-50.04 -0.02,-70.24 24.03,-13.5 45.74,23.13 0.02,70.24z"/>
   <path class="fil1" d="M1510.82 961.17c-12.84,1.19 -16.74,-7.59 -21.06,-15.17 -9.78,-17.27 -9.83,-19.29 -5.56,-49.66 5,-1.11 11.5,-4.61 16.36,-3.01 20.71,6.82 18.1,47.07 10.26,67.84z"/>
   <path class="fil1" d="M974.42 2678.56c23.27,4.41 33.9,15.94 39.16,36.08 -3.62,4.78 -7.93,10.54 -12.05,16.03 -22.56,-1.73 -34.33,-13.24 -39.78,-35.2 3.52,-4.72 7.84,-10.43 12.67,-16.91z"/>
   <path class="fil1" d="M1351.42 1860.11c11.65,-7.02 19.67,-5.54 24.04,1.9 9.41,15.89 12.53,33.72 10.45,52.11 -0.37,3.13 -4.41,5.85 -7.76,10.03 -21.48,-16.74 -33.53,-35.85 -26.74,-64.04z"/>
   <path class="fil1" d="M1871.68 1659.77c-22.7,-25.71 -32.61,-52.11 -37.13,-81.57 14.77,-8.22 9.4,-6.59 20.14,-3.93 15.77,24.21 23.19,51.06 16.99,85.49z"/>
   <path class="fil1" d="M904.13 2595.22c-16.71,3.38 -25.63,-4.35 -34.24,-11.25 -9.89,-7.93 -18.89,-17.07 -20.26,-33.33 5.06,-4.04 10.63,-8.44 15.8,-12.53 6.22,2.47 28.07,4.83 38.7,57.11z"/>
   <path class="fil1" d="M1997.72 2920.77c-25.4,-37.76 -26.2,-54.58 -6.3,-78.72 4.09,2.1 8.49,4.31 13.38,6.81 5.43,23.28 6.17,45.49 -7.07,71.91z"/>
   <path class="fil1" d="M951.55 1822.41c10.28,-10.06 17.5,-8.43 26.46,-4.77 7.81,22.44 9.69,44.29 -7.39,65.65 -28.9,-14.66 -19.8,-39.12 -19.07,-60.89z"/>
   <path class="fil1" d="M1669.16 1030.24c-11.79,2.19 -16.37,-2.58 -20.43,-7.39 -11.65,-13.93 -14.52,-20.85 -21.39,-48.47 4.03,-18.78 21.33,-15.8 30.51,-2.13 6.06,9.04 6.5,31.11 7.39,37.34 0.84,6.14 2.27,12.15 3.91,20.65z"/>
   <path class="fil1" d="M2971.86 3239.24c-6.73,-22.9 1.62,-36.91 11.94,-50.12 4.48,-5.74 14.34,-6.9 20.94,-1.99 4.74,3.55 7.95,9.24 10.96,12.87 -1.81,17.81 -11.7,27.82 -23.66,35.52 -4.63,2.98 -11.65,2.3 -20.18,3.72z"/>
   <path class="fil1" d="M851.45 2409.44c-24.77,2.9 -37.56,-11.42 -49.19,-31.77 5.46,-6.5 11.62,-20.15 26.57,-14.89 17.19,6.05 26.59,18.98 27.96,37.02 0.26,3.04 -3.41,6.33 -5.34,9.63z"/>
   <path class="fil1" d="M627.17 2356.27c28.04,9.57 30.39,29.53 33.1,47.99 -15.4,21.5 -53.73,-7.87 -45.6,-32.96 1.76,-5.34 7.58,-9.4 12.5,-15.03z"/>
   <path class="fil1" d="M2984.65 2792.2c4.43,1.59 10.03,3.55 14.29,5.06 6.17,18.15 -4.46,28.72 -12.33,40.17 -6.59,9.63 -14.04,18.24 -29.38,17.27 -0.96,-4.37 -3.8,-9.48 -2.67,-13.5 4.97,-18.44 9.69,-37.39 30.09,-49.01z"/>
   <path class="fil1" d="M2064.63 1367.95c23.12,28.19 10.74,56.18 4.45,83.76 -8.6,1.45 -9.62,-4.71 -10.71,-8.75 -14.06,-52.51 -18.98,-66.8 6.26,-75.01z"/>
   <path class="fil1" d="M2652.71 3076.33c-3.61,-2.59 -6.68,-4.74 -10.83,-7.73 1.56,-22.41 9.41,-41.28 27.62,-53.98 10.69,0.72 15.71,5.57 17.91,16.88 -4.91,18.1 -14.04,35.43 -34.69,44.84z"/>
   <path class="fil1" d="M2847.28 1722.37c13.37,-2.5 19.77,3.46 19.12,11.51 -2.02,24.18 -5.17,48.47 -21.74,68.16 -0.65,0.8 -2.42,0.65 -5.51,1.39 -6.19,-15.66 -2.78,-32.06 -2.81,-48.02 0,-11.82 3.8,-22.56 10.94,-33.05z"/>
   <path class="fil1" d="M3298.67 1536.95c-12.33,-16.68 -8.22,-29.13 -4.89,-41.15 3.61,-13.01 -0.06,-29.43 16.48,-36.96 9.17,-1.48 13.83,4.15 18.35,13.41 -3.07,21.91 -15.49,41.02 -29.94,64.7z"/>
   <path class="fil1" d="M2588.81 1187.28c-17.08,-12.3 -11.91,-30.26 -11.39,-46.54 0.39,-12.33 2.73,-14.21 21.22,-27.25 3.72,4.57 10,8.8 10.97,14.01 4.2,22.61 -1.5,37.44 -20.8,59.78z"/>
   <path class="fil1" d="M2642.79 2603.78c-2.56,-40.94 2.56,-61.46 19.38,-90.73 7.16,-3.54 12.33,-1.36 16.9,7.71 -4.31,26.56 -15.51,51.82 -36.28,83.02z"/>
   <path class="fil1" d="M3634.61 2543.4c-4.04,-9.04 -8.09,-13.69 -7.56,-17.73 2.98,-20.94 9.12,-40.63 28.33,-52.57 11.79,1.5 11.79,1.5 18.41,11.34 -4.69,22.3 -22.05,36.94 -39.18,58.96z"/>
   <path class="fil1" d="M1827.33 2118.72c4.88,-7.67 8.92,-13.92 12.04,-18.83 29.84,-9.44 33.33,24.31 20.38,61.11 -19.84,-5.96 -25.6,-22.44 -32.42,-42.28z"/>
   <path class="fil1" d="M2480.56 1979.67c3.39,4.4 7.19,9.32 11.28,14.68 -3.92,18.89 -10.85,34.92 -27.19,46.91 -16.28,-13.78 -12.87,-30.85 -9.23,-47.02 2.04,-9.12 8.57,-16.08 25.14,-14.57z"/>
   <path class="fil1" d="M3005.84 2520.02c-7.59,-24.95 -2.93,-45.04 14.3,-61.74 37.79,-1 19.18,61.74 -14.3,61.74z"/>
   <path class="fil1" d="M1403.96 2205.43c-28.1,-22.78 -28.1,-22.78 -38.52,-51.65 5.85,-12.22 2.33,-8.16 13.6,-15.69 3.18,0.52 5.83,0.48 8.1,1.37 9.23,3.58 14.57,11.28 16.13,20.23 2.42,13.69 4.33,27.73 0.69,45.74z"/>
   <path class="fil1" d="M2914.92 2940.6c-13.46,33.87 -23.44,46.26 -49.69,62.8 -4.57,-16.57 5.49,-38.61 31.88,-69.1 14.52,0 9.55,-0.97 17.81,6.31z"/>
   <path class="fil1" d="M1132.14 2145.2c25.15,21.57 26.34,30.06 8.78,60.27 -18.24,-5.6 -26.96,-18.19 -27.82,-36.91 -0.5,-11.68 4.09,-19.89 19.04,-23.35z"/>
   <path class="fil1" d="M1182.57 2833.4c14.57,3.12 20.8,14.49 25.17,26.94 2.96,8.46 5.37,17.67 -3.61,25.34 -19.72,-0.11 -44.72,-18.49 -41.37,-37.02 1.22,-6.85 3.78,-8.87 19.81,-15.26z"/>
   <path class="fil1" d="M3463.65 2606.93c5.69,-20.26 5.71,-43.35 27.26,-54.83 10.48,-0.23 15.42,4.82 18.77,14.63 -2.27,18.76 -13.15,33.79 -29.46,45.3 -4.29,3.04 -9.57,3.2 -16.57,-5.09z"/>
   <path class="fil1" d="M1792.61 890.35c-21.66,-7.79 -30.07,-24.73 -35.98,-43.36 -2.27,-7.16 1.02,-11.85 12.7,-21.48 4.46,1.59 9.26,3.3 14.26,5.09 11.82,18.35 15.37,37.53 9.01,59.75z"/>
   <path class="fil1" d="M2456.89 2223.11c-16.11,-13.61 -17.44,-22.37 -9.04,-59.24 9.15,-8.93 17.96,-8.02 26.88,1.56 4.63,12.5 3.38,25.09 -0.96,37.73 -1.85,5.34 -6.11,10.62 -16.88,19.95z"/>
   <path class="fil1" d="M3658.79 2621.93c-1.31,-22.93 7.36,-38.64 14.58,-54.52 5.88,-12.98 6.96,-13.38 23.32,-23.47 22.85,6.34 -2.24,53.84 -37.9,77.99z"/>
   <path class="fil1" d="M2274.31 2918.16c15.68,5.77 15.68,5.77 22.19,20.31 -5.65,19.09 -20.09,31.43 -34.92,42.44 -9.41,-1.08 -12.72,-6.53 -10.91,-13.43 4.52,-17.05 5.31,-36 23.65,-49.32z"/>
   <path class="fil1" d="M2976.7 1426.08c6.25,32.79 -1.48,62.37 -22.28,95.38 -4.04,-34.13 -4.2,-62.34 0.48,-90.44 0.71,-4.17 6.11,-7.59 9.35,-11.42 4.71,2.44 8.07,4.2 12.44,6.48z"/>
   <path class="fil1" d="M1942.92 1448.07c21.5,13.35 23.49,48.5 5.79,67.68 -17.78,-12.72 -20.4,-32.33 -25.85,-49.46 1.79,-11.11 6.42,-18.01 20.06,-18.21z"/>
   <path class="fil1" d="M2057.5 2897.58c-13.32,-23.98 -11.76,-46.06 -10.37,-67.7 0.46,-6.82 6,-13.3 8.61,-18.67 13.24,-1.88 17.05,6.28 17.22,13.58 0.63,24.04 -1.79,47.79 -15.45,72.79z"/>
   <path class="fil1" d="M1733.29 1600.43c9.91,-18.98 9.91,-18.98 26.59,-16.8 14.57,22.47 5.37,46.26 4.12,68.7 -12.41,7.9 -12.78,-1.76 -30.71,-51.91z"/>
   <path class="fil1" d="M2754.85 1546.04c-16.08,-13.93 -17.93,-24.72 -10.45,-62.2 11.93,-15.17 26.59,2.13 28.38,9.98 4.09,17.56 -0.48,28.75 -17.93,52.22z"/>
   <path class="fil1" d="M2974.93 1289.42c4.97,4.32 10.43,9.04 15.2,13.13 -7.16,34.83 -7.16,34.83 -26.54,51.33 -15.08,-9.52 -10.36,-24.63 -9.82,-37.9 0.56,-13.5 2.47,-14.94 21.17,-26.56z"/>
   <path class="fil1" d="M1755.65 1357.95c-11.31,0.54 -13.56,-7.3 -16.53,-14.24 -7.42,-17.39 -18.9,-33.98 -11.74,-54.06 14.54,-6.02 21.68,-4.63 25.96,4.57 5.91,12.76 8.39,42.68 2.3,63.73z"/>
   <path class="fil1" d="M2532.84 2660.06c4.85,4.55 9.26,8.64 13.92,13.02 -3.49,22.93 -13.84,41.14 -27.76,57.59 -3.35,-1.68 -6.5,-2.19 -7.53,-3.96 -6.17,-10.73 -4.49,-22.19 -1.02,-33.16 3.7,-11.73 3.41,-26.08 22.39,-33.5z"/>
   <path class="fil1" d="M1861.17 1106.36c-23.04,-17.3 -17.11,-40.57 -25.71,-58.62 4.06,-7.24 7.67,-13.72 10.85,-19.37 11.22,-0.25 17.13,5.4 18.69,13.22 4.07,20.2 5.74,40.63 -3.83,64.78z"/>
   <path class="fil1" d="M2547.33 1656.25c3.41,-9.72 6.31,-18.13 8.3,-23.81 8.61,-6.74 8.61,-6.74 25.35,-2.39 8.83,14.32 6.96,28.84 -1.36,43.33 -4.18,7.28 -9.41,12.5 -21.37,8.52 -3.24,-7.61 -7.16,-16.82 -10.91,-25.65z"/>
   <path class="fil1" d="M3559.43 2635.77c9.26,-40.71 13.81,-47 40.03,-57.73 8.19,5.25 5.52,2.44 9.89,10.77 -13.35,34.04 -24.09,44.77 -49.92,46.96z"/>
   <path class="fil1" d="M3139.95 2994.64c2.82,30.04 -3.58,39.83 -35.17,54.21 -1.87,-1.62 -5.22,-3.24 -5.31,-4.97 -0.82,-18.78 5.52,-35.32 17.08,-49.86 4.91,-6.19 10.74,-5.89 23.41,0.62z"/>
   <path class="fil1" d="M3030.96 3032.37c9.23,-23.81 11.62,-46.31 32.19,-59.72 14.77,1.45 9,-1.06 20.85,10.23 -1.96,5.54 -3.01,11.96 -6.25,16.93 -14.09,21.79 -26.28,30.66 -46.79,32.56z"/>
   <path class="fil1" d="M2062.28 2528.96c8.18,-0.91 14.29,-3.52 17.5,-1.48 5,3.13 10.82,9.12 11.33,14.38 1.88,19.83 -4.2,38.02 -13.77,54.32 -22.28,0.06 -16.17,-44.13 -15.06,-67.22z"/>
   <path class="fil1" d="M1397.59 3034.3c4.69,-5.08 8.04,-8.78 12.5,-13.67 7.22,2.95 14.92,4.61 20.77,8.83 13.46,9.69 16.17,16.4 19.6,39.07 -3.38,4.63 -7.53,6.2 -13.09,3.76 -16.74,-7.31 -31.85,-16.37 -39.78,-37.99z"/>
   <path class="fil1" d="M2089.86 1939.15c-17.98,-22.22 -12.02,-47.08 -13.09,-70.43 -0.37,-8.1 2.47,-15.26 11.42,-18.19 9.24,0.85 13.35,6.81 13.76,15.29 1.05,24.44 0.25,48.67 -12.08,73.33z"/>
   <path class="fil1" d="M1245.84 1574.26c11.14,3.89 11.25,10.99 8.46,16.74 -8.8,18.18 -14.71,24.35 -52.07,51.31 -4.35,3.13 -9.66,2.27 -14.04,-3.7 58.11,-70 44.78,-55.01 57.65,-64.35z"/>
   <path class="fil1" d="M2785.17 1855.45c9.26,1.68 13.24,7.56 13.75,16.14 1.2,20.34 -5.59,37.44 -20.96,51.83 -16.48,-11.4 -13.39,-27.54 -11.82,-42.31 1.2,-11.57 5.41,-22.74 19.04,-25.66z"/>
   <path class="fil1" d="M2970.73 723.87c4.6,-1.9 7.9,-3.29 12.98,-5.39 33.36,24.03 49.3,32.05 55.34,56 1.08,4.3 -1.02,9.38 -1.64,14.06 -4.49,-0.51 -7.93,0.15 -9.2,-1.22 -19.21,-20.6 -41,-38.96 -57.48,-63.45z"/>
   <path class="fil1" d="M2061.05 1959.02c-9.32,8.15 -15.49,6.53 -20.29,1.87 -10.42,-10.06 -16.17,-22.81 -18.15,-37.17 -0.99,-7.33 1.28,-10.45 14.06,-19.86 18.02,1.17 17.33,16.34 24.38,55.15z"/>
   <path class="fil1" d="M3569.04 2347.38c3.15,2.78 6.93,6.17 10.28,9.17 -5.4,24.24 -14.15,41.94 -36.28,53.61 -6.65,-10.94 -15.88,-10.31 0.09,-44.83 3.78,-8.19 9.49,-15.66 25.91,-17.96z"/>
   <path class="fil1" d="M1643.67 1268.25c-16.94,-16.5 -35.06,-32.55 -23.55,-60.65 20.54,-0.83 25.26,2.47 31.3,20.59 4.09,12.39 6.08,24.81 0.11,37.08 -0.77,1.51 -4.32,1.71 -7.87,2.98z"/>
   <path class="fil1" d="M425.61 2310.24c-28.36,-21.62 -43.48,-28.33 -35.97,-45.8 7.35,-17.19 30.96,-13.8 36.65,0.94 3.18,8.32 5.46,17.22 6.37,26.07 0.45,4.27 -3.19,8.96 -7.05,18.78z"/>
   <path class="fil1" d="M1097.59 2921.79c-7.56,8.3 -16.37,5.45 -24.72,2.22 -13.56,-5.28 -25.34,-12.56 -26.91,-28.76 4.41,-21.54 24.6,-15.37 32.7,-9.34 10.88,8.06 11.54,10.7 18.92,35.88z"/>
   <path class="fil1" d="M3264.14 1597.1c15.92,-4.49 20.75,2.62 24.18,11.9 -5.17,31.85 -5.17,31.85 -20.14,47.91 -11.39,-1.54 -12.76,-11.31 -16.48,-20.83 0.71,-13.24 4.24,-26.74 12.44,-38.98z"/>
   <path class="fil1" d="M3104.15 2949.35c-2.5,-2.44 -5.17,-5.06 -7.22,-7.05 1.43,-26.45 9.13,-46.77 32.02,-61.37 5.26,5.15 9.46,9.24 12.96,12.65 -9.72,32.45 -9.72,32.45 -37.76,55.77z"/>
   <path class="fil1" d="M1410.56 2526.86c26.45,11.48 29.69,28.75 24.85,49.35 -16.48,6.73 -26.36,3.2 -35.54,-11.82 -12.72,-20.77 4.55,-30.89 10.69,-37.53z"/>
   <path class="fil1" d="M3064.15 3075.07c5.65,4.81 10.31,8.76 15,12.7 -2.36,24.21 -14.69,39.29 -34.92,48.61 -7.65,-2.98 -9.74,-8.2 -8.09,-15.59 3.67,-16.71 8.15,-32.96 28.01,-45.72z"/>
   <path class="fil1" d="M2587.16 1002.17c27.62,10.65 11.99,40.71 -3.33,66.17 -8.78,2.42 -12.27,-1.56 -12.76,-6.84 -3.72,-40.95 -4.41,-54.21 16.08,-59.33z"/>
   <path class="fil1" d="M1956.01 2449.18c15.88,11.05 12.44,24.81 12.48,37.31 0.02,11.53 0.39,23.64 -13.02,31.11 -15,-14.32 -18.02,-32.96 -18.27,-52.42 -0.12,-7.39 4.57,-10.85 18.81,-16z"/>
   <path class="fil1" d="M1408.59 830.19c5.52,0.26 10.31,0.48 15.32,0.71 13.41,22.76 10.68,44.84 2.92,67.23 -12.24,0.82 -16.45,-8.41 -19.12,-16.08 -5.4,-15.51 -12.31,-31.73 0.88,-51.85z"/>
   <path class="fil1" d="M1935.46 2709.32c28.08,6.91 18.7,43.33 0.91,65.64 -15.63,-17.53 -17.44,-22.91 -16.22,-43.96 0.56,-9.8 4.22,-17.3 15.31,-21.68z"/>
   <path class="fil1" d="M3299.32 2262.69c-1.06,-32.87 1.47,-59.67 24.97,-78.79 10.12,1.62 14.49,7.14 13.04,13.87 -5.15,24.18 -16.02,45.32 -38.01,64.92z"/>
   <path class="fil1" d="M1184.87 1897.42c11.54,-20.69 11.54,-20.69 28.78,-15.32 7.42,20.6 4.01,42.08 2.27,62.25 -13.69,8.67 -14.29,-2.01 -31.06,-46.93z"/>
   <path class="fil1" d="M2585.62 2543.94c31.03,14.32 10.49,47.56 -9.65,58.93 -8.52,-0.57 -11.05,-7.27 -11.59,-13.02 -1.76,-18.5 0.91,-35.69 21.24,-45.91z"/>
   <path class="fil1" d="M2922.68 1897.24c7.36,8.67 11.37,13.35 15.26,17.93 -2.33,20.6 -9.3,38.36 -19.95,54.67 -1.7,2.64 -5.68,3.83 -10.37,6.85 -5.48,-21.96 -4.72,-42.22 0.45,-62.17 1.37,-5.22 7.56,-9.2 14.6,-17.28z"/>
   <path class="fil1" d="M1485.82 2728.25c-3.05,-0.8 -7.36,-0.69 -9.83,-2.79 -12.78,-10.82 -25.85,-21.59 -34.32,-38.76 4.12,-6.16 8.09,-12.07 11.5,-17.13 4.8,0.69 7.93,0.2 9.72,1.54 17.95,13.18 24.46,32.13 26.02,53.38 0.06,0.91 -1.59,1.96 -3.09,3.75z"/>
   <path class="fil1" d="M2888.5 1079.57c14.74,10.51 12.67,21.42 11.33,31.22 -2.87,21.17 -5.54,42.7 -22.47,62.81 -6.82,-28.83 -5.8,-54.26 -1.22,-79.49 0.91,-5.04 7.48,-9.07 12.36,-14.55z"/>
   <path class="fil1" d="M1762.55 2674.83c31.8,18.84 21.29,50.43 32.54,71.54 -6.8,9 -11.79,5.62 -14.44,1.47 -27.84,-43.44 -26.11,-45.71 -25.22,-59.44 0.22,-3.44 3.38,-6.71 7.13,-13.58z"/>
   <path class="fil1" d="M3619.92 2141.53c-9.46,1.76 -13.92,2.62 -19.94,3.75 -3.92,-10.69 -7.39,-20.03 -11.11,-30.12 7.08,-20.8 3.47,-45.99 27.59,-63.18 2.67,31.31 -12.53,59.92 3.46,89.55z"/>
   <path class="fil1" d="M3191.09 1402.22c-3.35,-5 -7.44,-8.72 -8.55,-13.19 -4.35,-17.35 1.76,-32.7 11.85,-46.4 8,-10.88 27.9,-5.25 26.05,10.69 -2.33,20 -12.62,35.4 -29.35,48.89z"/>
   <path class="fil1" d="M3173.16 2854.37c-4.88,-20.77 0.74,-35.78 12.99,-48.65 5.88,-6.19 12.98,-7.96 22.02,-2.67 10.71,15.2 1.22,28.27 -7.11,41.14 -5.76,8.95 -10.15,10.23 -27.91,10.17z"/>
   <path class="fil1" d="M1681.74 2930.35c11.68,0.43 19.12,6.59 23.61,16.9 5.74,13.24 8.98,26.54 1.08,41.31 -28.84,-8.89 -53.02,-48.15 -24.69,-58.21z"/>
   <path class="fil1" d="M3046.96 2711.4c10.6,-32.79 8.95,-60.69 30.15,-83.17 5.88,3.89 10.86,7.16 15.17,10.06 -6.28,32.62 -18.58,54.07 -45.32,73.11z"/>
   <path class="fil1" d="M1718.03 2597.81c21.46,16.5 28.73,36.06 21.2,63.5 -5.56,-1.67 -23.75,-0.84 -35.91,-36.7 -3.78,-11.22 -1,-20.49 14.72,-26.8z"/>
   <path class="fil1" d="M2585.6 1243.68c6.11,21.68 -6.34,39.67 -12.25,57.85 -5.54,0.42 -7.28,1.02 -7.7,0.54 -12.78,-15.09 -13.38,-32.91 -9.49,-50.75 1.22,-5.63 15.77,-26.74 29.44,-7.64z"/>
   <path class="fil1" d="M2477.4 1711.74c7.39,1.96 14.32,3.78 20.77,5.51 7.79,24.35 -2.19,38.81 -19.63,49.75 -12.7,-2.07 -14.57,-11.87 -16.48,-20.23 -2.84,-12.41 3.22,-22.5 15.34,-35.03z"/>
   <path class="fil1" d="M1699.17 1013.57c16.31,5.14 35.94,5.08 33.3,29.31 -1.1,10.2 -3.57,19.97 -13.19,28.33 -13.09,-6.42 -19.97,-18.52 -23.81,-31.62 -1.82,-6.19 1.76,-13.98 3.7,-26.02z"/>
   <path class="fil1" d="M3051.65 1213.62c11.59,4.6 12.81,10.71 12.93,17.21 0.31,21.94 -3.5,42.99 -15.34,61.91 -0.82,1.28 -4.28,0.97 -8.74,1.82 1.81,-27.16 -10.15,-55.31 11.16,-80.94z"/>
   <path class="fil1" d="M2568.58 1351.33c-3.96,22.3 -8.24,43.3 -19.01,66.88 -3.81,-5.57 -6.97,-8.41 -7.93,-11.88 -4.97,-17.7 -5.68,-35.88 -1.56,-53.67 1.17,-5.15 7.76,-8.98 13.3,-15 6.08,5.45 10.57,9.54 15.21,13.67z"/>
   <path class="fil1" d="M1624.58 1475.27c-21.13,-12.11 -28.27,-31.02 -33.07,-51.03 -2.33,-9.72 -1.11,-13.3 5.77,-28.7 10.63,-2.56 17.13,8.69 18.13,15.51 3.15,21.4 6.14,42.79 9.17,64.22z"/>
   <path class="fil1" d="M1899.1 1567.89c-16.68,-18.92 -29.01,-35.94 -24.44,-59.78 14.01,-7.68 23.04,-7.53 26.74,1.19 7.52,17.79 15.7,35.94 -2.3,58.58z"/>
   <path class="fil1" d="M3386.51 1585.65c-6.59,-30.43 -7.64,-53.3 7.34,-73.98 15.48,3.38 21.5,7.56 20.51,14.55 -2.84,19.97 -7.96,39.15 -27.85,59.44z"/>
   <path class="fil1" d="M3558.81 1621.56c10.99,-3.43 5.74,-4.94 19.89,2.88 3.61,25.17 -9.97,44.58 -18.61,68.02 -5.43,-4.26 -10.15,-6.11 -10.52,-8.58 -3.07,-20.83 -2.95,-41.45 9.24,-62.31z"/>
   <path class="fil1" d="M420.8 1814.85c-25.43,-13.84 -26.11,-14.66 -37.44,-44.75 6.19,-13.67 3.55,-9.32 11.25,-15.23 3.07,1.02 7.27,1.36 10,3.55 16.33,13.21 19.2,32.3 21.22,51.51 0.15,1.42 -3.27,3.26 -5.04,4.91z"/>
   <path class="fil1" d="M3143.9 1839.31c-11.45,-5.11 -11.28,-12.11 -11.08,-18.12 1.53,-48.07 4.91,-40.86 11.79,-49.15 11.22,-1.2 15.37,5.03 19.77,13.6 -2.92,18.28 -8.67,36.26 -20.48,53.67z"/>
   <path class="fil1" d="M1924.96 2092.43c-15.63,-20.11 -23.21,-38.27 -18.89,-59.49 1.02,-5.02 7.36,-9 10.54,-12.61 12.98,2.16 16.11,10.94 18.32,19.44 3.61,13.72 1.85,21.31 -9.97,52.67z"/>
   <path class="fil1" d="M684.05 2151.57c-19.38,2.67 -29.5,-6.76 -36.71,-19.78 -4.82,-8.72 -3.43,-17.53 5.91,-25.48 21.74,-3.44 31.22,10.54 37.39,27.93 0,6.3 1.85,1.7 -6.59,17.33z"/>
   <path class="fil1" d="M1867.68 2349.46c6.73,-1.45 11.48,-2.47 16.22,-3.49 21.62,19.77 12.73,43.56 13.33,64.74 -7.73,5.46 -11.79,1.45 -14.26,-2.59 -10.32,-16.67 -18.95,-33.98 -15.29,-58.67z"/>
   <path class="fil1" d="M2500.85 1188.05c4.54,6.25 11.81,11.74 12.56,18.01 2.18,18.35 -2.53,35.12 -20.01,47.65 -15.28,-14.15 -10.96,-31.48 -10.91,-47.54 0.02,-8.35 3.98,-14.8 18.35,-18.12z"/>
   <path class="fil1" d="M1630.83 2907.16c-15.03,-10 -26.59,-17.64 -38.15,-25.34 -0.72,-7.62 -1.28,-13.78 -1.93,-21.08 5.11,-2.47 9.49,-6.31 13.86,-6.28 21.99,0.26 32.24,18.7 33.47,38.9 0.17,2.98 -3.09,6.16 -7.25,13.8z"/>
   <path class="fil1" d="M2784.8 2996.69c-10.14,-18.24 2.27,-36.99 16.71,-53.21 1.98,-2.25 7.09,-2.36 10.77,-2.39 5.45,0 6.65,1.74 14.12,15.55 -14.54,25.51 -14.54,25.51 -41.6,40.06z"/>
   <path class="fil1" d="M2382.26 3112.13c-3.16,-24.81 1.13,-42.14 23.21,-53.65 4.46,3.13 11.22,5.57 13.72,10.26 7.24,13.58 -3.12,33.35 -17.02,42.07 -5.97,3.79 -11.71,2.96 -19.92,1.31z"/>
   <path class="fil1" d="M2485.93 3199.5c5.54,5.42 9.92,9.77 14.58,14.38 -4.12,20.54 -15.96,33.41 -33.46,40.99 -3.42,1.48 -8.81,-1.67 -14.52,-2.98 5.99,-20.94 9.32,-40.46 33.41,-52.39z"/>
   <path class="fil1" d="M2778.32 3356.87c3.04,3.13 6.53,6.68 10.43,10.68 -7.93,27.02 -28.19,31.57 -48,35.37 -6.7,-4.77 -7.81,-9.57 -5.51,-14.63 7.93,-17.48 21.43,-27.73 43.07,-31.43z"/>
   <path class="fil1" d="M1984.65 717.6c4.72,-4.35 8.33,-7.7 11.45,-10.63 3.58,1.06 6.65,1.02 8.21,2.56 11.19,11.03 8.1,2.7 17.67,68.5 -18.29,-5.51 -23.18,-13.49 -37.33,-60.43z"/>
   <path class="fil1" d="M1794.26 2001.89c19.06,20.23 19.69,39.57 9.63,61.43 -20.51,-11.44 -23.75,-16.02 -25.59,-34.89 -1.14,-11.81 0.39,-14.66 15.96,-26.54z"/>
   <path class="fil1" d="M3462.8 2416.11c5.96,5.99 10.2,10.23 14.23,14.34 -7.1,22.39 -18.98,38.3 -39.61,46.94 -9.6,-15.83 -3.35,-31.85 25.38,-61.28z"/>
   <path class="fil1" d="M2057.72 1801.27c-12.22,-23.81 -21.06,-45.69 -18.15,-71.3 4.43,-1.59 8.13,-4.28 11.25,-3.74 3.33,0.56 7.39,3.55 8.92,6.62 11.37,21.96 13.58,44 -2.02,68.42z"/>
   <path class="fil1" d="M2877.2 1501.77c13.52,27.02 -1.31,44.67 -13.61,63.5 -16.37,-7.05 -10.8,-20.43 -12.05,-31.02 -4.07,-34.24 16.2,-30.57 25.66,-32.48z"/>
   <path class="fil1" d="M2704.88 1134.4c-3.53,-27.87 -6.91,-53.56 9.74,-75.35 12.76,-0.79 17.36,4.32 19.2,12.73 -9.8,35.71 -14.32,45.77 -28.94,62.62z"/>
   <path class="fil1" d="M1728.85 3107.09c21.68,-9.2 25.66,10.2 43.05,47.17 -4.72,6.68 -9.49,8.1 -14.15,4.46 -21.48,-16.74 -46.34,-32.62 -28.9,-51.63z"/>
   <path class="fil1" d="M723.2 2540.36c-32.76,-11.36 -35.55,-14.46 -36.04,-41.08 12.11,-2.7 23.02,-10.29 37,5.31 10.8,12.08 10.42,18.84 -0.96,35.78z"/>
   <path class="fil1" d="M3051.28 2118.92c-9.12,-34.69 -6.7,-45.8 14.24,-66.03 7.87,-0.09 12.72,5.28 13.04,11.61 1.05,21.63 -6.76,40.09 -23.47,54.33 -0.76,0.62 -2.53,0.08 -3.81,0.08z"/>
   <path class="fil1" d="M3109.98 1902.96c-34.55,56.54 -26.4,45.68 -37.11,50.23 -4.74,-25.35 -3.98,-48.11 15.92,-65.3 11.45,-2.19 15.91,3.72 21.2,15.06z"/>
   <path class="fil1" d="M1860.78 888.92c-22.76,-24.01 -27.19,-46.54 -33.47,-66.37 3.07,-10.42 7.27,-16.28 18.58,-14.12 18.78,21.43 11.88,47.44 14.89,80.49z"/>
   <path class="fil1" d="M2822.16 2716.37c-3.01,-34.15 -2.18,-36.6 20.66,-64.76 4.8,1.28 10.4,2.76 17.19,4.61 -0.68,7.9 5.34,28.81 -37.85,60.15z"/>
   <path class="fil1" d="M2251.13 3230.32c-3.38,-6.05 -5.26,-9.37 -7.16,-12.84 3.63,-16.88 7.19,-33.53 26.51,-39.44 10.77,1.48 16.37,7.59 17.76,18.78 -4.83,17.39 -18.06,26.68 -37.1,33.5z"/>
   <path class="fil1" d="M2897.42 3226.11c2.93,-25.85 11.82,-42.19 25.72,-58.75 6.82,1.62 13.72,3.24 19.77,4.69 0.71,4.82 2.1,7.76 1.28,9.82 -7.67,20.01 -19.4,36.17 -46.77,44.24z"/>
   <path class="fil1" d="M2887.45 1376.39c7.7,35 7.5,36.56 -7.42,75.01 -8.2,0.96 -11.25,-4.98 -12.33,-11 -3.44,-19.03 -3.63,-38.16 -0.06,-58.81 6.56,-1.73 12.22,-3.24 19.8,-5.2z"/>
   <path class="fil1" d="M1544.8 2324.85c5.06,0 11.23,0 16.4,0 13.61,10.41 18.21,23.3 14.92,38.22 -1.19,5.4 -6.28,9.89 -9.41,14.52 -19.75,-7.98 -43.33,-34.5 -21.91,-52.74z"/>
   <path class="fil1" d="M2754.06 2103.63c-16.14,-35.45 -15.77,-41.59 2.41,-63.76 13.3,1.73 17.44,4.78 18.19,13.3 1.59,18.21 -0.74,24.26 -20.6,50.46z"/>
   <path class="fil1" d="M2625.75 1338.91c12.35,4.35 16.81,11.48 16.65,21.68 -0.22,16.56 -4.91,30.48 -21.68,37.28 -15.25,-7.84 -12.93,-21.59 -12.56,-34.32 0.31,-10.91 1.31,-11.74 17.59,-24.64z"/>
   <path class="fil1" d="M1383.3 2317.98c13.61,14.8 16.77,31.34 9.46,52.39 -3.95,-1.47 -27.81,-5.06 -32.19,-38.96 2.7,-12.58 9.83,-17.52 22.73,-13.43z"/>
   <path class="fil1" d="M692.37 2368.43c-26.91,-11.57 -55.55,-44.01 -30,-58.33 2.16,-1.22 11.98,0.62 13.83,3.26 10.74,15.71 19.66,31.96 16.17,55.06z"/>
   <path class="fil1" d="M2439.54 2668.18c-3.39,-3.2 -5.97,-5.65 -9.26,-8.78 5.03,-19.58 4.82,-41.29 25.74,-52.22 27.7,2.39 5.99,42.39 -16.48,61z"/>
   <path class="fil1" d="M3496.1 2335.05c3.64,-21.09 8.61,-40.89 21.8,-57.17 2.95,-3.63 8.07,-5.59 11.88,-8.15 11.98,11.17 14.34,17.61 9.14,26.39 -10.03,16.96 -23.72,30.31 -42.81,38.93z"/>
   <path class="fil1" d="M1979.26 933.78c17.04,-1.81 23.61,1.28 25.96,10.78 4.29,17.21 -0.11,32.81 -7.39,47.67 -11.28,-0.34 -13.44,-8.19 -16.34,-15.06 -6.79,-16.13 -6.7,-16.17 -2.24,-43.39z"/>
   <path class="fil1" d="M2703.56 2254.7c-17.76,-17.07 -17.76,-17.07 -14.43,-48.67 6.17,-8.89 14.12,-10.14 24.29,-5.2 1.54,2.59 4.44,5.68 5.11,9.17 3.16,16.26 -1.7,30.35 -14.97,44.69z"/>
   <path class="fil1" d="M2072.41 2194.94c10.57,6.54 14.69,9.09 18.76,11.57 3.97,20.37 3.09,39.64 -1.56,58.73 -0.8,3.27 -4.27,5.88 -7.76,10.43 -11.7,-25.31 -16.73,-49.19 -9.43,-80.72z"/>
   <path class="fil1" d="M2072.02 1705.41c-4.52,-25.66 -18.78,-50.09 -6.34,-76.15 8.16,-2.21 13.09,0.52 14.83,5.41 7.87,22.36 8.15,44.97 -0.23,67.34 -0.6,1.56 -4.34,1.87 -8.26,3.41z"/>
   <path class="fil1" d="M2816.99 1050.16c2.53,6.88 8.04,14.15 6.96,20.29 -3.37,19.52 -6.7,39.81 -24.77,56.4 -6.53,-23.13 -4.66,-43.27 -1.28,-63.45 0.8,-4.74 5.04,-7.42 19.1,-13.24z"/>
   <path class="fil1" d="M2007.1 2722.68c-0.09,21 -6.31,37.19 -16.68,52.74 -15.34,-17.05 -15.34,-17.05 -13.32,-52.11 13.24,-11.9 13.27,-11.88 30,-0.63z"/>
   <path class="fil1" d="M3015.93 3087.41c-10.52,38.27 -13.18,41.14 -36.2,41.42 -12.41,-20.08 1.82,-44.43 16.74,-47.02 5.37,-0.94 11.56,3.09 19.46,5.59z"/>
   <path class="fil1" d="M329.38 2153.89c22.48,-8.81 32.67,2.64 41.57,20.83 -2.53,4.52 -4.32,11.54 -8.78,14.4 -4.57,2.99 -12.3,3.75 -17.73,2.25 -16.03,-4.43 -20,-14.63 -15.06,-37.48z"/>
   <path class="fil1" d="M959.33 2465.06c-5.17,6.6 -8.18,10.43 -11.7,14.95 -25.55,-6.19 -42.23,-29.55 -33.05,-41.85 7.41,-9.92 23.84,-4.06 29.55,2.24 5.79,6.36 9.29,14.77 15.2,24.66z"/>
   <path class="fil1" d="M3364.49 1627.41c4.63,5.57 8.53,10.2 12.54,15 -5.08,19.23 -15.48,33.3 -27.79,46.22 -8.89,-5.05 -12.31,-12.39 -10.17,-20.28 3.83,-14.43 3.87,-31.4 25.43,-40.94z"/>
   <path class="fil1" d="M1084.61 2128.01c-18.19,-7.64 -25.66,-19.97 -28.19,-35.71 1.71,-9.69 5.04,-17.5 16.28,-18.13 23.9,14.52 26.93,26.39 11.91,53.84z"/>
   <path class="fil1" d="M3126.06 3127.9c5.04,4.34 9.57,8.21 13.24,11.37 -0.59,4.52 -0.06,7.64 -1.39,9.34 -15.31,19.41 -15.4,19.32 -44.86,33.87 -1.36,-1.9 -4.26,-4.23 -3.83,-5.68 5.71,-20.31 16.11,-37.19 36.85,-48.9z"/>
   <path class="fil1" d="M1724.79 1677.99c7.16,8.91 13.27,13.2 14.35,18.52 3.53,17.28 6.25,34.8 6.56,52.56 0.03,0.8 -1.68,1.67 -3.38,3.24 -19.83,-12.87 -24.72,-34.26 -32.56,-55.55 4.06,-5.06 7.84,-9.8 15.03,-18.77z"/>
   <path class="fil1" d="M3330.97 2904.2c-6.99,-26.99 7.59,-41.19 20.06,-54.69 11.17,-3.37 17.25,-0.36 20.49,8.27 -8.98,28.84 -10.17,30.29 -40.54,46.42z"/>
   <path class="fil1" d="M1826.28 2957.11c-15.03,4.5 -22.87,-1.9 -29.66,-10.17 -7.7,-9.34 -12.78,-19.38 -5.03,-33.98 4.12,-1.17 9.88,-2.81 14.21,-4 4.11,2.13 6.96,2.72 8.57,4.51 10.8,11.88 16.82,25.23 11.91,43.64z"/>
   <path class="fil1" d="M1761.47 2911.59c-19.06,-7.16 -32.21,-18.22 -36.82,-36.82 -1.28,-5.15 2.79,-11.59 4.74,-18.78 6.57,1.05 12.93,0.14 15.97,2.9 15.06,13.49 23.13,29.78 16.11,52.7z"/>
   <path class="fil1" d="M2158.91 3350.36c11.56,-27.7 24.49,-42.98 39.52,-56.03 12.3,1.82 12.3,1.82 19.58,11.31 -7.51,24.98 -29.04,32.85 -59.1,44.72z"/>
   <path class="fil1" d="M2910.29 2642.19c-10.4,-31.22 -5.62,-52.96 15.77,-71.51 8.42,4.63 5.66,1.99 10.8,10.14 -7.11,37.68 -9.95,44.27 -26.57,61.37z"/>
   <path class="fil1" d="M1631.12 2573.4c11.11,-13.32 7.05,-9.63 15.68,-12.61 18.27,3.67 16.74,20.29 20.77,32.99 3.24,10.17 2.7,10.34 -6.02,23.5 -18.38,-15.09 -18.38,-15.09 -30.43,-43.87z"/>
   <path class="fil1" d="M556.5 2456.45c-22.36,-11.42 -22.36,-11.42 -35.77,-30.85 2.33,-13.35 2.33,-13.35 13.69,-22.76 5.71,3.64 13.27,6.48 17.98,11.85 10.48,11.97 10.4,16.77 4.09,41.77z"/>
   <path class="fil1" d="M3048.13 2239.13c10.62,8.58 10.45,17.79 7.46,26.33 -4.91,14.21 -10.08,28.87 -26.45,35.31 -10.99,-10.45 -7.33,-22.27 -4.48,-32.55 3.29,-11.82 6.87,-24.92 23.47,-29.1z"/>
   <path class="fil1" d="M3577.81 2711c12.22,-19.5 15,-38.3 29.57,-49.61 8.78,-1.39 13.33,2.33 17.25,12.05 -13.33,31.99 -13.7,35.99 -46.82,37.56z"/>
   <path class="fil1" d="M2646.91 1180.26c-5.99,17.44 -5.06,36.37 -22.07,49.3 -3.01,-3.38 -6.68,-5.65 -7.36,-8.59 -3.67,-16.31 -3.33,-32.7 -1.08,-47.87 16.68,-9.8 16.74,-9.92 30.52,7.16z"/>
   <path class="fil1" d="M2045.37 1577.15c-11.57,-0.57 -13.56,-8.52 -16.48,-15.37 -6.34,-14.86 -6.25,-14.89 -3.53,-39.32 3.93,-1 8.78,-3.67 13.16,-2.99 8.75,1.34 12.72,8.61 13.8,16.68 1.96,14.55 -3.52,27.76 -6.96,41z"/>
   <path class="fil1" d="M3814.72 2104.31c28.1,16.25 37.67,43.87 44.64,72.99 1.21,5.19 0.17,10.17 -7.45,13.01 -15.65,-9.12 -13.46,-28.35 -20.74,-42.36 -7.02,-13.59 -11.91,-28.28 -17.73,-42.47l1.28 -1.17z"/>
   <path class="fil1" d="M2646.2 1115.37c-5.89,-16.28 -9.74,-26.94 -12.68,-35.12 1.59,-13.89 5.52,-23.04 16.17,-27.67 9.88,-1.85 13.75,5.28 19.68,11.99 -2.3,16.62 -7.46,31.93 -23.18,50.8z"/>
   <path class="fil1" d="M3644.24 2365.99c13.19,8.5 17.02,14.77 13.39,23.75 -6.43,15.91 -15.77,29.46 -33.1,35.2 -0.69,0.22 -1.91,-1.25 -5,-3.53 -0.89,-11.54 6.36,-23.07 8.24,-35.43 0.71,-4.77 4.31,-9.4 7.5,-13.41 2.3,-2.85 6.06,-4.52 8.98,-6.59z"/>
   <path class="fil1" d="M3214.05 2732.74c-4.24,-34.97 -3.01,-38.16 19.26,-56.28 9.06,0.11 13.81,5.28 16.02,14.49 -4.26,17.84 -15.05,30.94 -35.28,41.79z"/>
   <path class="fil1" d="M3137.17 2461.2c-3.64,-2.44 -6.62,-4.48 -10.06,-6.79 -4.32,-23.95 1.67,-44.09 16.08,-60.61 15.2,2.33 15.94,10.35 14.38,17.96 -3.55,17.53 -10.12,33.92 -20.4,49.43z"/>
   <path class="fil1" d="M3018.94 1463.65c-7.82,-23.81 -9.61,-44.24 8.49,-61.26 11.22,-1.39 15.26,5.06 19.3,14.69 -4.66,16.16 -5.26,36.19 -27.79,46.57z"/>
   <path class="fil1" d="M1940.02 3191.48c-21.22,-2.02 -30.15,-15.74 -34.35,-33.22 4.54,-20.06 27.42,-17.9 34.83,-3.18 5.88,11.76 9.12,23.72 -0.48,36.4z"/>
   <path class="fil1" d="M3296.11 1938.67c-11.37,-28.84 -7.98,-48.61 4.07,-65.74 8.49,-4.74 14.25,-4.69 20.59,3.75 3.53,21.2 -9.2,38.1 -24.66,62z"/>
   <path class="fil1" d="M3518.34 2762.99c-8.24,-25.37 3.25,-40.54 19.78,-53.44 10.34,1.76 5.23,-2.25 19.27,12.7 -6.4,20.39 -16.6,34.91 -39.05,40.74z"/>
   <path class="fil1" d="M3137.56 2292.63c-3.38,-1.19 -5.62,-1.96 -7.84,-2.79 3.92,-46.91 4.32,-47.96 23.24,-63.55 8.87,4.45 5.54,1.73 12.05,10.74 -1.39,21.85 -14.06,38.98 -27.45,55.6z"/>
   <path class="fil1" d="M3127.17 2592.98c-5.63,-25.46 -1.99,-42.81 11.88,-56.48 10.53,-2.99 16.93,-0.48 21.22,9.09 0.45,20.57 -10.82,34.3 -33.1,47.39z"/>
   <path class="fil1" d="M2484.96 1368.13c8.32,-7.82 13.89,-8.1 22.04,-0.72 5.88,21.31 -0.8,42.65 -11.28,63.25 -6.82,0.46 -10.28,-2.96 -11.28,-8.43 -3.32,-17.96 -3.49,-35.92 0.52,-54.1z"/>
   <path class="fil1" d="M1159.16 1885.15c-19.77,-14.95 -19.77,-14.95 -26.39,-39.89 1.42,-2.93 2.33,-7.02 4.82,-9.57 8.13,-8.27 28.76,-13.87 31.63,22.53 0.56,7.25 -5.97,18.5 -10.06,26.94z"/>
   <path class="fil1" d="M1788.72 1798.06c4.18,-1.96 8.59,-3.98 11.48,-5.32 12.44,3.59 15.88,12.39 17.69,21.09 3.05,14.55 -1.87,27.7 -9.91,42.31 -15.2,-17.59 -25.74,-34.24 -19.26,-58.07z"/>
   <path class="fil1" d="M1693.22 2466.72c-2.04,11.33 -2.52,20.59 -9.4,27.81 -2.22,0 -5.52,1.06 -6.76,-0.13 -9.58,-8.98 -16.93,-19.55 -22.08,-34.27 3.5,-5.06 7.62,-11.02 11.14,-16.11 16.4,0.06 22.25,9.6 27.1,22.7z"/>
   <path class="fil1" d="M954.82 2585.5c25.77,-7.78 27.95,-6.44 42.02,24.18 -2.5,28.02 -54.56,4.98 -42.02,-24.18z"/>
   <path class="fil1" d="M1948.31 787.29c22.04,25.35 23.01,29.92 15.54,63.22 -20.77,-11.23 -28.22,-28.73 -26.17,-50.6 0.35,-3.81 5.83,-7.14 10.63,-12.62z"/>
   <path class="fil1" d="M1766.67 452.7c-30.61,1.93 -61.2,3.87 -95.07,6.02 -1.14,-1.05 -4.61,-4.26 -9.32,-8.63 36.73,-21.99 71.23,-4.27 104.39,2.61z"/>
   <path class="fil1" d="M2020.06 2276.95c16.78,18.52 11.07,37.59 10.88,54.66 -7.22,6.19 -12.14,2.33 -14.5,-1.25 -24.43,-37.64 -22.64,-45 3.61,-53.41z"/>
   <path class="fil1" d="M2389.53 2644.71c14.75,19.69 13.43,25.12 -11.42,52.63 -6.34,0.91 -10.2,-2.82 -10.63,-8.19 -1.79,-24.21 -0.88,-42.56 22.05,-44.44z"/>
   <path class="fil1" d="M2032.39 2412.16c5.88,-0.79 10.51,-1.45 14.2,-1.93 2.67,3.42 5.18,5.18 5.72,7.42 4.91,21.09 -1.76,40.52 -7.53,59.87 -9.69,1.37 -12.22,-5.11 -13.5,-10.91 -3.64,-16.54 -4.41,-33.27 1.11,-54.44z"/>
   <path class="fil1" d="M2502.15 2611.79c-6.6,-17.91 -5.45,-33.25 -1.45,-48.28 2.44,-9.26 8.69,-15.75 23.19,-17.28 1.79,1.62 5.48,5.02 8.01,7.39 -3.46,24.92 -12.52,42.19 -29.74,58.17z"/>
   <path class="fil1" d="M3519 2440.98c5.2,4.71 8.84,7.98 12.05,10.85 -8.18,30.07 -8.18,30.07 -31.93,43.7 -7.42,-2.76 -8.13,-9.09 -6.96,-15.32 3.12,-16.65 5.62,-20.06 26.84,-39.23z"/>
   <path class="fil1" d="M1077.05 1886.02c5.31,-2.87 9.66,-5.23 13.01,-7.07 27.65,7.24 17.39,41.22 4.04,54.23 -19.69,-9 -20,-9.8 -17.04,-47.16z"/>
   <path class="fil1" d="M1330.83 2984.78c-10.4,8.1 -16.74,1.93 -23.3,-1.25 -11.65,-5.63 -22.3,-12.39 -26.54,-28.07 3.35,-3.84 7.3,-8.27 11.73,-13.3 21.02,7.41 31.71,22.07 38.11,42.61z"/>
   <path class="fil1" d="M3257.07 2951c13.15,-3.9 20.94,-2.53 24.49,10.28 -4.72,18.04 -19.8,27.13 -36.17,36.08 -3.16,-1.71 -6.28,-3.35 -9.8,-5.23 3.52,-15.86 10.54,-29.1 21.48,-41.14z"/>
   <path class="fil1" d="M1386.89 1769.59c-27.79,-17.65 -31.11,-24.49 -27.71,-51.74 14.84,-6.53 23.93,-4.37 27.71,6.79 4.66,13.76 4.94,27.54 0,44.95z"/>
   <path class="fil1" d="M3206.89 1759.33c-7.67,-27.76 -7.42,-33.08 2.79,-59.16 12.44,-6.59 19.06,-0.54 23.55,11.74 -4.78,17.3 -5.65,37.48 -26.34,47.42z"/>
   <path class="fil1" d="M3380.57 2445.26c-6.19,17.79 -11.42,36.11 -33.59,43.53 -8.69,-23.07 -1.5,-40.32 11.68,-54.75 10.91,-3.64 17.13,-1.25 21.91,11.22z"/>
   <path class="fil1" d="M3033.18 3245.92c1.11,-21.37 1.11,-21.37 27.62,-37.36 12.42,0.88 18.21,7.59 17.35,22.24 -10.91,14.89 -25.11,22.22 -44.97,15.12z"/>
   <path class="fil1" d="M2612.31 2182.11c16.88,-6.14 16.88,-6.14 27.76,12.16 -8.7,26.11 -4.09,15.29 -17.44,40.8 -16.34,-12.59 -16.99,-15.92 -10.31,-52.96z"/>
   <path class="fil1" d="M3200.61 2178.41c-5.17,-16.33 -8.61,-27.21 -12.44,-39.2 3.67,-7.73 7.39,-15.6 11.37,-23.98 5.2,1.3 9.78,1.13 11.99,3.32 18.15,18.04 2.33,40.2 -10.91,59.86z"/>
   <path class="fil1" d="M3409.13 1084.6c-16.54,7.47 -28.45,4.03 -39.67,5.85 -52.51,8.52 -54.04,19.97 -68.36,9.17 2.98,-4.17 5.02,-9.43 8.83,-11.7 26.87,-15.86 70.8,-10.52 99.19,-3.32z"/>
   <path class="fil1" d="M1564.34 2084c3.04,1.98 6.28,4.09 10.26,6.7 5.03,14.49 5.32,28.84 -3.21,43.05 -22.5,-11.62 -27.87,-18.41 -25.71,-33.99 1.36,-10.11 7.5,-16.02 18.66,-15.76z"/>
   <path class="fil1" d="M3049.09 1041.95c9.12,0 13.89,0 17.84,0 2.13,3.57 4.18,5.62 4.63,7.93 3.67,20.23 -5.23,38.04 -10.62,56.37 -18.56,5.99 -12.91,-44.63 -11.85,-64.29z"/>
   <path class="fil1" d="M2652.65 1869.94c-3.46,-6.84 -7.28,-14.49 -11.81,-23.44 5.82,-7.08 11.11,-13.55 17.05,-20.83 7.19,2.59 12.89,4.63 17.07,6.11 7.7,9.18 8.09,17.76 3.98,26.34 -4.89,10.2 -12.7,15.43 -26.29,11.81z"/>
   <path class="fil1" d="M1632.03 3224.41c16.98,7.16 27.16,18.19 30.77,34.41 0.69,3.01 -2.16,6.79 -3.75,11.36 -17.25,-4.92 -32.28,-11.08 -40.57,-26.91 -1.9,-10.09 3.35,-14.89 13.56,-18.87z"/>
   <path class="fil1" d="M2417.31 2437.22c10.85,3.72 14.46,11.37 13.26,21.39 -1.7,14.15 -5.2,17.7 -28.33,29.81 -7.05,-16.11 -7.61,-11.2 -3.35,-41.66 10.37,-8.2 5.6,-5.62 18.41,-9.54z"/>
   <path class="fil1" d="M1294.4 1938.47c4.37,-4.34 8.67,-8.61 14.43,-14.34 5.85,5.14 29.94,16.13 14.12,55.89 -4.97,-2.13 -22.38,-2.59 -28.55,-41.54z"/>
   <path class="fil1" d="M730.67 2292.11c7.05,-4.65 13.05,-8.63 17.85,-11.85 18.36,4.27 24.41,16.23 26.85,32.82 -2.3,2.96 -5.31,6.77 -8.53,10.83 -16.87,-3.5 -30.52,-8.98 -36.17,-31.8z"/>
   <path class="fil1" d="M1118.1 2698.02c-16.14,-3.63 -31.45,-8.78 -39.58,-26.79 2.87,-5.26 5.8,-10.6 8.09,-14.78 18.98,-2.36 27.7,7.79 34.16,20.97 3.46,7.07 5.6,14.4 -2.67,20.59z"/>
   <path class="fil1" d="M3184.02 2335.93c-5.69,-27.59 -0.48,-46.82 12.64,-63.64 11.59,0.74 16.17,6.73 15.6,15.03 -1.28,18.19 -8.1,33.81 -28.24,48.61z"/>
   <path class="fil1" d="M2743.17 3320.05c-0.31,-14.04 8.46,-23.5 19.04,-30.46 5.62,-3.69 13.95,-3.29 20.48,-4.63 7.62,14.24 7.93,19.92 2.27,25.09 -9.8,8.87 -21.11,14.21 -34.49,14.09 -2.16,-0.03 -4.29,-2.33 -7.3,-4.09z"/>
   <path class="fil1" d="M1361 2223.41c12.79,23.84 12.19,24.01 7.93,43.91 -9,5 -14.12,-1.71 -19.03,-7.08 -8.33,-9.09 -19.58,-17.22 -14.63,-32.25 6.42,-9.06 14.74,-8.74 25.74,-4.57z"/>
   <path class="fil1" d="M2856.08 2214.3c11.08,2.64 13.83,10.51 11.19,20.23 -3.67,13.63 -13.21,23.49 -21.59,35 -11.42,-14.8 -12.95,-21.03 -9.89,-35.6 1.85,-8.84 4.57,-11.48 20.28,-19.63z"/>
   <path class="fil1" d="M1545.22 3325.11c-11,0 -17.61,1.42 -23.27,-0.31 -11.28,-3.41 -17.13,-13.5 -15.46,-23.49 3.18,-19.21 31.71,-21.23 38.47,1.64 1.65,5.6 0.25,12.11 0.25,22.17z"/>
   <path class="fil1" d="M3488.6 1563.03c-8.38,-13.75 -4.46,-27.47 -3.64,-40.63 0.83,-12.93 4.01,-25.2 14.41,-33.35 7.5,-0.85 10.68,3.09 10.97,8.55 1.22,23.41 -1.02,29.74 -21.74,65.43z"/>
   <path class="fil1" d="M1518.69 1175.26c-24.69,-15.97 -28.24,-23.21 -27.47,-51.37 6.65,-5.54 1.82,-4.74 17.5,-4.74 14.37,15.4 15.62,33.27 9.97,56.11z"/>
   <path class="fil1" d="M3329.12 2773.31c7.5,-19.43 7.84,-40.52 28.36,-49.15 8.98,2.27 11.79,8.07 10.99,14.88 -2.13,18.11 -11.08,31.54 -28.89,37.65 -1.82,0.65 -4.55,-1.39 -10.46,-3.38z"/>
   <path class="fil1" d="M1888.53 1360.73c3.13,36.74 3.13,36.74 -7.7,55.64 -17.28,-16.29 -14.68,-36.4 -14.94,-55.18 12.05,-8.24 12.05,-8.24 22.64,-0.46z"/>
   <path class="fil1" d="M2209.85 3152.39c-11.28,-19.83 -3.55,-36.48 20.26,-45.97 12.51,10.31 14.74,18.61 7.7,27.98 -7.22,9.52 -16.44,15.63 -27.95,17.99z"/>
   <path class="fil1" d="M3170.15 3077.78c-4.88,-2.9 -8.09,-4.78 -12.22,-7.22 3.44,-16.71 8.55,-32 21.25,-41.57 11.08,-3.09 17.07,0.2 21.11,9.67 -1.42,19.35 -14.26,30.31 -30.15,39.13z"/>
   <path class="fil1" d="M495.17 2085.28c-19.83,-3.32 -32.33,-13.07 -36.34,-31.17 8.8,-29.74 52.76,-4.97 36.34,31.17z"/>
   <path class="fil1" d="M2421.52 2527.63c11.85,3.7 16.48,10.77 16.68,20.77 0.22,12.5 -1.33,14.77 -19.6,30.97 -14.04,-4.23 -14.13,-16.13 -14.43,-27.56 -0.23,-11.19 3.49,-20.17 17.35,-24.18z"/>
   <path class="fil1" d="M3591.54 1485.46c3.58,2.14 6.74,4.01 10.57,6.31 1.88,24.55 -8.46,43.78 -23.38,62.19 -3.13,-2.79 -6.28,-4.46 -6.11,-5.6 11.03,-68.42 9.13,-55.57 18.93,-62.91z"/>
   <path class="fil1" d="M2566.65 1775.22c-9.8,-12.31 -7.73,-26.37 -4.09,-39.81 1.42,-5.31 7.42,-9.34 10.34,-12.78 11.82,-0.54 15.37,6.39 18.93,13.24 -4.09,32.76 -5.35,34.74 -25.18,39.35z"/>
   <path class="fil1" d="M2745.53 1807.52c-15.57,-11.14 -12.56,-26.03 -9.66,-42.62 5.15,-3.02 10.43,-6.08 14.5,-8.46 27.38,6.59 15.22,39.24 -4.83,51.08z"/>
   <path class="fil1" d="M1947.15 2659.15c-20.31,-10.82 -24.74,-30.74 -13.01,-58.5 9.43,-2.95 15.42,1.73 17.72,10 4.06,14.61 2.27,27.08 -4.72,48.5z"/>
   <path class="fil1" d="M2963.85 1814.45c-0.73,-22.02 -10.71,-44.32 12.14,-64.3 3.83,4.37 8.72,7.42 9.51,11.34 3.78,18.38 -0.71,35.26 -12.7,49.83 -1.31,1.56 -4.46,1.63 -8.95,3.13z"/>
   <path class="fil1" d="M2051.64 2997.69c6.31,23.3 3.64,41.34 -7.87,58.13 -14.29,-1.87 -12.16,-15.83 -13.75,-49.27 9.11,-9.54 2.96,-7.56 21.61,-8.86z"/>
   <path class="fil1" d="M2639.53 2667.27c-5.2,20.55 -13.56,32.73 -27.31,39.83 -7.44,-1.33 -10.79,-5.51 -10.4,-10.94 1.31,-16.94 2.67,-34.33 19.52,-36.45 5.08,-0.65 10.82,4.26 18.19,7.56z"/>
   <path class="fil1" d="M2097.48 3338.12c4.57,4.6 8.07,8.09 11.05,11.11 -5.43,22.19 -17.19,34.44 -34.26,43.19 -3.27,-2.19 -6.28,-4.17 -10.86,-7.24 7.5,-16.14 11.08,-33.96 34.07,-47.05z"/>
   <path class="fil1" d="M1543.23 2255.12c-19.26,-4.34 -30.15,-13.72 -35.43,-32.56 2.64,-3.75 6.14,-8.69 8.59,-12.19 11.37,-2.73 17.41,2.3 22.24,8.38 6.68,8.46 6.53,10.06 4.6,36.36z"/>
   <path class="fil1" d="M1999.2 2982.65c20.31,23.35 20.03,27.67 -3.61,51.11 -13.24,-6.56 -13.98,-19.06 -14.12,-31.45 -0.09,-9.97 4.97,-16.65 17.73,-19.66z"/>
   <path class="fil1" d="M2894.27 1868.89c-7.05,-15.8 -4.98,-32.05 -1.96,-48.3 1.02,-5.57 4.29,-7.59 17.5,-11.96 11.91,11.93 7.22,26.22 3.01,38.84 -2.81,8.41 -3.44,21.37 -18.55,21.42z"/>
   <path class="fil1" d="M2905.47 2729.44c-3.72,18.78 -13.81,34.09 -25.49,47.31 -8.3,-0.15 -13.07,-3.24 -11.42,-8.94 3.83,-13.22 8.46,-26.31 14.09,-38.87 3.41,-7.62 10.51,-7.19 22.82,0.51z"/>
   <path class="fil1" d="M3480.68 1892.64c-3.9,-4.74 -8.33,-7.76 -8.02,-10.2 2.13,-17.35 2.64,-35.56 16.98,-48.01 8.35,-2.08 12.79,1.79 17.11,9.86 -1.67,18.26 -15.94,31.06 -26.07,48.35z"/>
   <path class="fil1" d="M3431.46 2924.8c-0.96,3.61 -0.82,9.41 -3.57,12.79 -10.77,12.98 -24.69,21.98 -40.57,27.64 -1.62,0.54 -4.32,-1.99 -7.84,-3.72 8.75,-14.15 18.07,-27.67 30.51,-38.67 6.28,-5.6 13.61,-7.02 21.48,1.96z"/>
   <path class="fil1" d="M2207.17 3244.75c-5.31,19.89 -20.17,25.8 -38.35,26.43 -8.93,-10.2 -3.75,-17.98 0.88,-25.48 13.59,-21.79 33.1,-17.98 37.48,-0.94z"/>
   <path class="fil1" d="M2869.75 1624.43c10,-6.14 15.6,-5.09 21.14,2.5 3.55,17.28 0.22,34.44 -10.32,50.6 -18.24,3.67 -17.19,-34.74 -10.82,-53.1z"/>
   <path class="fil1" d="M3364.97 2142.07c-15.2,-10.31 -7.78,-20.83 -6.73,-30.43 1.26,-11.56 1.91,-23.69 15.94,-28.3 7.85,0.66 10.86,6 11.34,12.96 1.28,18.36 -8.67,31.71 -20.55,45.77z"/>
   <path class="fil1" d="M1539.43 2867.47c-21.54,-8.93 -33.45,-19.15 -40.35,-36.99 4.18,-4.72 8.1,-9.2 11.28,-12.81 13.95,0.54 20.09,8.93 24.83,17.98 4.52,8.61 7.76,17.95 4.24,31.82z"/>
   <path class="fil1" d="M1507.38 3241.09c-1.93,-13.43 -1.93,-13.43 6,-24.8 20.89,2.67 32.79,14.29 37.31,37.42 -4.46,0.39 -26.91,6.5 -43.31,-12.62z"/>
   <path class="fil1" d="M2673.76 3166.11c6.53,5.2 10.25,8.13 13.44,10.69 -8.15,29.66 -8.15,29.66 -37.7,46.08 -3.76,-23.24 8.5,-38.3 24.26,-56.77z"/>
   <path class="fil1" d="M326.48 2004.5c19.04,16.16 19.07,16.39 9.24,43.39 -19.15,-1.71 -25.63,-6.06 -27.59,-19.75 -1.7,-11.99 3.3,-20.06 18.35,-23.64z"/>
   <path class="fil1" d="M2424.5 2965.89c5.72,5.23 9.3,8.46 12.76,11.65 -4.97,22.38 -18.78,36.48 -37.02,50.96 -6.34,-28.58 8.35,-44.77 24.26,-62.62z"/>
   <path class="fil1" d="M2541.25 3110.25c8.89,-15.86 14.52,-35.29 38.87,-35.06 7.33,15.63 6.39,20.85 -4.97,30.51 -7.96,6.73 -16.25,13.24 -27.65,11.17 -1.93,-0.37 -3.35,-3.44 -6.25,-6.62z"/>
   <path class="fil1" d="M1909.41 892.56c5.74,2.81 17.14,4.09 18.87,20.65 1.62,15.43 1.5,30.89 -1.88,49.84 -5.57,-5.74 -10.99,-8.72 -11.71,-12.53 -3.41,-18.3 -16.73,-35.77 -5.28,-57.96z"/>
   <path class="fil1" d="M1895.52 3066.44c-17.22,-9.49 -25.8,-20.09 -30.54,-36.43 3.94,-5.28 8.3,-11.13 12.67,-17.02 5.23,1.37 9.5,1.45 12.44,3.47 18.28,12.22 9.67,32.53 5.43,49.98z"/>
   <path class="fil1" d="M2321.7 3395.14c-10.31,-23.64 9.37,-36.51 17.24,-38.22 8.5,-1.84 14.01,4.3 17.25,11.96 -9.01,24.64 -10.17,25.55 -34.5,26.26z"/>
   <path class="fil1" d="M3423.36 2537.48c2.14,2.33 5.4,6.02 7.59,8.5 -7.87,30.29 -17.85,38.64 -38.64,32.51 4.72,-16.43 3.98,-35.52 31.06,-41z"/>
   <path class="fil1" d="M1293.41 2268.19c-22.76,-10.45 -33.04,-21.02 -37.25,-38.67 -0.91,-3.81 2.9,-8.7 4.54,-13.1 22.5,8.25 22.5,8.25 32.7,51.77z"/>
   <path class="fil1" d="M3778.61 2488.05c-1.82,-2.59 -3.13,-3.58 -3.24,-4.69 -1.8,-17.67 6.98,-31.82 15.83,-45.77 4,-6.45 12.35,-4.98 22.95,4.15 -3.67,21.39 -20.63,32.7 -35.54,46.31z"/>
   <path class="fil1" d="M1584.66 3321.61c-2.44,-16.57 -3.24,-10.68 1.62,-22.95 9.91,-7.53 18.13,-4.87 25.48,1.3 8.16,6.85 14.35,14.92 9.55,27.82 -12.7,9 -23.19,0.06 -36.65,-6.17z"/>
   <path class="fil1" d="M2887.54 3307.15c-6.91,-15.96 -5.71,-23.44 6.39,-32.76 9.26,-7.16 18.7,-7.93 27.13,1.68 -0.93,22.84 -1.62,23.44 -33.52,31.08z"/>
   <path class="fil1" d="M1137.85 2782c-33.3,-10.03 -37.11,-14.03 -37.56,-38.24 5.69,-6.82 13.05,-8.76 20.29,-4.06 15.29,9.86 21.54,23.72 17.28,42.3z"/>
   <path class="fil1" d="M2649.76 3402.24c6.59,-20.6 16.82,-31.87 37.81,-34.41 5,7.93 17.28,18.18 0.65,30.31 -11.02,8.02 -22.81,9.43 -38.46,4.09z"/>
   <path class="fil1" d="M2819.4 3059.7c12.02,-3.75 17.61,-0.09 21.03,11.14 -4.01,19.83 -20.75,27.21 -39.24,35.03 -0.09,-16.03 -0.09,-16.03 18.21,-46.17z"/>
   <path class="fil1" d="M1509.26 653.81c-8.75,1.93 -14.09,5 -17.5,3.52 -20.42,-8.83 -31.26,-24.61 -30.83,-47.33 0.03,-1.06 1.33,-2.1 3.12,-4.69 17.62,12.41 31,28.1 45.21,48.5z"/>
   <path class="fil1" d="M2344.15 3092.18c1.59,24.43 -13.35,34.27 -29.01,44.5 -3.41,-1.8 -6.48,-3.44 -10.91,-5.8 6.31,-16.96 7.76,-35.8 27.33,-44.61 3.59,1.65 6.96,3.27 12.59,5.91z"/>
   <path class="fil1" d="M2665.72 675.46c-50.06,36.51 -31.9,20.46 -68.05,59.1 -8.56,-11.36 -1.82,-18.78 3.41,-25.6 16.67,-21.68 33.18,-30.89 64.63,-33.5z"/>
   <path class="fil1" d="M2056.16 1204.87c8.3,11.14 25.46,19.77 2.56,62.08 -13.67,-13.32 -13.19,-36.25 -12.11,-53.98 0.11,-1.73 3.64,-3.2 9.54,-8.09z"/>
   <path class="fil1" d="M2661.94 1768.71c-10.06,-17.68 -9.63,-31.93 1.25,-44.27 3.07,-3.46 9.46,-3.32 20.43,0.46 4.77,25.94 2.07,31.43 -21.68,43.81z"/>
   <path class="fil1" d="M2834.95 3421.4c12.39,-17.48 19.97,-36.09 42.9,-34.36 20.03,15.91 -9.04,39.53 -32.67,40.04 -2.13,0.03 -4.3,-2.27 -10.23,-5.68z"/>
   <path class="fil1" d="M2396.57 3372.92c14.75,-14.71 17.35,-37.79 39.86,-47.7 3.41,3.87 6.56,7.42 9.54,10.86 -5.11,18.69 -18.86,28.58 -31.96,38.87 -3.64,2.81 -8.22,6.93 -17.44,-2.02z"/>
   <path class="fil1" d="M1474.68 1941c-19.58,-12.53 -27.3,-26.13 -31.45,-44.91 4.32,-3.27 8.52,-8.83 13.58,-9.75 7.59,-1.37 14.6,5.08 17.13,12.22 4.32,12.33 3.35,24.63 0.74,42.44z"/>
   <path class="fil1" d="M1817.3 1720.83c-13.46,-12.76 -13.24,-12.87 -18.18,-38.33 2.52,-4.23 5.68,-9.57 7.89,-13.23 9.5,-2.82 16.37,-0.83 18.63,5.65 5.83,16.48 6.26,32.61 -8.35,45.91z"/>
   <path class="fil1" d="M1497.78 1882.19c7.78,-1.71 13.37,-2.96 20.2,-4.44 10,20.46 12.25,15.06 10.54,48.44 -0.09,1.79 -3.07,3.41 -4.69,5.06 -16.22,-14.26 -16.22,-14.26 -26.05,-49.06z"/>
   <path class="fil1" d="M2771.56 3425.55c4.32,2.87 9.3,6.16 14.15,9.34 -3.29,23.78 -21.76,24.6 -35.06,30.18 -10.28,-3.93 -10.85,-10.12 -6.84,-16.14 6.44,-9.78 14.54,-18.13 27.75,-23.38z"/>
   <path class="fil1" d="M1026.9 1841.13c16.36,-7.87 28.38,9.97 24.04,22.3 -2.99,8.44 -6.76,16.74 -16.79,19.24 -16.96,-15.94 -17.22,-17.59 -7.25,-41.54z"/>
   <path class="fil1" d="M2101.85 2374.66c12.5,22.53 8.24,41.25 3.95,59.7 -0.51,2.33 -5.4,3.63 -8.52,5.6 -13.09,-43.79 -13.09,-43.79 4.57,-65.3z"/>
   <path class="fil1" d="M3479.08 2697.48c-7.19,-21.67 -0.76,-37.53 16.85,-49.29 10.62,1.56 15.26,7.64 13.67,16.42 -3.02,16.02 -8.98,21.85 -30.52,32.87z"/>
   <path class="fil1" d="M1797.13 937.08c9.06,-8.7 16.11,-8.07 24.46,-3.47 10.68,14.35 5.11,27.73 -4.18,40.94 -20,-7.62 -20.71,-8.94 -20.28,-37.47z"/>
   <path class="fil1" d="M3231.5 3095.13c-1.79,-1.93 -3.13,-2.79 -3.46,-3.92 -0.72,-2.36 -1.93,-5.31 -1.11,-7.27 5.4,-13.15 9.74,-27.02 20.85,-36.82 10.88,1.02 10.88,1.02 18.47,10.2 -3.8,19.77 -18.18,29.74 -34.74,37.81z"/>
   <path class="fil1" d="M1450.98 3237.25c-16,8.09 -29.38,1.85 -42.19,-7.81 -3.18,-2.38 -3.21,-2.96 -2.9,-17.59 7.9,-7.5 16.88,-5.71 25.09,-1.45 10.31,5.31 20.43,11.6 20,26.85z"/>
   <path class="fil1" d="M3176.58 2004.7c3.8,3.19 6.59,5.54 9.17,7.67 -5.57,35.86 -6.96,38.53 -27.1,50.15 -4.33,-22.85 -1.65,-42.45 17.93,-57.83z"/>
   <path class="fil1" d="M1315.11 1774.39c24.46,15.97 20.77,34.55 18.64,55.38 -17.16,-7.85 -22.7,-22.02 -31.08,-36.94 3.41,-5.04 7.22,-10.71 12.44,-18.44z"/>
   <path class="fil1" d="M1434.1 3115.91c21.89,2.25 28.08,16.44 32.39,33.24 -14.12,10.82 -25.37,4.66 -34.52,-4.57 -7.96,-7.95 -8.72,-17.98 2.13,-28.67z"/>
   <path class="fil1" d="M3356.68 2549.9c-10.17,-12.81 -0.68,-22.61 2.76,-32.79 3.24,-9.54 6.82,-19.6 19.5,-20.31 8.67,5.11 7.58,13.3 4.83,20.15 -5.4,13.61 -9.71,28.86 -27.08,32.95z"/>
   <path class="fil1" d="M2531.61 3301.64c-8.39,-2.44 -9.86,-7.44 -8.78,-12.44 3.07,-14.06 9.37,-26.4 22.45,-35 14.63,1.67 9.85,0 16.31,8.97 -5.77,16.06 -14.21,30.74 -29.98,38.48z"/>
   <path class="fil1" d="M3316.99 2659.63c-6.62,-24.69 -6.62,-24.69 8.98,-44.6 9.71,-2.39 13.78,3.69 17.56,12.84 -4.69,12.98 -8.04,28.1 -26.54,31.76z"/>
   <path class="fil1" d="M2503.57 2354.77c-13.21,-29.35 -12.87,-31.85 6.85,-49.89 13.1,7.05 16.85,13.16 13.7,22.5 -3.86,11.25 -10.48,20.4 -20.54,27.39z"/>
   <path class="fil1" d="M1565.03 1046.98c-14.63,-8.24 -13.04,-23.12 -16.87,-36.99 5.14,-4.8 9.51,-8.89 14.09,-13.15 4.57,2.44 9.38,3.41 10.69,6.02 8.35,17.07 6.53,25.85 -7.9,44.12z"/>
   <path class="fil1" d="M2056.99 2760.87c-10.57,-8.21 -11.2,-19.78 -10,-31.65 0.91,-9.18 3.09,-18.04 14.29,-22.45 2.42,1.65 7.19,3.13 8.05,5.8 5,15.63 2.95,30.74 -5.86,44.69 -1.11,1.73 -4.07,2.33 -6.47,3.61z"/>
   <path class="fil1" d="M2977.8 2719.27c7.93,4.55 13.89,7.98 21.57,12.39 -5.93,11.83 -14.6,39.72 -36.14,27.76 -5,-13.95 1.53,-25.4 14.57,-40.15z"/>
   <path class="fil1" d="M3458.42 2758.19c-3.8,15.32 -13.55,23.86 -28.21,26.33 -10.91,-7.39 -8.13,-16.31 -4.71,-24.66 7.67,-18.9 28.61,-19.98 32.92,-1.68z"/>
   <path class="fil1" d="M1887.87 3262.62c-19.06,-8.69 -30.17,-20.03 -36.28,-36.02 6.39,-9 12.47,-12.05 17.02,-8.75 13.65,9.83 18.76,20.94 19.26,44.77z"/>
   <path class="fil1" d="M1404.05 2628.61c-30.43,-17.48 -30.43,-17.48 -30.09,-41.17 4.78,-5.99 11.42,-7.13 16.68,-2.72 12.44,10.42 17.69,23.89 13.41,43.89z"/>
   <path class="fil1" d="M2572.36 3472.08c8.89,-25.57 36.28,-36.17 44.72,-25.15 5.79,8.38 2.78,13.87 -1.96,18.35 -12.33,11.7 -26.43,12.85 -42.76,6.79z"/>
   <path class="fil1" d="M2658.82 3482.91c-3.93,-3.74 -6.54,-6.25 -7.11,-6.81 -0.09,-11.88 3.55,-15.46 28.04,-31.71 8.39,1.42 4.24,-2.24 16.14,11.54 -5.54,17.58 -19.55,20.43 -37.08,26.99z"/>
   <path class="fil1" d="M1840.86 3161.62c-33.05,-20.03 -34.61,-22.98 -25.03,-43.33 8.83,-2.96 14.69,2.27 19.55,8.16 7.64,9.23 10.51,19.8 5.48,35.17z"/>
   <path class="fil1" d="M2880.2 3351.47c-7.44,15.51 -23.38,14.23 -35.19,19.18 -6.99,-3.58 -7.82,-7.93 -4.44,-13.09 6.48,-9.92 14.41,-18.22 25.12,-21.83 10.23,1.51 14.94,6.45 14.51,15.74z"/>
   <path class="fil1" d="M636.03 2491.86c2.71,5.79 6.37,13.75 10.04,21.7 -3.18,3.81 -5.54,6.65 -7.73,9.26 -29.32,-8.13 -29.66,-8.46 -29.03,-30.43 7.42,-8.01 15.6,-7.27 26.73,-0.54z"/>
   <path class="fil1" d="M240.91 1881.17c9.86,-6.79 17.15,-5.34 23.1,0.93 7.59,8.02 7.33,8.76 3.09,32.42 -6.08,5.23 -12.02,3.13 -17.33,-1.1 -10.11,-8.01 -14.37,-18.07 -8.86,-32.25z"/>
   <path class="fil1" d="M2375.8 3314.85c2.7,-28.83 21.96,-43.87 34.01,-35.14 12.93,9.37 0.19,34.32 -22.2,38.19 -3.24,0.54 -6.96,-1.71 -11.81,-3.04z"/>
   <path class="fil1" d="M2123.56 3268.37c4.86,1.62 10.54,3.55 15.75,5.28 -1.82,28.64 -17,40.94 -36.88,31.63 6.37,-22.57 6.79,-22.39 21.13,-36.91z"/>
   <path class="fil1" d="M3007.04 2209.89c-9.57,-17.22 -8.41,-29.81 -2.83,-41.77 1.84,-3.98 7.16,-6.79 11.42,-9.17 3.81,-2.13 4.11,-1.54 15.99,9.54 -1.9,15.32 -12.48,25.97 -24.58,41.4z"/>
   <path class="fil1" d="M2730.59 2495.72c-6.88,-11.85 -4.83,-21.31 0.37,-30.46 4.91,-8.67 11.96,-9.12 25.12,-2.04 7.59,16.93 -7.62,36.19 -25.49,32.5z"/>
   <path class="fil1" d="M2120.37 2631.42c3.95,23.47 3.95,23.47 -13.95,37.99 -10.85,-7.13 -14.2,-16.65 -9.89,-29.27 2.93,-8.52 7.08,-10.4 23.84,-8.72z"/>
   <path class="fil1" d="M3398.98 1978.11c-6.25,15.11 -12.48,30.22 -19.66,47.65 -4.78,-5.54 -7.96,-9.2 -11.42,-13.22 4.15,-15.42 4.63,-31.08 12.67,-43.07 8.98,-5.71 13.35,-2.22 18.41,8.64z"/>
   <path class="fil1" d="M2833.07 2021.13c-10.65,-37.14 -8.87,-45.32 11.14,-55.86 2.22,2.53 6.39,5.11 6.68,8.07 1.76,18.47 -1.13,25.94 -17.81,47.79z"/>
   <path class="fil1" d="M3221.07 2431.29c4.94,5.56 8.22,9.23 11.57,12.98 -6.05,16.87 -13.78,30.74 -31.4,37.56 -3.04,-23.4 0.06,-31.82 19.83,-50.54z"/>
   <path class="fil1" d="M2647.06 2414.29c8.74,4.37 13.09,6.53 16.81,8.39 1.51,29.97 1.25,30.39 -20.29,34.89 -3.01,-4.57 -6.42,-9.72 -10.4,-15.71 4.26,-8.52 8.21,-16.31 13.87,-27.56z"/>
   <path class="fil1" d="M1339.41 3053.03c12.59,-3.24 19.49,-0.06 23.58,6.88 5.34,9.06 6.99,18.84 -1.05,27.67 -8.76,1.14 -1.34,4.09 -27.45,-9.55 -1,-20.94 -1.76,-14.06 4.91,-25z"/>
   <path class="fil1" d="M1727.83 3394.03c-7.65,-2.44 -14.89,-4.77 -20.94,-6.7 -8.89,-10.32 -8.21,-14.09 3.5,-25.94 11.73,-3.46 21.74,4.29 29.55,23.92 -3.67,2.64 -7.64,5.48 -12.1,8.72z"/>
   <path class="fil1" d="M3039.43 1516.33c13.27,20.05 11.96,25.54 -12.3,61.76 -8.87,-6.48 -5.74,-15.91 -5.04,-23.92 0.91,-9.89 3.5,-19.75 6.48,-29.27 0.88,-2.87 5.53,-4.57 10.85,-8.57z"/>
   <path class="fil1" d="M3250.95 1989.07c13.76,18.47 12.91,22.19 -10.17,49.19 -7.61,-12.85 -7.76,-14.18 -6.53,-26.68 0.94,-9.66 4.12,-17.65 16.7,-22.5z"/>
   <path class="fil1" d="M2928.96 2846.27c5.17,26.76 -11.42,35.2 -25.29,46.74 -6.81,-19.12 -6.76,-19.12 8.13,-44.52 3.78,-0.48 8.64,-1.13 17.16,-2.21z"/>
   <path class="fil1" d="M2966.64 1106.33c-14.86,-14.58 -14.72,-28.19 -11.48,-44.52 4.91,-1.82 10.42,-3.81 16.28,-5.97 12.73,18.19 7.44,32.59 -4.8,50.49z"/>
   <path class="fil1" d="M67.02 1682.59c0.13,5.17 1.33,10.6 0.19,15.45 -5.57,23.98 -6.9,47.96 -2.1,72.17 0.17,0.82 -1.45,1.99 -2.22,2.95 -10.37,-3.9 -11.65,-12.93 -12.36,-22.19 -2.3,-28.44 2.33,-47.45 16.43,-68.41l0.06 0.02z"/>
   <path class="fil1" d="M1381.23 1653.02c13.13,-10.94 21.76,-11.51 26.76,-3.04 6.17,10.37 8.83,21.08 1.65,32.25 -17.07,-6.16 -17.07,-6.16 -28.42,-29.2z"/>
   <path class="fil1" d="M3345.06 2991.94c-16.48,25.31 -24.55,29.75 -46.17,25.12 10.74,-13.24 20.91,-25.83 36.74,-35.4 3.44,3.75 6.56,7.16 9.43,10.28z"/>
   <path class="fil1" d="M3499.11 1737c0.37,6.51 2.73,13.38 0.63,18.32 -4.87,11.2 -8.76,24.47 -24.1,28.04 -2.22,-30.43 2.79,-40.74 23.47,-46.37z"/>
   <path class="fil1" d="M1733.72 3317.8c-21.34,-6.42 -33.84,-14.88 -40.01,-30.2 4.75,-11.65 11.99,-11.39 19.15,-6.76 11.08,7.18 18.46,17.19 20.86,36.96z"/>
   <path class="fil1" d="M2749.68 3143.63c6.22,5.69 10.74,9.83 15.6,14.23 -3.7,14.61 -10.85,24.1 -27.11,28.41 -2.19,-5.02 -5.6,-9.28 -5.6,-13.52 -0.02,-12.25 0.52,-12.25 17.11,-29.13z"/>
   <path class="fil1" d="M756.96 2181.08c13.12,12.76 16.65,22.96 11.68,35.32 -23.3,-5 -23.7,-5.43 -27.99,-29.41 5.19,-1.88 10.74,-3.9 16.31,-5.91z"/>
   <path class="fil1" d="M2882.82 2098.12c3.98,15.88 1.71,26.85 -8.41,35.03 -2.45,1.99 -6.79,1.59 -11.85,2.61 -3.24,-16.28 -7.84,-31.25 8.61,-42.9 3.98,1.79 7.41,3.35 11.65,5.26z"/>
   <path class="fil1" d="M2611.71 2325.25c2.79,-1.65 5.99,-3.55 9.06,-5.37 16.79,14.49 16.4,19.32 -4.43,43.36 -2.47,-2.59 -6.14,-4.7 -6.96,-7.59 -2.87,-10.06 -2.82,-20.21 2.33,-30.41z"/>
   <path class="fil1" d="M942.06 1705.26c-13.39,-5.88 -15,-15.85 -14.49,-26.7 0.37,-7.78 0.28,-15.96 12.59,-18.58 4,11.57 8.09,23.33 12.65,36.51 -4.38,3.59 -7.93,6.48 -10.74,8.78z"/>
   <path class="fil1" d="M2487.94 3329.62c4.52,4.86 7.87,8.46 10.08,10.85 -9.23,23.13 -9.09,23.3 -27.07,29.95 -6.51,-15.34 -2.89,-27.13 16.99,-40.8z"/>
   <path class="fil1" d="M2953.73 3322.2c9.09,-40.37 27.99,-26.48 36.71,-23.81 -7.5,19.49 -7.5,19.49 -36.71,23.81z"/>
   <path class="fil1" d="M3743.18 2050.7c-24.61,-5.34 -49.24,-10.71 -73.79,-16.05 -1.11,-9.32 5.45,-8.87 9.04,-9.01 25.15,-1.16 46.94,7.39 65.74,23.95l-0.99 1.11z"/>
   <path class="fil1" d="M1546.33 3160.69c-24.23,0.56 -33.47,-7.88 -39.35,-21.57 20.51,-21.31 23.69,-4.8 39.35,21.57z"/>
   <path class="fil1" d="M2944.76 2429.78c7.24,8.35 11.22,12.93 16.5,18.98 -5.65,7.7 -10.68,14.52 -15.66,21.28 -12.24,-4.03 -12.63,-13.3 -14.83,-24.03 3.01,-3.5 6.96,-8.07 13.98,-16.22z"/>
   <path class="fil1" d="M2392.19 3409.86c4.55,2.95 8.39,5.48 11.51,7.5 0.71,14.68 -8.92,18.49 -19.86,23.7 -4.41,-1.85 -9.83,-4.13 -16.85,-7.02 4.8,-11.68 12.59,-17.24 25.2,-24.18z"/>
   <path class="fil1" d="M3750.22 2401.91c4.6,21.2 -3.73,31.36 -18.65,39.72 -5.2,-28.19 -2.93,-33.47 18.65,-39.72z"/>
   <path class="fil1" d="M2611.34 3276.46c-4.65,-16.11 -3.5,-28.33 11,-36.82 20.71,13.53 8.64,27.13 4.29,29.64 -4.29,2.47 -8.98,4.29 -15.29,7.19z"/>
   <path class="fil1" d="M738.4 2434.41c-5.4,-4.83 -9.91,-8.84 -16.03,-14.32 4.55,-6.56 8.5,-12.25 13.76,-19.83 7.35,5.28 13.07,9.35 17.47,12.5 1.65,11.59 -3.63,16.42 -15.2,21.65z"/>
   <path class="fil1" d="M1897.76 521.81c-14.09,6.19 -20.29,-2.33 -27.02,-7.39 -5.56,-4.17 -13.46,-8.24 -10.6,-17.95 24.61,2.59 27.45,4.41 37.62,25.35z"/>
   <path class="fil1" d="M3395.8 1894.41c-8.5,-18.52 2.93,-30.74 6.99,-45.83 5.17,2.22 8.38,3.59 12.78,5.46 -1.99,15.54 -5.08,29.63 -19.77,40.37z"/>
   <path class="fil1" d="M2705.33 2323.28c-7.33,5.41 -13.33,9.87 -20.42,15.12 -2.65,-4.43 -5.54,-7.24 -5.97,-10.37 -1.37,-10.04 1.93,-17.91 13.8,-21.09 12.68,6.74 8.61,2.98 12.59,16.33z"/>
   <path class="fil1" d="M3120.55 1948.75c8.2,14.3 8.2,14.3 -8.02,30.46 -7.96,-1.42 -10.68,-6.82 -9.41,-13.98 1.71,-9.46 5.31,-17.67 17.42,-16.48z"/>
   <path class="fil1" d="M975.98 2792.77c23.64,-9.14 14.43,-12.07 35.66,3.87 0.65,11.14 -4.66,14.32 -11.36,11.94 -6.45,-2.3 -11.86,-7.5 -24.3,-15.8z"/>
   <path class="fil1" d="M3169.33 1635.96c2.9,1.56 5.97,3.3 8.72,4.8 1.06,9.49 -3.83,14.6 -10.83,18.47 -13.44,-7.81 -13.38,-8.61 2.1,-23.27z"/>
   <path class="fil1" d="M2048.81 3174.6c2.61,11.57 -1.56,20.75 -3.47,31.88 -4.23,-2.95 -7.19,-3.97 -7.42,-5.42 -3.63,-22.17 -0.74,-22.96 1.74,-31.17 3.63,1.88 6.68,3.44 9.15,4.71z"/>
   <path class="fil1" d="M3813.44 2105.48c-9.41,-4.27 -15.63,-11.6 -20.8,-20.89 13.95,2.61 13.95,2.61 22.07,19.72l-1.28 1.17z"/>
   <path class="fil1" d="M3759.51 2057.72c9.63,-0.31 16.46,4.15 21.17,12.42 -11.36,1.02 -11.36,1.02 -21.91,-11.57l0.74 -0.85z"/>
   <path class="fil1" d="M66.96 1682.57c0.23,-6.06 0.48,-12.08 0.82,-20.89 7.44,11.33 7.44,11.33 -0.76,20.91l-0.06 -0.02z"/>
   <path class="fil1" d="M3758.77 2058.57c-6.68,0.34 -13.06,0.09 -15.59,-7.87l0.99 -1.11c6.65,-0.19 13.02,0.18 15.34,8.13l-0.74 0.85z"/>
  </g>
 </g>
</svg>
