<?xml version="1.0" encoding="UTF-8"?>
<!DOCTYPE svg PUBLIC "-//W3C//DTD SVG 1.1//EN" "http://www.w3.org/Graphics/SVG/1.1/DTD/svg11.dtd">
<!-- Creator: CorelDRAW 2020 (64-Bit) -->
<svg xmlns="http://www.w3.org/2000/svg" xml:space="preserve" width="3.54331in" height="3.54331in" version="1.1" style="shape-rendering:geometricPrecision; text-rendering:geometricPrecision; image-rendering:optimizeQuality; fill-rule:evenodd; clip-rule:evenodd"
viewBox="0 0 3543.31 3543.31"
 xmlns:xlink="http://www.w3.org/1999/xlink"
 xmlns:xodm="http://www.corel.com/coreldraw/odm/2003">
 <defs>
  <style type="text/css">
   <![CDATA[
    .fil0 {fill:#B15760;fill-rule:nonzero}
   ]]>
  </style>
 </defs>
 <g id="Layer_x0020_1">
  <metadata id="CorelCorpID_0Corel-Layer"/>
  <g id="_1609705801648">
   <g>
    <path class="fil0" d="M2805.42 2036.55c10.4,0.81 18.07,0.89 25.57,2.09 33.2,5.31 66.43,5.65 99.31,-1.07 98.37,-20.13 184.18,-61.3 242.39,-147.61 4.67,-6.89 8.34,-14.26 19.03,-14.9 5.07,-0.3 10.25,-5.7 14.59,-9.64 60.39,-55.14 100.68,-121.54 116.15,-202.74 5.83,-30.46 1.52,-58.12 -15.39,-83.05 -11.38,-16.85 -11.33,-32.19 -4.65,-50.47 17.02,-46.75 20.85,-95.19 9.9,-143.63 -22.57,-99.83 -69.06,-187.4 -144.33,-257.22 -52.6,-48.82 -117.24,-66.99 -189,-60.94 -40.53,3.42 -78.08,17.06 -116.05,29.85 -36.99,12.44 -74.7,16.65 -113.35,7.41 -16.52,-3.92 -33.29,-8.71 -50.04,-9.16 -40.06,-1.11 -80.23,-0.75 -120.33,0.64 -60.47,2.09 -114.38,20.49 -153.06,69.95 -45.13,57.74 -79.56,121.17 -95.72,193.35 -8.29,37.06 -10.28,74.22 0.98,111.28 5.21,17.12 9.54,34.51 14.53,51.72 3.27,11.18 1.87,20.02 -4.72,30.93 -17.14,28.36 -32.98,57.82 -46.44,88.11 -17.83,40.04 -26.83,82.76 -27.76,126.68 -1.16,55.11 19.95,98.23 71.86,122.01 21.62,9.93 44.37,17.36 66.67,25.78 13.26,5 26.63,9.74 35.96,13.15 4.3,19.65 4.3,36.23 11.31,48.93 30.31,54.9 71.07,100.07 129.56,126.53 22.08,9.99 45.35,15.89 69.62,13.02 52.63,-6.18 100.96,-24.03 143.69,-56.1 8.17,-6.11 16.02,-11.68 9.72,-24.87zm-374.31 -97.15c-14.56,-4.65 -31.13,-9.05 -46.93,-15.27 -21.39,-8.41 -42.97,-16.8 -63.08,-27.78 -44.35,-24.2 -65.42,-63.35 -67.01,-113.21 -2.66,-84.28 25.91,-159 70.98,-228.5 3.22,-5.01 6.84,-9.74 10.82,-15.37 -5.11,-15.91 -10.2,-32.04 -15.42,-48.11 -15.76,-48.56 -15.09,-97.56 -2.43,-146.4 18.24,-70.48 51.85,-133.59 97.28,-190.01 34.85,-43.24 81.09,-68.44 136.87,-70.76 52.73,-2.22 105.61,-1.03 158.43,-0.5 10.89,0.1 21.77,3.7 32.61,5.98 52.06,11.04 101.4,1.7 150.12,-17.66 55.39,-22.01 113,-25.38 171.15,-13.7 42.64,8.58 81.15,27.81 112.56,57.67 79.65,75.73 129.46,168.44 150.9,276.21 9.22,46.29 4.21,91.93 -10.73,136.22 -5.83,17.32 -7.22,31.7 3.7,47.98 18.52,27.67 21.08,59.27 14.54,91.21 -18.42,89.67 -63.63,162.83 -136.47,218.71 -7.28,5.59 -13.73,12.35 -19.95,19.16 -16.06,17.58 -29.87,37.79 -47.98,52.83 -81.24,67.48 -173.85,103.59 -281,94.36 -16.57,-1.42 -28.83,2.36 -41.38,13.53 -40.73,36.33 -90.04,54.62 -143.26,62.98 -33.93,5.34 -66.25,-0.86 -96.85,-16.33 -55.34,-27.98 -95.27,-71.49 -123.7,-125.62 -6.89,-13.15 -8.58,-29.01 -13.79,-47.61z"/>
    <path class="fil0" d="M2622.33 1088.73c-23.31,0 -46.7,0.32 -69.87,1.3 -53.04,2.19 -97.58,25.24 -132.43,68.5 -46.48,57.7 -78.82,120.87 -96.15,187.72 -12.98,50.13 -12.2,98.26 2.33,143.02 3.54,10.89 7.02,21.77 10.45,32.61l4.72 14.71c0.52,-3.98 0.08,-7.97 -1.25,-12.52 -2.14,-7.4 -4.17,-14.82 -6.19,-22.23 -2.68,-9.84 -5.36,-19.67 -8.31,-29.41 -10.36,-34.06 -10.7,-71.47 -1.09,-114.38 15.19,-67.75 46.87,-131.75 96.87,-195.72 36.13,-46.25 87.68,-69.89 157.62,-72.28 21.19,-0.72 41.56,-1.16 61.31,-1.26 -6,-0.05 -12,-0.06 -18.02,-0.06zm382.84 -28.52c65.27,0 121.32,21.33 166.92,63.63 73.28,67.97 122.45,155.57 146.11,260.33 11.02,48.83 7.63,98.3 -10.1,147.04 -6.56,18.07 -5.43,31.09 4,45.03 17.33,25.59 22.65,54.25 16.31,87.56 -14.34,75.06 -49.14,138.97 -106.22,194.9 55.6,-51.33 91.65,-115.94 107.35,-192.54 6.91,-33.66 2.33,-62.81 -13.63,-86.62 -13.06,-19.53 -9.84,-37.14 -4.41,-53.28 15.47,-45.82 19.01,-90.61 10.55,-133.11 -21.35,-107.39 -71.52,-199.23 -149.17,-273.01 -30.15,-28.67 -67.02,-47.56 -109.59,-56.13 -59.02,-11.89 -115.49,-7.37 -167.7,13.4 -56.56,22.48 -105.36,28.18 -153.61,17.98 -3.02,-0.64 -6.03,-1.37 -9.06,-2.11 -7.77,-1.89 -15.12,-3.69 -22.37,-3.78l-11.73 -0.1c0.3,0 0.59,0 0.89,0 14.85,0.41 29.53,4.03 43.74,7.5l7.51 1.84c34.79,8.29 70.75,5.95 110.05,-7.26l9.37 -3.19c34.48,-11.66 70.17,-23.75 108.11,-26.96 9.05,-0.73 17.93,-1.12 26.68,-1.12zm-667.09 486.35l-1.14 1.6c-2.43,3.37 -4.69,6.52 -6.81,9.76 -49.46,76.31 -72.37,149.92 -69.99,225.03 1.57,49.46 23.04,85.83 63.84,108.09 19.25,10.5 40.31,18.78 60.67,26.8l1.74 0.67c10.85,4.27 22.09,7.67 32.93,10.94 4.68,1.4 9.27,2.76 13.63,4.18 1.94,0.63 3.44,2.17 4,4.13 0.13,0.51 0.28,1.01 0.42,1.52 -0.32,-1.85 -0.68,-3.74 -1.05,-5.7l-6.1 -2.19c-8.02,-2.9 -17.43,-6.28 -26.8,-9.84 -6.32,-2.36 -12.65,-4.69 -19.02,-6.98 -15.89,-5.78 -32.33,-11.76 -48.02,-18.94 -51.33,-23.55 -76.68,-66.48 -75.4,-127.65 0.98,-45.63 10.5,-89.03 28.3,-129.04 12.69,-28.53 28.44,-58.37 46.78,-88.76 0.76,-1.25 1.43,-2.44 2.02,-3.62zm859.18 333.26c-1.65,0.69 -3.39,1.16 -5.18,1.26 -6.3,0.37 -8.76,3.73 -12.96,10.11l-1.4 2.12c-53.29,78.99 -131.5,126.68 -246.22,150.16 -7.05,1.45 -14.24,2.58 -21.52,3.42 77.19,-5.71 148.72,-36.57 217.24,-93.44 11.5,-9.56 21.1,-21.17 31.24,-33.42 5.3,-6.4 10.56,-12.79 16.15,-18.87 6.19,-6.8 12.98,-13.92 20.71,-19.85 0.62,-0.49 1.28,-0.99 1.93,-1.48zm-383.62 163.33c0.64,6.35 -1.74,11.21 -5.07,15.07 9.93,-7.77 20.14,-11.58 32.42,-12.04 -3.62,-0.47 -7.3,-1.01 -10.97,-1.58 -4.77,-0.76 -9.62,-1.03 -15.26,-1.39 -0.37,-0.02 -0.74,-0.03 -1.13,-0.07zm-162.35 -942.31c-23.06,0 -46.83,0.42 -71.84,1.3 -66.13,2.26 -114.7,24.39 -148.49,67.63 -48.89,62.52 -79.83,124.97 -94.59,190.94 -9.28,41.37 -9.02,75.77 0.84,108.19 3,9.88 5.7,19.82 8.41,29.76 2.02,7.37 4.01,14.73 6.13,22.04 3.69,12.69 2.13,23.38 -5.33,35.73 -18.09,29.96 -33.62,59.35 -46.09,87.43 -17.17,38.51 -26.32,80.35 -27.25,124.37 -1.18,55.88 21.83,95.05 68.34,116.4 15.25,6.98 31.44,12.87 47.1,18.57 6.41,2.31 12.81,4.63 19.18,7.04 9.31,3.5 18.66,6.88 26.63,9.77l9.28 3.34c1.93,0.72 3.39,2.37 3.83,4.4 1.45,6.67 2.44,13.02 3.35,18.97 1.7,11.16 3.19,20.8 7.33,28.31 33,59.76 74.48,100.29 126.75,123.92 24.05,10.89 45.76,14.93 66.43,12.54 53.2,-6.22 100.54,-24.71 140.78,-54.93 8.99,-6.74 11.74,-9.35 7.9,-17.44 -0.94,-1.94 -0.74,-4.22 0.47,-6.01 1.21,-1.77 3.37,-2.82 5.46,-2.61 3.47,0.28 6.64,0.47 9.59,0.64 6.07,0.37 11.31,0.71 16.44,1.52 34.78,5.55 66.56,5.21 97.14,-1.05 111.41,-22.8 187.23,-68.87 238.61,-145.07l1.31 -1.98c4.33,-6.61 9.69,-14.8 22.34,-15.54 2.31,-0.15 6.54,-4.06 9.36,-6.67l1.52 -1.42c62.14,-56.72 99.52,-121.96 114.31,-199.4 5.71,-30.03 0.99,-55.7 -14.44,-78.53 -11.71,-17.33 -13.31,-34.06 -5.34,-55.94 16.93,-46.51 20.19,-93.7 9.64,-140.23 -23.11,-102.36 -71.07,-187.87 -142.49,-254.12 -49.11,-45.55 -111.02,-65.55 -184.42,-59.33 -36.47,3.08 -71.41,14.9 -105.23,26.34l-9.4 3.19c-41.42,13.95 -79.61,16.46 -116.67,7.56l-7.62 -1.83c-13.58,-3.33 -27.62,-6.8 -41.18,-7.15 -15.76,-0.46 -31.75,-0.66 -48.1,-0.66zm-185.28 910.27c27.56,42.42 62.88,74.66 105.3,96.11 30.47,15.4 61.81,20.71 93.21,15.76 54.27,-8.53 97.83,-26.65 132.8,-55.23 -41.83,30.74 -90.31,49.38 -144.6,55.77 -22.87,2.76 -46.72,-1.72 -72.83,-13.52 -45.35,-20.53 -82.83,-53.04 -113.87,-98.89zm175.7 125.75c-25.63,0 -51.04,-6.32 -75.85,-18.84 -53.29,-26.94 -95.77,-70.09 -126.31,-128.22 -4.99,-9.5 -7.43,-20.2 -10.01,-31.53 -1.03,-4.51 -2.11,-9.22 -3.4,-14.12 -3.35,-1.07 -6.8,-2.09 -10.3,-3.15 -11.11,-3.35 -22.56,-6.8 -33.89,-11.28l-1.72 -0.67c-20.71,-8.14 -42.15,-16.56 -62.03,-27.42 -44.83,-24.44 -68.42,-64.26 -70.16,-118.32 -2.43,-77.64 21.1,-153.53 71.96,-231.98 2.19,-3.42 4.57,-6.71 7.15,-10.26l2.06 -2.89 -4.02 -12.64c-3.45,-10.82 -6.93,-21.7 -10.45,-32.54 -15.25,-47 -16.09,-97.39 -2.53,-149.77 17.76,-68.57 50.88,-133.27 98.44,-192.3 36.6,-45.42 85.46,-70.7 141.33,-73 44.15,-1.87 89.08,-1.31 132.54,-0.81l26.17 0.28c8.65,0.11 17.02,2.13 25.13,4.12 2.9,0.71 5.78,1.41 8.66,2 45.86,9.72 92.46,4.18 146.67,-17.36 54.4,-21.64 113.11,-26.39 174.57,-14 44.81,9.02 83.69,28.93 115.54,59.22 79.43,75.52 130.81,169.54 152.67,279.42 8.86,44.59 5.19,91.47 -10.95,139.32 -5.28,15.69 -6.63,28.3 2.98,42.67 17.85,26.61 23.04,58.83 15.44,95.79 -18.69,91.24 -65.34,166.03 -138.7,222.3 -6.98,5.36 -13.31,12.02 -19.16,18.42 -5.43,5.93 -10.58,12.17 -15.72,18.42 -10.08,12.15 -20.49,24.74 -32.84,35.02 -87.09,72.31 -183.02,104.59 -285.4,95.72 -15.1,-1.27 -25.79,2.16 -36.82,12.03 -37.97,33.83 -85.83,54.91 -146.33,64.41 -8.24,1.3 -16.48,1.96 -24.69,1.96z"/>
    <path class="fil0" d="M2828.49 1712.39c12.27,-42.05 51.44,-46.16 80.63,-54.52 7.3,-23.46 10.4,-43.3 19.48,-59.86 9.17,-16.72 24.27,-30.17 34.89,-42.79 0,-21.39 0,-40.63 0,-61.19 -52.38,-10.19 -95.15,-29.68 -87.46,-96.13 -11.93,3.99 -21.35,7.41 -30.94,10.35 -27.96,8.49 -54.9,12.02 -75.48,-15.65 -1.89,-2.55 -5.3,-3.96 -9.09,-6.71 -24.35,40.24 -65.96,54.94 -105.78,73.46 3.99,38.27 -16.15,66.77 -38.66,93.85 28.41,36.83 35.07,77.02 27.48,119.1 41.07,9.39 81.23,11.29 112.74,36.99 28.94,-8 32.61,-7.84 72.2,3.1zm-201.05 -27c12.94,-48.85 6,-93.38 -31.75,-132.09 6,-7.02 11.37,-13.22 16.65,-19.48 16.9,-20.02 30.39,-41.56 27.78,-69.28 -1.3,-13.8 5.32,-19.3 17.86,-23.26 14.49,-4.61 28.11,-12.17 41.94,-18.77 24.62,-11.76 43.73,-29.28 55.56,-58.7 9.96,8.76 19.21,14.73 25.6,22.93 14.54,18.71 32.9,19.16 52.8,13.16 11.39,-3.43 22.26,-8.58 33.47,-12.69 6.84,-2.5 13.87,-4.5 23.8,-7.72 -0.74,11.29 -1.15,18.76 -1.76,26.24 -2.76,34.46 10.26,55.38 42.77,66.7 12.84,4.48 26.31,7.15 39.4,10.97 3.08,0.89 5.77,3.2 10.79,6.1 -2.46,7.21 -5.23,14 -7.11,21.04 -6.5,24.13 2.3,38.32 25.57,45.51 36.25,11.21 73.33,15.49 111.07,15.66 5.81,0.04 11.65,0.9 18.33,4.49 -3.91,1.68 -7.72,4.61 -11.71,4.83 -37.71,2.16 -75.4,1.33 -110.8,-13.46 -17.88,-7.48 -31.04,-3.13 -43.85,9.23 -22.88,22.08 -41.6,45.64 -33.25,80.65 2.2,9.27 -2.58,14.53 -11.71,16.22 -8.39,1.54 -16.74,3.45 -25.14,4.75 -27.17,4.27 -48.8,15.51 -56.74,47.58 -11.51,-1.54 -22.18,-2.41 -32.61,-4.43 -13.14,-2.51 -25.9,-9.56 -39.2,0.37 -2.59,1.93 -8.29,1.47 -11.78,0.09 -19.67,-7.87 -38.56,-18.14 -58.74,-24.15 -20.11,-5.96 -41.44,-7.89 -67.22,-12.48z"/>
    <path class="fil0" d="M2876.04 1391.87c1.36,0 2.71,0.45 3.81,1.35 1.6,1.31 2.44,3.34 2.19,5.39 -6.89,59.61 28.04,78.9 82.59,89.48 2.85,0.56 4.89,3.04 4.89,5.94l0 14.51c1.35,-4.82 3.05,-9.56 4.79,-14.34l0.72 -2.09c-0.17,-0.1 -0.33,-0.22 -0.49,-0.34 -2.04,-1.28 -3.5,-2.22 -4.67,-2.57 -5.02,-1.47 -10.09,-2.76 -15.2,-4.04 -8.07,-2.06 -16.4,-4.18 -24.49,-6.98 -34.93,-12.19 -49.81,-35.35 -46.8,-72.94 0.42,-4.96 0.73,-9.93 1.11,-16.04l0.07 -1.28 -0.78 0.27c-5.39,1.67 -9.91,3.09 -14.34,4.73 -4.19,1.52 -8.34,3.2 -12.45,4.89 -1.06,0.42 -2.11,0.84 -3.17,1.27 2.9,-0.96 5.9,-1.99 9.02,-3.07l11.28 -3.81c0.63,-0.22 1.26,-0.32 1.92,-0.32zm93.48 146.4l0 16.95c0,1.42 -0.49,2.81 -1.42,3.89 -3.17,3.77 -6.74,7.65 -10.44,11.64 -8.67,9.37 -17.63,19.01 -23.73,30.17 -1.97,3.59 -3.66,7.35 -5.16,11.33 7.05,-15.61 19.06,-28.4 30.89,-39.8 9.44,-9.1 19.04,-13.9 29.36,-14.51 -9.76,-4.75 -16.26,-11.31 -19.5,-19.67zm-183.61 159.39c9.8,0 20.2,2.36 38.68,7.39 13.06,-35 45.1,-43.21 71.08,-49.85 2.95,-0.76 5.83,-1.5 8.63,-2.26 1.89,-6.28 3.49,-12.3 5.04,-18.06 3.83,-14.33 7.45,-27.86 13.99,-39.76 6.83,-12.44 16.72,-23.12 25.46,-32.57 3,-3.25 5.95,-6.43 8.65,-9.54l0 -54.01c-46.46,-9.67 -91.29,-29.14 -88.19,-92.39l-2.5 0.86c-7.09,2.41 -13.48,4.6 -19.91,6.56 -29.14,8.88 -59.26,12.87 -82.1,-17.81 -0.4,-0.54 -1.33,-1.21 -2.41,-1.92 -22.57,33.28 -57.06,48.85 -90.51,63.9 -3.56,1.64 -7.15,3.24 -10.72,4.87 2.3,37.15 -16.65,65.09 -37.32,90.31 24.45,33.61 33.2,71.08 26.67,114.26 7.23,1.54 14.44,2.9 21.54,4.24 31.09,5.87 60.54,11.43 85.68,30.76 12,-3.25 19.89,-4.98 28.24,-4.98zm-5.58 13.06c6.04,0 11.83,1.57 17.29,3.02 2.63,0.71 5.28,1.42 7.92,1.9 6.98,1.35 14.04,2.19 21.39,3.03 1.89,0.24 3.76,0.46 5.68,0.68 11.02,-35.17 39.41,-43.63 60.2,-46.87 5.16,-0.83 10.23,-1.84 15.33,-2.87 3.22,-0.64 6.44,-1.3 9.67,-1.91 3.25,-0.59 5.59,-1.74 6.57,-3.23 0.81,-1.27 0.93,-3.13 0.33,-5.61 -2.69,-11.36 -2.78,-21.56 -1.01,-30.84 -0.87,3.2 -1.79,6.54 -2.7,9.98 -1.82,6.84 -3.76,14.09 -6.12,21.65 -0.62,1.96 -2.15,3.47 -4.09,4.01 -3.93,1.13 -7.99,2.16 -12.15,3.24 -26.86,6.87 -54.65,13.99 -64.32,47.15 -0.93,3.2 -4.23,5.1 -7.42,4.16 -38.62,-10.69 -41.2,-10.78 -69.01,-3.12 -1.9,0.51 -3.91,0.11 -5.43,-1.13 -23.29,-18.99 -52.16,-24.45 -82.73,-30.22 -9.08,-1.74 -18.29,-3.45 -27.55,-5.57 -3.14,-0.71 -5.16,-3.8 -4.59,-6.96 7.89,-43.76 -0.7,-81.14 -26.3,-114.35 -1.72,-2.22 -1.65,-5.37 0.15,-7.53 20.95,-25.23 41.09,-52.89 37.28,-89.37 -0.29,-2.56 1.11,-5.02 3.45,-6.1 4.87,-2.28 9.78,-4.48 14.68,-6.69 35,-15.79 68.05,-30.69 88.51,-64.41 0.88,-1.45 2.29,-2.48 3.96,-2.8 1.67,-0.35 3.37,0.02 4.74,1.01 1.16,0.84 2.31,1.55 3.35,2.21 2.5,1.58 5.09,3.2 7.04,5.8 5.66,7.65 11.85,12.7 18.6,15.72 -5.83,-2.96 -11.49,-7.5 -16.73,-14.26 -3.87,-4.96 -9.08,-9.17 -15.15,-14.04 -1.11,-0.9 -2.24,-1.82 -3.42,-2.78 -11.63,24.59 -29.37,41.96 -55.21,54.31 -3.3,1.57 -6.59,3.19 -9.88,4.82 -10.51,5.21 -21.4,10.6 -32.88,14.26 -11.49,3.66 -14.54,7.43 -13.65,16.94 2.9,31.04 -13.12,54.69 -29.17,73.74 -3.81,4.52 -7.68,9.03 -11.78,13.8l-1.35 1.6c32.44,35.49 42.64,77.28 31.03,127.43 5.86,0.99 11.48,1.87 16.9,2.68 15.71,2.43 30.54,4.7 44.61,8.88 13.3,3.94 26.11,9.73 38.46,15.31 6.93,3.09 13.84,6.22 20.83,9.03 2.12,0.86 5.25,0.91 6.11,0.54 6.29,-4.72 12.52,-6.26 18.54,-6.26zm56.68 21.33c-0.24,0 -0.51,-0.01 -0.78,-0.05 -3.64,-0.5 -7.21,-0.91 -10.72,-1.33 -7.65,-0.9 -15,-1.77 -22.24,-3.17 -2.93,-0.55 -5.85,-1.33 -8.75,-2.11 -10.9,-2.88 -17.98,-4.36 -25.7,1.39 -5.09,3.77 -13.33,2.57 -17.64,0.88 -7.15,-2.88 -14.23,-6.07 -21.27,-9.24 -12.02,-5.41 -24.44,-11 -36.94,-14.73 -13.31,-3.96 -27.08,-6.08 -43.02,-8.51 -7.45,-1.16 -15.27,-2.36 -23.54,-3.84 -1.67,-0.29 -3.11,-1.27 -4.04,-2.68 -0.91,-1.44 -1.18,-3.17 -0.74,-4.81 13.35,-50.47 3.46,-91.8 -30.25,-126.34 -2.19,-2.22 -2.29,-5.78 -0.26,-8.14l4.91 -5.73c4.08,-4.76 7.92,-9.2 11.72,-13.7 15.17,-18.02 28.89,-38.35 26.39,-64.85 -1.82,-19.35 10.11,-25.8 22.02,-29.57 10.6,-3.37 21.07,-8.56 31.18,-13.57 3.34,-1.65 6.65,-3.32 10.01,-4.92 25.53,-12.18 42.23,-29.81 52.55,-55.48 0.72,-1.82 2.31,-3.17 4.19,-3.63 1.84,-0.46 3.94,0.05 5.4,1.35 3.2,2.81 6.32,5.34 9.3,7.72 6.37,5.12 12.39,9.96 17.11,16.02 11.06,14.22 24.93,17.54 46.29,11.11 6.78,-2.06 13.33,-4.72 20.28,-7.53 4.26,-1.72 8.53,-3.47 12.84,-5.04 4.6,-1.7 9.3,-3.15 14.88,-4.92l9.14 -2.88c1.94,-0.64 4.01,-0.25 5.58,0.98 1.57,1.23 2.44,3.17 2.31,5.16l-0.62 10.06c-0.41,6.2 -0.71,11.22 -1.13,16.28 -2.57,32.06 9.02,50.16 38.71,60.52 7.6,2.66 15.69,4.7 23.51,6.69 5.22,1.33 10.44,2.65 15.62,4.18 2.83,0.82 5.13,2.29 7.77,4.01 1.24,0.77 2.66,1.68 4.33,2.65 2.52,1.43 3.64,4.46 2.69,7.21l-2.41 6.81c-1.69,4.65 -3.32,9.19 -4.59,13.83 -5.49,20.41 0.93,31.82 21.52,38.14 32.92,10.18 68.66,15.22 109.32,15.42 5.39,0.04 12.69,0.64 21.15,5.21 2.04,1.08 3.28,3.25 3.2,5.54 -0.1,2.32 -1.52,4.4 -3.63,5.3 -1.1,0.49 -2.16,1.06 -3.22,1.63 -3.06,1.63 -6.47,3.47 -10.52,3.71 -35,1.99 -75.7,1.92 -113.52,-13.94 -14.39,-5.97 -25.18,-3.67 -37.33,8 -24.81,23.93 -38.75,44.81 -31.57,74.93 1.38,5.82 0.71,10.87 -1.99,15 -2.88,4.44 -7.76,7.31 -14.49,8.56 -3.17,0.59 -6.32,1.22 -9.47,1.84 -5.28,1.06 -10.54,2.13 -15.86,2.95 -30,4.7 -45.5,17.56 -51.78,43.02 -0.67,2.73 -3.12,4.61 -5.88,4.61z"/>
    <path class="fil0" d="M3187.7 1244.09c-66.65,53.12 -133.3,106.25 -204.72,163.16 6.35,-9.43 8.88,-15.54 13.31,-19.43 33.25,-29.11 66.11,-58.76 100.61,-86.33 27.74,-22.18 57.61,-41.69 86.52,-62.37 1.42,1.64 2.85,3.32 4.28,4.98z"/>
    <path class="fil0" d="M2982.98 1413.31c-1.48,0 -2.95,-0.54 -4.09,-1.61 -2.2,-2 -2.58,-5.32 -0.94,-7.81 2.22,-3.29 3.98,-6.15 5.48,-8.65 3,-4.94 5.33,-8.83 8.92,-11.96l19.68 -17.3c26.22,-23.11 53.34,-47 81.13,-69.22 19.38,-15.5 40.07,-29.9 60.06,-43.82 8.93,-6.22 17.86,-12.41 26.71,-18.74 2.52,-1.82 6.07,-1.42 8.07,0.96l4.33 5.02c1.06,1.26 1.55,2.88 1.4,4.5 -0.17,1.63 -0.96,3.13 -2.24,4.13l-204.74 163.16c-1.1,0.89 -2.44,1.33 -3.76,1.33z"/>
    <path class="fil0" d="M2608.54 1395.68c-52.75,-3.59 -160.28,-100.32 -172.12,-152.8 25.01,27.59 48.59,58.36 77.04,83.64 28.89,25.67 62.61,45.92 95.08,69.16z"/>
    <path class="fil0" d="M2472.38 1293.25c24.79,29.93 60.5,60.85 92.03,79.37 -18.87,-12.91 -37.87,-26.39 -54.97,-41.57 -13.19,-11.75 -25.38,-24.67 -37.06,-37.8zm136.15 108.46c-0.15,0 -0.29,0 -0.42,-0.02 -53.91,-3.65 -165.12,-102.28 -177.59,-157.49 -0.59,-2.7 0.68,-5.42 3.12,-6.7 2.43,-1.25 5.41,-0.71 7.26,1.31 7.6,8.41 15.08,17.09 22.63,25.85 16.91,19.63 34.4,39.99 53.94,57.33 19.75,17.55 41.44,32.29 64.41,47.9 10.06,6.84 20.15,13.7 30.15,20.86 2.19,1.57 3.08,4.4 2.16,6.94 -0.86,2.43 -3.13,4.01 -5.66,4.01z"/>
    <path class="fil0" d="M2564.5 1554c-60.18,9.45 -120.04,7.76 -179.5,-7.96 19.54,-8.47 38.96,0.38 58.48,-0.16 20.34,-0.59 40.73,0.54 61.09,0.69 20.09,0.15 40.17,0.03 60.28,0.03 -0.13,2.46 -0.23,4.92 -0.35,7.4z"/>
    <path class="fil0" d="M2451.39 1551.77c23.14,2.22 46.77,2.51 70.7,0.91 -5.85,0 -11.71,-0.02 -17.58,-0.07 -7.38,-0.05 -14.81,-0.23 -22.24,-0.44 -10.15,-0.23 -20.55,-0.52 -30.87,-0.4zm113.11 2.22l0.17 0 -0.17 0zm-72.4 11.8c-37.26,0 -73.57,-4.65 -108.63,-13.92 -2.51,-0.66 -4.31,-2.81 -4.5,-5.38 -0.19,-2.56 1.26,-4.99 3.62,-6 14.24,-6.15 27.91,-4.25 41.17,-2.38 6.79,0.98 13.16,1.94 19.57,1.7 13.09,-0.35 26.35,-0.05 39.23,0.27 7.35,0.2 14.7,0.37 22.04,0.44 13.99,0.1 27.94,0.09 41.88,0.05l18.37 -0.02c1.65,0 3.22,0.67 4.37,1.87 1.13,1.18 1.74,2.78 1.67,4.43l-0.34 7.39c-0.15,2.88 -2.26,5.26 -5.11,5.7 -24.76,3.91 -49.24,5.85 -73.34,5.85z"/>
    <path class="fil0" d="M2823.22 1769.15c21.93,50.64 10.75,159.46 -19.31,198.66 6.44,-32.52 15.42,-64.81 18.59,-97.64 3.22,-33.39 0.73,-67.33 0.73,-101.02z"/>
    <path class="fil0" d="M2803.91 1973.86c-0.84,0 -1.69,-0.17 -2.5,-0.54 -2.56,-1.17 -3.97,-3.91 -3.43,-6.69 1.98,-9.96 4.17,-19.9 6.4,-29.86 4.89,-21.99 9.95,-44.74 12.12,-67.19 2.19,-22.85 1.65,-46.53 1.15,-69.47 -0.22,-10.31 -0.48,-20.65 -0.48,-30.96 0,-2.85 2.03,-5.33 4.82,-5.91 2.8,-0.51 5.65,0.91 6.78,3.52 22.63,52.26 11.74,163.24 -20.06,204.74 -1.19,1.54 -2.98,2.36 -4.8,2.36z"/>
    <path class="fil0" d="M2814.39 1134.67c-25.07,61.82 -22.75,126.29 -20.34,192.34 -11.8,-14 -14.46,-42.01 -10.6,-97.88 2.91,-42.3 12.48,-74.02 30.94,-94.46z"/>
    <path class="fil0" d="M2794.05 1333.04c-1.74,0 -3.46,-0.76 -4.62,-2.15 -12.86,-15.23 -16.11,-42.92 -12.02,-102.19 3.12,-45.23 13.75,-77.34 32.49,-98.09 1.98,-2.19 5.23,-2.65 7.69,-1.06 2.49,1.54 3.5,4.67 2.41,7.38 -24.62,60.65 -22.33,123.41 -19.92,189.82 0.1,2.58 -1.44,4.94 -3.86,5.87 -0.71,0.29 -1.45,0.41 -2.17,0.41z"/>
    <path class="fil0" d="M2621.75 1742.32c-44.71,51.22 -85.91,98.39 -127.12,145.57 0.76,-17.73 13.21,-27.72 22.87,-39.39 10.87,-13.06 22.47,-25.56 33.54,-38.47 10.52,-12.24 20.83,-24.68 31.15,-37.11 21.28,-25.67 21.25,-25.7 39.57,-30.61z"/>
    <path class="fil0" d="M2494.65 1893.93c-0.76,0 -1.52,-0.13 -2.23,-0.44 -2.39,-0.94 -3.91,-3.3 -3.8,-5.86 0.69,-16.59 10.35,-27.32 18.84,-36.78 1.84,-2.06 3.69,-4.09 5.43,-6.18 6.37,-7.7 12.99,-15.17 19.61,-22.64 4.69,-5.29 9.35,-10.56 13.94,-15.93 10.09,-11.71 19.95,-23.61 29.83,-35.49l1.28 -1.56c21.7,-26.2 22.55,-27.2 42.64,-32.57 2.52,-0.73 5.29,0.37 6.69,2.65 1.4,2.26 1.18,5.16 -0.57,7.16l-127.11 145.57c-1.16,1.33 -2.81,2.06 -4.55,2.06z"/>
    <path class="fil0" d="M2934.97 1722.54c27.37,10.92 84.21,71.32 109.71,114.04 -10.14,2.29 -13.98,-5.58 -18.42,-10.57 -29.48,-32.96 -58.54,-66.27 -91.29,-103.48z"/>
    <path class="fil0" d="M2988.26 1774c7.18,8.16 14.29,16.19 21.33,24.19 -6.84,-8.33 -14.07,-16.48 -21.33,-24.19zm52.93 69.03c-9.05,0 -14.19,-6.45 -17.44,-10.55 -0.69,-0.86 -1.35,-1.69 -2,-2.43 -22.16,-24.84 -44.12,-49.81 -67.58,-76.51l-23.74 -27.02c-1.85,-2.11 -2,-5.19 -0.41,-7.48 1.62,-2.31 4.57,-3.15 7.2,-2.14 29.94,11.96 87.94,75.15 112.66,116.57 1,1.65 1.13,3.69 0.37,5.46 -0.76,1.81 -2.34,3.1 -4.23,3.52 -1.72,0.41 -3.32,0.57 -4.82,0.57z"/>
    <path class="fil0" d="M3044.17 1913.1c-8.28,13.94 -16.57,27.89 -26.7,44.93 -1.06,-20.78 4.37,-30.69 26.7,-44.93z"/>
    <path class="fil0" d="M3017.48 1964.08c-0.49,0 -0.98,-0.07 -1.45,-0.18 -2.59,-0.65 -4.46,-2.89 -4.58,-5.55 -1.18,-23.44 5.71,-35.19 29.49,-50.34 2.35,-1.48 5.43,-1.2 7.45,0.74 2,1.97 2.41,5.02 0.98,7.43l-26.69 44.93c-1.09,1.89 -3.08,2.96 -5.19,2.96z"/>
    <path class="fil0" d="M3262.21 1442.87c3.91,19.87 -7.57,32.73 -21.02,44.73 7.01,-14.9 14.02,-29.83 21.02,-44.73z"/>
    <path class="fil0" d="M3241.21 1493.65c-1.28,0 -2.53,-0.41 -3.61,-1.22 -2.31,-1.7 -3.08,-4.8 -1.85,-7.41l21 -44.71c1.13,-2.37 3.68,-3.74 6.22,-3.43 2.6,0.32 4.69,2.28 5.19,4.84 4.6,23.52 -9.42,38.35 -22.92,50.4 -1.15,1.01 -2.58,1.54 -4.03,1.54z"/>
    <path class="fil0" d="M2332.49 1741.65c5.17,11.7 10.35,23.39 17.13,38.8 -18.69,-14.22 -19.9,-16.7 -17.13,-38.8z"/>
    <path class="fil0" d="M2349.63 1786.48c-1.28,0 -2.57,-0.42 -3.63,-1.23 -20.51,-15.6 -22.53,-20.17 -19.48,-44.36 0.32,-2.7 2.43,-4.82 5.11,-5.22 2.83,-0.44 5.33,1.06 6.41,3.56l17.13 38.76c1.12,2.53 0.37,5.48 -1.77,7.18 -1.11,0.88 -2.43,1.32 -3.76,1.32z"/>
    <path class="fil0" d="M2320.43 1783.84c-6.2,-13.48 -12.39,-26.94 -18.57,-40.44 1.6,-0.79 3.19,-1.58 4.79,-2.37 6.41,13.35 12.82,26.69 19.26,40.06 -1.83,0.93 -3.67,1.84 -5.47,2.76z"/>
    <path class="fil0" d="M2320.43 1789.88c-0.66,0 -1.33,-0.1 -1.97,-0.32 -1.57,-0.52 -2.83,-1.7 -3.52,-3.19l-18.59 -40.46c-1.35,-2.98 -0.08,-6.49 2.85,-7.94l4.76 -2.36c1.43,-0.73 3.12,-0.81 4.64,-0.29 1.54,0.52 2.8,1.63 3.49,3.1l19.24 40.02c1.43,2.96 0.22,6.52 -2.71,8.02l-5.43 2.74c-0.87,0.46 -1.82,0.66 -2.76,0.66z"/>
    <path class="fil0" d="M2671.85 2015.79c-0.56,-10.5 -1.15,-21.05 -1.96,-35.85 12.64,13.38 7.15,25.06 9.81,35.49 -2.61,0.12 -5.24,0.22 -7.85,0.35z"/>
    <path class="fil0" d="M2671.85 2021.84c-3.19,0 -5.85,-2.52 -6.04,-5.72l-1.94 -35.84c-0.15,-2.53 1.3,-4.87 3.64,-5.88 2.29,-1.02 5.02,-0.46 6.78,1.4 10.33,10.92 10.44,21.2 10.55,29.46 0.03,3.3 0.07,6.15 0.71,8.68 0.46,1.76 0.08,3.61 -1,5.07 -1.08,1.47 -2.76,2.38 -4.58,2.48l-7.83 0.36c-0.1,0 -0.19,0 -0.29,0z"/>
    <path class="fil0" d="M3050.19 1931.45c-4.52,9.68 -9.05,19.39 -13.57,29.06 -2.11,-0.96 -4.21,-1.98 -6.3,-2.93 4.59,-9.69 9.17,-19.35 13.76,-29.02 2.04,0.98 4.07,1.92 6.11,2.89z"/>
    <path class="fil0" d="M3036.65 1966.56c-0.86,0 -1.72,-0.17 -2.54,-0.56l-6.34 -2.93c-1.46,-0.69 -2.57,-1.94 -3.13,-3.44 -0.54,-1.52 -0.47,-3.2 0.22,-4.63l13.75 -29.02c1.45,-3.03 5.02,-4.23 8.04,-2.9l6.15 2.92c3,1.43 4.28,5.01 2.88,8.02l-13.55 29.06c-1.04,2.19 -3.22,3.49 -5.48,3.49z"/>
    <path class="fil0" d="M2537.28 1163.67c5.19,11.46 10.4,22.94 15.59,34.41 -2.02,0.89 -4.04,1.8 -6.07,2.73 -5.27,-11.19 -10.55,-22.37 -15.81,-33.52 2.09,-1.21 4.18,-2.43 6.28,-3.62z"/>
    <path class="fil0" d="M2546.82 1206.85c-2.28,0 -4.45,-1.26 -5.46,-3.45l-15.83 -33.52c-1.35,-2.83 -0.29,-6.24 2.44,-7.8l6.29 -3.62c1.48,-0.88 3.28,-1.08 4.87,-0.51 1.61,0.51 2.95,1.69 3.65,3.24l15.61 34.4c0.66,1.46 0.69,3.13 0.14,4.65 -0.56,1.48 -1.69,2.71 -3.17,3.37l-6.07 2.71c-0.81,0.37 -1.65,0.54 -2.48,0.54z"/>
    <path class="fil0" d="M2517.26 1211.6c-5.5,-8.74 -10.99,-17.49 -16.48,-26.26 1.85,-1.11 3.76,-2.22 5.63,-3.3 5.29,8.85 10.59,17.73 15.86,26.58 -1.67,1.01 -3.35,1.98 -5,2.98z"/>
    <path class="fil0" d="M2517.26 1217.65c-2.01,0 -3.98,-1.02 -5.13,-2.85l-16.48 -26.24c-0.86,-1.38 -1.15,-3.07 -0.76,-4.65 0.39,-1.57 1.4,-2.95 2.8,-3.78l5.7 -3.34c2.81,-1.65 6.5,-0.72 8.22,2.14l15.86 26.59c0.81,1.39 1.05,3.02 0.66,4.59 -0.39,1.55 -1.4,2.88 -2.78,3.7l-5.02 2.97c-0.96,0.59 -2.02,0.86 -3.06,0.86z"/>
    <path class="fil0" d="M2649.96 1996.83c2.3,7.21 4.57,14.39 6.84,21.6 -1.53,0.56 -3.07,1.11 -4.59,1.69 -2.74,-6.78 -5.51,-13.55 -8.25,-20.34 1.98,-0.98 3.99,-1.96 6,-2.94z"/>
    <path class="fil0" d="M2652.23 2026.17c-2.39,0 -4.65,-1.42 -5.59,-3.78l-8.3 -20.34c-1.19,-2.95 0.11,-6.32 2.97,-7.7l6.02 -2.94c1.55,-0.76 3.39,-0.85 5,-0.12 1.61,0.71 2.85,2.06 3.39,3.72l6.84 21.6c1,3.05 -0.62,6.37 -3.64,7.48l-4.59 1.69c-0.71,0.25 -1.42,0.39 -2.11,0.39z"/>
    <path class="fil0" d="M2826.24 1543.98c14.32,-1.41 22.24,-10.24 26.27,-21.57 1.72,-4.85 -2.15,-11.66 -3.5,-17.56 -6.05,1.78 -14.33,1.72 -17.7,5.76 -7.65,9.15 -10.85,20.58 -5.07,33.37zm-18.1 -16.15c-12.74,10.2 -23.12,17.36 -32.14,25.99 -10.57,10.13 -13.3,23.17 -10.28,37.56 3.62,17.26 11.75,27.27 24.35,29.35 10.84,1.81 25.83,-6.67 32.24,-20.85 5.5,-12.11 8.38,-25.41 13,-40.04 -18.93,-1.62 -27.64,-11.22 -27.17,-32.02zm-55.14 58.3c-0.22,-18.86 5.06,-32.69 17.44,-43.53 19.85,-17.34 39.5,-34.92 59.57,-51.99 11.31,-9.61 35.17,0.45 37.03,16.8 1.04,9.33 -0.83,21.72 -6.45,28.56 -12.57,15.32 -16.74,33.02 -21.83,51.02 -2.53,8.86 -6.07,17.98 -11.34,25.46 -9.81,13.91 -23.1,23.04 -41.4,19.57 -18.26,-3.5 -27.03,-16.46 -31.11,-33.38 -1.21,-4.91 -1.53,-10.06 -1.9,-12.51z"/>
    <path class="fil0" d="M2844.86 1511.96c-0.29,0.03 -0.56,0.08 -0.86,0.15 -2.85,0.5 -7.13,1.28 -8.05,2.37 -5.97,7.16 -7.91,14.76 -5.75,22.67 7.9,-2.11 13.38,-7.62 16.61,-16.77 0.46,-1.35 -0.88,-5.26 -1.77,-7.87 -0.07,-0.19 -0.12,-0.37 -0.19,-0.56zm-18.61 38.05c-2.36,0 -4.52,-1.37 -5.49,-3.54 -6.2,-13.67 -4.09,-27.77 5.9,-39.72 3.74,-4.46 9.84,-5.57 15.2,-6.54 1.87,-0.35 3.78,-0.65 5.44,-1.16 1.62,-0.51 3.33,-0.29 4.79,0.59 1.45,0.84 2.46,2.24 2.85,3.87 0.36,1.63 0.95,3.36 1.55,5.07 1.69,4.94 3.61,10.52 1.72,15.84 -5.39,15.2 -16.23,24.05 -31.36,25.55 -0.19,0.01 -0.41,0.03 -0.59,0.03zm-18.1 -28.21c0.91,0 1.83,0.18 2.68,0.62 2.11,1.03 3.4,3.2 3.35,5.54 -0.4,17.26 5.67,24.49 21.64,25.87 1.82,0.16 3.47,1.15 4.5,2.65 0.41,0.61 0.69,1.26 0.84,1.97 3.45,-9.11 7.94,-18.05 14.73,-26.33 4.54,-5.51 6,-16.24 5.13,-24.05 -0.63,-5.59 -5.43,-10.94 -12.22,-13.63 -5.76,-2.27 -11.63,-1.98 -14.85,0.78 -13.75,11.66 -27.25,23.56 -40.78,35.48l-12.2 10.72c3.69,-3.03 7.61,-6.05 11.85,-9.3 3.62,-2.8 7.48,-5.74 11.56,-9 1.1,-0.88 2.43,-1.31 3.78,-1.31zm-5.22 17.78c-0.93,0.72 -1.84,1.43 -2.75,2.12 -7.58,5.83 -14.16,10.87 -19.99,16.48 -8.44,8.06 -11.31,18.83 -8.54,31.95 3.11,14.95 9.47,23.01 19.41,24.64 7.82,1.35 20.37,-5.52 25.75,-17.37 3.59,-7.89 6.07,-16.55 8.69,-25.75 0.66,-2.22 1.3,-4.54 1.98,-6.84 -13.94,-3.09 -22.04,-11.39 -24.56,-25.23zm-42.81 54.48c0.19,1.04 0.39,2.11 0.64,3.15 3.61,14.93 10.48,23.81 21.49,27.56 -8.71,-3.52 -17.85,-11.9 -22.13,-30.7zm33.67 44.72c-2.91,0 -5.9,-0.27 -8.92,-0.84 -18.59,-3.57 -30.65,-16.31 -35.86,-37.89 -0.93,-3.86 -1.4,-7.83 -1.72,-10.74l-0.29 -2.31c-0.03,-0.27 -0.06,-0.56 -0.06,-0.83 -0.24,-21.01 5.98,-36.3 19.53,-48.15l18.71 -16.43c13.56,-11.94 27.13,-23.9 40.93,-35.61 6.72,-5.7 17.05,-6.78 27.12,-2.8 11.07,4.4 18.65,13.4 19.81,23.51 1.16,10.35 -0.81,24.57 -7.8,33.1 -10.67,12.99 -14.9,28.11 -19.39,44.11l-1.31 4.72c-3.19,11.22 -7.18,20.17 -12.2,27.28 -10.74,15.22 -23.66,22.87 -38.56,22.87z"/>
    <path class="fil0" d="M2738.22 1501.01c-23.63,-2.16 -43.25,-11.15 -54.77,-34.37 8.98,5.87 17.86,11.88 26.96,17.59 9.17,5.75 18.52,11.17 27.81,16.77z"/>
    <path class="fil0" d="M2738.22 1507.06c-0.15,0 -0.36,-0.02 -0.54,-0.03 -28.87,-2.63 -48.37,-14.97 -59.63,-37.7 -1.19,-2.44 -0.62,-5.39 1.41,-7.19 2.04,-1.82 5.05,-2.02 7.33,-0.54l8.41 5.54c6.09,4.03 12.22,8.07 18.42,11.96 6.25,3.93 12.57,7.7 18.91,11.44l8.83 5.28c2.39,1.45 3.5,4.38 2.61,7.06 -0.81,2.5 -3.13,4.18 -5.74,4.18z"/>
    <path class="fil0" d="M2770.2 1680.96c0,-11.24 0,-22.48 0,-33.69 9.78,11.51 9.99,22.75 0,33.69z"/>
    <path class="fil0" d="M2770.2 1687.01c-0.74,0 -1.5,-0.13 -2.19,-0.42 -2.33,-0.88 -3.86,-3.13 -3.86,-5.63l0 -33.69c0,-2.55 1.59,-4.81 3.96,-5.68 2.36,-0.86 5.04,-0.14 6.69,1.75 11.78,13.9 11.75,28.7 -0.17,41.69 -1.15,1.28 -2.78,1.98 -4.43,1.98z"/>
    <path class="fil0" d="M2711.76 1536.26c-13.87,9.3 -27.02,10.48 -39.81,0 13.26,0 26.54,0 39.81,0z"/>
    <path class="fil0" d="M2690.81 1549.75c-7.93,0 -15.5,-2.95 -22.68,-8.81 -1.99,-1.62 -2.71,-4.3 -1.87,-6.7 0.86,-2.41 3.15,-4.01 5.7,-4.01l39.81 0c2.65,0 5,1.74 5.76,4.28 0.79,2.55 -0.19,5.31 -2.39,6.79 -8.43,5.63 -16.55,8.46 -24.32,8.46z"/>
    <path class="fil0" d="M2685.74 1647.09c9.44,-7.15 18.87,-14.29 28.31,-21.44 1.48,1.92 2.95,3.86 4.43,5.8 -9.42,7.33 -18.82,14.66 -28.23,21.99 -1.52,-2.11 -3.04,-4.23 -4.52,-6.35z"/>
    <path class="fil0" d="M2690.25 1659.47c-0.28,0 -0.57,0 -0.86,-0.05 -1.62,-0.25 -3.09,-1.13 -4.06,-2.48l-4.53 -6.35c-1.89,-2.66 -1.33,-6.35 1.28,-8.32l28.33 -21.44c2.67,-2.02 6.44,-1.52 8.46,1.15l4.43 5.81c1.99,2.64 1.5,6.39 -1.11,8.43l-28.23 22c-1.06,0.83 -2.36,1.26 -3.71,1.26z"/>
    <path class="fil0" d="M2865.6 1583.87c9.74,13.45 16.13,22.26 24.56,33.89 -19.63,-6.4 -20.56,-7.61 -24.56,-33.89z"/>
    <path class="fil0" d="M2890.16 1623.8c-0.63,0 -1.25,-0.1 -1.87,-0.3 -22.59,-7.35 -24.47,-11.28 -28.66,-38.7 -0.43,-2.74 1.09,-5.44 3.67,-6.48 2.56,-1.12 5.56,-0.26 7.21,2.02l24.55 33.88c1.56,2.11 1.54,4.99 0,7.09 -1.16,1.6 -3.02,2.49 -4.9,2.49z"/>
    <path class="fil0" d="M2891.29 1518.91c11.02,2.59 22.07,5.21 34.04,8.01 -11.55,9.11 -17.63,8.04 -34.04,-8.01z"/>
    <path class="fil0" d="M2912.74 1538.69c-8.04,0 -15.66,-5.66 -25.67,-15.44 -1.96,-1.92 -2.41,-4.87 -1.1,-7.26 1.31,-2.36 4.06,-3.57 6.68,-2.95l34.07 7.98c2.22,0.53 3.99,2.3 4.5,4.57 0.5,2.26 -0.32,4.62 -2.16,6.05 -6.09,4.82 -11.29,7.05 -16.33,7.05z"/>
    <path class="fil0" d="M2791.64 1471.4c-0.89,-10.4 -1.77,-20.78 -2.66,-31.19 12.28,8.78 10.23,19.82 9.13,30.67 -2.15,0.17 -4.31,0.35 -6.47,0.52z"/>
    <path class="fil0" d="M2791.64 1477.45c-3.12,0 -5.76,-2.4 -6.04,-5.55l-2.65 -31.21c-0.2,-2.33 0.98,-4.58 3.04,-5.75 2.06,-1.15 4.58,-1.03 6.5,0.36 14.39,10.28 12.98,23.52 11.83,34.19l-0.2 1.99c-0.3,2.87 -2.6,5.14 -5.48,5.41l-6.54 0.54c-0.19,0.02 -0.32,0.02 -0.47,0.02z"/>
   </g>
   <path class="fil0" d="M1014.94 2369.78c23.08,32.58 41.17,36.87 78.74,18.61 -25.86,-10.5 -48.83,-26.02 -78.74,-18.61zm-38.46 -17.62c14.97,-35.64 10.76,-58.04 -17.03,-90.72 -4.77,45.11 -0.66,66.98 17.03,90.72zm316.83 -368.43c-12.99,31.78 -13.57,64.59 -1.6,91.19 25.59,-33.29 25.89,-50.25 1.6,-91.19zm-232.2 287.03c21.53,-44.97 16.18,-71.22 -19.7,-105.83 -0.66,36.4 -4.22,70.46 19.7,105.83zm29.92 12.96c22,42.77 44.28,51.5 109.6,39.73 -39.62,-17.69 -67.19,-44.87 -109.6,-39.73zm75.68 -109.5c17.2,-42.55 6.17,-81.31 -29.67,-108.68 1.09,38.39 -7.88,77.43 29.67,108.68zm150.53 -76.44c27.58,41.49 60.87,50.41 112.51,26.97 -40.58,-9.65 -68.72,-44.16 -112.51,-26.97zm-7.36 144.57c-25.14,-32.66 -78.16,-58.65 -109.74,-53.83 22.7,48.36 49.65,61.57 109.74,53.83zm212.03 -333.62c-42.85,31.46 -88.65,57.41 -127.73,97.22 16.82,5.47 29.67,14.14 40.37,11.97 13.93,-2.79 27.56,-12.54 38.87,-22.17 26.47,-22.53 40.96,-52.79 48.5,-87.02zm-527.07 468.63c-97.09,105.89 -180.82,220.13 -237.63,362.74 -1.2,-14.04 -3.96,-21.12 -1.92,-26.3 12.08,-30.54 22.91,-61.89 38.53,-90.58 41.99,-77.09 93.8,-147.58 150.73,-214.32 8.94,-10.5 17.93,-20.96 26.5,-30.99 -36.34,-51.72 -27.07,-106.76 -24.2,-164.59 31.62,27.15 49.9,69.12 56.29,127.28 18.03,-20.02 34.37,-38.13 51.56,-57.21 -40.48,-44.35 -20.12,-101.85 -31.05,-159.62 44.63,29.32 66.62,73.7 66.65,132.26 25.28,-22.07 47.38,-41.36 72.19,-63.02 -51.04,-47.61 -40.67,-105.68 -30.99,-164.18 35.42,36.7 63.08,76.26 60.53,136.98 32.46,-22.44 58.17,-45.1 86.59,-67.29 -22.67,-56.2 -0.57,-112.13 -4.41,-171.15 33.1,27.44 52.55,80.78 49.79,133.88 24.27,-16.13 54.27,-22.54 56.7,-58.11 0.31,-4.32 4.78,-8.96 8.33,-12.39 43.76,-42.33 94.56,-75 146.33,-110.83 7.2,74.91 -60.17,151.05 -114.8,157.43 -44.25,5.18 -44.19,5.62 -77.76,34.89 40.04,18.16 79.23,35.93 120.17,54.5 -64.31,38.73 -110.51,33.25 -167.36,-20.37 -23.56,18.92 -47.63,38.26 -74.2,59.62 24.92,14.67 46.45,27.12 67.74,39.98 20.33,12.28 40.39,25.01 62.35,38.65 -73.59,30.3 -106.38,22.37 -172.77,-41.59 -22.37,18.95 -45.04,38.16 -67.79,57.44 48.4,25.24 94.51,49.25 140.59,73.29 -1.27,3.36 -2.54,6.73 -3.82,10.1 -58.69,-7.39 -125.97,24.65 -170.57,-44.72 -16.7,18.44 -32.17,35.52 -46.65,51.54 31.81,11.78 68.24,25.27 106.21,39.33 -49.7,34.06 -95.32,30.15 -141.84,-12.67z"/>
   <path class="fil0" d="M1974.17 1608.61c2.28,9.94 4,20.34 7.15,30.29 2.37,7.51 5.87,14.85 10,21.59 16.76,27.45 49.69,42.83 77.71,36.84 37.76,-8.11 62.13,-33.3 66.49,-68.77 10.19,-83.19 -49.1,-199.8 -122.24,-239.85 -8.08,-4.42 -16.69,-8.4 -25.51,-10.92 -25.18,-7.14 -54.85,1.22 -65.31,17.57 -9.98,15.54 -4.74,48.57 12.5,66.3 7.02,7.25 18.09,10.35 26.51,16.47 14.87,10.78 31.73,20.27 43.08,34.13 29.81,36.45 15.76,80.25 -30.36,96.35zm0.27 -69.17c0.18,17.89 0.18,17.89 22.82,25.64 -8.91,-9.21 -16.64,-17.2 -24.35,-25.21 6.66,-16.02 6.66,-16.02 -8.41,-24.42 0.1,2.54 -0.53,5.43 0.49,7.51 2.78,5.69 6.26,11.03 9.44,16.48zm175.09 115.38c-22.24,40.92 -55.17,59.67 -96.02,59.29 -39.32,-0.39 -68.55,-23.04 -81.36,-59.99 -9.39,-27.24 -15.39,-56.61 -16.98,-85.36 -2,-35.91 -11.45,-67.74 -32.08,-96.74 -3.85,-5.4 -7.16,-11.19 -10.54,-16.91 -14.69,-24.91 -18.27,-51.23 0.04,-74.72 17.8,-22.78 45.04,-31.07 71.87,-22.49 24.71,7.89 50.23,19.56 69.72,36.2 70.07,59.88 96.56,141 102.71,230.03 0.78,11.13 -5.33,22.73 -7.37,30.68z"/>
   <path class="fil0" d="M1884.81 1818.4c0.84,10.17 2.35,20.6 2.37,31.04 0.02,7.87 -1.09,15.93 -2.98,23.6 -7.64,31.24 -34.35,55.89 -62.87,58.68 -38.44,3.73 -69.3,-12.89 -84.22,-45.37 -34.94,-76.19 -13.81,-205.28 43.73,-265.63 6.36,-6.66 13.36,-13.07 21,-18.14 21.83,-14.44 52.63,-15.47 67.57,-3.06 14.22,11.79 19.25,44.85 8.2,66.97 -4.49,9.04 -14.1,15.35 -20.27,23.73 -10.89,14.78 -24.09,28.94 -30.7,45.59 -17.35,43.78 9.33,81.25 58.16,82.6zm-21.24 -65.83c5.26,17.09 5.26,17.09 -13.97,31.35 5.7,-11.48 10.64,-21.44 15.56,-31.41 -11.2,-13.25 -11.2,-13.25 0.6,-25.82 0.67,2.44 2.15,5.01 1.81,7.31 -0.92,6.26 -2.62,12.41 -4,18.57zm-131.85 163.05c33.61,32.24 70.67,40.12 109.48,27.37 37.35,-12.3 58.33,-42.75 59.33,-81.84 0.69,-28.81 -2.51,-58.61 -9.71,-86.49 -8.99,-34.82 -9.63,-68.02 1.23,-101.91 2.03,-6.32 3.43,-12.83 4.91,-19.31 6.44,-28.2 1.87,-54.36 -22.7,-71.19 -23.86,-16.31 -52.34,-15.94 -75.31,0.37 -21.15,15.01 -41.93,33.87 -55.45,55.64 -48.61,78.31 -49.25,163.65 -28.11,250.34 2.64,10.84 11.98,20.04 16.33,27z"/>
   <g>
    <path class="fil0" d="M555.19 1085.94c-2.59,-0.2 -5.18,-0.4 -7.76,-0.6 -2.8,16.97 -5.61,33.94 -9.41,57.03 -42.73,-54.02 -72.7,-111.07 -126.45,-153.11 25.04,-6.43 40.52,2.47 54.11,13.96 11.28,9.54 21.9,20.5 30.33,32.57 9.65,13.81 20.7,22.55 37.57,26.26 26.71,5.88 48.46,22.45 58.22,47.07 9.85,24.84 26.3,30.74 49.65,33.78 33.37,4.34 52.41,23.99 54.23,57.39 1.25,22.73 9.16,38.23 26.11,53.28 29.09,25.79 26.74,83.1 -2.01,111.2 -23.02,-16.83 -39.95,-35.54 -35.41,-68.1 2.85,-20.58 -0.89,-42.07 -1.67,-63.17 -15.68,23.65 -5.9,50.88 -11.92,80.96 -15.92,-18.24 -28.01,-33.76 -41.88,-47.46 -10.58,-10.43 -12.21,-21.04 -9.3,-34.83 4.29,-20.37 6.12,-41.14 5.06,-61.89 -1.94,-0.31 -3.87,-0.6 -5.81,-0.91 -3.91,21.13 -7.82,42.24 -12.81,69.15 -20.04,-27.48 -37.05,-49.32 -52.11,-72.4 -4.16,-6.37 -3.76,-16.54 -3.38,-24.88 0.85,-18.46 3.02,-36.88 4.64,-55.32zm28.97 224.37c-0.07,2.74 -0.16,5.48 -0.22,8.23 18.43,0.52 36.96,0.22 55.3,1.9 9.33,0.85 20.74,2.7 27.02,8.57 16.49,15.45 30.68,33.35 45.9,50.39 -5.33,10.17 -9.46,19.16 -14.56,27.55 -10.3,16.98 -30.39,20.39 -41.52,4.69 -9,-12.69 -20.32,-17.2 -33.46,-22.35 -20.81,-8.15 -39.73,-19.63 -42.87,-45.11 -1.55,-12.71 -9.38,-18.7 -20.82,-22.37 -11.34,-3.65 -22.69,-7.7 -33.35,-12.93 -23.86,-11.7 -40.92,-30.07 -41.56,-57.47 -0.51,-21.69 -10.17,-34.37 -27.19,-45.91 -34.92,-23.67 -46.49,-55.5 -29.82,-92.83 9.27,-20.76 5.58,-35.54 -4.55,-52.73 -9.44,-16 -15.76,-33.35 -14.27,-53.31 52.75,37.69 83.31,92.41 122.37,148 -28.31,-7.62 -50.11,-13.48 -71.9,-19.35 -0.61,2.27 -1.21,4.55 -1.82,6.83 19.7,6.17 39.63,11.68 58.99,18.78 10.86,3.98 23.22,8.36 30.56,16.48 13.8,15.3 24.44,33.44 39.45,54.72 -17.89,-1.46 -31.43,-2.66 -44.98,-3.68 -23.36,-1.76 -23.36,-1.71 -41.27,7.98 27.42,2.82 50.87,5.04 74.27,7.78 7.79,0.92 17.96,0.63 22.69,5.31 16.93,16.76 33.81,34.05 46.3,57.29 -21.66,1.31 -40.18,2.42 -58.7,3.54zm628.28 328.89c-38.23,-1.44 -68.21,17.92 -98.44,37.25 -53.03,33.94 -107.94,64.07 -171.25,74.19 -56.17,8.99 -109.59,1.29 -156.06,-33.38 -32.98,-24.63 -57.65,-56.94 -78.49,-92.68 -33.67,-57.77 -36.88,-116.69 -9.98,-177.1 12.89,-29.01 25.33,-59.9 51.64,-79.09 16.28,-11.89 29.94,-25.04 42.33,-40.34 2.48,-3.04 5.6,-5.69 8.83,-7.97 89.75,-63.62 185.63,-83.86 289.77,-39.11 33.26,14.29 54.22,40.27 59.53,76.57 2.28,15.56 2.28,31.75 1,47.47 -6.86,83.68 1.52,163.17 59.7,229.89 0.61,0.69 0.64,1.86 1.42,4.3zm-1073.51 -152.31l0.17 1.14c-2.22,-15.72 11.11,-17.48 20.48,-20.94 34.59,-12.79 70.22,-14.42 105.18,-2.64 14.41,4.86 23.95,3.52 34.38,-7.35 14.92,-15.55 33.65,-26.53 55.61,-24.18 18.3,1.96 37.59,5.88 53.7,14.22 17.27,8.94 31.15,10.12 46.93,-0.59 6.5,-4.42 13.88,-7.83 21.21,-10.75 28.79,-11.46 56.1,-11.19 80.88,10.41 6.59,5.74 14.42,10.07 23.77,16.47 27.63,-24.29 59.19,-33.26 97.38,-21.02 -10.27,26.81 -9.98,54.4 -30.92,76.3 -26.16,27.34 -32.91,30.87 -69.43,16.75 -1.7,-0.65 -3.89,-0.04 -1.7,-0.07 -16.81,9.32 -29.96,21.78 -44.13,23.07 -15.23,1.37 -31.42,-7.72 -48.11,-12.48 -2.97,2.99 -6.37,6.56 -9.9,9.99 -33.47,32.35 -51.82,35.54 -94.89,14.81 -9.96,-4.8 -16.72,-0.85 -24.74,3.4 -49.3,26.15 -83.44,17.47 -113.26,-30.01 -6.95,-11.1 -14.88,-17.78 -27.39,-20.36 -15.54,-3.2 -31.33,-6.08 -46.27,-11.23 -12.35,-4.25 -28.13,-6.49 -28.94,-24.94zm477.56 -362.13c-17.24,-41.02 -45.17,-66.96 -86.76,-78.07 -6.83,-1.83 -13.08,-7.96 -18.28,-13.36 -10.33,-10.72 -18.51,-23.83 -29.88,-33.13 -12.06,-9.88 -25.91,-19.09 -40.54,-23.99 -32.94,-11.01 -54.03,7.03 -47.87,41.02 3.32,18.31 10.58,36.28 18.56,53.24 5.93,12.57 7.61,22.61 2.4,36.38 -17.78,47.03 -6.72,82.19 34.54,112.06 12.92,9.38 20.55,18.51 21.55,35.74 2.17,37.55 28.39,58.32 59.91,71.35 20.14,8.33 36.32,15.8 42.48,39.96 4.88,19.19 23.39,28.54 42.06,34.85 9.57,3.24 18.77,7.58 27.09,16.98 -19.88,6.83 -39.76,13.66 -62.94,21.63 -0.91,-0.52 -5.59,-2.29 -9.19,-5.34 -33.25,-28.32 -70.21,-28.09 -105.76,-8.56 -22.71,12.48 -40.52,11.52 -63.61,1.81 -36.98,-15.56 -74.52,-13.35 -106.19,14.87 -9.66,8.6 -18.07,9.22 -29.69,6.4 -32.44,-7.88 -65.12,-7.85 -97.39,1.54 -8.54,2.5 -17.18,5.48 -24.87,9.85 -26.18,14.84 -26.85,40.9 -0.26,55.75 13.57,7.57 29.55,11.88 44.98,14.88 21.35,4.17 36.25,12.87 49.92,31.93 29.56,41.27 74.26,54.27 117.8,29.35 5.12,-2.93 10.46,-5.46 15.22,-7.95 44.03,26.1 77.35,20.65 117.18,-19.09 16.59,3.07 33.24,9.89 48.8,7.95 14.48,-1.81 27.83,-12.93 45.49,-21.89 26.64,17.03 52.05,5.93 76.06,-22.09 2.35,10.57 3.91,17.02 5.18,23.54 14.08,71.56 51.94,128.51 108.33,173.39 55.3,44.02 118.61,53.08 186.3,39.06 59.52,-12.31 111.47,-41.78 162.57,-72.99 7.63,-4.65 14.94,-9.82 22.31,-14.92 50.38,-34.88 109.22,-20.26 148.11,14.04 23.64,20.85 46.67,42.41 69.7,63.41 -2.2,-17.98 -2.18,-18.36 -28.3,-42.74 -13.01,-12.13 -26.72,-23.53 -44,-38.66 14.04,-0.95 23.17,-1.57 38.56,-2.61 -14.87,-4.11 -24.16,-6.67 -40.02,-11.07 28.34,-5.71 50.39,-10.15 72.44,-14.58 -0.31,-1.57 -0.61,-3.13 -0.93,-4.72 -28.11,2.16 -56.24,4.13 -84.31,6.55 -20.46,1.76 -34.29,-6.32 -48.7,-21.75 -55.26,-59.18 -62.06,-131.04 -59.11,-206.21 0.31,-7.94 1.57,-15.84 2.14,-23.78 4.72,-65.76 -23.59,-112.71 -85.11,-135.19 -104.98,-38.36 -201.48,-18.48 -290.2,46.61 -11.99,8.78 -23.06,18.81 -34.61,28.2 -0.67,0.54 -1.82,0.5 -4.48,1.18 0.94,-11.25 1.87,-21.93 2.73,-32.61 2.05,-25.74 -6.44,-47.16 -27.11,-62.85 -9.9,-7.52 -16.36,-15.07 -17.65,-28.86 -5.43,-57.84 -22.79,-74.98 -81.33,-84 -3.9,-0.61 -7.77,-1.45 -13.31,-2.5z"/>
    <path class="fil0" d="M1050.19 1323.91c-14.3,18.29 -28.6,36.57 -42.91,54.85 24.65,-10 39.76,-27.75 49.78,-49.74 -2.29,-1.71 -4.58,-3.41 -6.87,-5.12z"/>
    <path class="fil0" d="M1021.77 1308.99c-17.27,13.35 -28.83,31.45 -36.6,52.81 13.94,-15.81 27.88,-31.63 41.83,-47.44 -1.75,-1.79 -3.49,-3.57 -5.24,-5.37z"/>
    <path class="fil0" d="M900.91 1679.03c3.97,-16.13 7.94,-32.23 11.91,-48.34 -2.08,-0.53 -4.18,-1.06 -6.28,-1.58 -8.57,14.95 -9.31,31.88 -11.52,48.46 1.98,0.48 3.93,0.97 5.89,1.46z"/>
    <path class="fil0" d="M1116.3 1472.29c-6.43,7.79 -12.86,15.56 -19.3,23.35 1.28,1.14 2.57,2.28 3.85,3.42 6.94,-7.33 13.89,-14.65 20.85,-21.98 -1.8,-1.59 -3.6,-3.19 -5.4,-4.79z"/>
    <path class="fil0" d="M773.04 1542.14c-2.97,8.56 -5.94,17.15 -8.91,25.72 1.86,0.68 3.72,1.35 5.58,2.03 3.04,-8.55 6.08,-17.08 9.12,-25.61 -1.92,-0.72 -3.85,-1.44 -5.78,-2.14z"/>
    <path class="fil0" d="M876.1 1366.31c1.54,-3.44 3.53,-6.78 4.45,-10.38 0.59,-2.32 -0.39,-5.05 -4.54,-8.36 -1.67,5.73 -3.32,11.46 -4.98,17.2 1.7,0.52 3.38,1.02 5.08,1.55z"/>
    <path class="fil0" d="M874.28 1633.04c-0.35,7.15 -0.7,14.31 -1.05,21.46 1.85,0.17 3.68,0.34 5.52,0.49 0.72,-7.1 1.43,-14.22 2.13,-21.31 -2.2,-0.22 -4.41,-0.43 -6.61,-0.65z"/>
    <path class="fil0" d="M138.93 1486.89c9.71,1.51 19.37,3.6 29.15,4.45 52.31,4.56 104.64,8.83 161.42,13.55 -17.02,21.17 -42.32,24.61 -52.02,48.27 10.08,-5.05 20.79,-9.12 30.11,-15.31 32.48,-21.55 67.79,-30.29 106.8,-30.46 29.49,-0.13 58.98,-5.66 91.13,-9.06 -3.98,8.01 -7.91,15.9 -11.83,23.78 1.69,1.34 3.38,2.69 5.07,4.05 6.28,-6.46 13.65,-12.17 18.56,-19.55 7.25,-10.92 16.78,-15.28 29.31,-17.63 33.06,-6.2 65.84,-13.78 104.22,-22 -9.74,-1.02 -14.62,-2.37 -19.32,-1.88 -12.85,1.37 -25.78,2.75 -38.37,5.5 -28.2,6.11 -56.02,15.84 -82.72,-5.84 -5.98,-4.86 -16.17,-4.52 -26.48,-1.22 10.87,5.58 21.76,11.15 34.14,17.52 -45.26,16.66 -91.06,16.65 -136.54,18.06 -5.85,0.2 -12.24,-4.69 -17.75,-8.2 -11.43,-7.27 -22.45,-15.21 -33.64,-22.88 -1.53,1.59 -3.07,3.18 -4.59,4.76 4.54,5.95 9.09,11.91 14.11,18.43 -2.07,1.11 -4.57,3.67 -6.77,3.42 -32.58,-3.71 -65.05,-8.69 -97.7,-11.52 -24.65,-2.15 -49.57,-2.23 -74.36,-1.97 -7.28,0.07 -14.51,4.45 -21.76,6.87 -0,0.01 -0.17,-1.13 -0.17,-1.13z"/>
    <path class="fil0" d="M1157.63 1338.41c-18.93,49.55 -45.68,93.86 -80.91,133.58 -3.88,4.39 -11.54,-0.77 -7.61,-5.21 34.63,-39.04 61.15,-82.57 79.8,-131.37 2.13,-5.54 10.85,-2.55 8.71,3l0 0z"/>
    <path class="fil0" d="M1075.32 1663.5c-7.66,19.07 -16.88,37.27 -27.7,54.75 -3.14,5.05 -10.74,-0.17 -7.61,-5.21 10.37,-16.78 19.23,-34.25 26.58,-52.55 2.2,-5.5 10.94,-2.5 8.72,3.01l0 0z"/>
    <path class="fil0" d="M953.98 1258.14c-21.04,29.56 -36.59,61.54 -46.89,96.3 -1.69,5.71 -10.41,2.67 -8.72,-3 10.55,-35.62 26.47,-68.27 48.01,-98.52 3.43,-4.84 11.06,0.37 7.61,5.21l0 0z"/>
    <path class="fil0" d="M828.6 1301.85c-18.18,28.32 -33.67,57.93 -46.53,89.02 -2.25,5.47 -10.99,2.48 -8.71,-3 13.18,-31.89 29,-62.19 47.63,-91.24 3.2,-5 10.81,0.22 7.61,5.21l0 0z"/>
    <path class="fil0" d="M693.47 1604.61c3.05,-23.85 7.92,-47.29 14.62,-70.38 1.65,-5.71 10.37,-2.67 8.72,3.01 -6.49,22.33 -11.2,44.96 -14.15,68.03 -0.73,5.87 -9.95,5.23 -9.2,-0.66l0 0z"/>
    <path class="fil0" d="M742.63 1691.83c4.39,-22.18 8.78,-44.37 13.18,-66.54 1.14,-5.76 10.34,-5.15 9.19,0.67 -4.38,22.18 -8.78,44.35 -13.16,66.54 -1.15,5.74 -10.35,5.13 -9.21,-0.67l0 0z"/>
    <path class="fil0" d="M793.47 1726.96c3.04,-35.05 9.73,-69.31 20.02,-102.94 1.75,-5.69 10.46,-2.67 8.74,2.99 -10.1,32.89 -16.59,66.36 -19.55,100.61 -0.52,5.93 -9.73,5.26 -9.21,-0.67l0 0z"/>
    <path class="fil0" d="M827.86 1739.74c2.49,-12.64 4.95,-25.24 7.41,-37.87 1.13,-5.77 10.36,-5.17 9.22,0.66 -2.47,12.61 -4.95,25.24 -7.41,37.87 -1.14,5.76 -10.34,5.15 -9.22,-0.66l0 0z"/>
    <path class="fil0" d="M859.53 1753.4c2.06,-30.96 7.28,-61.33 15.65,-91.21 1.59,-5.74 10.31,-2.69 8.72,3 -8.14,29.15 -13.16,58.7 -15.17,88.88 -0.38,5.93 -9.59,5.26 -9.19,-0.67l0 0z"/>
    <path class="fil0" d="M1041.95 1257.3c-20.02,28.49 -41.37,55.89 -64.11,82.26 -3.84,4.44 -11.48,-0.71 -7.61,-5.21 22.74,-26.37 44.09,-53.76 64.1,-82.26 3.42,-4.85 11.03,0.35 7.62,5.22l0 0z"/>
   </g>
   <path class="fil0" d="M1031.09 748.66c1.43,-0.63 2.85,-1.27 4.3,-1.89 -2.48,-5.85 -4.79,-11.78 -7.45,-17.53 -24.89,-53.68 -49.67,-107.39 -74.9,-160.9 -6.47,-13.73 -9.91,-25.65 4.6,-37.02 3.63,-2.85 5.99,-11.75 4.29,-16.01 -3.33,-8.28 -11.16,-6.09 -17.83,-2.63 -2.16,1.12 -4.26,2.33 -6.41,3.52 3.05,-10.26 6.06,-13.72 7.28,-17.73 4,-13.17 10.17,-26.5 10.3,-39.82 0.19,-19.63 -13.97,-25.44 -29.9,-14.23 -4.01,2.81 -7.5,6.37 -12.87,10.98 -6.9,-20.63 6.67,-47.27 -20.08,-57.41 -19.46,11.36 -8.32,31.24 -15.25,46.48 -23.43,-13 -31.57,-43.21 -61.78,-49.02 4.97,26.02 31.06,33.37 41.51,53.41 -18.67,5.89 -34.69,10.93 -52.32,16.48 17.94,27.32 42.81,28.76 71,27.68 -10.54,18.17 -32.57,22.19 -37.64,41.11 18.13,12.33 36.32,2.7 57.56,3.18 -7.51,9.43 -12.95,15.72 -17.76,22.46 -4.7,6.59 -8.74,13.65 -13.07,20.51 1.17,1.55 2.35,3.1 3.52,4.65 8.19,-1.43 16.67,-1.94 24.43,-4.59 8.41,-2.87 16.13,-7.74 29.92,-14.61 -8.4,16.74 -13.85,27.59 -19.76,39.38 22.13,2.61 22.13,2.61 38.11,-24.78 22.07,25.83 30.2,57.59 45.64,85.04 15.44,27.44 29.75,55.51 44.56,83.29zm34.37 -287.13c-9.38,46.33 -21.33,92.77 -27.64,139.98 -7.39,55.29 2.44,119.06 19.5,142.51 -12.85,-92.9 -10.59,-179.52 28.11,-261.19 10.29,0.21 18.73,0.37 26.39,0.53 8.9,-19.59 -13.16,-23.57 -18.81,-39.24 6.8,1.81 10,2.59 13.16,3.52 10.25,3.06 19.26,0.69 26.05,-7.35 7.57,-8.97 3.4,-18.3 -1.39,-26.75 -5.31,-9.37 -11.6,-18.2 -19.11,-29.82 16.25,0.9 28.95,13.25 42.08,3.44 7.64,-20.2 -11.44,-31.66 -15.87,-50.28 16.05,4.24 29.71,7.84 47.23,12.46 0.14,-10.94 1.55,-18.54 -0.01,-25.46 -1.78,-7.85 -6.22,-15.11 -10.08,-23.93 9.65,0.92 17.3,2.58 24.83,2.13 11.16,-0.67 21.09,-5.05 21.98,-17.98 0.83,-12.03 -6.78,-19.57 -17.45,-23.22 -6.09,-2.08 -12.88,-2.1 -21.46,-3.35 9.69,-18.36 28.06,-31.89 20.6,-55.48 -28.92,2.95 -29.79,25.79 -34.5,45.94 -15.74,-2.88 -24.57,-21.81 -44.17,-15.79 2.74,10.17 5.31,19.7 8.23,30.53 -19.44,3.69 -34.01,-19.03 -52.83,-7.1 -1.92,25.85 24.08,39.66 27.85,66.54 -22.24,-1.82 -42.23,-3.46 -64.5,-5.27 0.83,31.24 29.01,46.01 34.28,75.55 -18.14,-2.23 -33.57,-4.13 -55.04,-6.77 15.05,19.54 26.1,33.89 38.28,49.7 -15.07,1.85 -26.08,3.2 -39.36,4.83 16.33,21.47 18.65,22.41 43.65,21.32zm-31.7 501.66c6.07,9.4 12.15,19.57 18.97,29.21 26.45,37.42 13.59,36.04 67.14,32.84 14.65,-0.87 29.22,-2.98 43.83,-4.53 -23.04,15.89 -49.68,13.4 -77.27,18.1 12.11,15.94 23.17,29.29 32.84,43.57 8.35,12.37 18.82,16.62 33.41,14.96 17.75,-2.05 35.69,-2.6 53.53,-3.8 0.08,1.31 0.15,2.63 0.23,3.96 -21.24,2.74 -42.48,5.49 -67.15,8.67 16.67,21.74 31.37,40.91 46.56,60.72 17.74,-2.06 35.04,-4.07 52.32,-6.1 0.3,1.59 0.58,3.18 0.88,4.77 -14.5,3.96 -29,7.92 -45.32,12.39 7.31,10.18 13.03,18.91 19.54,26.98 6.94,8.63 16.48,15.63 21.67,25.1 27.59,50.29 58.46,98.84 79.92,152.5 6.76,16.94 16.7,33.76 34.81,43.57 10.29,-33.37 7.56,-105.94 -5.41,-149.1 -11.4,0.84 -23.13,1.72 -34.85,2.59 -0.29,-1.41 -0.6,-2.84 -0.89,-4.25 11.68,-4.15 23.36,-8.29 36.09,-12.8 -12.88,-69.58 -29.4,-136.73 -47.65,-202.29 -24.99,3.41 -46.64,12.64 -69.67,3.24 22.44,-4.22 44.89,-8.45 68.68,-12.93 -8.32,-33.81 -15.95,-64.76 -23.76,-96.48 -23.25,5.4 -42.95,14.83 -69.74,12.19 25.21,-8.06 45.38,-14.49 66.54,-21.25 -10.33,-44.65 -23.03,-84.78 -44.2,-122.41 -30.14,18.12 -58.82,33.76 -91.85,38.78 25.83,-20.5 60.06,-26.33 84.5,-48.39 -21.36,-39.18 -22.91,-39.91 -61.8,-31.83 -7.68,1.6 -15.37,3.33 -23.16,4.19 -4.24,0.46 -8.66,-0.76 -13,-1.23 -0.22,-1.6 -0.43,-3.18 -0.66,-4.79 16.87,-5.24 33.73,-10.5 56.64,-17.62 -14.66,-4.99 -23.31,-8.64 -32.31,-10.89 -38.25,-9.54 -73.74,1.51 -109.49,13.94 -29.05,10.11 -40.03,32.06 -43.64,59.4 -2.15,16.37 0.28,32.68 7.78,48.33 31.71,0.94 58.71,-10.5 85.72,-23.12 -18.31,30.77 -52.72,28.82 -83.02,37.85 5.75,14.48 11.87,27.11 15.75,40.39 4.42,15.12 13.11,20.69 28.68,19.86 33.23,-1.78 66.55,-2.31 100.12,-3.37 -0.93,1.6 -1.91,5.32 -3.35,5.52 -34.9,4.61 -69.85,8.85 -107.96,13.57zm168.91 -715.4c16.74,8.3 31.3,17.95 29.45,37.48 -1.94,20.56 -19.96,24.03 -35.89,28.34 -1.45,11.69 -0.53,24.26 -4.92,34.58 -6.3,14.82 -21.62,4.86 -32.86,6.9 13.15,39.67 1.2,41.48 -23.43,44.46 14.31,39.15 13.12,43.52 -16.07,59.11 8.12,32.95 5.54,36.03 -28.61,34.12 -31.35,74.73 -41.41,149.25 -21.72,244.54 6.41,-0.74 13.02,-1.35 19.57,-2.33 56.94,-8.54 103.02,8.53 136.56,56.73 24.27,34.88 40.88,73.48 51.06,114.13 28.2,112.53 55.45,225.32 81.13,338.43 11.2,49.35 16.49,99.93 13.65,150.82 -0.68,12.1 -2.3,24.48 -5.89,35.99 -4.26,13.69 -14.17,16.79 -23.26,5.96 -14.97,-17.84 -28.14,-37.47 -39.99,-57.57 -9.25,-15.68 -13.48,-34.41 -23.24,-49.68 -24.8,-38.8 -50.31,-77.24 -77.59,-114.32 -49.11,-66.78 -100.28,-132.03 -149.51,-198.71 -32.46,-43.96 -54.59,-93.25 -68.28,-146.21 -6.7,-25.93 -9.21,-52.37 4.24,-76.57 8.23,-14.83 20.67,-27.33 32.77,-42.86 -24.83,-47.37 -51.01,-97.31 -77.88,-148.56 -12.48,7.16 -23.45,22.16 -39.09,12.48 -5.66,-3.5 -7.22,-13.61 -12.28,-24.03 3,1.37 1.54,0.05 0.34,0.25 -11.05,1.83 -23.41,6.99 -31.5,-4.33 -8.77,-12.28 3.64,-20.58 8.68,-30.09 1.1,-2.06 1.91,-4.28 1.57,-3.5 -10.69,-3.32 -21.5,-6.48 -32.15,-10.11 -3.12,-1.06 -5.77,-3.46 -11.74,-7.18 7.82,-10.82 15.01,-20.78 23.28,-32.23 -21.37,-7.53 -43.4,-13.78 -54.46,-40.47 13.56,-6.96 26.23,-13.44 40.81,-20.93 -7.56,-9.11 -15.63,-17.76 -22.41,-27.33 -5.9,-8.3 -14,-18.62 -3.91,-27.75 8.47,-7.64 18.53,-1.03 26.06,4.89 10.89,8.55 20.9,18.24 32.11,28.17 2.88,-6.76 4.34,-14.08 8.57,-19.04 4.64,-5.43 12.33,-12.57 17.8,-11.9 7.29,0.92 15.84,7.32 19.97,13.81 4.86,7.66 5.57,17.96 8.44,28.39 3.11,-0.17 6.4,-0.27 9.69,-0.53 20.87,-1.7 31.91,6.98 31.48,27.48 -0.26,12.84 -4.07,25.61 -6.39,38.95 4.56,7.05 13.99,15.29 14.26,23.82 0.26,8.59 -8.61,17.45 -15.54,29.9 22.14,49.31 45.86,102.12 69.57,154.93 1.91,-0.24 3.78,-0.49 5.68,-0.72 -14.2,-78.62 -4.88,-154.83 22.19,-230.14 -6.77,-2.77 -13.18,-3.84 -17.44,-7.45 -8.29,-7.02 -19.06,-14.44 -21.61,-23.68 -1.54,-5.6 10.42,-14.91 18.3,-25.13 -1.35,-2.42 -5.2,-7.98 -7.64,-14.11 -3.08,-7.72 -8.95,-17.41 -6.59,-23.54 4.25,-11.03 16.37,-5.7 25.59,-5.22 4.03,0.21 8.06,0.33 17.32,0.72 -8.25,-12.76 -15.73,-21.35 -19.67,-31.32 -3.59,-9.06 -6.95,-20.94 -3.95,-29.23 4.46,-12.33 18.13,-11.03 29.73,-9.68 6.74,0.78 13.52,1.31 24.11,2.31 -6.15,-11.52 -11.67,-19.93 -15.24,-29.08 -4.01,-10.25 -10.68,-21.46 -1.88,-32.08 7.98,-9.65 18.93,-6.39 29.24,-4 3.28,0.76 6.62,1.24 12.34,2.28 0.62,-11.38 -1.68,-26.56 13.44,-26.48 10.54,0.04 21.06,6.48 31.91,10.18 6.48,-9.21 12.9,-20.11 21.1,-29.43 6.62,-7.54 17.29,-12.34 25.34,-4.41 4.93,4.86 6.77,15.4 5.93,22.93 -1.03,9.14 -6.35,17.81 -10.65,28.85z"/>
   <g>
    <path class="fil0" d="M1727.27 2968.75c14.57,-17.2 29.14,-34.41 48.17,-56.9 -43.98,-0.47 -35.95,37.89 -48.17,56.9zm173.81 -675.37c82.07,-82.35 74.87,-66.09 134.48,-34.92 57.09,-55.46 63.85,-76.76 36.43,-114.66 -27.77,-38.34 -53.68,-42.54 -101.78,-16.46 -29.33,-58.17 -76.06,-61.39 -120.23,-8.31 -52.72,-18.03 -66.66,-10.73 -85.41,44.71 99.22,59.63 99.22,59.63 136.51,129.65zm1.56 668.2c102.46,-26.67 133.8,1.24 110.35,106.12 26.86,16.7 58.97,37.82 40.69,76.04 -14.07,29.43 -39.11,53.63 -59.3,80.15 38.42,24.35 74.57,24.58 104.52,1.67 28.88,-22.06 26.32,-46.47 -5.24,-77.9 21.44,2.07 30.2,2.92 39,3.78 39.08,3.85 73.26,-8.76 100.47,-35.67 24.46,-24.19 39.89,-55.77 24.33,-89.13 -8.49,-18.19 -30.35,-30.13 -48.96,-47.53 15.75,-13.68 33.55,-25.41 45.93,-41.33 8.29,-10.65 16.38,-34.02 11.25,-39.74 -9.21,-10.24 -28.26,-14.38 -43.56,-15.36 -9.67,-0.63 -20.01,9.05 -30.06,14.11 2.18,-35.62 10.11,-53.1 14.74,-71.45 11.06,-43.84 -11.9,-68.14 -56.81,-58.53 -16.24,3.48 -30.92,14.44 -46.25,22.17 -10.95,5.48 -21.75,11.2 -36.38,18.81 -1.69,-13.24 -3.15,-20.56 -3.48,-27.94 -2.96,-72.91 -58.65,-107.91 -121.81,-73.74 -35.87,19.35 -68.48,44.82 -105.15,69.26 39.6,36.28 28.79,72.61 1.36,102.66 22.36,29.02 41.52,53.88 64.37,83.54zm401.95 -199.2c24.19,-4.51 41.11,-6.12 57.01,-11.04 20.08,-6.16 41.22,-12.07 58.48,-23.37 43.33,-28.4 39.09,-63.29 -6.74,-86.84 -15.33,-7.89 -40.34,-2.36 -45.63,-29.2 27.87,-14.46 55.67,-27.74 82.31,-43.05 31,-17.74 55.51,-42.39 66.26,-77.44 12.69,-41.57 -5.38,-67.81 -48.78,-72.22 -12.77,-1.34 -25.7,-1.06 -43.06,-1.65 5.14,-28.01 11.08,-52.04 13.63,-76.35 3.34,-31.8 -0.04,-63.02 -30.15,-82.44 -30.07,-19.38 -59.89,-9.43 -87.37,6.68 -16.42,9.6 -30.26,23.6 -45.7,35.02 -8.76,6.46 -18.44,11.67 -34.48,21.72 -3.48,-22.43 -6.52,-38.66 -8.35,-54.95 -3.45,-30.56 -13.42,-58.18 -44.12,-69.46 -32.44,-11.83 -61.03,0.76 -83.35,25.09 -24.23,26.46 -46.63,54.58 -72.94,85.65 -8.06,-13.05 -14.19,-24.01 -21.35,-34.24 -19.5,-27.89 -35.67,-31.26 -62.05,-9.81 -11.43,9.25 -19.56,23.19 -27.34,36.09 -9.39,15.56 -16.84,32.25 -25.12,48.4 -63.74,-36.22 -93,-24.81 -111.36,42.73 -6.39,23.52 -6.58,48.7 -10.36,79.17 19.21,-8.96 30.8,-16.23 43.41,-19.89 33.67,-9.8 59.36,4.96 62.26,39.99 1.81,22.14 -3.4,46.13 -10.99,67.33 -6.94,19.39 -21.28,36.14 -33.34,55.62 17.36,9.88 37.24,16.01 48.94,29.33 12.68,14.36 17.68,35.49 23.11,47.27 39.29,-4.76 76.79,-14.78 113.47,-12.28 42.31,2.84 63.04,38.7 76.52,76.91 38.61,-13.33 74.04,-26.2 109.87,-6.49 40.13,22.17 30.2,62.19 29.7,95.96 15.17,7.54 28.57,11.81 38.96,19.84 34.87,26.89 65.85,10.47 96.2,-7.48 21.62,-12.81 23.06,-31.35 3.79,-46.96 -19.03,-15.43 -40.79,-27.47 -71.35,-47.62zm-189.54 -580.54c96.93,-17.07 114.16,-6.5 148.56,90.77 17.92,-10.51 34.8,-22.01 53.03,-30.81 84.64,-41.01 153.39,5.59 147.52,99.76 -0.94,15.25 -3.97,30.38 -6.45,48.69 32.82,12.43 78.41,14.37 82.13,59.15 2.71,32.4 -8.2,65.97 -13.2,100.07 102.71,29.64 121.23,63.55 79.35,159.56 30.76,25.36 75.78,42.22 74.18,93.07 -1.43,46.83 -35.26,70.27 -71.11,90.4 20.71,82.66 -11.71,120.95 -122.98,141.59 -6.61,39.5 -25.46,74.53 -70.71,83.6 -28.14,5.65 -57.73,8.37 -80.66,-26.7 24.97,0.35 45.68,3.29 65.49,0.34 49.71,-7.44 61.88,-33.64 37.44,-84.45 14.63,-0.04 27.17,0.46 39.68,-0.23 15.34,-0.88 31.15,-0.68 45.85,-4.56 70.02,-18.52 84.78,-55.9 43.81,-117.46 16.14,-9.5 32.04,-18.94 48.06,-28.19 23.62,-13.59 38.76,-33.53 36.38,-61.11 -2.35,-27.82 -21.87,-44.46 -46.88,-53.83 -17.23,-6.41 -35.21,-10.78 -59.68,-18.12 14.04,-12.84 24.57,-20.36 32.42,-30.07 17.57,-21.66 32.19,-46.13 17.56,-74.11 -14.35,-27.47 -39.67,-44.1 -71.29,-41.02 -36.19,3.52 -72.03,11.54 -102.66,40.04 8.8,7.44 16.02,13.22 22.84,19.42 41.85,38.18 39.65,75.91 -7.6,108.64 -17.14,11.9 -36.44,20.7 -54.96,31.02 57.42,73.42 41.36,102.59 -69.54,128.97 -14.66,24.54 -29.33,49.08 -46.59,77.91 31.08,37.4 32.71,81.39 7.17,125.58 -25.31,43.89 -68.63,60.03 -115.94,69.96 -3.17,4.46 -7.41,8.62 -9.46,13.65 -29.62,73.04 -80.48,95.24 -151.87,67.47 -35.72,-13.88 -72.21,-25.76 -108.54,-38.09 -3.03,-1.03 -7.2,1.28 -12.77,2.49 -16.27,38.63 -35.83,77.21 7.52,113.8 37.06,31.25 67.31,32.26 123.78,-0.8 33.61,32.39 70.24,62.03 122.02,65.1 63.98,3.8 79.43,-42.85 96.93,-92.41 12.41,4.71 22.71,8.11 32.64,12.47 51.04,22.23 87.16,11.35 108.34,-39.9 10.55,-25.5 10.72,-55.81 12.82,-84.12 1.17,-15.78 -3.28,-31.97 -6.24,-56.95 42.98,55.23 45.62,103.21 14.89,156.08 -32.27,55.57 -57.78,64.9 -143.36,52.31 -61.4,98.33 -127.41,105.93 -244.04,26.47 -51.53,24.24 -100.84,16.04 -142.71,-23.03 -32.9,-30.8 -33.02,-60.03 -8.91,-134.51 -108.22,-43.44 -200.76,22.52 -282.59,202.39 -20.52,-11.15 -15.96,-29.67 -11.06,-44.71 35.93,-110.92 153.27,-244.85 322.07,-188.83 41.71,13.84 75.18,6.36 110.24,-10.62 11.82,-5.7 24.8,-14.17 30.95,-25.01 6.89,-12.06 12.76,-31.28 7.66,-41.71 -4.76,-9.64 -24.32,-13.44 -38.11,-16.56 -7.89,-1.74 -17.32,3.03 -35.95,6.94 8.81,-16.73 12.85,-25.66 17.93,-33.86 6.07,-9.8 16.07,-18.26 18.72,-28.67 4.02,-15.76 10.17,-40.13 2.59,-47.38 -11.51,-11.01 -35.68,-17.17 -51.54,-13.29 -25.38,6.1 -48.31,22.12 -79.92,37.7 1.57,-20.99 6.4,-37.76 2.97,-52.67 -3.53,-15.34 -11.98,-33.7 -24.2,-41.25 -7.48,-4.66 -29.81,4.83 -38.8,14.31 -20.75,22.02 -37.43,47.87 -57.85,74.87 -32.1,-15.44 -57.11,-49.77 -101.91,-40.61 -10.7,2.21 -27.51,-25.14 -38.88,-44.05 41.37,9.88 80.79,34.55 119.98,-6.6 -7.47,-13.66 -14.27,-26.07 -22.69,-41.41 8.23,-1.33 14.25,-4.33 18,-2.53 30.83,14.68 60.65,10.66 88.89,-5.54 44.13,-25.31 44.99,-58.64 3.27,-89.44 -5.63,-4.2 -11.52,-8.01 -22.83,-15.74 18.93,-8.81 33.5,-13.17 45.13,-21.6 15.22,-11.08 31.42,-23.31 41.27,-38.82 16.27,-25.71 5.94,-49.89 -23.93,-58.44 -18.04,-5.1 -37.7,-4.36 -59.24,-6.54 -3.6,-22.96 18.27,-31.06 27.34,-46.14 14.67,-24.51 31.67,-48.52 40.76,-75.1 4.42,-12.84 -6.93,-31.09 -11.09,-46.93 -15.26,5.2 -32.55,7.49 -45.22,16.36 -13.38,9.39 -22.43,25.04 -39.36,45.03 -10.91,-27.77 -18.82,-48.54 -27.25,-69.06 -7.36,-17.93 -15.87,-42.68 -37.89,-35.45 -16.49,5.39 -30.41,26.35 -39.56,43.52 -6.28,11.74 -2.42,28.91 -3.57,53.55 -23.61,-22.26 -39.9,-39.63 -58.3,-54.33 -26.72,-21.43 -46.31,-17.92 -59.13,13.23 -10.09,24.48 -13.34,51.73 -20.07,79.63 -0.32,0.11 -4.31,3.33 -6.94,2.45 -53.19,-18.51 -81.11,-2.64 -81.62,52.85 -0.27,27.48 11.96,55.07 18.39,81.87 -16.72,7.06 -40.02,11.37 -54.82,24.98 -10.18,9.35 -12.49,31.89 -11.28,48.02 2.75,37.02 33.39,68.78 71.83,72.43 24.03,2.31 48.93,-4.31 74.35,-7.02 1.43,10 0.15,24.78 5.69,36.39 44.71,94.52 25.05,181.57 -34.48,260.27 -39.28,51.89 -86.61,97.78 -132.46,148.73 58.48,45.85 119.8,93.95 181.11,142 -1.55,3.24 -3.09,6.45 -4.61,9.74 -9.7,-1.45 -21.54,0.15 -28.76,-4.86 -41.13,-28.6 -80.72,-59.44 -121.72,-88.24 -25.78,-18.12 -53.12,-34 -85.69,-54.67 59.02,-73.09 148.7,-127.14 193.87,-228.43 -32.84,-6.49 -59.83,-15.23 -87.15,-16.46 -62.47,-2.82 -88.1,-19.4 -113.05,-81.84 -25.28,-5.43 -52.12,-9.27 -77.74,-17.09 -76.23,-23.26 -94.7,-84.2 -45.72,-147.56 7.05,-9.13 14.86,-17.69 21.5,-25.52 -19.37,-70.83 4.41,-127.13 69.28,-167.64 41.15,-25.67 73.52,-26.43 106.81,1.69 -12.16,1.36 -19.94,3.07 -27.69,3 -52.58,-0.46 -112.7,41.97 -129.21,91.48 -9.55,28.76 -4.76,36.78 42.22,66.47 -20.38,15.31 -41.5,27.74 -58.33,44.47 -46.59,46.4 -36.87,88.64 26.13,106.67 32.8,9.43 68.08,10.1 113.93,16.29 -0.46,1.13 -5.5,8.34 -5.73,15.67 -1.27,40.58 11.05,63.01 49.11,62.88 42.25,-0.11 80.95,9.33 122.15,24.68 25.28,-56.44 24.56,-107.09 -4.88,-160.21 -10.76,-1.55 -21.9,-3.33 -33.07,-4.72 -59.46,-7.23 -96.13,-34.2 -108.18,-80.82 -12.96,-50.11 6.18,-86.38 50.02,-108.09 -9.44,-109.43 9.34,-140.99 87.81,-151.48 33.63,-101.56 52.35,-111.54 128.94,-68.74 18.44,-17.94 34.12,-43.69 56.17,-51.58 18.93,-6.78 45.16,6.83 72.32,12.27 14.04,-56.41 27.09,-124.44 115.19,-120.92 -15.09,-63.12 -75.59,-114.98 -131.5,-111.34 -12.64,0.84 -27.49,12.57 -35.69,23.51 -8.48,11.28 -10.14,27.73 -15.06,42.75 -86.55,-67.87 -187.52,-55.9 -203.69,37.62 -24.1,-6.8 -47.98,-16.31 -72.67,-19.26 -11.04,-1.28 -26.04,8.15 -35.05,17.03 -21.11,20.73 -14.9,46.43 21.03,94.28 -7.96,4.57 -15.09,9.7 -22.94,13.06 -48.78,20.54 -62.6,48.92 -38.73,95.17 15.54,30.16 39.46,56 63.9,89.69 -53.97,-4.5 -72.81,-43.46 -90.62,-79.21 -26.87,-53.98 -5.21,-97.17 39.64,-128.6 -27.24,-81.54 6.91,-141.68 119.29,-125.41 54.22,-73.07 124.48,-71.86 196.46,-40.46 23.68,-17.14 45.71,-31.51 65.63,-48.31 7.98,-6.73 10.55,-19.46 17.12,-28.35 11.07,-15.16 20.97,-38.81 35.48,-42.46 65.96,-16.73 130.79,-67.93 201.99,-14.22 4.2,3.17 11.09,3.93 16.67,3.83 65.76,-1.15 95.35,40.95 115.91,98.64z"/>
    <path class="fil0" d="M1569.28 3074.31c-12.59,23.58 -26.93,45.84 -43.13,67.1 -8.12,10.67 7.79,24.24 15.96,13.51 17.32,-22.72 32.68,-46.63 46.19,-71.8 6.35,-11.86 -12.63,-20.64 -19.02,-8.81l0 0z"/>
    <path class="fil0" d="M1600.33 3096.81c-28.46,40.88 -56.93,81.78 -85.34,122.65 -7.64,10.96 8.24,24.56 15.95,13.51 28.42,-40.87 56.92,-81.75 85.38,-122.63 7.62,-10.94 -8.28,-24.59 -15.99,-13.54l0 0z"/>
    <path class="fil0" d="M1628.51 3130.65c-29.99,33.08 -59.94,66.16 -89.9,99.19 -9.06,9.98 6.94,23.48 15.96,13.51 29.98,-33.02 59.91,-66.11 89.9,-99.19 9.07,-9.99 -6.91,-23.47 -15.96,-13.52l0 0z"/>
    <path class="fil0" d="M1679.01 3139.31c-16,18.9 -32.02,37.82 -48.04,56.74 -8.71,10.28 7.25,23.8 15.96,13.51 16.02,-18.92 32.04,-37.84 48.04,-56.74 8.7,-10.28 -7.26,-23.8 -15.96,-13.52l0 0z"/>
    <path class="fil0" d="M1478.43 2675.16c14.86,26.23 29.77,52.45 44.65,78.7 6.65,11.74 23.89,-0.19 17.25,-11.8 -14.89,-26.25 -29.73,-52.46 -44.61,-78.71 -6.67,-11.72 -23.89,0.15 -17.29,11.81l0 0z"/>
    <path class="fil0" d="M1526.37 2631.91c11.59,37.71 25.74,74.41 42.43,110.17 5.67,12.13 25.41,5.24 19.75,-6.93 -16.71,-35.78 -30.83,-72.47 -42.41,-110.2 -3.97,-12.92 -23.67,-5.91 -19.77,6.96l0 0z"/>
    <path class="fil0" d="M1621.56 2608.27c1,48.16 2.95,96.32 5.72,144.46 0.83,13.47 21.67,11.73 20.88,-1.74 -2.83,-48.11 -4.76,-96.29 -5.78,-144.47 -0.29,-13.51 -21.1,-11.69 -20.81,1.75l0 0z"/>
    <path class="fil0" d="M1744.37 2608.88c-17.24,39.09 -34.49,78.15 -51.73,117.25 -5.42,12.26 13.54,21.17 19,8.78 17.24,-39.06 34.49,-78.15 51.76,-117.23 5.39,-12.32 -13.56,-21.19 -19.03,-8.8l0 0z"/>
    <path class="fil0" d="M1927.04 2403.6c1.27,42.19 5.85,84.06 13.63,125.51 2.48,13.14 23.35,11.51 20.84,-1.73 -7.78,-41.46 -12.34,-83.33 -13.62,-125.51 -0.42,-13.5 -21.28,-11.7 -20.85,1.73l0 0z"/>
    <path class="fil0" d="M1990.84 2411.53c-5.32,30.8 -8.47,61.74 -9.73,92.92 -0.54,13.46 20.31,11.58 20.82,-1.7 1.2,-29.41 4.49,-58.61 9.52,-87.56 2.31,-13.25 -18.25,-16.95 -20.61,-3.65l0 0z"/>
    <path class="fil0" d="M2071.25 2328.53c-15.57,65.2 -31.19,130.4 -46.76,195.6 -3.11,13.11 17.48,16.68 20.63,3.63 15.57,-65.2 31.17,-130.43 46.78,-195.63 3.14,-13.09 -17.5,-16.66 -20.64,-3.6l0 0z"/>
    <path class="fil0" d="M2148.52 2346.56c-23.35,59.12 -49.4,116.98 -78.16,173.65 -6.07,12.01 12.91,20.83 19,8.8 28.78,-56.7 54.79,-114.55 78.14,-173.67 4.93,-12.46 -14.05,-21.38 -18.98,-8.78l0 0z"/>
    <path class="fil0" d="M2232.95 2390.68c-46.3,60.28 -92.61,120.57 -138.93,180.83 -5.55,7.23 -0.4,17.66 8.83,17.19 12.27,-0.63 12.49,-0.67 22.31,-8.02 10.73,-8.08 -1.03,-25.37 -11.83,-17.28 -4.08,1.48 -8.11,2.95 -12.19,4.43 2.94,5.74 5.93,11.47 8.84,17.19 46.32,-60.26 92.63,-120.55 138.93,-180.83 8.19,-10.61 -7.72,-24.19 -15.96,-13.52l0 0z"/>
    <path class="fil0" d="M2283.39 2474.21c-57.83,40 -115.65,79.98 -173.47,119.97 -11.09,7.69 0.69,24.96 11.78,17.27 57.84,-39.96 115.65,-79.98 173.5,-119.95 11.07,-7.67 -0.75,-24.94 -11.81,-17.29l0 0z"/>
    <path class="fil0" d="M2267.13 2573.76c-40.23,14.74 -78.34,33.61 -114.44,56.71 -11.38,7.26 0.47,24.55 11.8,17.3 34.63,-22.13 71.05,-40.18 109.61,-54.26 12.66,-4.65 5.7,-24.37 -6.97,-19.74l0 0z"/>
    <path class="fil0" d="M2267.69 2644.1c-41.46,1.13 -82.27,6.66 -122.65,16.08 -13.12,3.12 -6.02,22.81 6.95,19.77 38.59,-9.07 77.8,-13.94 117.43,-14.96 13.46,-0.37 11.69,-21.26 -1.73,-20.89l0 0z"/>
    <path class="fil0" d="M2562.72 2800.11c-36.38,-2.71 -72.14,0.8 -107.25,10.7 -12.96,3.67 -5.93,23.38 6.98,19.74 31.46,-8.9 64.03,-12.24 96.64,-9.82 13.29,1.01 17.06,-19.6 3.63,-20.62l0 0z"/>
    <path class="fil0" d="M2507.14 2859.03c-25.69,-2.29 -51.39,-4.52 -77.05,-6.76 -13.3,-1.13 -17.09,19.47 -3.63,20.63 25.69,2.25 51.39,4.48 77.05,6.72 13.3,1.17 17.07,-19.44 3.63,-20.59l0 0z"/>
    <path class="fil0" d="M2435.02 2962.81c-13.72,-19.31 -31.1,-34.18 -52.18,-44.91 -11.99,-6.1 -20.82,12.86 -8.78,19 17.76,9 32.12,21.47 43.71,37.7 7.78,10.94 25.06,-0.84 17.25,-11.8l0 0z"/>
    <path class="fil0" d="M1935.37 2803.54c-5.71,25.98 -11.39,51.96 -17.11,77.93 -2.9,13.18 17.72,16.77 20.61,3.65 5.7,-26 11.42,-51.98 17.12,-77.95 2.86,-13.17 -17.73,-16.8 -20.62,-3.63l0 0z"/>
    <path class="fil0" d="M2002.59 2817.26c-13.04,33.97 -29.66,65.81 -50.33,95.74 -7.59,10.96 8.29,24.6 15.96,13.51 21.77,-31.44 39.62,-64.71 53.36,-100.44 4.82,-12.46 -14.13,-21.4 -18.99,-8.81l0 0z"/>
    <path class="fil0" d="M2129.7 2839.35c-36.22,34.15 -72.44,68.35 -108.65,102.5 -9.77,9.24 6.27,22.66 15.96,13.52 36.22,-34.15 72.43,-68.34 108.65,-102.5 9.81,-9.24 -6.25,-22.67 -15.96,-13.51l0 0z"/>
    <path class="fil0" d="M2163.67 2946.7c-56.45,11.06 -109.44,30.81 -159.23,59.64 -11.69,6.77 0.24,24.01 11.79,17.32 46.56,-27 96.37,-45.75 149.19,-56.14 13.07,-2.53 11.49,-23.41 -1.75,-20.81l0 0z"/>
    <path class="fil0" d="M2178.9 3036.49c-42.5,7.54 -84.96,15.08 -127.43,22.67 -13.18,2.33 -11.55,23.17 1.71,20.82 42.46,-7.54 84.96,-15.08 127.44,-22.65 13.18,-2.33 11.55,-23.21 -1.73,-20.84l0 0z"/>
    <path class="fil0" d="M1404.17 2402.12c23.31,47.76 50.87,92.45 83.37,134.45 8.25,10.61 25.55,-1.15 17.31,-11.79 -31.39,-40.52 -58.45,-83.58 -80.98,-129.64 -5.84,-11.97 -25.63,-5.11 -19.71,6.98l0 0z"/>
    <path class="fil0" d="M1505.27 2322.61c13.87,42.44 33.28,82.26 58,119.36 7.5,11.24 24.75,-0.61 17.28,-11.78 -23.81,-35.75 -42.18,-73.74 -55.54,-114.52 -4.23,-12.83 -23.91,-5.83 -19.75,6.94l0 0z"/>
    <path class="fil0" d="M1628.9 2333.23c-0.87,32.67 -1.73,65.38 -2.6,98.05 -0.35,13.5 20.5,11.63 20.86,-1.71 0.86,-32.71 1.73,-65.38 2.58,-98.06 0.39,-13.46 -20.49,-11.61 -20.84,1.72l0 0z"/>
    <path class="fil0" d="M1731.15 2308.98c-4.58,16.79 -11.76,32.31 -21.01,46.98 -7.15,11.34 11.87,20.07 18.98,8.78 10.29,-16.31 17.56,-33.6 22.66,-52.14 3.56,-12.96 -17.04,-16.53 -20.63,-3.62l0 0z"/>
    <path class="fil0" d="M1287.69 2688.05c38.72,5.81 77.64,8.83 116.79,9.27 13.47,0.16 11.63,-20.69 -1.74,-20.82 -37.37,-0.41 -74.5,-3.52 -111.44,-9.04 -13.29,-2 -16.96,18.59 -3.61,20.6l0 0z"/>
    <path class="fil0" d="M1277.91 2787.5c21.65,6.87 43.44,8.85 65.86,4.67 13.12,-2.45 11.54,-23.33 -1.73,-20.84 -18.61,3.47 -37.22,2.96 -55.35,-2.83 -12.64,-4.02 -21.63,14.89 -8.78,19l0 0z"/>
    <path class="fil0" d="M1280.54 2855.89c34.67,-6.11 69.4,-12.18 104.07,-18.24 13.16,-2.32 11.53,-23.19 -1.72,-20.85 -34.68,6.07 -69.4,12.13 -104.07,18.25 -13.18,2.29 -11.55,23.16 1.73,20.84l0 0z"/>
    <path class="fil0" d="M1372.96 2921.19c33.42,-9.04 62.53,-25.86 87.78,-49.42 9.84,-9.18 -6.22,-22.62 -15.96,-13.51 -22.49,21.01 -49.13,35.19 -78.81,43.19 -12.99,3.52 -5.95,23.24 6.98,19.74l0 0z"/>
    <path class="fil0" d="M1454.54 2982.24c17.37,-12.04 32.75,-26.28 46.04,-42.69 8.44,-10.47 -7.48,-24.03 -15.96,-13.51 -12.2,15.08 -25.94,27.87 -41.89,38.91 -11.07,7.66 0.72,24.92 11.81,17.3l0 0z"/>
    <path class="fil0" d="M1987.45 3231.92c-8.2,34.83 -9.89,70.4 -5.04,105.84 1.85,13.34 22.7,11.65 20.86,-1.71 -4.62,-33.81 -3.03,-67.28 4.78,-100.52 3.09,-13.09 -17.5,-16.7 -20.6,-3.61l0 0z"/>
    <path class="fil0" d="M2037.2 3259.38c5.88,17.97 11.76,35.94 17.64,53.91 4.17,12.82 23.87,5.84 19.7,-6.97 -5.86,-17.99 -11.76,-35.95 -17.64,-53.92 -4.17,-12.81 -23.87,-5.84 -19.7,6.98l0 0z"/>
    <path class="fil0" d="M2096.85 3222.96c10.84,25.47 21.7,50.97 32.56,76.42 5.28,12.37 25.03,5.47 19.73,-6.92 -10.85,-25.51 -21.72,-50.99 -32.59,-76.47 -5.24,-12.35 -25,-5.46 -19.7,6.97l0 0z"/>
    <path class="fil0" d="M2137.74 3201.33c23.77,34.04 50.08,65.75 78.87,95.63 9.35,9.68 22.81,-6.36 13.53,-15.98 -27.51,-28.5 -52.41,-58.98 -75.07,-91.44 -7.73,-11.05 -25.02,0.76 -17.32,11.79l0 0z"/>
    <path class="fil0" d="M2199.36 3163.77c20,28.78 43.81,53.71 71.76,74.86 10.69,8.1 24.27,-7.85 13.54,-15.98 -26.5,-20.02 -49.03,-43.42 -68.04,-70.68 -7.67,-11.02 -24.98,0.74 -17.25,11.8l0 0z"/>
    <path class="fil0" d="M2254.86 3125.53c13.76,0.19 26.94,2.53 40.13,6.54 12.83,3.9 16.37,-16.75 3.6,-20.64 -14.92,-4.54 -29.87,-6.52 -45.44,-6.72 -13.49,-0.18 -11.65,20.67 1.71,20.82l0 0z"/>
    <path class="fil0" d="M1877.33 2164.99c-1.62,26.46 -3.22,52.96 -4.81,79.4 -0.82,13.29 19.78,17.08 20.58,3.63 1.63,-26.48 3.25,-52.94 4.85,-79.4 0.84,-13.28 -19.79,-17.07 -20.62,-3.63l0 0z"/>
    <path class="fil0" d="M1884.55 2667.75c-9.38,-60.02 68.8,-89.57 96.96,-33.05 2.72,5.47 9.97,9.89 15.77,5.17 20.52,-16.83 25.66,-23.25 52.49,-11.66 21.6,1.74 29.42,13.33 23.41,34.69 -1.85,9.45 -5.04,18.41 -9.63,26.81 -5.74,12.15 13.22,20.99 19,8.8 14.3,-30.2 20.42,-69.74 -9.69,-93.13 -29.74,-23.11 -62.65,-3.06 -87.4,17.24 5.28,1.71 10.55,3.42 15.79,5.14 -38.12,-76.5 -151.01,-44.73 -137.54,41.7 2.06,13.28 22.93,11.65 20.85,-1.69l0 0z"/>
    <path class="fil0" d="M2352.09 2321.3c-8.78,10.37 -17.61,20.8 -26.41,31.19 -8.69,10.26 7.27,23.78 15.96,13.52 8.8,-10.39 17.62,-20.81 26.41,-31.19 8.7,-10.28 -7.24,-23.82 -15.96,-13.52l0 0z"/>
    <path class="fil0" d="M2426.52 2453.98c-8.35,5.89 -16.69,11.82 -25.02,17.72 -11,7.81 0.8,25.06 11.8,17.25 8.33,-5.87 16.67,-11.8 25,-17.7 11.01,-7.8 -0.81,-25.07 -11.78,-17.28l0 0z"/>
   </g>
   <g>
    <path class="fil0" d="M2971.23 2340.46c0.02,-1.59 0.04,-3.17 0.06,-4.76 4.89,-1.82 10.04,-3.16 14.64,-5.57 10.46,-5.48 14.4,-15.3 8.87,-22.41 -6.61,-8.51 -15.07,-6.54 -22.56,-1.64 -12.18,7.96 -18.94,20.07 -22.13,33.93 -3.43,14.92 2.13,26.33 16.41,31.42 23.47,8.38 47.22,8.44 68.67,-5.41 7.85,-5.08 16.82,-13.7 18.47,-22.04 3.49,-17.72 5.78,-36.87 2.75,-54.44 -7.96,-46.3 -35.82,-78.57 -77.93,-99.09 -30.77,-15 -63.43,-17.31 -96.74,-15.66 -66.34,3.31 -142.47,63.51 -161.41,126.94 -7.75,25.96 -5.8,50.31 11.16,71.97 4.41,5.61 11.19,10.83 17.91,12.86 27.57,8.36 68.12,-13.1 77.5,-40.28 3.34,-9.72 4.76,-19.85 -3.45,-28.07 -6.84,-6.87 -14.97,-10.72 -24.98,-6.31 -11.47,5.02 -18.08,13.71 -20.34,25.94 -2.48,13.35 12.39,8.83 18.21,14.86 -17.25,7.46 -24.03,5 -27.32,-8.24 -4.23,-17.01 9.79,-39.26 28.24,-44.8 17.31,-5.2 35.51,4.59 42.2,22.53 2.11,5.65 3.85,11.73 7.28,16.56 18.47,26.15 25.89,55.31 25.37,86.92 -0.12,7.26 -0.02,14.5 -0.02,24.27 25.65,-10.39 51.66,-11 72.58,-27.14 -3.97,-8.16 -8.71,-14.71 -10.37,-21.96 -3.51,-15.5 -8.31,-31.56 -7.39,-47.07 1.78,-29.59 21.6,-48.08 46.52,-61.15 9.74,-5.11 19.59,-3.27 27.62,4.56 7.09,6.91 10.31,15.56 7.36,25.23 -3.17,10.39 -10.43,16.97 -21.6,18 -5.16,0.47 -10.37,0.08 -15.56,0.08zm-31.41 31.61c3.6,9.74 6.83,19.65 10.88,29.2 10.82,25.56 5.74,38.52 -21.2,46.58 -21.22,6.35 -43.15,10.37 -67.85,16.14 -2.75,-38.62 -0.26,-77.3 -21.18,-112.71 -5.12,6.6 -9.19,11.99 -13.42,17.24 -14.82,18.31 -34.7,27.83 -57.48,30.61 -22.27,2.73 -40.24,-4.83 -53.19,-24.46 -17.2,-26.06 -17.08,-53.22 -7.98,-81.55 22.26,-69.28 102.61,-129.67 175.9,-132.48 36.53,-1.39 71.85,2.52 105.43,18.62 52.14,25.05 87.55,83.05 84.33,139.73 -2.04,35.98 -26.47,63.09 -62.44,68.21 -24.94,3.54 -48.94,1.37 -71.8,-15.13z"/>
    <path class="fil0" d="M2878.17 2270c0.33,-14.49 10.02,-23.2 18.97,-32.39 1.8,15.81 -10.07,23.19 -18.97,32.39z"/>
    <path class="fil0" d="M2980.55 2242.23c-13.58,-1.18 -24.31,-6.35 -32.96,-22.79 16.43,4.97 24.25,14.72 32.96,22.79z"/>
    <path class="fil0" d="M2885.92 2230.98c-5.41,9.11 -10.82,18.21 -16.23,27.31 -1.37,-0.74 -2.75,-1.47 -4.13,-2.21 4.95,-9.35 9.92,-18.7 14.86,-28.06 1.83,0.99 3.66,1.97 5.5,2.95z"/>
    <path class="fil0" d="M2996.02 2241.64c-2.89,-3.69 -5.79,-7.37 -8.69,-11.06 1.18,-0.91 2.37,-1.82 3.54,-2.72 2.84,3.73 5.67,7.47 8.51,11.19 -1.12,0.87 -2.24,1.73 -3.37,2.59z"/>
   </g>
   <g>
    <path class="fil0" d="M2111.19 604.5c-46.2,43.96 -84.44,92.99 -100.84,155.95 46.57,-43.73 76.66,-97.96 100.84,-155.95zm15.46 4.86c-33.02,53.04 -66.04,106.08 -99.06,159.11 63.38,-33.76 85.7,-94.25 99.06,-159.11zm-118.79 115.37c26.69,-84.72 17.47,-158.83 -23.7,-234.7 8.03,79.39 15.52,153.67 23.7,234.7zm-38.48 -226.59c-2.53,0 -5.05,0 -7.57,-0.01 -2.81,39.95 -3.87,80.11 -8.91,119.79 -5.38,42.44 21.98,77.04 24.36,117.24 0.1,1.85 1.89,3.94 3.43,5.26 1.59,1.31 3.86,1.83 8.86,4.06 8.22,-84.47 -3.96,-165.57 -20.17,-246.33zm358.62 202.65c-51.27,9.98 -102.59,19.69 -153.79,30.01 -48.85,9.85 -89.48,34.52 -123.27,70.72 -4.78,5.14 -8.2,11.5 -15.73,22.27 107.31,7.07 194.2,-28.57 273.71,-87.42 -41.23,9.65 -81.91,20.99 -122.42,32.95 -40.18,11.87 -80.17,24.38 -120.25,36.62 81.28,-49.56 180.15,-50.82 261.75,-105.15zm-513.9 121.52c43.87,-2.5 81.47,-19.43 114.75,-45.79 10.74,-8.52 19.65,-20.79 26.01,-33.1 13.53,-26.17 0.72,-49.57 -28.57,-50.56 -65.73,-2.22 -122.33,21.34 -168.26,68.02 -19.18,19.5 -13.81,41.87 11.61,52.25 13.77,5.62 29.58,6.28 44.47,9.17zm348.2 161.31c-3.91,-58.28 -22.58,-98.95 -55.59,-133.2 -15.09,-15.66 -34,-13.57 -51.82,-8.27 -13.86,4.13 -21,24.14 -16.33,45.08 5.94,26.73 -0.81,50.26 -16.63,70.73 -14.27,18.47 -13.14,36.05 -2.19,54.08 8.43,13.89 16.94,28.46 28.46,39.58 37.95,36.72 79.44,18.74 96.02,-13.03 10.28,-19.68 14.22,-42.67 18.09,-54.98zm-280.52 56.88c67.89,0.04 138.99,-78.05 145.95,-123.58 0.31,-2.17 0.66,-4.34 0.79,-6.52 1.61,-28.7 -11.48,-49.69 -33.11,-67.51 -20.54,-16.93 -39.31,-6.1 -57.91,1.76 -35.92,15.22 -65.83,38.68 -88.74,70.48 -15.7,21.81 -26.19,45.54 -23.02,73.25 3.78,33 24.8,52.34 56.04,52.12zm147.97 -183.82c-1.42,-19.08 -5.26,-31.74 -2.37,-42.6 3.06,-11.51 12.53,-21.33 23.46,-38.63 -18.89,10.16 -30.95,16.65 -45.07,24.25 -10.81,-15.34 -21.19,-30.09 -33.46,-47.5 -9.47,11.08 -16.58,21.88 -26.02,29.94 -44.09,37.71 -94.5,59.8 -153.52,53.78 -15.43,-1.58 -32.06,-8.56 -44.56,-17.87 -20.87,-15.57 -22.93,-40.35 -6.97,-61.05 8.56,-11.09 19.48,-20.82 30.78,-29.23 50.15,-37.24 106.37,-53.94 174.2,-52.22 -11.83,-87.68 5.31,-173.13 18.58,-259.47 42.02,78.06 85.18,155.12 71.84,253.51 36.39,-42.58 69.43,-81.26 102.66,-120.15 19,43.95 9.49,78.63 -55.74,201.77 89.22,-50.89 190.19,-46.73 282.15,-76.83 4.8,-1.57 10.56,-0.2 16.29,-0.2 -21.1,61.13 -130.38,129.94 -262.24,165.47 11.62,18.35 24.1,35.76 34.18,54.44 23.5,43.53 29.33,89.63 11.53,136.3 -24.76,64.96 -90.75,75.57 -134.1,21.56 -13.43,-16.73 -22.26,-37.17 -33.59,-56.57 -15.24,10.72 -31.15,23.88 -48.89,33.84 -15,8.43 -31.58,15.57 -48.33,19.1 -54.73,11.52 -94.7,-26.68 -87.18,-82.33 1.46,-10.71 4.38,-21.7 9.04,-31.39 27.14,-56.43 71.82,-92.23 131.27,-111.07 21.45,-6.81 38.2,-1.96 53.26,13.61 5.01,5.2 10.96,9.5 22.8,19.55z"/>
    <path class="fil0" d="M1996.59 900.41c-6.94,-12.94 -12.63,-20.18 -14.28,-28.23 -0.7,-3.35 7.2,-8.47 11.2,-12.78 6.38,6.42 14.31,12.04 18.29,19.71 1.35,2.62 -7.13,10.37 -15.21,21.3z"/>
    <path class="fil0" d="M1883.85 907.37c10.94,-7.18 21.89,-14.38 32.83,-21.57 1.47,2.12 2.95,4.25 4.4,6.38 -9.65,9.18 -23.17,13.07 -33.92,20.75 -1.1,-1.85 -2.2,-3.7 -3.31,-5.56z"/>
    <path class="fil0" d="M1882.66 934.95c9.18,-5.72 18.37,-11.46 27.56,-17.18 -2.3,16.28 -14.56,17.91 -23.43,24.34 -1.38,-2.38 -2.76,-4.77 -4.13,-7.16z"/>
    <path class="fil0" d="M2091.56 903.29c24.87,14.62 14.27,28.63 6.96,43.96 -18.82,-12.89 -14.97,-27.16 -6.96,-43.96z"/>
    <path class="fil0" d="M2094.02 1012.77c5.15,6.22 11.3,10.63 10.64,13.49 -1.2,5.31 -6.39,9.69 -9.92,14.44 -3.82,-3.13 -11.01,-6.62 -10.74,-9.28 0.62,-5.44 5.27,-10.43 10.02,-18.66z"/>
    <path class="fil0" d="M1830.41 732.18c-5.87,10.42 -11.74,20.82 -20.5,36.37 -4.91,-22.8 2.76,-32.72 12.92,-41.44 2.53,1.69 5.05,3.39 7.58,5.07z"/>
    <path class="fil0" d="M1821.96 766.17c7.18,-9.41 14.35,-18.82 25.66,-33.67 3.09,24.2 -9.56,30.64 -18.38,39.38 -2.43,-1.91 -4.86,-3.81 -7.28,-5.71z"/>
    <path class="fil0" d="M1942.33 736.58c-5.19,-5.57 -9.96,-8.54 -9.67,-10.9 0.39,-3.32 4.56,-6.18 7.13,-9.23 2.38,2.02 6.46,3.81 6.76,6.11 0.46,3.25 -1.88,6.89 -4.21,14.02z"/>
    <path class="fil0" d="M2273.39 495.59c19.47,0 19.51,-30.27 0,-30.27 -19.46,0 -19.5,30.27 0,30.27l0 0z"/>
    <path class="fil0" d="M2442.88 1016.13c19.46,0 19.49,-30.27 0,-30.27 -19.47,0 -19.51,30.27 0,30.27l0 0z"/>
   </g>
   <path class="fil0" d="M1746.42 183.21c-29.14,0 -42.8,40.33 -14.43,47.42 1.89,0.4 3.6,0.61 5.59,0.61 16.51,0.05 33.02,0.24 49.52,0.8 20.83,0.99 41.05,-24.94 25.65,-41.63 -4.3,-4.3 -9.11,-6.08 -15.15,-6.37 -17.06,-0.58 -34.11,-0.77 -51.18,-0.83zm-251.87 67.45c17.96,-3.27 33.81,-24.19 21.08,-40.39 -5.11,-6.04 -13.54,-8.3 -21.31,-6.89 -17.46,2.83 -34.81,5.94 -52.17,9.34 -28.46,5.17 -35.11,45.93 -3.94,47.49 2.17,0 3.89,-0.17 5.97,-0.54 16.77,-3.27 33.51,-6.27 50.37,-9zm-825.58 423.33c19.79,-19.78 1.77,-47.98 -25.91,-35.53 -3.54,1.86 -6.02,3.52 -8.85,6.35 -73.87,74.26 -201.82,299.7 -103.69,188.46 45.95,-57.12 86.4,-106.96 138.44,-159.29zm-442.15 1075.13c0,-6.44 -2.73,-11.61 -7.72,-15.54 -17.07,-12.19 -43.56,3.69 -43.56,24.09 0.02,15.93 0.31,31.93 0.88,47.85 1.14,22.87 30.51,23.95 43.73,8.85 4.57,-4.9 7.86,-11.89 7.52,-18.78 -0.54,-15.47 -0.83,-30.99 -0.85,-46.47zm25.67 274.52c-6.06,-28.75 -53.91,-15.16 -50.74,14.98 2.53,15.48 6.08,31.4 9.38,46.76 4.09,19.43 29.64,18.92 41.94,6.62 6.33,-5.94 10.24,-15.03 8.41,-23.77 -3.18,-14.85 -6.18,-29.66 -8.99,-44.59zm72.93 260.06c-5.13,-13.19 -20.82,-15.32 -32.56,-9.73 -11.65,5.24 -21.09,19.73 -16.15,32.44 21.55,56.81 46.65,112.77 74.8,166.61 9.51,17.96 36.15,10.89 45.34,-4.75 4.02,-6.59 5.12,-15.25 1.46,-22.16 -27.46,-52.28 -51.96,-107.21 -72.9,-162.42zm189.41 350.93c-5.01,-6.83 -14.18,-9.47 -22.35,-7.84 -17.08,2.56 -32.92,23.89 -21.59,39.35 35.69,49.22 73.86,95.96 114.92,140.79 17.39,18.74 54.76,-4.97 44.57,-29.7 -0.98,-1.96 -1.8,-3.42 -3.33,-5.07 -40.12,-43.94 -77.3,-89.35 -112.22,-137.53zm274.52 290.39c-21.66,-17.33 -58.81,15.54 -38.41,37.5 11.51,10.09 25.22,20.43 37.5,29.69 18.03,14.42 51.76,-8.42 42,-32.1 -1.61,-3.23 -2.96,-4.98 -5.82,-7.27 -11.9,-9.1 -23.62,-18.38 -35.26,-27.81zm224.89 151.74c-21.36,-11.3 -51.29,14.41 -38.1,36.39 1.83,2.57 3.9,4.62 6.74,6.13 13.77,7.55 27.58,14.88 41.53,22.09 21.94,10.97 51.18,-16.21 37.22,-37.15 -2.15,-2.74 -3.81,-4.27 -6.95,-5.93 -13.59,-7.02 -27.03,-14.18 -40.44,-21.53zm1686.38 -151.17c-20.74,17.29 -9.25,46.61 18.07,39.77 4.84,-1.46 7.86,-3.08 11.89,-6.21 14.19,-11.64 28.09,-23.43 41.94,-35.45 23.1,-20.38 2.69,-51.28 -25.73,-36.32 -2.08,1.2 -3.91,2.43 -5.7,4.02 -13.36,11.61 -26.79,22.97 -40.47,34.2zm221.91 -223.19c-18.44,22.39 6.73,47.71 31.96,30.89 2.79,-1.97 4.83,-3.77 7.04,-6.46 11.37,-13.96 22.39,-28.31 33.23,-42.68 19.8,-27.41 -16.73,-49.61 -38.95,-24.42 -11.27,14.01 -21.87,28.65 -33.28,42.67zm167.8 -257.8c-10.97,20.85 10.02,38.17 30.44,28.49 6.41,-2.7 11.94,-8.12 15.13,-14.18 31.65,-61.39 59.15,-125.15 82.33,-190.2 2.48,-7.09 1.8,-14.38 -2.88,-20.32 -13.22,-15.62 -39.4,-4.99 -45.61,12.75 -22.4,62.77 -48.88,124.21 -79.43,183.46zm-123.12 -1585.8c5.01,6.83 14.17,9.47 22.35,7.84 17.08,-2.56 32.92,-23.89 21.59,-39.35 -35.83,-49.29 -74.15,-95.7 -115.3,-140.64 -8.68,-9.35 -23.43,-7.75 -33.29,-1 -11.45,7.63 -18.16,24.79 -7.81,35.94 39.97,42.89 77.99,89.79 112.46,137.21zm-275.19 -289.83c21.67,17.33 58.81,-15.54 38.41,-37.5 -43.12,-37.82 -103.01,-78.16 -151.82,-108.87 -25.24,-14.84 -56.58,21.7 -35.5,39.77l2.25 1.62c50.88,31.95 99.94,67.22 146.66,104.98zm-349 -212.04c24.23,10.77 53.36,-23.52 32.54,-41.36 -1.72,-1.26 -2.86,-2.04 -4.85,-2.93 -14.6,-6.31 -29.26,-12.54 -44.05,-18.38 -28.22,-10.4 -53.74,29.69 -28.91,43.65 14.42,6.76 30.45,12.61 45.26,19.02zm-267.46 -87.87c31.65,6.33 50.73,-39.12 19.8,-46.85 -16.06,-3.63 -32.13,-7.04 -48.28,-10.18 -28.4,-5.68 -49.62,35.38 -21.87,46.18 1.2,0.4 2.28,0.71 3.54,0.96 15.67,3.08 31.24,6.36 46.81,9.89z"/>
   <g>
    <path class="fil0" d="M668.48 2126.78c-1.57,0.26 -3.13,0.53 -4.7,0.79 -2.66,-4.49 -4.89,-9.32 -8.08,-13.41 -7.26,-9.33 -17.62,-11.45 -23.63,-4.75 -7.2,8.02 -3.76,15.98 2.39,22.49 10,10.57 23.12,15.07 37.31,15.75 15.29,0.72 25.53,-6.78 28,-21.74 4.07,-24.59 -0.08,-47.97 -17.52,-66.62 -6.4,-6.82 -16.47,-14.11 -24.97,-14.26 -18.06,-0.28 -37.31,0.87 -54.07,6.97 -44.15,16.06 -70.96,49.2 -83.67,94.3 -9.29,32.94 -5.77,65.5 1.77,97.98 15.04,64.7 87.81,128.93 153.6,136.3 26.92,3.02 50.54,-3.23 68.85,-23.76 4.73,-5.33 8.67,-12.94 9.47,-19.91 3.33,-28.62 -25,-64.71 -53.41,-69.11 -10.15,-1.56 -20.37,-1.16 -27.01,8.38 -5.55,7.95 -7.89,16.63 -1.78,25.7 6.98,10.4 16.71,15.35 29.14,15.41 13.58,0.07 6.49,-13.76 11.39,-20.56 10.41,15.65 9.19,22.76 -3.26,28.35 -15.99,7.18 -40.38,-2.66 -49.11,-19.83 -8.19,-16.11 -1.79,-35.76 14.68,-45.53 5.19,-3.07 10.86,-5.87 15,-10.1 22.45,-22.82 49.83,-35.31 81.03,-40.41 7.17,-1.18 14.28,-2.56 23.89,-4.3 -14.78,-23.4 -20,-48.89 -39.6,-66.61 -7.33,5.35 -12.93,11.19 -19.77,14.1 -14.63,6.2 -29.58,13.79 -45.01,15.63 -29.43,3.51 -51.16,-12.72 -68.44,-34.92 -6.76,-8.67 -6.7,-18.7 -0.42,-27.98 5.54,-8.21 13.48,-12.92 23.52,-11.73 10.79,1.28 18.56,7.25 21.55,18.06 1.38,5 1.92,10.2 2.84,15.3zm36.69 25.3c8.95,-5.27 18.12,-10.22 26.8,-15.9 23.24,-15.19 36.89,-12.49 49.61,12.58 10.02,19.76 17.87,40.62 27.94,63.91 -37.52,9.56 -76.03,13.99 -107.16,40.87 7.41,3.87 13.43,6.91 19.35,10.15 20.66,11.33 33.55,29.2 40.34,51.13 6.64,21.43 2.39,40.46 -14.62,56.68 -22.59,21.56 -49.35,26.27 -78.83,22.35 -72.13,-9.6 -145.83,-77.94 -161.63,-149.57 -7.86,-35.7 -10.28,-71.16 -0.41,-107.06 15.39,-55.76 66.17,-100.91 122.53,-107.81 35.77,-4.39 66.8,14.84 78.22,49.33 7.91,23.92 10.05,47.92 -2.13,73.35z"/>
    <path class="fil0" d="M615.67 2230.89c-14.32,2.24 -24.61,-5.74 -35.24,-12.92 15.24,-4.57 24.62,5.79 35.24,12.92z"/>
    <path class="fil0" d="M570.15 2135.06c1.25,13.57 -1.93,25.05 -16.57,36.48 1.98,-17.05 10.19,-26.48 16.57,-36.48z"/>
    <path class="fil0" d="M575.89 2230.19c9.92,3.7 19.84,7.41 29.76,11.12 -0.48,1.48 -0.96,2.97 -1.44,4.46 -10.07,-3.21 -20.16,-6.43 -30.25,-9.64 0.65,-1.98 1.29,-3.95 1.93,-5.93z"/>
    <path class="fil0" d="M566.83 2119.94c-3.11,3.5 -6.23,7.01 -9.34,10.51 -1.1,-1 -2.21,-2.01 -3.31,-3 3.17,-3.46 6.34,-6.9 9.5,-10.36 1.06,0.95 2.1,1.9 3.15,2.85z"/>
   </g>
  </g>
 </g>
</svg>
