<svg aria-hidden="true" style="position: absolute; width: 0; height: 0; overflow: hidden;" version="1.1" xmlns="http://www.w3.org/2000/svg" xmlns:xlink="http://www.w3.org/1999/xlink">
<defs>
<symbol id="icon-youtube" viewBox="0 0 31 32">
<path d="M20.010 15.162l-5.758-4c-0.15-0.101-0.335-0.161-0.534-0.161-0.164 0-0.319 0.041-0.455 0.113l0.005-0.003c-0.156 0.089-0.281 0.215-0.367 0.366l-0.003 0.005c-0.084 0.146-0.134 0.322-0.134 0.509 0 0.003 0 0.006 0 0.009v-0 8c-0.001 0.181 0.045 0.36 0.134 0.516s0.214 0.282 0.365 0.368l0.005 0.003c0.132 0.071 0.289 0.113 0.456 0.113h0c0.197-0.003 0.379-0.063 0.532-0.165l-0.004 0.002 5.759-4c0.134-0.093 0.243-0.214 0.317-0.356l0.003-0.005c0.073-0.138 0.116-0.302 0.116-0.476s-0.043-0.338-0.119-0.482l0.003 0.006c-0.077-0.148-0.185-0.269-0.317-0.36l-0.003-0.002zM14.684 18.137v-4.275l3.071 2.138-3.071 2.137zM28.397 8.725c-0.116-0.48-0.335-0.898-0.632-1.246l0.003 0.004c-0.295-0.346-0.668-0.618-1.091-0.789l-0.019-0.007c-4.105-1.65-10.656-1.637-11.015-1.637-0.36 0-6.911-0.013-11.014 1.637-0.442 0.178-0.815 0.45-1.107 0.792l-0.003 0.004c-0.294 0.344-0.513 0.762-0.626 1.222l-0.004 0.020c-0.312 1.237-0.684 3.512-0.684 7.275s0.372 6.037 0.684 7.275c0.11 0.46 0.326 0.887 0.63 1.242 0.295 0.346 0.668 0.617 1.091 0.788l0.019 0.007c3.936 1.588 10.103 1.638 10.931 1.638h0.167c0.828 0 6.995-0.050 10.93-1.638 0.427-0.168 0.808-0.44 1.111-0.795 0.294-0.344 0.513-0.762 0.626-1.222l0.004-0.020c0.311-1.238 0.683-3.513 0.683-7.275s-0.372-6.038-0.684-7.275zM26.537 22.775c-0.037 0.158-0.108 0.295-0.204 0.411l0.001-0.002c-0.096 0.115-0.216 0.205-0.354 0.264l-0.006 0.002c-3.804 1.525-10.258 1.5-10.33 1.5h-0.012c-0.060 0-6.515 0.025-10.319-1.5-0.144-0.061-0.264-0.151-0.359-0.265l-0.001-0.002c-0.095-0.114-0.166-0.252-0.202-0.403l-0.001-0.007c-0.288-1.137-0.624-3.224-0.624-6.774s0.336-5.638 0.624-6.775c0.037-0.158 0.108-0.296 0.204-0.412l-0.001 0.002c0.096-0.114 0.216-0.204 0.354-0.263l0.006-0.002c3.66-1.463 9.803-1.5 10.307-1.5h0.024c0.072 0 6.526-0.025 10.33 1.5 0.144 0.061 0.264 0.151 0.359 0.264l0.001 0.002c0.095 0.114 0.166 0.251 0.203 0.402l0.001 0.007c0.288 1.137 0.623 3.225 0.623 6.775s-0.335 5.637-0.623 6.775z"></path>
</symbol>
<symbol id="icon-pinterest" viewBox="0 0 32 32">
<path d="M26.772 14c0 2.825-0.947 5.4-2.663 7.263s-3.792 2.737-5.975 2.737c-2.184 0-3.575-0.737-4.487-1.5l-1.296 5.725c-0.050 0.22-0.17 0.415-0.34 0.555-0.16 0.135-0.368 0.217-0.595 0.22h-0.001l-0.216-0.025c-0.131-0.032-0.245-0.087-0.344-0.162l0.002 0.002c-0.103-0.077-0.188-0.172-0.254-0.28l-0.002-0.004c-0.092-0.151-0.147-0.334-0.147-0.53 0-0.080 0.009-0.158 0.027-0.233l-0.001 0.007 3.84-17c0.058-0.262 0.212-0.48 0.422-0.621l0.004-0.002c0.143-0.095 0.32-0.152 0.509-0.152 0.076 0 0.151 0.009 0.222 0.027l-0.006-0.001c0.249 0.060 0.464 0.22 0.599 0.445s0.179 0.497 0.121 0.755l-2.027 8.975c0.372 0.55 1.487 1.8 3.97 1.8 3.3 0 6.72-2.987 6.72-8 0-0.001 0-0.003 0-0.005 0-1.471-0.341-2.862-0.948-4.098l0.024 0.055c-0.621-1.274-1.491-2.339-2.552-3.168l-0.020-0.015c-1.025-0.801-2.265-1.376-3.619-1.629l-0.052-0.008c-0.443-0.084-0.952-0.132-1.472-0.132-0.898 0-1.762 0.143-2.572 0.406l0.059-0.017c-1.352 0.439-2.509 1.16-3.449 2.098l0-0c-0.957 0.955-1.701 2.123-2.155 3.427l-0.019 0.063c-0.318 0.901-0.502 1.94-0.502 3.022 0 0.393 0.024 0.78 0.071 1.16l-0.005-0.046c0.178 1.466 0.675 2.788 1.42 3.934l-0.022-0.036c0.102 0.157 0.163 0.348 0.163 0.554 0 0.069-0.007 0.137-0.020 0.203l0.001-0.007c-0.027 0.137-0.077 0.258-0.146 0.365l0.002-0.004c-0.138 0.215-0.352 0.37-0.603 0.429l-0.007 0.001c-0.058 0.013-0.124 0.021-0.193 0.021-0.199 0-0.383-0.064-0.533-0.172l0.003 0.002c-0.106-0.075-0.193-0.168-0.261-0.275l-0.002-0.004c-0.883-1.357-1.489-2.972-1.702-4.71l-0.005-0.054c-0.052-0.408-0.081-0.88-0.081-1.359 0-1.323 0.225-2.594 0.638-3.776l-0.024 0.080c0.578-1.671 1.488-3.098 2.657-4.265l0-0c1.149-1.146 2.562-2.027 4.141-2.543l0.074-0.021c0.918-0.302 1.974-0.476 3.071-0.476 0.636 0 1.259 0.059 1.862 0.17l-0.063-0.010c1.625 0.293 3.162 0.978 4.487 2.001 1.322 1.032 2.384 2.333 3.116 3.826l0.028 0.064c0.712 1.444 1.128 3.143 1.128 4.939 0 0.003 0 0.006 0 0.008v-0z"></path>
</symbol>
<symbol id="icon-instagram" viewBox="0 0 32 32">
<path d="M15.786 10c-1.14 0-2.253 0.352-3.2 1.011-0.945 0.669-1.676 1.584-2.106 2.653l-0.014 0.040c-0.278 0.68-0.439 1.47-0.439 2.297 0 0.413 0.040 0.818 0.117 1.209l-0.006-0.039c0.232 1.204 0.79 2.25 1.578 3.075l-0.002-0.002c0.773 0.81 1.779 1.391 2.911 1.635l0.037 0.007c0.338 0.073 0.726 0.115 1.124 0.115 0.797 0 1.555-0.168 2.24-0.471l-0.035 0.014c1.078-0.478 1.959-1.238 2.57-2.187l0.014-0.023c0.608-0.941 0.97-2.090 0.97-3.324 0-0.003 0-0.006 0-0.010v0.001c0-0.006 0-0.013 0-0.021 0-1.638-0.642-3.125-1.688-4.225l0.002 0.003c-1.026-1.079-2.47-1.751-4.071-1.757h-0.001zM15.786 20c-0.799-0.001-1.538-0.253-2.145-0.682l0.012 0.008c-0.63-0.446-1.118-1.056-1.405-1.768l-0.009-0.027c-0.185-0.454-0.293-0.98-0.293-1.532 0-0.276 0.027-0.545 0.078-0.805l-0.004 0.026c0.155-0.802 0.527-1.5 1.052-2.050l-0.001 0.002c0.515-0.54 1.187-0.927 1.941-1.090l0.025-0.005c0.225-0.049 0.484-0.077 0.749-0.077 0.531 0 1.036 0.112 1.493 0.314l-0.024-0.009c0.719 0.318 1.306 0.825 1.714 1.458l0.009 0.015c0.406 0.627 0.647 1.393 0.647 2.216 0 1.097-0.429 2.095-1.128 2.833l0.002-0.002c-0.684 0.719-1.645 1.168-2.712 1.175h-0.001zM21.065 3.5h-10.558c-1.782 0-3.491 0.737-4.751 2.050-1.218 1.28-1.968 3.016-1.968 4.927 0 0.008 0 0.016 0 0.024v-0.001 11c0 1.857 0.708 3.637 1.968 4.95 1.197 1.258 2.881 2.043 4.749 2.050h10.56c1.782 0 3.49-0.738 4.75-2.050 1.219-1.28 1.969-3.016 1.969-4.927 0-0.008 0-0.016-0-0.024v0.001-11c0-0.007 0-0.015 0-0.023 0-1.911-0.75-3.647-1.971-4.93l0.003 0.003c-1.197-1.258-2.882-2.043-4.75-2.050h-0.001zM25.864 21.5c0 0.657-0.124 1.307-0.365 1.913-0.253 0.629-0.605 1.168-1.042 1.624l0.002-0.002c-0.433 0.452-0.951 0.818-1.528 1.073l-0.031 0.012c-0.541 0.24-1.172 0.38-1.836 0.381h-10.557c-0.63 0-1.254-0.13-1.837-0.38-0.608-0.267-1.125-0.634-1.555-1.083l-0.002-0.002c-0.435-0.454-0.787-0.993-1.028-1.588l-0.012-0.034c-0.231-0.566-0.365-1.223-0.365-1.91 0-0.001 0-0.002 0-0.003v0-11c0-1.326 0.505-2.598 1.405-3.536 0.855-0.899 2.058-1.46 3.393-1.465h10.559c0.63 0 1.254 0.13 1.836 0.38 0.583 0.252 1.112 0.62 1.557 1.084 0.435 0.455 0.787 0.994 1.028 1.589l0.012 0.034c0.242 0.606 0.366 1.256 0.366 1.913v11zM23.464 9.5c0 0.297-0.084 0.587-0.242 0.833-0.156 0.243-0.376 0.433-0.637 0.549l-0.009 0.004c-0.162 0.072-0.351 0.114-0.55 0.114-0.1 0-0.197-0.011-0.291-0.031l0.009 0.002c-0.28-0.058-0.536-0.2-0.737-0.41-0.196-0.206-0.336-0.467-0.392-0.758l-0.002-0.010c-0.018-0.088-0.028-0.189-0.028-0.293 0-0.207 0.040-0.404 0.113-0.585l-0.004 0.010c0.108-0.274 0.293-0.508 0.53-0.673s0.515-0.253 0.8-0.253c0.382 0 0.748 0.158 1.018 0.44 0.27 0.28 0.421 0.662 0.421 1.060z"></path>
</symbol>
<symbol id="icon-facebook" viewBox="0 0 31 32">
<path d="M27.835 16c0-0.005 0-0.012 0-0.018 0-2.674-0.784-5.166-2.135-7.256l0.032 0.053c-1.355-2.107-3.263-3.753-5.52-4.756l-0.080-0.032c-1.407-0.625-3.048-0.989-4.774-0.989-0.862 0-1.703 0.091-2.514 0.263l0.079-0.014c-2.533 0.545-4.713 1.804-6.383 3.553l-0.005 0.005c-1.703 1.782-2.912 4.049-3.402 6.573l-0.013 0.083c-0.153 0.762-0.24 1.638-0.24 2.534 0 1.792 0.349 3.502 0.982 5.066l-0.032-0.091c0.962 2.402 2.546 4.385 4.555 5.808l0.040 0.027c1.932 1.367 4.337 2.187 6.932 2.191h0.001c3.308-0.003 6.48-1.374 8.82-3.811 2.338-2.438 3.654-5.742 3.657-9.189zM16.317 26.95v-7.95h2.88c0.267-0.001 0.507-0.113 0.678-0.293l0-0c0.18-0.187 0.282-0.442 0.282-0.707s-0.102-0.52-0.282-0.707c-0.171-0.18-0.411-0.292-0.678-0.293h-2.88v-3c0-0.53 0.203-1.040 0.563-1.414s0.848-0.586 1.357-0.586h1.92c0.267-0.001 0.507-0.113 0.678-0.293l0-0c0.18-0.187 0.281-0.442 0.281-0.707s-0.1-0.52-0.28-0.707c-0.171-0.18-0.412-0.292-0.68-0.293h-1.919c-1.067 0.008-2.028 0.457-2.71 1.173l-0.002 0.002c-0.698 0.734-1.128 1.729-1.128 2.824 0 0 0 0 0 0.001v-0 3h-2.88c-0.267 0.001-0.507 0.113-0.678 0.293l-0 0c-0.18 0.187-0.281 0.442-0.281 0.707s0.1 0.52 0.28 0.707c0.171 0.18 0.412 0.292 0.68 0.293h2.879v7.95c-2.706-0.257-5.212-1.591-6.998-3.725s-2.713-4.902-2.59-7.73c0.124-2.828 1.29-5.497 3.254-7.453s4.577-3.046 7.294-3.046 5.329 1.090 7.293 3.046c1.965 1.956 3.13 4.625 3.254 7.453 0.123 2.828-0.804 5.596-2.59 7.73-1.786 2.133-4.292 3.468-6.998 3.725z"></path>
</symbol>
</defs>
</svg>
